<svg width="16" height="16" viewBox="0 0 16 16" fill="none" xmlns="http://www.w3.org/2000/svg">
<g id="Frame 88" clip-path="url(#clip0_1113_18407)">
<path id="Vector" d="M6 9.50214C6 10.3324 6.59881 11 7.33334 11H8.83432C9.47304 11 9.99201 10.418 9.99201 9.69044C9.99201 8.91155 9.67266 8.6291 9.2016 8.44936L6.7984 7.55064C6.32734 7.3709 6.00799 7.097 6.00799 6.30956C6.00799 5.59058 6.52694 5 7.16566 5H8.66666C9.40119 5 10 5.66762 10 6.49786" stroke="#292D32" stroke-linecap="round" stroke-linejoin="round"/>
<path id="Vector_2" d="M8 4V12" stroke="#292D32" stroke-linecap="round" stroke-linejoin="round"/>
<path id="Vector_3" d="M10 13.4924L11.5865 15L15 12" stroke="#FFC220" stroke-width="1.5" stroke-linecap="round" stroke-linejoin="round"/>
<path id="Vector_4" d="M15 9.1V5.9C15 2.4 13.6 1 10.1 1H5.9C2.4 1 1 2.4 1 5.9V10.1C1 13.6 2.4 15 5.9 15H7.5" stroke="#292D32" stroke-width="1.5" stroke-linecap="round" stroke-linejoin="round"/>
</g>
<defs>
<clipPath id="clip0_1113_18407">
<rect width="16" height="16" fill="white"/>
</clipPath>
</defs>
</svg>
