<svg width="16" height="15" viewBox="0 0 16 15" fill="none" xmlns="http://www.w3.org/2000/svg">
<g id="Group 1000003812">
<path id="Vector" d="M3.83301 6.5H9.83301" stroke="#292D32" stroke-width="1.5" stroke-linecap="round" stroke-linejoin="round"/>
<path id="Vector_2" d="M3.83301 3.83334H7.83301" stroke="#292D32" stroke-width="1.5" stroke-linecap="round" stroke-linejoin="round"/>
<path id="Union" fill-rule="evenodd" clip-rule="evenodd" d="M6.83333 14.4233C7.24755 14.4233 7.58333 14.0876 7.58333 13.6733C7.58333 13.2591 7.24755 12.9233 6.83333 12.9233H5.83333C4.24064 12.9233 3.32086 12.6002 2.78033 12.0597C2.2398 11.5191 1.91667 10.5994 1.91667 9.00667L1.91667 5.16667C1.91667 3.57397 2.2398 2.65419 2.78033 2.11366C3.32086 1.57313 4.24064 1.25 5.83333 1.25L9.83333 1.25C11.426 1.25 12.3458 1.57313 12.8863 2.11366C13.4269 2.65419 13.75 3.57397 13.75 5.16667L13.75 6.5C13.75 6.91421 14.0858 7.25 14.5 7.25C14.9142 7.25 15.25 6.91421 15.25 6.5V5.16667C15.25 3.42603 14.9065 2.01247 13.947 1.053C12.9875 0.0935345 11.574 -0.25 9.83333 -0.25L5.83333 -0.25C4.0927 -0.25 2.67914 0.0935345 1.71967 1.053C0.760202 2.01247 0.416668 3.42603 0.416668 5.16667L0.416668 9.00667V9.16667C0.416668 9.18394 0.417252 9.20108 0.418402 9.21807C0.445723 10.8619 0.799345 12.2 1.71967 13.1203C2.67914 14.0798 4.0927 14.4233 5.83333 14.4233H6.83333Z" fill="#292D32"/>
</g>
</svg>
