<svg width="24" height="24" viewBox="0 0 24 24" fill="none" xmlns="http://www.w3.org/2000/svg">
<g clip-path="url(#clip0_138_2735)">
<path d="M4.75 8.33333V12M18.25 8.33333V12.3667M18.25 12.3667L21.186 10.6442C21.643 10.3761 21.8115 9.79813 21.5703 9.3264L18.7514 3.8138C18.6687 3.6521 18.5435 3.51597 18.3893 3.42003L14.5 1M18.25 12.3667V15.5M14.5 1C14.375 1.85556 13.675 3.56667 11.875 3.56667C9.625 3.56667 9.125 1.85556 8.875 1M14.5 1C13.875 1.24444 13 1.73333 11.875 1.73333C10.75 1.73333 9.375 1.24444 8.875 1M8.875 1L4.30286 3.40721C4.10654 3.51057 3.95017 3.67628 3.85837 3.87826L1.40234 9.28152C1.17833 9.77435 1.38716 10.3559 1.8735 10.5937L4.75 12M4.75 12V17" stroke="#292D32" stroke-width="1.5" stroke-linecap="round" stroke-linejoin="round"/>
<path d="M23 16.5C22.3334 16.5 20.5 17.5 19.5 19.5C18.8551 20.79 19 22.5 19 23" stroke="#FFC220" stroke-width="1.5" stroke-linecap="round" stroke-linejoin="round"/>
<path d="M9.5 15.5L10.5 17M13 15.5L12.2188 14.3281" stroke="#FFC220" stroke-width="1.5" stroke-linecap="round" stroke-linejoin="round"/>
<path d="M4.63489 17.1997C2.85557 17.6018 2.43555 18.339 2.26246 18.6294C1.88965 19.2549 1.99415 19.9772 2.093 20.2601C2.23422 20.9452 3.29616 22.4002 6.41421 22.7397C9.30525 23.0545 17.549 23.0733 22.0208 23.015C22.566 23.0079 23 22.5631 23 22.0179V21.5V21V16.3955V14.2198C23 14.064 22.9672 13.9054 22.8575 13.7947C22.7392 13.6754 22.5547 13.5472 22.301 13.4915C22.1804 13.465 22.0618 13.4575 21.951 13.4619C21.5803 13.4769 21.369 13.8354 21.369 14.2064V14.3405C21.369 14.5715 21.289 14.7973 21.1067 14.9392C20.8561 15.1343 20.4458 15.3898 19.865 15.6136C19.1235 15.8993 18.4001 15.8044 18 15.6828M4.63489 17.1997C5.6875 17.1997 6.5 17.3706 7.5 18.5C8.5 19.6294 8 22 8 22M4.63489 17.1997C5.69611 16.9599 6.7272 16.6565 7.79106 16.2326C8.29684 16.0312 8.81002 15.8024 9.33737 15.5404C9.56061 15.4294 9.78638 15.3125 10.0152 15.1892C10.2977 15.037 10.5578 14.895 10.799 14.7628C11.4522 14.4047 11.9664 14.1178 12.4088 13.8907C12.9056 13.6356 13.3117 13.4559 13.7221 13.3351C14.068 13.2333 14.3543 13.1577 14.5749 13.1039C14.8769 13.0303 15.1888 13.1254 15.4143 13.3394L17.0478 14.8899L17.6857 15.4953C17.7682 15.5736 17.8628 15.6393 17.9712 15.6739C17.9806 15.6769 17.9902 15.6799 18 15.6828M8 22C9.31475 21.619 11.4442 20.8125 13.7221 19.4062C16 18 17.1667 16.4552 18 15.6828M8 22C7.79106 22.7397 7.79106 22.8462 7.79106 22.8462" stroke="#292D32" stroke-width="1.5" stroke-linecap="round" stroke-linejoin="round"/>
</g>
<defs>
<clipPath id="clip0_138_2735">
<rect width="24" height="24" fill="white"/>
</clipPath>
</defs>
</svg>
