<svg width="24" height="24" viewBox="0 0 24 24" fill="none" xmlns="http://www.w3.org/2000/svg">
<g clip-path="url(#clip0_132_2431)">
<path d="M17.0099 12.73C17.6009 12.73 18.0799 12.2509 18.0799 11.66C18.0799 11.069 17.6009 10.59 17.0099 10.59C16.419 10.59 15.9399 11.069 15.9399 11.66C15.9399 12.2509 16.419 12.73 17.0099 12.73Z" stroke="#292D32" stroke-width="1.5" stroke-linecap="round" stroke-linejoin="round"/>
<path d="M22 7.5V5.67153C22 1.93431 21.0667 1 17.3333 1H5.66667C1.93333 1 1 1.93431 1 5.67153V12.3285C1 16.0657 1.93333 17 5.66667 17H11" stroke="#292D32" stroke-width="1.5" stroke-linecap="round" stroke-linejoin="round"/>
<path d="M8 17V22" stroke="#292D32" stroke-width="1.5" stroke-linecap="round" stroke-linejoin="round"/>
<path d="M1 13H11" stroke="#292D32" stroke-width="1.5" stroke-linecap="round" stroke-linejoin="round"/>
<path d="M5 22H11" stroke="#292D32" stroke-width="1.5" stroke-linecap="round" stroke-linejoin="round"/>
<path d="M17.0101 12.73C17.601 12.73 18.08 12.2509 18.08 11.66C18.08 11.069 17.601 10.59 17.0101 10.59C16.4191 10.59 15.9401 11.069 15.9401 11.66C15.9401 12.2509 16.4191 12.73 17.0101 12.73Z" stroke="#FFC220" stroke-width="1.5" stroke-miterlimit="10" stroke-linecap="round" stroke-linejoin="round"/>
<path d="M20.5952 7.05609C20.2946 7.02243 19.9459 7 19.5731 7H14.4269C11.8537 7 11 7.79667 11 10.1978V19.8023C11 22.2034 11.8537 23 14.4269 23H19.5731C22.1463 23 23 22.2034 23 19.8023V10.1978C23 8.1445 22.3748 7.26927 20.5952 7.05609Z" stroke="#FFC220" stroke-width="1.5" stroke-miterlimit="10" stroke-linecap="round" stroke-linejoin="round"/>
<path d="M19.15 17.01C19.15 18.19 18.19 19.15 17.01 19.15C15.83 19.15 14.87 18.19 14.87 17.01C14.87 16.52 15.04 16.06 15.32 15.7C15.71 15.2 16.32 14.87 17.01 14.87C17.55 14.87 18.04 15.07 18.41 15.39C18.86 15.79 19.15 16.37 19.15 17.01Z" stroke="#FFC220" stroke-width="1.5" stroke-miterlimit="10" stroke-linecap="round" stroke-linejoin="round"/>
<path d="M17.0101 12.73C17.601 12.73 18.08 12.2509 18.08 11.66C18.08 11.069 17.601 10.59 17.0101 10.59C16.4191 10.59 15.9401 11.069 15.9401 11.66C15.9401 12.2509 16.4191 12.73 17.0101 12.73Z" stroke="#FFC220" stroke-width="1.5" stroke-miterlimit="10" stroke-linecap="round" stroke-linejoin="round"/>
</g>
<defs>
<clipPath id="clip0_132_2431">
<rect width="24" height="24" fill="white"/>
</clipPath>
</defs>
</svg>
