<svg width="24" height="24" viewBox="0 0 24 24" fill="none" xmlns="http://www.w3.org/2000/svg">
<path d="M12 16V11C12 9.89543 11.1046 9 10 9H4C2.89543 9 2 9.89543 2 11V21C2 22.1046 2.89543 23 4 23H11" stroke="#292D32" stroke-width="1.5" stroke-linecap="round" stroke-linejoin="round"/>
<rect x="3" y="7" width="8" height="2" rx="1" stroke="#292D32" stroke-width="1.5" stroke-linejoin="round"/>
<path d="M9.02703 7V7C9.55872 6.53161 9.59586 5.71562 9.10892 5.20086L8.46208 4.51706C8.09593 4.12998 7.89189 3.61738 7.89189 3.08455V1.97297C7.89189 1.43561 7.45628 1 6.91892 1V1C6.38156 1 5.94595 1.43562 5.94595 1.97297V3.11925C5.94595 3.63183 5.76017 4.12704 5.42303 4.51315L4.77604 5.25411C4.33598 5.75808 4.35104 6.51395 4.81081 7V7" stroke="#292D32" stroke-width="1.5" stroke-linejoin="round"/>
<path d="M18.5 14C18.9885 14.5861 20.1686 16.1037 20.5742 16.7363C21.1379 17.6154 21.2506 19.3736 20.2359 20.9121C19.7651 21.626 18.9744 22.1838 18.2524 22.5495C17.5057 22.9277 16.6566 23 15.8195 23H13.026C11.2451 23 9.41629 22.6196 8.21284 21.3069C7.47372 20.5007 6.76277 19.4449 6.36878 18.1648C5.35411 14.8681 6.707 13 7.15796 13C7.60893 13 7.79214 13.6594 8.17264 14.6484V14.6484C8.64669 15.8805 10.1033 16.3359 11.4214 16.2602C11.8267 16.2369 12.2316 16.1829 12.5695 16.0769C13.2256 15.8713 13.5842 15.7473 14.1479 15.3077C14.7116 14.8682 14.9167 14.6038 15 14C15.0267 13.8066 15 13 15 13" stroke="#FFC220" stroke-width="1.5" stroke-linecap="round" stroke-linejoin="round"/>
<circle cx="18.5" cy="9.5" r="0.5" fill="#FFC220" stroke="#FFC220" stroke-width="0.5"/>
<path d="M16.9668 17C17.1411 17.2884 17.8327 18.154 18 18.5C18.2091 18.9325 18.5 20 17 20.5C15.3007 21.0664 12.8888 20.7847 12.366 20.4603C11.8432 20.1359 11.9477 19.5952 12.2614 19.3789C12.5124 19.2059 13.3419 18.7301 13.7253 18.5139" stroke="#FFC220" stroke-width="1.5" stroke-linecap="round" stroke-linejoin="round"/>
<path d="M15 13C14.3814 12.3687 14 11.4537 14 10.5C14 8.567 15.567 7 17.5 7C19.433 7 21 8.567 21 10.5C21 12.0615 19.9121 13.5493 18.5 14" stroke="#FFC220" stroke-width="1.5" stroke-linecap="round"/>
<path d="M21 9.5L23 10L21 11" stroke="#FFC220" stroke-width="1.5" stroke-linecap="round" stroke-linejoin="round"/>
</svg>
