<svg width="24" height="24" viewBox="0 0 24 24" fill="none" xmlns="http://www.w3.org/2000/svg">
<path fill-rule="evenodd" clip-rule="evenodd" d="M13.375 4.75C13.375 4.33579 13.7108 4 14.125 4H14.75C16.4486 4 17.6296 4.30096 18.1687 5.36194C18.3563 5.73123 18.209 6.18269 17.8398 6.37031C17.4705 6.55793 17.019 6.41067 16.8314 6.04139C16.7257 5.83348 16.4308 5.5 14.75 5.5H14.125C13.7108 5.5 13.375 5.16421 13.375 4.75ZM8.74724 15.6059C8.7486 15.7296 8.75003 15.86 8.75003 16C8.75003 16.4142 8.41424 16.75 8.00003 16.75C7.58582 16.75 7.25003 16.4142 7.25003 16C7.25003 15.899 7.24886 15.7912 7.24765 15.6796C7.24437 15.3776 7.24078 15.0473 7.25924 14.746C7.28527 14.3212 7.35757 13.846 7.58366 13.4083C8.08842 12.4311 9.14194 12 10.75 12H14.75C15.1642 12 15.5 12.3358 15.5 12.75C15.5 13.1642 15.1642 13.5 14.75 13.5H10.75C9.35807 13.5 9.0366 13.8639 8.91638 14.0967C8.82997 14.264 8.77728 14.4975 8.75643 14.8377C8.74148 15.0818 8.74417 15.3269 8.74724 15.6059Z" fill="#292D32"/>
<path d="M18.2642 3.92232C18.3427 3.6999 18.6573 3.6999 18.7358 3.92232L22.0857 13.4168C22.143 13.5795 22.0224 13.75 21.8499 13.75H15.1501C14.9776 13.75 14.857 13.5795 14.9143 13.4168L18.2642 3.92232Z" stroke="#FFC220" stroke-width="1.5" stroke-linejoin="round"/>
<path d="M18.5 14V17.2941M18.5 17.2941H18C17.4477 17.2941 17 17.7418 17 18.2941V21C17 21.5523 17.4477 22 18 22H19C19.5523 22 20 21.5523 20 21V18.2941C20 17.7418 19.5523 17.2941 19 17.2941H18.5Z" stroke="#FFC220" stroke-width="1.5" stroke-linecap="round"/>
<rect x="6" y="16" width="4" height="6" rx="1" stroke="#292D32" stroke-width="1.5" stroke-linejoin="round"/>
<rect x="2" y="2" width="12" height="6" rx="2.5" stroke="#292D32" stroke-width="1.5" stroke-linejoin="round"/>
</svg>
