<svg width="24" height="24" viewBox="0 0 24 24" fill="none" xmlns="http://www.w3.org/2000/svg">
<path d="M20.98 22.01V18" stroke="#FFC220" stroke-width="1.5" stroke-miterlimit="10" stroke-linecap="round" stroke-linejoin="round"/>
<path d="M21 12C19.9 12 19 12.9 19 14V16C19 17.1 19.9 18 21 18C22.1 18 23 17.1 23 16V14C23 12.9 22.1 12 21 12Z" stroke="#FFC220" stroke-width="1.5" stroke-miterlimit="10" stroke-linecap="round" stroke-linejoin="round"/>
<path d="M1 23L23 23" stroke="white" stroke-width="1.5" stroke-miterlimit="10" stroke-linecap="round" stroke-linejoin="round"/>
<path d="M2 23L2.04155 10.0246C2.04155 9.36668 2.28255 8.74116 2.68144 8.3313L8.49861 2.453C9.09695 1.849 9.93629 1.849 10.5429 2.453L16.3601 8.3205C16.7673 8.73036 17 9.35589 17 10.0246V23" stroke="white" stroke-width="1.5" stroke-miterlimit="10" stroke-linejoin="round"/>
<path d="M10.5 17H8.5C7.67 17 7 17.804 7 18.8V23H12V18.8C12 17.804 11.33 17 10.5 17Z" stroke="white" stroke-width="1.5" stroke-miterlimit="10" stroke-linejoin="round"/>
<path d="M7.25 14H5.75C5.3375 14 5 13.6143 5 13.1429V11.8571C5 11.3857 5.3375 11 5.75 11H7.25C7.6625 11 8 11.3857 8 11.8571V13.1429C8 13.6143 7.6625 14 7.25 14Z" stroke="white" stroke-width="1.5" stroke-miterlimit="10" stroke-linejoin="round"/>
<path d="M13.25 14H11.75C11.3375 14 11 13.6143 11 13.1429V11.8571C11 11.3857 11.3375 11 11.75 11H13.25C13.6625 11 14 11.3857 14 11.8571V13.1429C14 13.6143 13.6625 14 13.25 14Z" stroke="white" stroke-width="1.5" stroke-miterlimit="10" stroke-linejoin="round"/>
<path d="M15.9779 7.5V3H11.5" stroke="white" stroke-width="1.5" stroke-miterlimit="10" stroke-linecap="round" stroke-linejoin="round"/>
</svg>
