<svg width="24" height="24" viewBox="0 0 24 24" fill="none" xmlns="http://www.w3.org/2000/svg">
<path d="M7.5 22H4.55339C4.03108 22 3.59675 21.598 3.55638 21.0773L3.23862 16.9783M11.5349 6.93478L11.9155 2.07813C11.9611 1.49683 11.5016 1 10.9186 1H3.08052C2.49777 1 2.03847 1.49629 2.08351 2.07729L3.23862 16.9783M3.23862 16.9783H6.81395" stroke="#292D32" stroke-width="1.5" stroke-linecap="round" stroke-linejoin="round"/>
<path d="M9.0109 10C8.93167 9.13043 9.2486 7.3913 11.1501 7.3913C13.527 7.3913 15.904 7.3913 17.0924 6.73913C17.4835 6.5245 17.8612 6.25347 18.1925 5.98353C18.7314 5.54429 19.6173 5.63735 19.8223 6.30169C19.9778 6.80539 20.0627 7.39611 19.9447 8.04348C19.707 9.34783 18.994 9.56522 18.5186 10" stroke="#FFC220" stroke-width="1.5" stroke-linecap="round" stroke-linejoin="round"/>
<rect x="7" y="10" width="14" height="13" rx="3" stroke="#292D32" stroke-width="1.5" stroke-linejoin="round"/>
<path d="M10.5 14H17.5" stroke="#292D32" stroke-width="1.5" stroke-linecap="round" stroke-linejoin="round"/>
</svg>
