<svg width="24" height="24" viewBox="0 0 24 24" fill="none" xmlns="http://www.w3.org/2000/svg">
<g clip-path="url(#clip0_138_2743)">
<path d="M3.20418 23H12V3C12 1.89543 11.1046 1 10 1H3C1.89543 1 1 1.89543 1 3V20.9215C1 22.0662 1.9924 23 3.20418 23Z" stroke="white" stroke-width="1.5" stroke-linecap="round" stroke-linejoin="round"/>
<path d="M5 7L8 7" stroke="#FFC220" stroke-width="1.5" stroke-linecap="round" stroke-linejoin="round"/>
<path d="M16 13H19" stroke="#FFC220" stroke-width="1.5" stroke-linecap="round" stroke-linejoin="round"/>
<path d="M16 17H19" stroke="#FFC220" stroke-width="1.5" stroke-linecap="round" stroke-linejoin="round"/>
<path d="M5 11H8" stroke="#FFC220" stroke-width="1.5" stroke-linecap="round" stroke-linejoin="round"/>
<path d="M5 15H8" stroke="#FFC220" stroke-width="1.5" stroke-linecap="round" stroke-linejoin="round"/>
<path d="M20.7958 23H12V10C12 8.89543 12.8954 8 14 8H21C22.1046 8 23 8.89543 23 10V21.5828C23 22.3633 22.0076 23 20.7958 23Z" stroke="white" stroke-width="1.5" stroke-linecap="round" stroke-linejoin="round"/>
</g>
<defs>
<clipPath id="clip0_138_2743">
<rect width="24" height="24" fill="white"/>
</clipPath>
</defs>
</svg>
