<svg width="24" height="24" viewBox="0 0 24 24" fill="none" xmlns="http://www.w3.org/2000/svg">
<circle cx="3.5" cy="19.5" r="2.75" stroke="white" stroke-width="1.5"/>
<path d="M23 7L19.823 8.36155C19.6139 8.45116 19.4417 8.60939 19.3346 8.81011L15.703 15.6193C15.5734 15.8623 15.3494 16.0411 15.0838 16.1135L15 16.1364M4.5 19L9 17.7727M9 17.7727L10.2478 20.8733C10.4002 21.252 10.7674 21.5 11.1755 21.5H12.7413C13.1899 21.5 13.5835 21.2013 13.7043 20.7693L15 16.1364M9 17.7727L15 16.1364" stroke="#FFC220" stroke-width="1.5" stroke-linecap="round" stroke-linejoin="round"/>
<path d="M5.41275 14.3374L1.05827 8.47194C1.02043 8.42096 1 8.35917 1 8.29568C1 8.13238 1.13238 8 1.29568 8H15.3102C16.0705 8 16.5526 8.81482 16.1868 9.48126L14.31 12.8996C13.9235 13.6036 13.2708 14.1233 12.4981 14.3422L8.63933 15.4355C7.44011 15.7753 6.15573 15.3382 5.41275 14.3374Z" stroke="white" stroke-width="1.5" stroke-linecap="round" stroke-linejoin="round"/>
<path d="M15.5 8C15.5 8 15.4817 5.90329 14.5 5.20002C13.6335 4.5793 12.4594 4.46448 11.5 4C10.2005 3.37085 10 2 8.5 2C6.91886 2 6.5 3 6 3.5C5.2136 4.2864 4.80769 4.50089 3.5 5.20002C2.45385 5.75933 2 7.20001 1.5 8" stroke="white" stroke-width="1.5" stroke-linecap="round" stroke-linejoin="round"/>
</svg>
