<svg width="24" height="24" viewBox="0 0 24 24" fill="none" xmlns="http://www.w3.org/2000/svg">
<g clip-path="url(#clip0_138_2744)">
<path d="M8.29963 19C5.73299 19 3.80358 17.0333 4.01599 14.625C4.29035 11.5333 7.21102 9 10.5034 9C13.4123 9 16.1831 11.1195 16.8534 13.7749" stroke="white" stroke-width="1.5" stroke-linecap="round" stroke-linejoin="round"/>
<path d="M9.5 6C10.8807 6 12 4.88071 12 3.5C12 2.11929 10.8807 1 9.5 1C8.11929 1 7 2.11929 7 3.5C7 4.88071 8.11929 6 9.5 6Z" stroke="white" stroke-width="1.5" stroke-linecap="round" stroke-linejoin="round"/>
<path d="M16.3301 7.20001C17.4346 7.20001 18.3301 6.30458 18.3301 5.20001C18.3301 4.09544 17.4346 3.20001 16.3301 3.20001C15.2255 3.20001 14.3301 4.09544 14.3301 5.20001C14.3301 6.30458 15.2255 7.20001 16.3301 7.20001Z" stroke="white" stroke-width="1.5" stroke-linecap="round" stroke-linejoin="round"/>
<path d="M20.03 11.2C20.8585 11.2 21.53 10.5284 21.53 9.70001C21.53 8.87159 20.8585 8.20001 20.03 8.20001C19.2016 8.20001 18.53 8.87159 18.53 9.70001C18.53 10.5284 19.2016 11.2 20.03 11.2Z" stroke="white" stroke-width="1.5" stroke-linecap="round" stroke-linejoin="round"/>
<path d="M3 9.20001C4.10457 9.20001 5 8.30458 5 7.20001C5 6.09544 4.10457 5.20001 3 5.20001C1.89543 5.20001 1 6.09544 1 7.20001C1 8.30458 1.89543 9.20001 3 9.20001Z" stroke="white" stroke-width="1.5" stroke-linecap="round" stroke-linejoin="round"/>
<path d="M13.5003 23L13.4711 21.9346M13.4868 21.3271C13.652 21.0841 14.4038 20.1877 15.7169 19.5047C17.5 18.5772 18.74 19.195 21 17.5C22.3069 16.5198 22.7598 14.8992 22.9168 13.6146C23.0069 12.8767 22.2071 12.3699 21.5132 12.6364C21.2041 12.7551 20.8627 12.8791 20.5 13C19 13.5 17.9627 13 15.7169 14.75C13.9202 16.15 13.4321 18.7461 13.4126 19.8692M13.4868 21.3271C13.4914 21.2048 13.4959 21.0833 13.5003 20.9626C13.4937 20.6606 13.4668 20.2829 13.4126 19.8692M13.4868 21.3271C13.479 21.5334 13.4711 21.9346 13.4711 21.9346M13.4711 21.9346C13.4711 21.9346 12.8184 20.3662 12.0731 19.8692C10.9799 19.1402 9.70442 19.6592 8.30776 18.8972C7.37385 18.3876 6.73667 17.2449 6.35473 16.2573C6.13162 15.6805 6.56255 15.0947 7.18104 15.1017C8.51428 15.1168 10.3143 15.2839 11.4657 15.8598C12.6794 16.4668 13.2196 18.3967 13.4126 19.8692" stroke="#FFC220" stroke-width="1.5" stroke-linecap="round"/>
</g>
<defs>
<clipPath id="clip0_138_2744">
<rect width="24" height="24" fill="white"/>
</clipPath>
</defs>
</svg>
