<svg xmlns="http://www.w3.org/2000/svg" width="65" height="57" viewBox="0 0 65 57" fill="none">
  <g clip-path="url(#clip0_176_2185)">
    <path d="M43.4911 6.10581L11.1055 22.3198L11.3393 22.8029L43.7249 6.5889L43.4911 6.10581Z" fill="#0B3530"/>
    <path d="M12.0351 22.3775L11.7578 22.8362L45.8018 44.1199L46.0791 43.6612L12.0351 22.3775Z" fill="#0B3530"/>
    <path d="M15.9552 32.0909C21.9784 30.5511 25.6338 24.3369 24.1198 18.2112C22.6058 12.0855 16.4956 8.36793 10.4724 9.90773C4.44919 11.4475 0.793781 17.6617 2.30782 23.7874C3.82187 29.9131 9.93202 33.6307 15.9552 32.0909Z" fill="#006B60"/>
    <path d="M48.8829 9.72463C50.7173 6.75969 49.8411 2.8437 46.9258 0.978019C44.0104 -0.88766 40.16 0.00346927 38.3255 2.96841C36.491 5.93335 37.3673 9.84935 40.2826 11.715C43.1979 13.5807 47.0484 12.6896 48.8829 9.72463Z" fill="#FFC122"/>
    <path d="M45.4099 56.9892C54.6498 56.9892 62.1402 49.3714 62.1402 39.9743C62.1402 30.5772 54.6498 22.9594 45.4099 22.9594C36.1701 22.9594 28.6797 30.5772 28.6797 39.9743C28.6797 49.3714 36.1701 56.9892 45.4099 56.9892Z" fill="#006B60"/>
    <path d="M12.6597 30.8638C15.328 31.0361 17.8058 30.0992 19.6694 28.4408C19.4259 27.5039 19.1294 26.5885 18.78 25.727C18.1976 24.2732 17.1175 23.1102 15.8045 22.4425C15.8045 22.421 15.8257 22.4102 15.8363 22.3994C16.4081 21.4625 16.5775 20.3749 16.5775 19.3195C16.5775 18.3072 16.3869 17.2734 15.7833 16.4227C15.1798 15.5719 14.0786 14.9473 12.9456 15.055C11.7278 15.1627 10.7431 16.078 10.3301 17.1011C9.91717 18.1241 9.95952 19.2333 10.0336 20.3102C10.0972 21.0856 10.2984 21.8717 10.669 22.5286C9.86422 23.024 9.15478 23.7455 8.4771 24.6286C7.78883 25.5332 7.81 25.5763 7.37586 26.6531C7.16409 27.1808 6.95232 27.73 6.76172 28.3223C8.32886 29.7761 10.3725 30.713 12.6491 30.8638H12.6597Z" fill="white"/>
    <path d="M43.2824 11.6197C44.8072 11.7166 46.2261 11.1782 47.2956 10.2305C47.1579 9.69205 46.9885 9.16437 46.7873 8.67977C46.4591 7.85056 45.8343 7.18289 45.0825 6.80598C45.0825 6.80598 45.0931 6.78444 45.1037 6.77367C45.4319 6.23522 45.5272 5.62139 45.5272 5.00756C45.5272 4.42604 45.4213 3.83375 45.0719 3.34915C44.7225 2.86454 44.0978 2.50917 43.4518 2.56301C42.753 2.62763 42.1918 3.1553 41.9588 3.73683C41.7259 4.31835 41.7471 4.95372 41.7894 5.57832C41.8212 6.01984 41.9377 6.47214 42.1494 6.84905C41.6941 7.12904 41.2811 7.53826 40.9 8.05517C40.5082 8.57208 40.5188 8.60439 40.2752 9.21822C40.1481 9.51975 40.0317 9.83205 39.9258 10.1767C40.8258 11.0059 41.9906 11.5443 43.293 11.6305L43.2824 11.6197Z" fill="white"/>
    <path d="M44.5104 55.32C48.82 55.6 52.8331 54.0816 55.8403 51.4001C55.4485 49.8817 54.972 48.4063 54.4108 47.0064C53.4684 44.6587 51.7213 42.7849 49.593 41.6973C49.6141 41.6757 49.6353 41.6434 49.6459 41.6219C50.5671 40.1142 50.853 38.3589 50.8318 36.6466C50.8213 35.0205 50.5354 33.3406 49.5506 31.9622C48.5764 30.5837 46.7975 29.5822 44.9657 29.7545C42.9962 29.9376 41.4078 31.4129 40.7408 33.0606C40.0631 34.7082 40.1372 36.5067 40.2643 38.2512C40.3596 39.5004 40.6984 40.7712 41.2808 41.8373C39.9889 42.6342 38.8348 43.7972 37.7441 45.2403C36.6217 46.7156 36.6747 46.7802 35.9652 48.514C35.6158 49.3648 35.277 50.2478 34.9805 51.217C37.5112 53.5647 40.8149 55.0831 44.4998 55.3308L44.5104 55.32Z" fill="white"/>
  </g>
  <defs>
    <clipPath id="clip0_176_2185">
      <rect width="65" height="57" fill="white"/>
    </clipPath>
  </defs>
</svg>