<svg xmlns="http://www.w3.org/2000/svg" width="65" height="65" viewBox="0 0 65 65" fill="none">
  <g clip-path="url(#clip0_176_2150)">
    <path d="M43.3381 10.5763C43.3643 11.2994 43.373 11.9703 43.3207 12.6237C45.1246 11.0468 46.9807 9.82712 48.9501 8.54646L49.6124 8.11086C49.7257 8.03245 49.8913 8.0673 49.9697 8.18926C50.0481 8.31123 50.0133 8.46805 49.9 8.54646L49.2377 8.98205C47.2334 10.2888 45.3424 11.5259 43.5211 13.1377C43.4688 13.1812 43.4078 13.1986 43.3468 13.1986C43.3207 13.1986 43.2946 13.1986 43.2684 13.1812C43.1813 13.852 43.0331 14.5142 42.763 15.2198C42.6933 15.3941 42.6236 15.5857 42.5451 15.7774C43.8261 15.1066 45.0897 14.1308 46.3184 13.1725C46.9284 12.7021 47.5036 12.249 48.07 11.8396C48.1833 11.7612 48.3489 11.7873 48.4273 11.9006C48.5057 12.0138 48.4796 12.1793 48.3663 12.2578C47.8086 12.6585 47.2334 13.1028 46.6321 13.5733C45.2291 14.671 43.7826 15.7948 42.2837 16.4743C42.092 17.0319 41.9525 17.6069 41.9961 18.1209C42.0135 18.2777 42.0484 18.4433 42.1007 18.6175C43.2858 18.0599 44.5058 17.1016 45.6997 16.1607C46.6408 15.4202 47.521 14.7232 48.3489 14.2615C48.4709 14.1918 48.6277 14.2354 48.6974 14.3573C48.7671 14.4793 48.7236 14.6361 48.6016 14.7058C48.131 14.9672 47.6343 15.3244 47.1114 15.7164C48.8891 15.7687 48.8456 18.452 48.2181 20.9087C48.8543 20.5428 49.4817 20.1769 50.1091 19.811C51.9566 18.7307 53.8563 17.6156 55.8083 16.6834C55.939 16.6225 56.0872 16.6834 56.1482 16.8054C56.2092 16.9361 56.1482 17.0842 56.0262 17.1452C54.1003 18.0686 52.2006 19.1838 50.3706 20.2553C49.6037 20.7084 48.8194 21.1614 48.0264 21.6057C47.765 22.4508 47.4513 23.2348 47.1288 23.836C48.4099 23.1303 49.656 22.3375 50.8847 21.5534C52.2703 20.6648 53.7081 19.75 55.1547 18.9921C55.2767 18.9224 55.4336 18.9747 55.5033 19.0967C55.573 19.2186 55.5207 19.3754 55.3987 19.4451C53.9696 20.1944 52.5404 21.1091 51.1636 21.989C49.6473 22.9561 48.1049 23.9405 46.5014 24.7507C46.4666 24.7856 46.4404 24.8117 46.4056 24.8378C44.7673 26.1098 42.9286 25.9094 41.2641 24.7159C40.1574 23.9318 39.225 23.8795 39.1553 25.6045C39.1291 26.2579 39.0681 27.0158 39.3121 27.6431C40.2533 30.065 40.8807 28.2355 42.1268 28.6188C42.4057 28.706 42.6323 28.9499 42.6758 29.2374C43.5908 28.976 44.4361 28.523 45.325 28.0351C46.0657 27.6257 46.8326 27.2075 47.643 26.92C47.7737 26.8764 47.9219 26.9461 47.9654 27.0768C48.009 27.2075 47.9393 27.3556 47.8086 27.4079C47.0417 27.6779 46.2923 28.0961 45.569 28.4882C44.6366 29.0022 43.6693 29.5162 42.6236 29.7862C42.4754 30.3612 42.1181 31.0495 41.7173 31.5461C44.7324 30.9885 48.9589 28.8279 51.9653 27.1901C52.0873 27.1204 52.2441 27.1726 52.3139 27.2946C52.3836 27.4166 52.34 27.5734 52.2093 27.6431C48.9327 29.4203 44.2096 31.8248 41.0898 32.1559C41.0811 32.1559 41.0724 32.1559 41.0637 32.1559H41.0463C38.9897 33.4627 42.1791 35.8498 43.373 34.0203C43.6344 33.6195 43.861 33.0358 44.2706 32.757C44.7847 32.4085 45.5864 31.6854 46.1964 32.3911C46.4927 32.7396 46.667 33.0968 46.8151 33.5237C47.2596 34.7956 47.6081 32.6699 47.582 32.2866C47.5384 31.607 48.4447 31.2847 48.8979 31.7464C49.717 32.5741 50.7279 31.0233 51.1549 30.4571C51.3553 30.1957 51.6777 29.9779 52.0263 30.0999C52.218 30.1783 52.4097 30.248 52.5927 30.3264C52.95 30.3264 53.2201 30.5703 53.3334 30.8927C53.6123 31.7116 53.6646 32.4695 53.5513 33.1665C54.658 32.5654 55.7822 31.9642 56.915 31.3631C58.8409 30.3438 60.8103 29.2897 62.6665 28.2529C62.5706 27.6082 62.4573 26.9723 62.3179 26.3363C61.246 27.1552 60.0609 27.8696 58.9019 28.5578C57.9084 29.159 56.8714 29.7775 55.9477 30.4396C55.9042 30.4745 55.8519 30.4919 55.7996 30.4919C55.7212 30.4919 55.6427 30.4571 55.5904 30.3874C55.5033 30.2741 55.5294 30.1086 55.6514 30.0302C56.5926 29.3506 57.6296 28.7234 58.6404 28.1222C59.8517 27.3904 61.0979 26.6412 62.1959 25.7787C62.0739 25.2647 61.9432 24.7507 61.795 24.2367C60.8365 25.2212 59.6164 25.8746 58.4226 26.5018C57.891 26.7806 57.342 27.0681 56.8366 27.3817C56.793 27.4079 56.7494 27.4166 56.7059 27.4166C56.6187 27.4166 56.5403 27.373 56.488 27.2946C56.4183 27.1726 56.4532 27.0158 56.5752 26.9461C57.098 26.6238 57.6557 26.3276 58.196 26.0488C59.4422 25.3954 60.7232 24.7159 61.6469 23.6617C60.3223 19.3057 58.074 15.2721 55.0327 11.9093C52.6363 9.35667 49.839 7.23966 46.7977 5.63666C46.7716 5.83703 46.667 6.0287 46.4578 6.1768C44.7498 7.33549 43.2858 8.2851 43.3643 10.5851L43.3381 10.5763Z" stroke="#006B60" stroke-miterlimit="10"/>
    <path d="M60.0405 41.4428C59.4131 41.8871 58.7769 42.7757 57.9927 42.9935C57.0515 43.2549 56.5112 42.1572 55.8489 41.8261C53.6442 40.7284 55.1431 42.0178 54.9426 43.1678C54.7945 44.039 54.4372 44.9537 53.5745 45.3893C52.2412 46.0514 50.7424 46.2257 49.6182 45.5287C49.0431 49.9021 49.6008 56.0267 45.0519 57.9172C43.5792 58.5357 42.516 55.9047 42.1675 55.0074C41.5226 53.3782 40.9039 51.8536 41.0259 50.1896C40.9823 50.1635 40.9475 50.1199 40.93 50.0677C40.8778 49.937 40.9388 49.7889 41.0782 49.7366C41.1218 49.4665 41.174 49.1965 41.2612 48.9264C42.2372 45.6768 37.636 46.4435 36.4422 44.1784C35.5795 42.558 35.1437 40.3016 35.8583 38.533C36.5468 36.8516 37.9846 35.5797 39.8233 35.5448C38.9432 35.0308 38.2286 34.299 38.0108 33.5149C37.4966 31.6506 39.466 31.3108 40.5205 30.4657C40.1893 30.4048 39.8756 30.2915 39.5619 30.1695C38.8648 29.8995 38.2722 29.2374 38.002 28.5491C37.4443 27.1116 37.1219 24.106 38.3506 22.8776C40.4769 20.7519 42.333 24.9511 44.5203 24.1844C45.7926 23.7401 46.5595 22.2678 46.8732 20.717C46.3765 21.5011 45.6096 22.1807 44.6598 22.3113C42.8472 22.5727 41.2176 21.7102 40.7383 19.8197C40.7209 19.7413 40.7035 19.6629 40.686 19.5845C40.6425 19.5845 40.5989 19.6019 40.5553 19.6106C40.5553 19.6106 40.5379 19.6106 40.5292 19.6106C40.3985 19.6106 40.2852 19.5061 40.2765 19.3754C40.2678 19.236 40.3636 19.114 40.5118 19.0966C40.5379 19.0966 40.564 19.0879 40.5902 19.0792C40.4159 17.8857 40.5553 16.7444 40.9998 15.5596C41.7666 13.5384 41.7753 11.7699 41.8189 9.64413C41.8625 7.41387 43.7709 6.11578 45.4528 4.97452C43.4833 4.04234 41.418 3.32795 39.3092 2.82266C36.0936 2.10828 32.7822 1.89048 29.5317 2.1954C29.9413 3.47606 30.0633 4.72187 29.0786 5.82829C27.266 7.85818 25.2269 7.91045 22.7346 8.50286C22.1856 8.63354 21.7324 8.75551 21.1747 8.77293C21.0701 8.77293 21.3229 10.2365 21.349 10.4108C21.4274 11.0642 21.5756 12.0922 21.1573 12.702C20.6954 13.3816 20.2336 13.791 19.4929 14.1482C19.4493 14.1656 17.0093 14.6709 17.8981 15.0543C18.5866 15.3505 19.1879 15.7948 19.885 15.4986C20.9133 15.063 21.5059 14.488 22.4034 13.9217C23.0744 13.4948 23.9981 12.8937 24.8609 12.9982C26.3859 13.1725 27.51 13.6778 28.1723 15.1327C29.1919 17.3891 27.2573 19.4538 27.4926 21.6928C27.7017 23.714 28.4947 25.2821 29.3052 27.0942C29.6537 27.8696 30.1069 28.7756 30.0372 29.6468C29.7757 32.9399 25.0352 33.3755 22.5777 32.4434C21.9067 32.1907 19.3709 30.9275 19.336 32.4172C19.3099 33.4975 19.1356 34.5429 18.4994 35.449C17.4014 37.0084 21.9677 36.2505 22.1856 36.2069C23.1964 36.024 24.1027 36.9562 24.948 37.2959C27.2922 38.2455 28.4947 40.0315 30.2114 41.8261C31.7887 43.464 30.9696 45.3545 30.3945 47.2363C30.0023 48.5169 28.2856 48.6041 27.937 49.9718C27.7192 50.8169 26.839 51.3309 26.3946 52.0366C25.558 53.3695 25.0962 54.1013 25.8107 55.7566C26.0112 56.227 26.4382 57.0895 26.5427 57.5948C26.7432 58.5706 26.8477 59.2936 26.3597 60.1823C24.5994 63.3883 19.6759 56.6539 19.1269 55.3558C18.6301 54.1971 18.3861 52.7597 18.4907 51.4964C18.6389 49.8673 19.4406 47.5151 17.9766 46.1996C16.3644 44.7534 15.6934 43.0807 16.713 41.0159C17.4276 39.5697 15.3797 38.6811 14.5083 37.688C13.7937 36.869 13.3144 35.5971 12.8787 34.6039C12.2861 33.2536 12.565 32.1559 11.0313 31.4153C10.5694 31.1888 10.0465 30.9797 9.56726 30.7271C9.5324 30.7184 9.50626 30.701 9.48012 30.6748C9.15769 30.5006 8.8614 30.3089 8.60869 30.0737C6.62182 28.1484 5.68068 26.3885 5.60225 23.6007C5.54996 21.7712 5.62839 19.9417 5.68068 18.1122C5.64582 18.1819 5.61096 18.2428 5.56739 18.3125C5.48025 18.4868 5.38439 18.661 5.29725 18.8265C5.23625 18.9398 5.18396 19.0531 5.13168 19.1663C5.00968 19.419 4.88768 19.6716 4.77439 19.9243C4.74825 19.9765 4.73082 20.0288 4.70468 20.0811C4.56525 20.386 4.43453 20.6909 4.31253 20.9958C4.31253 21.0133 4.2951 21.0307 4.28639 21.0568C4.14696 21.3879 4.02496 21.7189 3.89425 22.0587C3.89425 22.0674 3.88553 22.0848 3.87682 22.0935C3.75482 22.4246 3.64153 22.7556 3.52824 23.0954C3.51953 23.1303 3.51082 23.1651 3.49339 23.2C3.38882 23.5049 3.29296 23.8185 3.20582 24.1321C3.17967 24.2105 3.16224 24.2802 3.14482 24.3586C3.06639 24.6287 2.99667 24.8901 2.92696 25.1601C2.8921 25.2908 2.85724 25.4302 2.8311 25.5696C2.77881 25.7787 2.73524 25.9878 2.68296 26.1969C2.63939 26.3972 2.59581 26.6063 2.56096 26.8067C2.53481 26.9548 2.49996 27.1029 2.47381 27.251C2.42153 27.5124 2.37796 27.7825 2.3431 28.0525C2.32567 28.1484 2.31696 28.2355 2.29953 28.3313C2.25596 28.6449 2.21238 28.9499 2.17753 29.2635C2.17753 29.3245 2.1601 29.3855 2.1601 29.4464C2.12524 29.7601 2.0991 30.0824 2.07296 30.396C2.07296 30.4657 2.06424 30.5354 2.05553 30.6051C2.0381 30.8665 2.02067 31.1366 2.01196 31.3979C2.01196 31.5199 2.00324 31.6419 1.99453 31.7638C1.88124 40.894 5.88982 49.5014 12.3907 55.3645C17.4798 59.8164 23.9894 62.5693 31.0132 62.9788C32.9216 63.0485 34.8213 62.944 36.6862 62.6739C36.904 62.639 37.1306 62.6129 37.3485 62.5693C37.4705 62.5519 37.5838 62.5258 37.7058 62.5084C46.7338 60.8444 54.7074 55.2164 59.1865 47.3844C59.1865 47.367 59.2039 47.3582 59.2127 47.3408C59.2475 47.2886 59.2737 47.2276 59.2998 47.1753C59.4654 46.8704 59.6222 46.5655 59.7791 46.2518C60.9729 43.8386 61.827 41.286 62.3498 38.6811C61.7572 39.7527 61.0427 40.7371 60.0579 41.4254L60.0405 41.4428ZM39.2046 5.56693C39.8843 4.99194 40.6512 5.16618 41.3309 5.323C42.0542 5.48852 42.5248 5.57564 42.882 5.09648C42.9692 4.98323 43.126 4.95709 43.2393 5.04421C43.3526 5.13133 43.3788 5.28815 43.2916 5.4014C42.7165 6.16806 41.9235 5.9851 41.2176 5.81958C40.5989 5.68019 40.0238 5.54079 39.5358 5.95026C39.4835 5.99382 39.4312 6.01124 39.3702 6.01124C39.3005 6.01124 39.222 5.97639 39.1785 5.92412C39.0913 5.81958 39.1 5.65405 39.2046 5.55822V5.56693ZM7.0924 36.7819C6.24711 36.4596 5.52382 36.1895 4.69596 37.0781C4.64368 37.1304 4.57396 37.1565 4.50425 37.1565C4.44325 37.1565 4.38225 37.1304 4.32996 37.0868C4.22539 36.991 4.21667 36.8255 4.31253 36.7209C5.36696 35.571 6.37782 35.9543 7.26668 36.294C8.04226 36.5903 8.72197 36.8429 9.46269 36.1895C9.56726 36.0937 9.73283 36.1024 9.82869 36.2156C9.92454 36.3202 9.91583 36.4857 9.80254 36.5815C8.83526 37.444 7.90283 37.0868 7.0924 36.7819ZM9.88969 43.4379C9.82869 43.4379 9.76769 43.4117 9.7154 43.3682C9.61083 43.2723 9.61083 43.1068 9.70669 43.0023C10.857 41.7739 11.7458 42.0527 12.5388 42.2966C13.0268 42.4534 13.4974 42.5928 14.0551 42.4186C14.1946 42.375 14.334 42.4534 14.3776 42.5841C14.4211 42.7235 14.3427 42.8629 14.212 42.9064C13.5061 43.1242 12.9136 42.9413 12.3994 42.7845C11.6325 42.5492 11.0313 42.3576 10.0988 43.3507C10.0465 43.403 9.97683 43.4291 9.90712 43.4291L9.88969 43.4379ZM15.8416 50.2768C15.0573 51.0957 14.1597 50.8692 13.4364 50.6862C12.5911 50.4684 12.0944 50.39 11.65 51.1305C11.5977 51.2089 11.5193 51.2525 11.4321 51.2525C11.3885 51.2525 11.345 51.2438 11.3014 51.2176C11.1794 51.148 11.1358 50.9911 11.2143 50.8692C11.8765 49.7627 12.7741 49.9893 13.5671 50.1896C14.2817 50.3726 14.9004 50.5294 15.4756 49.9283C15.5714 49.8237 15.737 49.8237 15.8416 49.9283C15.9461 50.0241 15.9461 50.1896 15.8416 50.2942V50.2768ZM35.9716 17.3891C36.0587 17.2758 36.2243 17.2671 36.3289 17.3542C36.4422 17.4413 36.4509 17.6069 36.3637 17.7114C36.0065 18.1557 35.6056 18.3038 35.2047 18.3038C34.7603 18.3038 34.3072 18.1209 33.8889 17.9466C33.0872 17.6156 32.3987 17.3368 31.7365 18.1035C31.6406 18.208 31.4837 18.2254 31.3792 18.1296C31.2746 18.0338 31.2572 17.8769 31.353 17.7724C32.2506 16.727 33.2702 17.1451 34.0893 17.4762C34.9259 17.8247 35.4662 17.9989 35.9629 17.3891H35.9716ZM30.0982 10.829C30.8825 10.1146 31.7626 10.3672 32.5382 10.585C33.4619 10.8464 34.2549 11.0729 35.074 10.0884C35.1612 9.9839 35.3267 9.96647 35.4313 10.0536C35.5446 10.1407 35.5533 10.3062 35.4662 10.4108C34.8823 11.1077 34.2723 11.3168 33.6885 11.3168C33.2266 11.3168 32.7909 11.1949 32.39 11.0816C31.6493 10.8725 31.0132 10.6896 30.438 11.2123C30.3334 11.3081 30.1679 11.2994 30.072 11.1949C29.9762 11.0903 29.9849 10.9248 30.0894 10.829H30.0982ZM29.2093 34.7259C29.1657 34.813 29.0786 34.8566 28.9827 34.8566C28.9392 34.8566 28.8956 34.8479 28.852 34.8217C28.73 34.752 28.6864 34.5952 28.7562 34.4732C29.6189 32.9661 30.8127 33.4627 31.78 33.8547C32.7996 34.2729 33.4445 34.4907 34.0283 33.6805C34.1067 33.5672 34.2723 33.5411 34.3856 33.6195C34.4989 33.6979 34.525 33.8634 34.4466 33.9767C33.6013 35.1615 32.4859 34.6998 31.5883 34.3251C30.5077 33.8808 29.8106 33.663 29.2093 34.7172V34.7259ZM34.4466 53.8922C33.3922 53.7528 32.4859 53.6309 31.902 54.5979C31.8497 54.6763 31.7713 54.7199 31.6842 54.7199C31.6406 54.7199 31.597 54.7111 31.5535 54.685C31.4315 54.6153 31.3966 54.4585 31.4663 54.3365C32.2245 53.0733 33.4445 53.2388 34.5163 53.3869C35.5795 53.5263 36.5032 53.657 37.1045 52.6725C37.1742 52.5506 37.3398 52.5157 37.453 52.5854C37.575 52.6551 37.6099 52.8206 37.5402 52.9339C36.7646 54.2059 35.5359 54.0403 34.4466 53.8922ZM40.8778 58.5618C40.0412 60.0255 38.9955 59.6073 38.1589 59.2675C37.2875 58.919 36.6513 58.6577 36.0065 59.8425C35.9629 59.9296 35.8757 59.9732 35.7799 59.9732C35.7363 59.9732 35.6927 59.9645 35.6579 59.9383C35.5359 59.8686 35.4836 59.7118 35.5533 59.5899C36.416 58.013 37.4879 58.4399 38.3419 58.7884C39.1959 59.1281 39.8059 59.3808 40.4246 58.3005C40.4943 58.1785 40.6512 58.135 40.7732 58.2046C40.8952 58.2743 40.9388 58.4312 40.869 58.5531L40.8778 58.5618ZM56.3718 47.82C55.6137 48.9003 54.7945 48.6128 54.1322 48.3863C53.4699 48.151 53.0255 48.0029 52.5375 48.8306C52.4939 48.909 52.4068 48.9525 52.3196 48.9525C52.2761 48.9525 52.2325 48.9438 52.1889 48.9177C52.0669 48.848 52.0234 48.6912 52.1018 48.5692C52.8076 47.3757 53.6355 47.6632 54.3065 47.8984C54.9601 48.1249 55.4307 48.2904 55.9622 47.5238C56.0407 47.4105 56.2062 47.3757 56.3195 47.4628C56.4328 47.5412 56.4676 47.7067 56.3805 47.82H56.3718Z" stroke="#006B60" stroke-miterlimit="10"/>
    <path d="M10.4058 22.2068C11.3906 21.2659 12.3317 20.3599 13.0986 19.9069C13.2206 19.8372 13.3774 19.872 13.4471 19.994C13.5169 20.116 13.482 20.2728 13.36 20.3425C12.6454 20.7694 11.7304 21.7364 10.7631 22.6599C9.56927 23.8011 8.34927 25.0556 7.2687 25.6306C7.3907 26.0749 7.55627 26.4757 7.80027 26.8067C7.83513 26.859 7.8787 26.9026 7.91356 26.9549C10.5976 25.1602 13.2119 22.9299 15.495 20.9523C15.5996 20.8565 15.7651 20.8739 15.8523 20.9784C15.9481 21.083 15.9307 21.2485 15.8261 21.3356C13.543 23.322 10.92 25.5522 8.21856 27.3643C8.47127 27.6779 8.7327 27.948 9.00284 28.2007C9.75227 27.6518 10.5278 27.1204 11.286 26.5977C13.2816 25.2212 15.3469 23.8011 17.02 22.1197C17.1159 22.0239 17.2814 22.0152 17.386 22.1197C17.4906 22.2243 17.4906 22.3811 17.386 22.4856C15.678 24.2019 13.5953 25.6306 11.5823 27.0158C10.859 27.5124 10.1183 28.0264 9.4037 28.5491C9.83942 28.915 10.31 29.2287 10.8241 29.5423C12.079 28.7582 13.2641 27.8173 14.4231 26.9026C15.6344 25.9355 16.898 24.9424 18.2226 24.1322C18.3446 24.0625 18.5014 24.0973 18.5712 24.2193C18.6409 24.3413 18.606 24.4981 18.484 24.5678C17.1769 25.3606 15.9394 26.345 14.7369 27.3033C13.6389 28.1745 12.5147 29.0631 11.3208 29.8298C11.4777 29.9169 11.6346 30.004 11.8089 30.0999C12.6803 30.5703 13.3861 31.0756 13.8219 31.9817C14.4841 33.3494 14.5974 34.9089 15.4253 36.2854C16.1486 37.4789 17.3947 38.1759 18.2923 39.2126C18.6234 39.5959 18.8762 40.0751 18.6409 40.5629C18.0309 41.8262 16.9851 43.2637 18.5537 44.675C18.606 44.7186 18.6583 44.7708 18.7106 44.8144C20.314 43.8996 21.9436 42.6712 23.3989 41.5648L24.218 40.9463C24.3313 40.8592 24.4882 40.8853 24.5753 40.9985C24.6625 41.1118 24.6363 41.2686 24.523 41.3557L23.7039 41.9743C22.2747 43.0633 20.6887 44.2568 19.1027 45.1803C19.3206 45.3894 19.5297 45.6159 19.6604 45.8685C19.704 45.9469 19.7302 46.0253 19.7737 46.1038C21.595 45.4591 23.791 43.8735 25.3509 42.497C25.4555 42.4012 25.621 42.4099 25.7082 42.5231C25.804 42.6277 25.7953 42.7932 25.682 42.889C24.8977 43.586 22.3183 45.7553 19.9567 46.5829C20.1397 47.1231 20.2182 47.6632 20.2443 48.2121C21.5514 47.82 23.1026 46.6352 24.2093 45.7901C24.4446 45.6072 24.6625 45.4504 24.8455 45.311C24.9587 45.2238 25.1156 45.25 25.2027 45.3632C25.2899 45.4765 25.2637 45.642 25.1505 45.7204C24.9675 45.8598 24.7496 46.0166 24.523 46.1996C23.3466 47.0969 21.6909 48.3602 20.2443 48.7435C20.2269 49.5188 20.1223 50.2942 20.0613 51.0783C20.5406 50.7124 21.0199 50.3378 21.5079 49.9806C22.4054 49.3098 23.3292 48.6128 24.2006 47.8897C24.3052 47.8026 24.4707 47.8113 24.5579 47.9246C24.645 48.0378 24.6363 48.1946 24.523 48.2817C23.6429 49.0048 22.7104 49.7105 21.8129 50.3813C21.2116 50.8344 20.619 51.2874 20.0264 51.7404C20.0264 51.7404 20.0264 51.7404 20.0177 51.7404C19.9916 52.3938 20.0177 53.0472 20.1746 53.7006C20.5842 53.4044 20.9763 53.0559 21.3859 52.69C21.9872 52.1412 22.6146 51.5749 23.3379 51.1828C23.4599 51.1131 23.6167 51.1654 23.6864 51.2874C23.7562 51.4093 23.7039 51.5662 23.5819 51.6359C22.9109 51.993 22.3096 52.5419 21.7344 53.0646C21.29 53.4741 20.8282 53.8835 20.3314 54.2233C20.4622 54.5979 20.6103 54.9725 20.7846 55.3297C21.6386 54.8854 22.4316 54.2582 23.1636 53.6396C23.2682 53.5525 23.4337 53.5612 23.5209 53.6745C23.608 53.779 23.5993 53.9445 23.486 54.0316C22.7279 54.6676 21.9174 55.3123 21.0199 55.7828C21.6299 56.863 22.4577 57.8126 23.5557 58.4573C24.157 58.8145 25.9696 60.6615 25.0285 58.0217C24.5404 56.6539 23.3379 55.0248 23.9217 53.5089C24.4185 52.2021 25.1505 51.1131 25.9347 49.9544C26.2833 49.4404 26.5796 48.6128 27.0676 48.1859C27.4162 47.881 27.6776 47.6806 28.0697 47.4367C29.3856 46.6091 28.854 46.2083 29.2636 45.1803C30.2832 42.5928 27.756 42.4883 26.78 40.8243C25.804 39.1516 24.5579 38.9512 23.059 38.0713C21.3336 37.0607 18.9023 38.4634 16.9764 37.5486C16.4623 37.3047 16.2531 36.5642 16.4274 36.0676C16.9503 34.5778 17.7171 33.6282 17.7781 31.9381C17.8304 30.6313 19.0243 30.126 20.1572 30.1783C21.9174 30.2567 23.3379 31.4764 25.1243 31.3283C27.085 31.1627 29.2287 30.3699 27.939 27.887C27.7996 27.6257 27.6689 27.3643 27.5295 27.0942C26.292 28.3313 24.7234 29.3768 23.5819 30.0912C23.5383 30.1173 23.4947 30.1347 23.4424 30.1347C23.3553 30.1347 23.2769 30.0912 23.2246 30.0128C23.1462 29.8908 23.181 29.734 23.303 29.6556C24.4533 28.9325 26.0567 27.8609 27.2767 26.6064C27.1112 26.2666 26.9456 25.9094 26.7975 25.5609C25.926 26.3537 24.9065 27.0681 23.913 27.7564C23.4076 28.1048 22.9109 28.4446 22.4403 28.7931C22.3967 28.8279 22.3444 28.8453 22.2922 28.8453C22.2137 28.8453 22.1353 28.8105 22.083 28.7408C21.9959 28.6276 22.022 28.4707 22.1353 28.3836C22.6146 28.0264 23.12 27.6779 23.6254 27.3295C24.6625 26.6151 25.7343 25.8746 26.6057 25.0469C26.475 24.681 26.3617 24.3064 26.2659 23.9318C24.9239 25.256 23.425 26.4147 21.961 27.5386L21.6734 27.7564C21.6299 27.7912 21.5689 27.8086 21.5166 27.8086C21.4382 27.8086 21.3597 27.7738 21.3162 27.7128C21.229 27.5995 21.2552 27.4427 21.3597 27.3556L21.6473 27.1291C23.181 25.953 24.7583 24.7246 26.1439 23.3307C25.8563 21.7451 25.8389 20.2728 26.4227 18.7046C27.2157 16.5615 26.3182 12.9286 23.1374 15.2634C21.2726 16.6399 19.8957 17.6156 17.6823 16.6573C16.1486 15.9952 15.3556 14.488 16.7411 13.1028C16.8806 12.9634 17.081 12.8763 17.2814 12.8763C18.9284 12.885 20.0352 11.6131 19.6866 10.0362C19.4774 9.0866 19.5646 8.51161 19.948 7.64042C20.0526 7.39648 20.3663 7.2658 20.6103 7.25709C21.473 7.23096 22.2834 7.01316 23.12 6.79536C23.3117 6.74309 25.5077 6.43817 25.4467 6.4643C27.6253 5.6628 28.5577 4.46055 27.9216 2.39581C25.682 2.71816 23.486 3.28443 21.3684 4.08593C15.4776 6.43817 10.6063 10.4631 7.2077 15.4986C7.21641 16.8577 7.22513 18.1819 7.17284 19.5323C7.8177 19.0618 8.41899 18.5217 9.00284 17.9815C9.92656 17.1365 10.8851 16.2653 12.0354 15.6641C12.1574 15.6032 12.3143 15.6467 12.384 15.7687C12.4537 15.8907 12.4014 16.0475 12.2794 16.1172C11.1814 16.6922 10.2577 17.5372 9.36013 18.3561C8.6717 18.9834 7.94841 19.6281 7.15541 20.1682C7.15541 20.2031 7.15541 20.2292 7.15541 20.2641C7.12927 20.7519 7.07698 21.3182 7.04213 21.9193C7.61727 21.4402 8.19241 20.9349 8.74141 20.4383C10.3013 19.027 11.9221 17.5634 13.8654 16.8054C13.9961 16.7531 14.1443 16.8228 14.1966 16.9535C14.2489 17.0842 14.1791 17.2323 14.0484 17.2846C12.1836 18.0077 10.6063 19.4364 9.08127 20.8216C8.41027 21.4315 7.71313 22.0587 6.99855 22.6163C6.9637 23.4004 6.97241 24.2193 7.0857 24.9598C8.07913 24.4022 9.2817 23.2523 10.371 22.2068H10.4058Z" stroke="#006B60" stroke-miterlimit="10"/>
    <path d="M45.8379 19.0879C45.9599 18.208 45.9163 17.1974 46.2736 16.3524C46.1865 16.4221 46.108 16.483 46.0209 16.5527C44.8009 17.5198 43.546 18.4955 42.3086 19.0792C43.1539 20.6996 45.4283 22.1371 45.8466 19.0879H45.8379Z" stroke="#006B60" stroke-miterlimit="10"/>
    <path d="M46.6726 47.0011C45.9406 47.3931 45.2348 47.8723 44.5464 48.334C43.9712 48.7261 43.3786 49.1181 42.7599 49.4666C42.6989 49.7976 42.6728 50.1287 42.6641 50.4597C42.9516 50.2855 43.2479 50.0677 43.5616 49.7802C43.6662 49.6844 43.8318 49.6931 43.9276 49.7976C44.0235 49.9022 44.0148 50.0677 43.9102 50.1635C43.4832 50.5556 43.0823 50.8344 42.6815 51.0435C42.7599 52.5419 43.2653 54.0142 44.0322 55.3907C45.8622 58.6926 47.4831 51.1654 47.6138 49.9022C47.8229 47.8897 47.9188 45.8337 48.3632 43.8561C47.9798 44.0913 47.5876 44.3352 47.1694 44.5966C45.8622 45.4242 44.4244 46.3303 43.0388 46.9053C43.1608 47.4367 43.1433 48.0291 42.9603 48.6215C42.9429 48.6738 42.9429 48.7261 42.9255 48.7783C43.3786 48.4996 43.8231 48.2034 44.2588 47.9071C44.9559 47.4367 45.6792 46.9488 46.4286 46.5481C46.5506 46.4784 46.7075 46.5307 46.7772 46.6526C46.8469 46.7746 46.7946 46.9314 46.6726 47.0011Z" stroke="#006B60" stroke-miterlimit="10"/>
    <path d="M62.716 28.8017C60.9035 29.8123 58.995 30.8316 57.1302 31.8248C55.8579 32.4956 54.5943 33.1751 53.3569 33.846C52.3112 36.8952 47.8581 38.5417 44.721 38.0626C42.9781 37.7925 40.0676 36.4334 38.438 37.5311C37.3661 38.2542 36.9914 39.5872 37.0785 40.8243C37.1221 41.5125 37.2354 42.2792 37.523 42.9326C39.7887 42.0701 42.159 40.711 44.2504 39.5C44.3724 39.4303 44.5293 39.4739 44.599 39.5959C44.6687 39.7178 44.6251 39.8747 44.5031 39.9443C42.4117 41.1466 40.0501 42.5057 37.7583 43.3856C38.0197 43.795 38.3857 44.1261 38.865 44.3265C40.7908 43.6034 42.7777 42.4273 44.5641 41.3731C44.9737 41.1292 45.3833 40.8852 45.7754 40.6587C45.8974 40.589 46.0543 40.6326 46.124 40.7546C46.1937 40.8765 46.1501 41.0333 46.0281 41.103C45.636 41.3296 45.2351 41.5648 44.8256 41.8087C43.196 42.7757 41.4008 43.8386 39.6231 44.5791C39.902 44.6575 40.1808 44.7446 40.451 44.8231C40.9826 44.5965 41.5054 44.2655 42.0108 43.9344C42.2984 43.7515 42.5773 43.5685 42.8648 43.4117C44.8168 42.2879 46.8299 41.1815 48.7644 40.1099C50.8559 38.9512 53.017 37.7576 55.1259 36.5467C55.2479 36.477 55.4047 36.5205 55.4744 36.6425C55.5442 36.7645 55.5006 36.9213 55.3786 36.991C53.2697 38.2107 51.0999 39.4042 49.0084 40.5629C47.0739 41.6345 45.0696 42.7409 43.1176 43.856C42.8474 44.0128 42.5686 44.1871 42.2897 44.37C41.915 44.6053 41.5316 44.8492 41.1481 45.0583C41.2788 45.1105 41.4183 45.1541 41.549 45.2064C42.1851 45.4677 42.6034 45.9033 42.8474 46.4261C44.1894 45.8685 45.5924 44.9799 46.8734 44.1697C47.5706 43.7341 48.2241 43.3159 48.8429 42.9587C48.9649 42.889 49.1217 42.9326 49.1914 43.0545C49.1914 43.0632 49.1914 43.0807 49.2001 43.0981C49.4354 43.1155 49.662 43.2288 49.784 43.464C52.895 43.8386 53.9756 43.2636 53.0344 41.7564C53.0083 41.6955 52.9822 41.6345 52.956 41.5735C52.895 41.3731 52.8514 41.1727 52.834 40.9637C52.834 40.6849 53.017 40.3277 53.2087 40.136C53.8362 39.5088 55.335 39.8659 56.006 40.197C57.6269 40.9985 58.08 41.4515 59.5963 39.7701C61.0342 38.1671 61.801 36.1721 62.6899 34.238C62.7422 34.1248 62.8119 34.0376 62.8903 33.9679C62.9513 32.6263 62.9339 31.2847 62.8206 29.943C62.7857 29.5597 62.7422 29.1764 62.6899 28.793L62.716 28.8017Z" stroke="#006B60" stroke-miterlimit="10"/>
    <path d="M43.5724 36.0066C43.4417 36.085 43.2936 36.1372 43.1367 36.1808C44.2434 36.4683 45.3676 36.7209 46.5179 36.6251C48.9143 36.4422 52.4349 34.6562 51.9643 31.851C51.1626 32.8267 50.1517 33.7937 49.0189 33.5585C48.7836 34.9873 47.9906 36.4073 46.2739 35.6145C45.8817 35.4316 45.08 34.0986 45.4199 33.785C44.7402 34.4123 44.4264 35.5274 43.5724 35.9978V36.0066Z" stroke="#006B60" stroke-miterlimit="10"/>
    <path d="M62.7174 21.928C62.2904 20.6648 61.785 19.4277 61.2011 18.2255C59.406 14.5054 56.8701 11.2733 53.8375 8.60745C53.6632 8.44192 53.4802 8.2851 53.3059 8.12829C49.1056 4.47797 44.0775 2.15188 38.7966 1.13258C37.9165 0.949625 37.0363 0.784098 36.1475 0.670842C30.9886 0.0087327 25.8123 0.740538 21.0717 2.58748C20.5227 2.78785 19.9737 3.00565 19.4247 3.24087C14.9891 5.14879 11.1897 8.07602 8.17456 11.6566C7.86084 12.0138 7.55584 12.371 7.25955 12.7456C6.76284 13.3642 6.30098 14.0002 5.86526 14.6448C5.85655 14.6623 5.84784 14.671 5.83912 14.6884C3.1464 18.6785 1.47325 23.1913 0.819682 27.8522C0.619253 29.1241 0.488538 30.4135 0.444967 31.7116C0.401395 34.6737 0.758682 37.5747 1.46454 40.3539C1.95254 42.3489 2.63226 44.3091 3.49497 46.1996C5.59512 50.7908 8.79327 54.6763 12.6624 57.6732C13.255 58.1524 13.865 58.6054 14.4924 59.0497C18.8409 62.0815 23.8603 63.8326 29.0192 64.3466C29.8993 64.4512 30.7882 64.5296 31.6858 64.5557C34.361 64.5905 36.9928 64.3031 39.5286 63.7281C41.5939 63.275 43.6156 62.6304 45.5676 61.7853C50.4999 59.6596 54.7002 56.2358 57.8897 52.0366C58.4125 51.3658 58.918 50.6775 59.3972 49.9632C61.8721 46.2606 63.432 42.0962 64.1117 37.8012C64.1553 37.5573 64.1988 37.3047 64.2337 37.0607C65.0093 31.9032 64.4254 26.7109 62.7261 21.9193L62.7174 21.928ZM46.7702 5.63666C49.8115 7.24838 52.6088 9.35667 55.0052 11.9093C58.0465 15.2808 60.2948 19.3145 61.6194 23.6617C60.6957 24.7159 59.4147 25.3867 58.1685 26.0488C57.6282 26.3363 57.0705 26.6238 56.5477 26.9461C56.4257 27.0158 56.3908 27.1814 56.4605 27.2946C56.5128 27.373 56.5912 27.4166 56.6784 27.4166C56.722 27.4166 56.7742 27.4079 56.8091 27.3817C57.3145 27.0681 57.8635 26.7806 58.3951 26.5018C59.589 25.8746 60.809 25.2212 61.7675 24.2367C61.9157 24.7507 62.0464 25.2647 62.1684 25.7787C61.0704 26.6412 59.8242 27.3992 58.613 28.1223C57.6108 28.7234 56.5651 29.3506 55.624 30.0302C55.5107 30.1173 55.4845 30.2741 55.563 30.3874C55.6152 30.4571 55.6937 30.4919 55.7721 30.4919C55.8244 30.4919 55.8767 30.4745 55.9202 30.4396C56.844 29.7688 57.8722 29.1503 58.8744 28.5578C60.0334 27.8609 61.2185 27.1465 62.2904 26.3363C62.4211 26.9723 62.5431 27.6082 62.639 28.2529C60.7828 29.2984 58.8134 30.3438 56.8875 31.3631C55.7547 31.9642 54.6305 32.5654 53.5238 33.1665C53.6371 32.4695 53.5848 31.7116 53.3059 30.8927C53.1927 30.5703 52.9225 30.3264 52.5652 30.3264C52.3735 30.248 52.1818 30.1783 51.9988 30.0999C51.6502 29.9692 51.3278 30.1957 51.1274 30.4571C50.7004 31.0233 49.6808 32.5741 48.8704 31.7464C48.4172 31.2847 47.5196 31.607 47.5545 32.2866C47.5806 32.6699 47.2321 34.7956 46.7876 33.5237C46.6395 33.0968 46.4739 32.7396 46.1689 32.3911C45.5589 31.6854 44.7572 32.3998 44.2431 32.757C43.8335 33.0358 43.6069 33.6195 43.3455 34.0203C42.1516 35.8585 38.9535 33.4714 41.0188 32.1559H41.0362C41.0449 32.1559 41.0536 32.1559 41.0623 32.1559C44.1821 31.8248 48.9052 29.4203 52.1818 27.6431C52.3038 27.5734 52.3561 27.4166 52.2864 27.2946C52.2167 27.1726 52.0598 27.1291 51.9378 27.1901C48.9314 28.8192 44.7049 30.9798 41.6898 31.5461C42.0906 31.0495 42.4566 30.3612 42.5961 29.7862C43.6505 29.5249 44.6091 29.0022 45.5415 28.4882C46.2648 28.0874 47.0142 27.6779 47.7811 27.4079C47.9118 27.3643 47.9815 27.2162 47.9379 27.0768C47.8944 26.9461 47.7462 26.8764 47.6155 26.92C46.8051 27.2075 46.0382 27.6257 45.2975 28.0351C44.4086 28.523 43.5634 28.976 42.6483 29.2374C42.6048 28.9499 42.3782 28.706 42.0994 28.6188C40.8532 28.2355 40.2258 30.065 39.2846 27.6431C39.0406 27.0158 39.1016 26.2579 39.1278 25.6045C39.1888 23.8882 40.1299 23.9318 41.2366 24.7159C42.9098 25.9094 44.7398 26.1098 46.3781 24.8378C46.4129 24.8117 46.4391 24.7856 46.4739 24.7507C48.0774 23.9405 49.6285 22.9473 51.1361 21.989C52.5129 21.1091 53.9421 20.1944 55.3712 19.4451C55.4932 19.3754 55.5455 19.2273 55.4758 19.0967C55.4061 18.9747 55.2579 18.9224 55.1272 18.9921C53.6807 19.7501 52.2428 20.6648 50.8572 21.5534C49.6285 22.3375 48.3824 23.1303 47.1014 23.836C47.4238 23.2348 47.7375 22.4508 47.9989 21.6057C48.7832 21.1614 49.5762 20.6997 50.3431 20.2553C52.1818 19.1838 54.0728 18.0686 55.9987 17.1452C56.1294 17.0842 56.1817 16.9274 56.1207 16.8054C56.0597 16.6747 55.9028 16.6225 55.7808 16.6834C53.8288 17.6156 51.9291 18.7308 50.0817 19.811C49.4629 20.1769 48.8268 20.5428 48.1906 20.9087C48.8181 18.4433 48.8704 15.7687 47.0839 15.7164C47.6068 15.3244 48.1035 14.9672 48.5741 14.7058C48.6961 14.6361 48.7396 14.4793 48.6699 14.3573C48.6002 14.2354 48.4434 14.1918 48.3214 14.2615C47.4935 14.7232 46.6134 15.4202 45.6722 16.1607C44.4784 17.1016 43.2584 18.0599 42.0732 18.6175C42.0209 18.452 41.9773 18.2777 41.9686 18.1209C41.9251 17.6069 42.0732 17.0319 42.2562 16.4744C43.7551 15.7948 45.2016 14.671 46.6046 13.5733C47.2059 13.1028 47.7724 12.6585 48.3388 12.2578C48.4521 12.1794 48.4782 12.0138 48.3998 11.9006C48.3127 11.7873 48.1558 11.7612 48.0425 11.8396C47.4674 12.249 46.9009 12.6934 46.2909 13.1725C45.0622 14.1308 43.7986 15.1153 42.5176 15.7774C42.5961 15.5857 42.6658 15.3941 42.7355 15.2198C43.0056 14.5142 43.1538 13.8521 43.2409 13.1812C43.2671 13.1812 43.2932 13.1987 43.3194 13.1987C43.3804 13.1987 43.4414 13.1812 43.4936 13.1377C45.3062 11.5172 47.2059 10.2889 49.2102 8.98206L49.8725 8.54646C49.9945 8.46805 50.0207 8.31124 49.9422 8.18927C49.8638 8.0673 49.7069 8.04117 49.5849 8.11086L48.9227 8.54646C46.9532 9.82712 45.0884 11.0468 43.2932 12.6237C43.3368 11.9703 43.3368 11.3082 43.3106 10.5764C43.2235 8.27639 44.6875 7.32679 46.4042 6.16809C46.6134 6.0287 46.7179 5.82833 46.7441 5.62795L46.7702 5.63666ZM46.2735 35.6233C47.9902 36.416 48.7745 34.996 49.0185 33.5672C50.1514 33.8025 51.1622 32.8354 51.9639 31.8597C52.4345 34.6649 48.9139 36.4509 46.5175 36.6338C45.3672 36.721 44.2518 36.4683 43.1364 36.1895C43.2932 36.146 43.4414 36.0937 43.5721 36.0153C44.4261 35.5448 44.7398 34.4297 45.4195 33.8025C45.0884 34.1161 45.8814 35.449 46.2735 35.632V35.6233ZM46.2735 16.3611C45.9162 17.2062 45.9598 18.208 45.8378 19.0967C45.4195 22.1458 43.1451 20.7084 42.2998 19.0879C43.5459 18.5042 44.7921 17.5285 46.0121 16.5615C46.0992 16.4918 46.1864 16.4308 46.2648 16.3611H46.2735ZM7.03298 22.6163C7.74755 22.05 8.43598 21.4315 9.1157 20.8216C10.6407 19.4364 12.2267 18.0077 14.0829 17.2846C14.2136 17.2323 14.2833 17.0842 14.231 16.9535C14.1787 16.8228 14.0306 16.7531 13.8999 16.8054C11.9478 17.5633 10.3357 19.027 8.77584 20.4383C8.21813 20.9436 7.6517 21.4489 7.07655 21.9193C7.11141 21.3182 7.1637 20.7432 7.18984 20.2641C7.18984 20.2292 7.18984 20.2031 7.18984 20.1682C7.98284 19.6368 8.69741 18.9921 9.39456 18.3561C10.2921 17.5372 11.2246 16.6834 12.3139 16.1172C12.4359 16.0475 12.4881 15.8994 12.4184 15.7687C12.3574 15.6467 12.2006 15.5944 12.0699 15.6641C10.9196 16.2653 9.96099 17.1365 9.03727 17.9815C8.45341 18.513 7.85213 19.0618 7.20727 19.5323C7.25955 18.1819 7.25955 16.849 7.24213 15.4986C10.6407 10.4631 15.512 6.43817 21.4029 4.08593C23.5204 3.28443 25.7165 2.71815 27.956 2.39581C28.5922 4.46055 27.6597 5.67151 25.4812 6.4643C25.5509 6.43817 23.3462 6.7518 23.1544 6.79536C22.3179 7.00444 21.5074 7.23095 20.6447 7.25709C20.4007 7.25709 20.087 7.39648 19.9824 7.64042C19.599 8.51161 19.5032 9.09532 19.721 10.0362C20.0696 11.6044 18.9629 12.885 17.3159 12.8763C17.1154 12.8763 16.915 12.9547 16.7756 13.1028C15.39 14.488 16.183 15.9952 17.7167 16.6573C19.9302 17.6156 21.307 16.6312 23.1719 15.2634C26.3526 12.9286 27.2589 16.5702 26.4572 18.7046C25.8733 20.2728 25.882 21.7451 26.1783 23.3307C24.8015 24.7246 23.2242 25.953 21.6817 27.1291L21.3942 27.3556C21.2809 27.4427 21.2634 27.5995 21.3506 27.7128C21.4029 27.7825 21.4813 27.8086 21.551 27.8086C21.6033 27.8086 21.6643 27.7912 21.7079 27.7564L21.9954 27.5386C23.4594 26.4147 24.9583 25.2473 26.3003 23.9318C26.3875 24.3064 26.5007 24.681 26.6402 25.0469C25.7687 25.8746 24.6969 26.6151 23.6599 27.3295C23.1544 27.6779 22.649 28.0264 22.1697 28.3836C22.0564 28.4707 22.0303 28.6275 22.1174 28.7408C22.1697 28.8105 22.2482 28.8453 22.3266 28.8453C22.3789 28.8453 22.4312 28.8279 22.4747 28.7931C22.954 28.4446 23.4507 28.0961 23.9474 27.7564C24.9409 27.0681 25.9605 26.3624 26.8319 25.5609C26.98 25.9181 27.1369 26.2666 27.3112 26.6064C26.0912 27.8609 24.4877 28.9325 23.3374 29.6556C23.2154 29.734 23.1806 29.8908 23.259 30.0127C23.3113 30.0912 23.3897 30.1347 23.4769 30.1347C23.5204 30.1347 23.5727 30.126 23.6163 30.0912C24.7579 29.3768 26.3177 28.3313 27.5639 27.0942C27.7033 27.3556 27.834 27.6257 27.9735 27.887C29.2632 30.3787 27.1195 31.1627 25.1587 31.3283C23.3723 31.4764 21.9519 30.2567 20.1916 30.1783C19.0587 30.126 17.8649 30.6226 17.8126 31.9381C17.7516 33.6282 16.9847 34.5778 16.4619 36.0676C16.2876 36.5729 16.4967 37.3134 17.0109 37.5486C18.9367 38.4546 21.368 37.0607 23.0934 38.0713C24.5923 38.9425 25.8297 39.1516 26.8145 40.8243C27.7905 42.4883 30.3176 42.6015 29.298 45.1803C28.8885 46.2083 29.42 46.609 28.1042 47.4367C27.712 47.6806 27.4593 47.8897 27.102 48.1859C26.614 48.6041 26.3177 49.4404 25.9692 49.9544C25.1762 51.1044 24.4529 52.2021 23.9562 53.5089C23.381 55.0248 24.5749 56.6539 25.0629 58.0217C26.004 60.6615 24.2002 58.8058 23.5902 58.4573C22.4922 57.8126 21.6643 56.8717 21.0543 55.7827C21.9519 55.3123 22.7623 54.6676 23.5204 54.0316C23.625 53.9445 23.6424 53.779 23.5553 53.6745C23.4682 53.5699 23.3026 53.5525 23.198 53.6396C22.466 54.2582 21.673 54.8767 20.819 55.3297C20.6447 54.9725 20.4879 54.5979 20.3659 54.2233C20.8626 53.8835 21.3244 53.4741 21.7689 53.0646C22.344 52.5332 22.9453 51.993 23.6163 51.6359C23.7383 51.5662 23.7906 51.4093 23.7209 51.2874C23.6512 51.1654 23.4943 51.1131 23.3723 51.1828C22.649 51.5749 22.0216 52.1411 21.4203 52.69C21.0194 53.0559 20.6186 53.4044 20.209 53.7006C20.0522 53.0472 20.026 52.3938 20.0522 51.7404C20.0522 51.7404 20.0522 51.7404 20.0609 51.7404C20.6447 51.2787 21.246 50.8344 21.8473 50.3813C22.7449 49.7018 23.6773 49.0048 24.5575 48.2817C24.6707 48.1946 24.6795 48.0291 24.5923 47.9246C24.5052 47.8113 24.3396 47.8026 24.235 47.8897C23.3636 48.6041 22.4399 49.301 21.5423 49.9806C21.0543 50.3465 20.575 50.7124 20.0957 51.0783C20.1567 50.2942 20.2613 49.5188 20.2787 48.7435C21.7253 48.3602 23.381 47.0969 24.5575 46.1996C24.7927 46.0253 25.0019 45.8598 25.1849 45.7204C25.2982 45.6333 25.3243 45.4765 25.2372 45.3632C25.15 45.25 24.9932 45.2238 24.8799 45.311C24.6882 45.4504 24.479 45.6159 24.2437 45.7901C23.137 46.6352 21.5859 47.8287 20.2787 48.2121C20.2613 47.6632 20.1742 47.1231 19.9912 46.5829C22.3527 45.7466 24.9235 43.5773 25.7165 42.889C25.821 42.7932 25.8297 42.6364 25.7426 42.5231C25.6467 42.4186 25.4812 42.4099 25.3853 42.497C23.8342 43.8735 21.6294 45.4591 19.8082 46.1038C19.7733 46.0253 19.7384 45.9469 19.6949 45.8685C19.5642 45.6159 19.355 45.3894 19.1372 45.1803C20.7232 44.2568 22.3092 43.0633 23.7383 41.9743L24.5575 41.3557C24.6707 41.2686 24.6969 41.1118 24.6097 40.9985C24.5226 40.8853 24.3657 40.8591 24.2524 40.9463L23.4333 41.5648C21.978 42.6712 20.3484 43.9083 18.745 44.8144C18.6927 44.7708 18.6404 44.7186 18.5882 44.675C17.0196 43.2637 18.0653 41.8262 18.6753 40.5629C18.9019 40.0838 18.6579 39.5959 18.3267 39.2126C17.4291 38.1759 16.183 37.4789 15.4597 36.2854C14.6231 34.9089 14.5099 33.3494 13.8563 31.9817C13.4206 31.0756 12.7147 30.5703 11.8433 30.0999C11.6777 30.0127 11.5121 29.9256 11.3553 29.8298C12.5491 29.0631 13.6733 28.1745 14.7713 27.3033C15.9739 26.345 17.22 25.3606 18.5184 24.5678C18.6404 24.4981 18.6753 24.3325 18.6056 24.2193C18.5359 24.0973 18.3703 24.0625 18.257 24.1322C16.9237 24.9424 15.6689 25.9355 14.4576 26.9026C13.2986 27.8173 12.1134 28.7582 10.8586 29.5423C10.3357 29.2287 9.87385 28.915 9.43813 28.5491C10.1527 28.0264 10.8934 27.5124 11.6167 27.0158C13.6297 25.6306 15.7124 24.1932 17.4204 22.4856C17.5163 22.3811 17.5163 22.2243 17.4204 22.1197C17.3246 22.0239 17.159 22.0239 17.0544 22.1197C15.3813 23.8011 13.316 25.2212 11.3204 26.5977C10.5623 27.1204 9.7867 27.6605 9.03727 28.2007C8.77584 27.948 8.51441 27.6779 8.25298 27.3643C10.9457 25.5522 13.5687 23.322 15.8606 21.3356C15.9651 21.2398 15.9826 21.083 15.8867 20.9784C15.7909 20.8739 15.634 20.8565 15.5294 20.9523C13.2463 22.9386 10.632 25.1602 7.94798 26.9549C7.91313 26.9026 7.86955 26.859 7.8347 26.8067C7.5907 26.4757 7.42513 26.0749 7.30313 25.6306C8.3837 25.0556 9.6037 23.7924 10.7976 22.6599C11.7648 21.7364 12.6799 20.7694 13.3944 20.3425C13.5164 20.2728 13.56 20.116 13.4816 19.994C13.4119 19.872 13.255 19.8372 13.133 19.9069C12.3661 20.3599 11.4337 21.2659 10.4403 22.2068C9.35099 23.2436 8.15713 24.4022 7.15498 24.9598C7.0417 24.2193 7.03298 23.4004 7.06784 22.6163H7.03298ZM59.7458 46.2693C59.589 46.5829 59.4321 46.8878 59.2665 47.1927C59.2317 47.245 59.2055 47.306 59.1794 47.3583C59.1794 47.3757 59.162 47.3844 59.1532 47.4018C54.6741 55.2339 46.7005 60.8531 37.6725 62.5258C37.5592 62.5432 37.4372 62.5694 37.3152 62.5868C37.0973 62.6216 36.8708 62.6565 36.6529 62.6913C34.788 62.9614 32.8883 63.066 30.9799 62.9963C23.9562 62.5781 17.4466 59.8338 12.3574 55.382C5.85655 49.5188 1.84797 40.9201 1.96126 31.7813C1.96126 31.6593 1.96997 31.5373 1.97868 31.4154C1.9874 31.154 2.00483 30.8839 2.02226 30.6226C2.02226 30.5529 2.03097 30.4832 2.03968 30.4135C2.06583 30.0912 2.09197 29.7775 2.12683 29.4639C2.12683 29.4029 2.14426 29.3419 2.14426 29.2809C2.17911 28.9673 2.22269 28.6537 2.26626 28.3488C2.28369 28.2529 2.2924 28.1658 2.30983 28.07C2.3534 27.7999 2.39697 27.5386 2.44054 27.2685C2.46669 27.1204 2.50154 26.9723 2.52769 26.8242C2.57126 26.6238 2.60611 26.4147 2.64969 26.2143C2.69326 26.0052 2.74554 25.7962 2.79783 25.5871C2.83269 25.4477 2.85883 25.317 2.89369 25.1776C2.9634 24.9075 3.03312 24.6375 3.11154 24.3761C3.12897 24.2977 3.15512 24.228 3.17254 24.1496C3.25969 23.836 3.35554 23.531 3.46012 23.2174C3.46883 23.1826 3.47755 23.1477 3.49497 23.1129C3.60826 22.7731 3.72155 22.442 3.84355 22.111C3.84355 22.1023 3.85226 22.0849 3.86097 22.0761C3.98297 21.7451 4.11369 21.4053 4.25312 21.0743C4.25312 21.0568 4.27055 21.0394 4.27926 21.0133C4.40998 20.7084 4.54069 20.4034 4.67141 20.0985C4.69755 20.0463 4.71498 19.994 4.74112 19.9417C4.85441 19.6891 4.97641 19.4364 5.09841 19.1838C5.15069 19.0705 5.21169 18.9573 5.26398 18.844C5.35112 18.6698 5.43826 18.4955 5.53412 18.33C5.56898 18.2603 5.60384 18.1993 5.64741 18.1296C5.59512 19.9591 5.51669 21.7887 5.56898 23.6182C5.64741 26.406 6.58855 28.1658 8.57541 30.0912C8.82813 30.3351 9.13313 30.518 9.44684 30.6923C9.47299 30.7184 9.49913 30.7271 9.53399 30.7446C10.022 30.9972 10.5361 31.2063 10.998 31.4328C12.5317 32.1733 12.2529 33.271 12.8454 34.6214C13.2811 35.6058 13.7604 36.8865 14.475 37.7054C15.3464 38.7073 17.3943 39.5872 16.6797 41.0334C15.6601 43.0981 16.3311 44.7708 17.9433 46.217C19.4073 47.5325 18.6056 49.876 18.4574 51.5139C18.3442 52.7771 18.5969 54.2146 19.0936 55.3733C19.6426 56.6714 24.5662 63.4057 26.3265 60.1997C26.8145 59.3111 26.7099 58.588 26.5095 57.6123C26.4049 57.107 25.9779 56.2358 25.7775 55.774C25.0629 54.1188 25.5247 53.387 26.3613 52.054C26.8057 51.3396 27.6859 50.8256 27.9037 49.9893C28.2523 48.6302 29.969 48.5431 30.3612 47.2537C30.9363 45.3632 31.7555 43.4815 30.1782 41.8436C28.4527 40.0576 27.2589 38.263 24.9147 37.3134C24.0694 36.9736 23.1632 36.0414 22.1523 36.2244C21.9432 36.2592 17.3769 37.0259 18.4662 35.4664C19.1023 34.5604 19.2766 33.515 19.3027 32.4347C19.3376 30.9449 21.8734 32.2082 22.5444 32.4608C25.0019 33.393 29.7337 32.9574 30.0039 29.6643C30.0736 28.7931 29.6205 27.887 29.2719 27.1117C28.4615 25.2996 27.6685 23.7314 27.4593 21.7102C27.224 19.4713 29.1586 17.4065 28.139 15.1501C27.4767 13.6952 26.3526 13.1987 24.8276 13.0157C23.9649 12.9112 23.0499 13.521 22.3702 13.9392C21.4726 14.5054 20.88 15.0804 19.8517 15.516C19.1546 15.8122 18.5533 15.3679 17.8649 15.0717C16.976 14.6884 19.4247 14.1831 19.4596 14.1657C20.2003 13.8085 20.6622 13.399 21.124 12.7195C21.5336 12.1097 21.3854 11.0904 21.3157 10.4282C21.2983 10.2453 21.0369 8.7904 21.1414 8.7904C21.6992 8.77297 22.1523 8.65101 22.7013 8.52033C25.1936 7.93662 27.2327 7.87564 29.0453 5.84575C30.03 4.73933 29.908 3.49352 29.4985 2.21286C32.7576 1.90794 36.0603 2.12574 39.2759 2.84012C41.3848 3.34542 43.4501 4.0598 45.4195 4.99198C43.7376 6.12453 41.8292 7.43133 41.7856 9.66159C41.7421 11.7873 41.7333 13.5558 40.9665 15.577C40.5133 16.7618 40.3739 17.9031 40.5569 19.0967C40.5308 19.0967 40.5046 19.1054 40.4785 19.1141C40.3391 19.1228 40.2345 19.2535 40.2432 19.3929C40.2519 19.5235 40.3652 19.6281 40.4959 19.6281C40.4959 19.6281 40.5133 19.6281 40.5221 19.6281C40.5656 19.6281 40.6092 19.6107 40.6528 19.6019C40.6702 19.6804 40.6789 19.7588 40.7051 19.8372C41.1843 21.7277 42.8139 22.5902 44.6265 22.3288C45.5764 22.1894 46.3519 21.5186 46.8399 20.7345C46.5262 22.2852 45.7681 23.7576 44.4871 24.2019C42.2998 24.9685 40.4436 20.7694 38.3173 22.8951C37.0973 24.1235 37.4111 27.1204 37.9688 28.5666C38.2389 29.2548 38.8315 29.9169 39.5286 30.187C39.8423 30.309 40.1561 30.4222 40.4872 30.4832C39.4328 31.3283 37.4721 31.668 37.9775 33.5324C38.1953 34.3252 38.9099 35.0483 39.7901 35.5623C37.9513 35.5971 36.5135 36.8691 35.825 38.5505C35.1105 40.319 35.5462 42.5754 36.4089 44.1958C37.6028 46.4609 42.2126 45.6943 41.2279 48.9439C41.1408 49.2226 41.0885 49.4927 41.0449 49.7541C40.9142 49.8063 40.8445 49.9544 40.8968 50.0851C40.9142 50.1374 40.9491 50.1722 40.9926 50.2071C40.8706 51.8711 41.4893 53.3957 42.1342 55.0248C42.4828 55.9134 43.5459 58.5444 45.0186 57.9346C49.5675 56.0441 49.0011 49.9196 49.5849 45.5462C50.7091 46.2431 52.2079 46.0689 53.5412 45.4068C54.4039 44.9799 54.7612 44.0652 54.9094 43.1852C55.1011 42.0353 53.611 40.7459 55.8157 41.8436C56.478 42.1747 57.0182 43.2637 57.9594 43.011C58.735 42.7932 59.3798 41.9046 60.0072 41.4603C60.9833 40.772 61.6978 39.7876 62.2991 38.716C61.7763 41.3209 60.9135 43.8648 59.7284 46.2867L59.7458 46.2693ZM46.7702 46.6613C46.7005 46.5394 46.5436 46.4871 46.4216 46.5568C45.6722 46.9662 44.9489 47.4454 44.2518 47.9158C43.8161 48.2121 43.3716 48.5083 42.9185 48.787C42.9359 48.7348 42.9359 48.6825 42.9534 48.6302C43.1364 48.0378 43.1538 47.4454 43.0318 46.914C44.4174 46.339 45.8552 45.4329 47.1624 44.6053C47.5719 44.3439 47.9641 44.1 48.3562 43.8648C47.9118 45.8424 47.8159 47.8984 47.6068 49.9109C47.4761 51.1741 45.8552 58.7013 44.0252 55.3994C43.2584 54.0142 42.7529 52.5506 42.6745 51.0522C43.0754 50.8431 43.4849 50.5643 43.9032 50.1722C44.0078 50.0764 44.0165 49.9109 43.9206 49.8063C43.8248 49.7018 43.6592 49.6931 43.5546 49.7889C43.2496 50.0764 42.9534 50.2942 42.6571 50.4685C42.6658 50.1374 42.6919 49.8063 42.7529 49.4753C43.3629 49.1181 43.9555 48.7261 44.5394 48.3427C45.2278 47.881 45.9424 47.4018 46.6656 47.0098C46.7876 46.9401 46.8399 46.7833 46.7702 46.6613ZM62.9004 33.9854C62.822 34.0464 62.7523 34.1335 62.7 34.2555C61.8111 36.1895 61.0443 38.1846 59.6064 39.7876C58.0901 41.469 57.637 41.016 56.0161 40.2145C55.3451 39.8834 53.8375 39.5262 53.2188 40.1535C53.0271 40.3451 52.8441 40.7023 52.8441 40.9811C52.8615 41.1902 52.9051 41.3906 52.9661 41.591C52.9922 41.6519 53.0184 41.7129 53.0445 41.7739C53.9857 43.2898 52.8964 43.8561 49.7941 43.4815C49.6721 43.2462 49.4455 43.133 49.2102 43.1156C49.2102 43.0981 49.2102 43.0894 49.2015 43.072C49.1318 42.95 48.9749 42.9065 48.8529 42.9762C48.2255 43.3334 47.5719 43.7428 46.8835 44.1871C45.6025 44.9973 44.1995 45.886 42.8575 46.4435C42.6135 45.9208 42.1952 45.4939 41.5591 45.2238C41.4283 45.1716 41.2889 45.1193 41.1582 45.0757C41.5503 44.8667 41.9251 44.6314 42.2998 44.3875C42.5786 44.2133 42.8575 44.0303 43.1276 43.8735C45.0796 42.7584 47.0839 41.6519 49.0185 40.5804C51.1099 39.4217 53.2798 38.2281 55.3887 37.0085C55.5107 36.9388 55.5542 36.782 55.4845 36.66C55.4148 36.538 55.258 36.4945 55.136 36.5642C53.0271 37.7751 50.8659 38.9687 48.7745 40.1273C46.8312 41.1989 44.8269 42.3053 42.8749 43.4292C42.5961 43.586 42.3085 43.7689 42.0209 43.9519C41.5068 44.2742 40.9839 44.6053 40.4611 44.8405C40.1822 44.7534 39.9033 44.675 39.6332 44.5966C41.4109 43.8561 43.2061 42.7932 44.8356 41.8262C45.2452 41.5822 45.6461 41.347 46.0382 41.1205C46.1602 41.0508 46.2038 40.894 46.1341 40.772C46.0644 40.6501 45.9075 40.6065 45.7855 40.6762C45.3934 40.9027 44.9925 41.1466 44.5742 41.3906C42.7878 42.4534 40.8009 43.6208 38.8751 44.3439C38.3871 44.1436 38.0211 43.8212 37.7683 43.403C40.0515 42.5231 42.4218 41.1641 44.5132 39.9618C44.6352 39.8921 44.6788 39.7353 44.6091 39.6133C44.5394 39.4914 44.3825 39.4478 44.2605 39.5175C42.1691 40.7198 39.7988 42.0875 37.5331 42.95C37.2455 42.2879 37.1322 41.5213 37.0886 40.8417C37.0102 39.6046 37.3849 38.2717 38.4481 37.5486C40.0776 36.4422 42.9969 37.81 44.7311 38.08C47.8682 38.5592 52.3212 36.9213 53.3669 33.8634C54.6044 33.1926 55.868 32.5218 57.1402 31.8423C59.0051 30.8491 60.9135 29.8385 62.7261 28.8192C62.7784 29.2025 62.822 29.5859 62.8568 29.9692C62.9614 31.3021 62.9875 32.6525 62.9265 33.9941L62.9004 33.9854Z" stroke="#006B60" stroke-miterlimit="10"/>
    <path d="M9.82901 36.2243C9.73316 36.1198 9.5763 36.1111 9.46301 36.1982C8.7223 36.8516 8.0513 36.5989 7.26701 36.3027C6.37815 35.963 5.36729 35.5796 4.31286 36.7296C4.217 36.8342 4.22572 36.9997 4.33029 37.0955C4.38257 37.1391 4.44357 37.1652 4.50457 37.1652C4.57429 37.1652 4.644 37.1391 4.69629 37.0868C5.51543 36.1895 6.24744 36.4683 7.09272 36.7906C7.91187 37.1042 8.83558 37.4527 9.80287 36.5902C9.90744 36.4944 9.91616 36.3376 9.82901 36.2243Z" stroke="#006B60" stroke-miterlimit="10"/>
    <path d="M12.3815 42.7932C12.9044 42.9587 13.4882 43.1329 14.1941 42.9151C14.3335 42.8716 14.4032 42.7322 14.3596 42.5928C14.3161 42.4621 14.1766 42.3837 14.0372 42.4273C13.4795 42.6015 13.0176 42.4534 12.5209 42.3053C11.7366 42.0614 10.8391 41.7826 9.68878 43.011C9.59292 43.1155 9.60164 43.2723 9.69749 43.3769C9.74978 43.4204 9.81078 43.4466 9.87178 43.4466C9.94149 43.4466 10.0112 43.4204 10.0635 43.3682C10.9959 42.375 11.5972 42.5667 12.3641 42.8019L12.3815 42.7932Z" stroke="#006B60" stroke-miterlimit="10"/>
    <path d="M30.4475 11.2123C31.0226 10.6896 31.6588 10.8725 32.3995 11.0816C32.8004 11.1949 33.2361 11.3168 33.6979 11.3168C34.2818 11.3168 34.8918 11.1077 35.4756 10.4108C35.5628 10.3062 35.5541 10.1407 35.4408 10.0536C35.3362 9.96648 35.1706 9.97519 35.0835 10.0884C34.2644 11.0816 33.4714 10.8551 32.5476 10.585C31.7721 10.3672 30.9006 10.1146 30.1076 10.829C30.0031 10.9248 29.9943 11.0903 30.0902 11.1949C30.1861 11.2994 30.3516 11.3081 30.4562 11.2123H30.4475Z" stroke="#006B60" stroke-miterlimit="10"/>
    <path d="M34.0922 17.4762C33.2731 17.1364 32.2535 16.7182 31.3559 17.7724C31.2601 17.8769 31.2775 18.0425 31.3821 18.1296C31.4867 18.2254 31.6522 18.208 31.7394 18.1034C32.3929 17.3368 33.0901 17.6243 33.8918 17.9466C34.3101 18.1209 34.7632 18.3038 35.2077 18.3038C35.6085 18.3038 36.0007 18.1557 36.3667 17.7114C36.4538 17.5982 36.4364 17.4413 36.3318 17.3542C36.2185 17.2671 36.0617 17.2845 35.9745 17.3891C35.4778 17.9989 34.9375 17.816 34.101 17.4762H34.0922Z" stroke="#006B60" stroke-miterlimit="10"/>
    <path d="M34.4581 33.9767C34.5452 33.8635 34.5104 33.6979 34.3971 33.6195C34.2838 33.5411 34.1182 33.5672 34.0398 33.6805C33.4559 34.4907 32.8111 34.2729 31.7915 33.8547C30.8242 33.454 29.6304 32.9661 28.7676 34.4733C28.6979 34.5953 28.7415 34.7521 28.8635 34.8218C28.9071 34.8479 28.9506 34.8566 28.9942 34.8566C29.0814 34.8566 29.1685 34.8131 29.2208 34.7259C29.8221 33.6631 30.5192 33.8809 31.5998 34.3339C32.4974 34.7085 33.6128 35.1615 34.4581 33.9854V33.9767Z" stroke="#006B60" stroke-miterlimit="10"/>
    <path d="M55.9546 47.5238C55.423 48.2904 54.9524 48.1249 54.2988 47.8984C53.6278 47.6632 52.8 47.3757 52.0941 48.5692C52.0244 48.6912 52.0593 48.848 52.1813 48.9177C52.2248 48.9438 52.2684 48.9525 52.312 48.9525C52.3991 48.9525 52.4863 48.909 52.5298 48.8306C53.0178 48.0029 53.4536 48.151 54.1246 48.3863C54.7868 48.6215 55.6147 48.9003 56.3641 47.82C56.4426 47.7067 56.4164 47.5412 56.3031 47.4628C56.1898 47.3844 56.0243 47.4105 55.9458 47.5238H55.9546Z" stroke="#006B60" stroke-miterlimit="10"/>
    <path d="M37.543 52.9253C37.6127 52.8033 37.5779 52.6465 37.4559 52.5768C37.3339 52.5071 37.177 52.5419 37.1073 52.6639C36.506 53.6484 35.5823 53.5264 34.5191 53.3783C33.4473 53.2302 32.2186 53.0647 31.4691 54.3279C31.3994 54.4499 31.4343 54.6067 31.5563 54.6764C31.5998 54.7025 31.6434 54.7112 31.687 54.7112C31.7741 54.7112 31.8613 54.6677 31.9048 54.5892C32.4887 53.6222 33.395 53.7442 34.4494 53.8836C35.5387 54.0317 36.7674 54.1972 37.543 52.9253Z" stroke="#006B60" stroke-miterlimit="10"/>
    <path d="M15.4765 49.9283C14.9014 50.5294 14.2827 50.3726 13.5681 50.1896C12.7751 49.9893 11.8775 49.7628 11.2152 50.8692C11.1455 50.9911 11.1804 51.148 11.3024 51.2177C11.3459 51.2438 11.3895 51.2525 11.4331 51.2525C11.5202 51.2525 11.6074 51.2089 11.6509 51.1305C12.0954 50.39 12.5921 50.4684 13.4374 50.6862C14.1607 50.8692 15.0582 51.0957 15.8425 50.2768C15.9384 50.1722 15.9384 50.0154 15.8425 49.9109C15.7379 49.815 15.5811 49.815 15.4765 49.9109V49.9283Z" stroke="#006B60" stroke-miterlimit="10"/>
    <path d="M39.3719 6.01998C39.4329 6.01998 39.4939 6.00256 39.5374 5.959C40.0167 5.54954 40.6006 5.68022 41.2193 5.82832C41.9252 5.99385 42.7182 6.1768 43.2933 5.41015C43.3805 5.29689 43.3543 5.14008 43.241 5.05296C43.1277 4.96584 42.9709 4.99197 42.8837 5.10523C42.5265 5.58439 42.0646 5.50598 41.3326 5.33174C40.6529 5.17492 39.886 4.99197 39.2063 5.57567C39.1017 5.67151 39.0843 5.82832 39.1802 5.94158C39.2324 6.00256 39.3022 6.0287 39.3719 6.0287V6.01998Z" stroke="#006B60" stroke-miterlimit="10"/>
    <path d="M40.7841 58.2134C40.6621 58.1437 40.5052 58.1873 40.4355 58.3093C39.8168 59.3896 39.2068 59.1369 38.3528 58.7971C37.4901 58.4487 36.4269 58.0218 35.5642 59.5986C35.4945 59.7206 35.5381 59.8774 35.6688 59.9471C35.7037 59.9645 35.7472 59.982 35.7908 59.982C35.8779 59.982 35.9651 59.9297 36.0174 59.8513C36.6622 58.6752 37.2897 58.9278 38.1698 59.2763C39.0064 59.6161 40.0521 60.0342 40.8887 58.5706C40.9584 58.4487 40.9148 58.2918 40.7928 58.2222L40.7841 58.2134Z" stroke="#006B60" stroke-miterlimit="10"/>
  </g>
  <defs>
    <clipPath id="clip0_176_2150">
      <rect width="65" height="65" fill="white"/>
    </clipPath>
  </defs>
</svg>