<svg xmlns="http://www.w3.org/2000/svg" width="23" height="27" viewBox="0 0 23 27" fill="none">
  <path d="M11.5513 2.24559C10.515 2.21129 9.48596 2.43665 8.55069 2.90271C7.61542 3.36878 6.80129 4.06193 6.17676 4.92387C5.20427 6.41661 4.54834 8.10801 4.25265 9.88543C4.03989 11.1957 4.01214 12.5444 3.86413 13.874C3.76237 14.741 3.65137 17.0339 2.68931 17.4097C2.10216 17.5452 1.57685 17.885 1.19998 18.3731C0.709702 19.3943 1.11672 21.4464 2.4673 21.5331H18.7852C19.997 21.5331 21.5141 21.7932 22.0877 20.3384C22.2047 19.9359 22.2237 19.5094 22.143 19.0973C22.0622 18.6853 21.8843 18.3006 21.6251 17.9781C21.1626 17.4386 20.3486 17.4482 19.9323 16.822C19.518 16.0176 19.2899 15.1236 19.2662 14.2111C19.0072 11.8604 19.1922 9.14361 18.1562 6.97594C17.3679 5.24151 16.0726 3.81155 14.456 2.89108C13.5519 2.43501 12.5554 2.21355 11.5513 2.24559Z" stroke="#252525" stroke-miterlimit="10"/>
  <path d="M14.4556 22.9004C14.4141 23.6594 14.0954 24.3731 13.5647 24.8951C13.0341 25.4172 12.3318 25.708 11.6018 25.708C10.8719 25.708 10.1696 25.4172 9.63894 24.8951C9.10831 24.3731 8.78956 23.6594 8.74805 22.9004H14.4556Z" stroke="#252525" stroke-miterlimit="10"/>
  <path d="M12.1802 2.02399V0.627049C12.1781 0.468921 12.1186 0.317483 12.0137 0.203149C11.934 0.110026 11.8288 0.0447317 11.7122 0.0161499C11.5956 -0.012432 11.4734 -0.00291319 11.3622 0.0434111C11.251 0.0897354 11.1562 0.170616 11.0907 0.275046C11.0252 0.379476 10.9922 0.502385 10.9962 0.627049V2.02399C10.9995 2.18472 11.0587 2.33874 11.1627 2.45753C11.2734 2.5652 11.4182 2.62689 11.5697 2.63094C11.7228 2.62611 11.8683 2.56061 11.9766 2.44781C12.085 2.33502 12.1478 2.18343 12.1525 2.02399H12.1802Z" fill="white"/>
</svg>