<svg xmlns="http://www.w3.org/2000/svg" width="31" height="40" viewBox="0 0 31 40" fill="none">
  <path d="M28.4256 28.2615V34.0288C28.4219 35.2691 27.9463 36.4573 27.1029 37.3329C26.2595 38.2086 25.1171 38.7003 23.9262 38.7003H5.48572C4.89251 38.6985 4.30551 38.5744 3.7585 38.3354C3.21149 38.0963 2.71526 37.747 2.29838 37.3075C1.88149 36.8679 1.55218 36.3469 1.32938 35.7743C1.10659 35.2017 0.994713 34.5889 1.00019 33.9711V6.01407C1.00382 4.77493 1.47713 3.58742 2.31715 2.70987C3.15717 1.83231 4.29594 1.33572 5.48572 1.32812H23.9262C25.1184 1.33193 26.2607 1.82685 27.1037 2.70481C27.9467 3.58277 28.422 4.77245 28.4256 6.01407V12.9348" stroke="#252525" stroke-miterlimit="10"/>
  <path d="M16.4364 15.5879H10.9402C9.69391 15.5879 8.68359 16.6401 8.68359 17.9381V21.8743C8.68359 23.1722 9.69391 24.2244 10.9402 24.2244H16.4364C17.6827 24.2244 18.693 23.1722 18.693 21.8743V17.9381C18.693 16.6401 17.6827 15.5879 16.4364 15.5879Z" stroke="#252525" stroke-miterlimit="10"/>
  <path d="M21.2961 28.1023C21.0749 28.3151 20.799 28.4563 20.5021 28.5085C20.2051 28.5607 19.9 28.5217 19.624 28.3963C19.348 28.271 19.113 28.0646 18.9477 27.8024C18.7825 27.5403 18.6941 27.2336 18.6934 26.92V12.8766C18.6941 12.563 18.7825 12.2564 18.9477 11.9942C19.113 11.7321 19.348 11.5257 19.624 11.4003C19.9 11.2749 20.2051 11.236 20.5021 11.2882C20.799 11.3404 21.0749 11.4815 21.2961 11.6943L24.2726 14.578L29.8103 19.9272L24.2726 25.2763L21.2961 28.1023Z" stroke="#252525" stroke-miterlimit="10"/>
</svg>