<svg xmlns="http://www.w3.org/2000/svg" width="22" height="20" viewBox="0 0 22 20" fill="none">
  <path d="M10.0992 0.868752C10.4628 0.11438 11.5372 0.114381 11.9008 0.868753L14.2439 5.72955C14.3897 6.03195 14.6774 6.24104 15.0101 6.28622L20.357 7.01256C21.1868 7.12528 21.5188 8.14704 20.9138 8.72599L17.0149 12.4565C16.7724 12.6885 16.6624 13.0268 16.7222 13.3572L17.6838 18.6669C17.833 19.4909 16.9638 20.1224 16.2262 19.7258L11.4735 17.1706C11.1779 17.0116 10.8221 17.0116 10.5265 17.1706L5.77377 19.7258C5.03617 20.1224 4.16701 19.4909 4.31624 18.6669L5.27775 13.3572C5.33757 13.0268 5.22764 12.6885 4.98509 12.4565L1.08625 8.72599C0.481166 8.14704 0.813157 7.12528 1.64298 7.01255L6.98992 6.28622C7.32257 6.24104 7.61035 6.03195 7.75612 5.72955L10.0992 0.868752Z" fill="#FFC220"/>
</svg>