<svg width="183" height="207" viewBox="0 0 183 207" fill="none" xmlns="http://www.w3.org/2000/svg">
<g id="Group 1000003932">
<g id="Group 1000003931">
<g id="Group 1000003930">
<path id="Vector" d="M72.1437 23.8273C72.1437 23.8273 63.463 16.7523 57.5443 26.5427C56.7552 27.1622 58.728 8.82034 72.1437 23.8273Z" fill="#230F0B"/>
<path id="Vector_2" d="M127.922 27.9445C127.922 27.9445 121.826 18.3162 113.263 25.6054C112.334 25.9239 119.735 9.20317 127.922 27.9445Z" fill="#230F0B"/>
<g id="Group" opacity="0.22">
<g id="Group_2">
<path id="Vector_3" d="M99.476 40.1429L80.7637 42.9596L82.5119 49.6612L105.885 44.5025C107.625 44.1175 108.625 41.9551 108.184 40.2297C107.68 38.296 105.888 37.4536 104.137 37.8038L74.8916 43.6514C71.228 44.3838 72.0967 50.5731 75.7657 50.4746L134.333 48.8796C138.556 48.7638 138.58 41.9116 134.333 41.9319L95.4233 42.1316V49.0793L153.717 43.6688C155.487 43.5038 157.005 42.1896 157.005 40.195C157.005 38.3481 155.501 36.672 153.717 36.7212L101.019 38.1541C96.7961 38.267 96.7742 45.122 101.019 45.1018L152.585 44.8123C156.813 44.792 156.824 37.8646 152.585 37.8646L113.73 37.9746V44.9223L147.266 43.3417V36.394L92.2695 43.2143C90.5048 43.4343 88.9813 44.6618 88.9813 46.6882C88.9813 48.6422 90.4884 50.078 92.2695 50.162L102.824 50.6686L101.95 43.8454L81.8871 46.9371L83.6353 53.6358L105.099 49.033C106.841 48.6596 107.839 46.4797 107.395 44.7602C106.88 42.7772 105.112 42.0477 103.35 42.3343L70.7622 47.6319L73.2968 53.9832L79.7471 49.8059C80.4304 49.3763 80.9432 48.6997 81.1906 47.9013C81.438 47.103 81.4031 46.2369 81.0925 45.4636C80.4924 44.0162 78.7634 42.8148 77.2152 43.4372L61.9582 49.722C60.3141 50.4023 59.1551 52.0523 59.6593 53.9948C60.1223 55.7722 61.9993 56.9707 63.7064 56.4207L87.603 48.7146L85.0711 42.3661C74.1901 47.2874 62.298 49.4788 50.4908 49.0648L51.3649 55.888L94.9 48.6509L93.1381 41.9637L75.0724 46.1208C73.4914 46.4855 72.4885 48.3209 72.7159 49.9333C72.9352 51.4676 74.3025 53.1553 75.9465 52.9439L121.575 47.0934C123.337 46.8676 124.863 45.6605 124.863 43.6196C124.863 41.9174 123.351 39.92 121.575 40.1458L75.9465 45.9876L76.8206 52.8108L94.8863 48.6567C96.6208 48.2572 97.6264 46.1208 97.1825 44.381C96.6673 42.4067 94.8972 41.6627 93.1381 41.9551L49.603 49.1922C48.011 49.4585 47.03 51.4676 47.2492 53.0047C47.3574 53.8315 47.7425 54.59 48.3348 55.1424C48.927 55.6948 49.6871 56.0045 50.4771 56.0154C63.5146 56.4728 76.3987 53.7719 88.3758 48.3672C89.8609 47.6985 90.2938 45.4405 89.7211 44.0249C89.0827 42.4906 87.4386 41.4977 85.8411 42.013L61.9445 49.7191L63.6927 56.438L78.9497 50.1562L76.4069 43.8049L69.9566 47.9822C69.2733 48.4117 68.7605 49.0884 68.5131 49.8867C68.2657 50.6851 68.3006 51.5511 68.6112 52.3244C69.3182 54.0237 70.8198 54.6056 72.4885 54.3508L105.077 49.0504L103.329 42.3517L81.8871 46.9371C80.1444 47.3105 79.147 49.4904 79.5882 51.2099C80.1088 53.2045 81.8707 53.9079 83.6353 53.6358L103.712 50.5557C105.307 50.3125 106.285 48.263 106.069 46.7432C105.958 45.9168 105.572 45.1594 104.98 44.6073C104.387 44.0553 103.628 43.745 102.838 43.7325L92.2831 43.2259V50.1736L147.266 43.3533C149.031 43.1333 150.555 41.9058 150.555 39.8794C150.555 38.0615 149.05 36.3217 147.266 36.4056L113.73 37.9862C109.524 38.1831 109.475 44.9339 113.73 44.9339L152.585 44.8239V37.8762L101.019 38.1657V45.1134L153.717 43.6804V36.7327L95.4233 42.1316C93.6532 42.2967 92.1352 43.6109 92.1352 45.6055C92.1459 46.5233 92.4957 47.4003 93.1101 48.0494C93.7244 48.6984 94.5546 49.068 95.4233 49.0793L134.333 48.8796V41.9319L75.7657 43.527L76.6398 50.3502L105.885 44.5025L104.137 37.8038L80.7637 42.9596C79.0237 43.3446 78.0236 45.5071 78.4647 47.2324C78.9853 49.2327 80.7445 49.9246 82.5119 49.6612L101.224 46.8445C102.983 46.5781 103.948 44.2131 103.52 42.5717C103 40.5713 101.241 39.8794 99.476 40.1429Z" fill="#FAAD3F"/>
</g>
</g>
<path id="Vector_4" d="M103.596 193.012C98.7153 168.184 97.8003 142.668 100.889 117.52C101.541 112.231 103.234 105.903 108.131 104.595C112.704 103.376 117.283 107.49 121.952 106.792C125.218 106.306 127.827 103.474 129.134 100.276C130.441 97.0767 130.679 93.5161 130.896 90.0393C131.592 79.0022 132.287 67.9651 132.981 56.9279C148.29 64.8338 168.564 59.8054 178.944 45.5309C181.01 42.691 182.78 39.2114 182.199 35.6884C181.588 31.925 178.338 29.0736 174.823 28.182C171.307 27.2904 167.594 28.0343 164.164 29.2415C155.028 32.4606 146.627 38.9914 136.998 38.9509C129.326 38.9219 122.284 34.6694 115.666 30.5413C112.315 28.4541 108.542 25.6432 108.509 21.5354C108.46 16.2262 114.831 12.2545 113.852 7.0611C113.195 3.56122 109.06 1.66798 105.854 2.79408C102.648 3.92018 100.502 7.22611 99.7215 10.6999C98.9406 14.1738 99.2913 17.8039 99.6503 21.353C94.9154 15.5112 84.9221 16.0062 80.727 22.2881C81.9299 17.3321 83.1082 11.9332 81.1682 7.2348C79.2281 2.53644 72.6738 -0.144199 69.4212 3.63938C67.0812 6.35186 67.7005 10.726 69.3582 13.9509C71.016 17.1757 73.5287 19.8882 74.8768 23.2723C76.225 26.6564 75.9291 31.2766 72.9341 33.1409C68.8239 31.2882 63.9163 33.0396 60.4473 36.0357C56.9784 39.0319 54.5369 43.1224 51.7529 46.8249C42.9841 58.3528 30.6896 66.2955 16.9808 69.289C13.6926 69.9953 10.2839 70.4296 7.27801 72.0072C4.2721 73.5849 1.67446 76.6535 1.70734 80.1997C1.73748 83.6735 4.35978 86.7073 7.44241 87.9492C10.5251 89.1911 13.9584 88.9624 17.2027 88.3343C30.9527 85.6739 43.2805 75.814 49.4321 62.5526L54.6602 85.7115C50.3171 87.1589 49.7116 94.0429 52.6133 97.7483C55.5151 101.454 60.3487 102.67 64.8535 103.359C69.3582 104.048 74.1425 104.517 77.8307 107.351C83.3411 111.568 84.6508 119.538 85.2783 126.697C87.3197 150.109 86.7827 173.692 83.6781 196.973C87.5565 198.397 91.6958 198.845 95.7671 198.283C99.8384 197.721 103.729 196.163 107.131 193.733L105.213 190.983" fill="#FBE165"/>
<path id="Vector_5" d="M104.256 192.821C99.8367 170.272 98.6855 147.144 100.842 124.23C101.514 117.129 102.188 102.875 112.351 105.413C116.417 106.432 120.431 108.812 124.563 106.661C128.476 104.635 130.361 100.101 131.041 95.7823C131.521 92.7398 131.614 89.6336 131.808 86.5592L132.414 76.9338L133.674 56.913L132.641 57.5383C143.328 62.9951 156.154 62.4364 166.706 56.9217C172.042 54.1339 176.872 50.003 180.278 44.8212C182.196 41.909 183.662 38.2383 182.692 34.6631C181.87 31.6525 179.528 29.3337 176.859 28.1236C170.055 25.0319 162.278 28.9545 156.089 31.9535C149.611 35.0974 142.889 38.6812 135.538 38.1514C131.74 37.8619 128.063 36.5593 124.635 34.8658C121.274 33.186 118.016 31.2852 114.88 29.1745C112.395 27.5157 109.4 25.1825 109.197 21.7868C109.032 18.8746 111.013 16.3734 112.438 14.0807C113.808 11.898 115.061 9.40838 114.483 6.71616C113.904 4.02394 111.468 2.22913 109.002 1.81806C106.106 1.33462 103.374 2.77047 101.552 5.1153C99.3598 7.92332 98.6035 11.5071 98.5624 15.0736C98.5784 17.173 98.7111 19.2696 98.9597 21.3526L100.127 20.8402C94.9756 14.6278 84.67 15.2849 80.1241 21.9228L81.3763 22.4787C82.5546 17.6211 83.774 12.2251 81.9436 7.36461C81.289 5.69607 80.2241 4.24271 78.8593 3.15502C77.4944 2.06734 75.8792 1.38488 74.1808 1.1783C70.5063 0.77012 67.5908 3.52023 67.2291 7.35592C66.7715 12.1759 69.7473 16.0029 72.1613 19.7257C73.5314 21.8476 74.8 24.1316 74.9343 26.7602C75.0494 28.9689 74.4493 31.2993 72.5805 32.5238L73.1067 32.4515C68.4485 30.4511 63.2422 32.5701 59.5951 35.85C55.5151 39.5323 52.8078 44.5809 49.2676 48.79C40.6366 59.0558 29.0552 66.0455 16.3012 68.6864C13.5419 69.2654 10.7278 69.6822 8.11094 70.8112C3.95692 72.6003 -0.0272098 76.9165 1.23873 82.0375C2.53754 87.3003 7.86982 89.5902 12.5719 89.5641C17.537 89.5323 22.6034 87.9314 27.1219 85.8471C35.9239 81.7748 43.3185 74.9263 48.2921 66.2402C48.9059 65.1576 49.4731 64.0459 50.0047 62.9141L48.7524 62.7404L53.9779 85.8992L54.4574 85.0105C51.6213 86.0295 50.1883 88.9649 50.1252 92.0074C50.0567 95.4407 51.6597 98.3529 54.2491 100.345C61.009 105.555 70.4021 102.823 77.2196 107.787C83.6972 112.506 84.2397 122.227 84.8234 129.73C86.5605 152.082 85.9485 174.569 82.9985 196.778C82.9569 196.962 82.983 197.157 83.0714 197.322C83.1599 197.486 83.3042 197.61 83.4753 197.667C87.4435 199.108 91.6737 199.558 95.8343 198.983C99.9949 198.408 103.973 196.823 107.457 194.352C107.731 194.152 107.936 193.695 107.703 193.362L105.785 190.615C105.267 189.874 104.078 190.595 104.604 191.344L106.522 194.095L106.769 193.105C103.441 195.474 99.638 196.993 95.6591 197.543C91.6802 198.093 87.6348 197.657 83.8424 196.272L84.322 197.163C87.0396 176.781 87.8025 156.16 86.599 135.616C86.325 131.068 86.0674 126.482 85.4125 121.975C84.8645 118.275 83.9767 114.518 82.1244 111.293C80.1816 107.926 77.2497 105.633 73.7177 104.412C69.8185 103.063 65.6754 102.964 61.6913 102.026C57.951 101.158 53.4435 99.3343 52.005 95.1917C50.9363 92.1116 51.5008 87.6014 54.8328 86.4058C55.0057 86.3506 55.1519 86.2272 55.2412 86.0612C55.3304 85.8953 55.3559 85.6994 55.3123 85.5142L50.0841 62.3553C49.9526 61.7764 49.0922 61.6229 48.8319 62.1846C43.0311 74.589 31.9199 83.9568 19.1701 87.1527C15.4928 88.0762 11.41 88.7275 7.76843 87.309C4.70223 86.1106 1.94568 82.9117 2.43616 79.2555C2.92664 75.5993 6.15449 73.0692 9.23987 71.9026C12.7116 70.5912 16.4464 70.2554 20.0086 69.2972C33.4352 65.6584 45.2177 57.1128 53.5833 45.4928C55.8384 42.3577 58.0141 39.0633 60.935 36.5622C63.5765 34.3042 67.1387 32.683 70.594 33.2128C71.353 33.3286 72.1092 33.7918 72.8463 33.8699C73.4163 33.9278 74.041 33.2475 74.4192 32.8481C75.3163 31.8451 75.9147 30.5858 76.14 29.2266C76.7346 25.9959 75.7098 22.9303 74.0986 20.2149C72.2326 17.0682 69.6733 14.2457 68.8266 10.549C68.1333 7.52093 68.8266 3.66498 72.0764 2.75889C74.6274 2.04675 77.4497 3.44497 79.1787 5.3961C81.686 8.22148 81.7654 12.5667 81.2667 16.1823C80.9605 18.1756 80.5562 20.1506 80.0556 22.0994C79.8528 22.9303 80.8776 23.3008 81.3078 22.6552C85.3632 16.7266 94.633 16.4139 99.1543 21.865C99.5269 22.3137 100.385 21.975 100.324 21.3555C99.9324 17.4532 99.4858 13.3193 100.749 9.53575C101.711 6.64089 103.892 3.72287 106.917 3.22496C109.383 2.82257 112.397 4.18605 113.099 6.86959C113.795 9.50391 112.11 12.0051 110.794 14.0778C109.479 16.1505 107.986 18.4201 107.827 21.0457C107.646 24.0014 109.367 26.517 111.419 28.3292C113.869 30.4945 116.779 32.1128 119.56 33.7397C122.648 35.549 125.862 37.2135 129.227 38.3222C132.465 39.4281 135.878 39.8443 139.27 39.5468C142.558 39.2167 145.736 38.2151 148.803 36.9414C155.154 34.2897 161.188 30.315 167.953 28.8966C171.406 28.1728 175.124 28.3436 178.092 30.5119C180.851 32.518 182.177 35.824 181.314 39.2891C180.492 42.5516 178.355 45.3828 176.196 47.7913C174.244 49.9659 172.048 51.881 169.658 53.4942C160.166 59.9179 147.893 61.7937 137.165 57.9725C135.847 57.5011 134.559 56.9423 133.307 56.2993C133.203 56.2387 133.085 56.2076 132.966 56.2088C132.846 56.2101 132.729 56.2437 132.626 56.3065C132.522 56.3693 132.436 56.4591 132.375 56.5673C132.314 56.6756 132.28 56.7986 132.277 56.9246C131.537 68.6546 130.956 80.4106 130.052 92.129C129.679 96.9518 128.638 102.55 124.298 105.156C120.119 107.683 115.781 104.487 111.578 103.792C107.786 103.164 104.569 104.933 102.684 108.424C100.705 112.08 100.278 116.397 99.8256 120.501C97.1577 144.756 98.1976 169.306 102.905 193.212C103.084 194.124 104.404 193.736 104.226 192.827L104.256 192.821Z" fill="#DC7136"/>
<path id="Vector_6" d="M124.605 46.5379C124.605 46.5379 149.48 55.8188 158.147 38.907C164.502 26.5083 177.024 29.8287 177.024 29.8287" stroke="#EB9658" stroke-width="3" stroke-miterlimit="10"/>
<g id="Group_3" opacity="0.22">
<g id="Group_4">
<path id="Vector_7" d="M81.6668 50.5188L127.824 37.6772C128.658 37.4199 129.365 36.8296 129.794 36.0315C130.223 35.2333 130.341 34.2901 130.123 33.4015C129.616 31.4532 127.832 30.6456 126.076 30.9756L75.5673 40.4736C73.8191 40.8007 72.8272 43.0558 73.2711 44.7464C73.7862 46.7323 75.5536 47.4531 77.3155 47.1723L111.019 41.7879C112.775 41.4984 113.759 39.1825 113.315 37.5151C112.797 35.5205 111.035 34.82 109.271 35.0892L75.4221 40.2652C73.6629 40.5344 72.6819 42.8908 73.1258 44.538C73.6437 46.5326 75.4056 47.236 77.1703 46.9639L111.019 41.7879L109.271 35.0892L75.5673 40.4736L77.3155 47.1752L127.824 37.6801L126.076 30.964L79.9186 43.8201C75.8303 44.9578 77.5621 51.6622 81.6668 50.5188Z" fill="#FAAD3F"/>
</g>
</g>
<g id="Group_5" opacity="0.22">
<g id="Group_6">
<path id="Vector_8" d="M81.9934 49.454L123.21 41.1544C124.956 40.8041 125.95 38.5867 125.507 36.8816C125.002 34.9507 123.213 34.1054 121.462 34.4557L70.8466 44.5877C67.2543 45.3056 68.0215 51.8654 71.7207 51.4109C94.113 48.6521 116.511 45.9425 138.895 43.1374C144.72 42.4079 150.48 41.4902 155.741 38.5867C159.142 36.7108 156.738 31.3495 153.209 32.2383L125.501 39.0701C121.81 39.982 122.742 45.7891 126.375 45.8933L152.68 46.6547V39.707C126.881 40.3957 101.177 43.3001 75.8227 48.3916C68.6983 49.8274 61.6005 51.436 54.5292 53.2173L56.2774 59.9189L78.8834 53.582C79.7167 53.3247 80.4224 52.7348 80.851 51.9372C81.2796 51.1396 81.3975 50.1971 81.1796 49.3092C80.67 47.3552 78.8889 46.5591 77.1352 46.8833L42.1246 53.3244C40.3737 53.6457 39.3845 55.9124 39.8284 57.5972C40.3408 59.5715 42.1109 60.3184 43.8728 60.0231L74.5348 54.8818C76.1296 54.6155 77.1105 52.6094 76.8913 51.0722C76.7864 50.2432 76.402 49.4819 75.8085 48.9283C75.215 48.3747 74.4524 48.0659 73.6607 48.0587L47.7556 47.3928L50.5944 52.621L51.748 50.169C52.5371 48.49 52.1727 46.4057 50.567 45.4157C49.1147 44.5154 46.8623 44.9756 46.0677 46.6604L44.9168 49.1124C43.8208 51.4717 45.1525 54.2739 47.7556 54.3405L73.6607 55.0063L72.7866 48.1831L42.1246 53.3244L43.8728 60.0231L78.8834 53.582L77.1297 46.8862L54.5402 53.2376C50.43 54.3955 52.1727 60.9755 56.2884 59.9392C80.904 53.7279 105.959 49.6529 131.203 47.7547C138.357 47.2182 145.52 46.8563 152.691 46.6691C156.925 46.5562 156.928 39.8459 152.691 39.7215L126.386 38.9601L127.26 45.7833L154.968 38.9341L152.434 32.5856C148.419 34.8002 143.833 35.5587 139.383 36.126C133.932 36.8179 128.48 37.4722 123.03 38.1524L90.1891 42.2052L71.7317 44.4777L72.6058 51.3009L123.221 41.1689L121.473 34.4702L80.2535 42.7524C78.508 43.1056 77.5133 45.323 77.9572 47.0281C78.4614 48.959 80.2535 49.8043 82.0017 49.454H81.9934Z" fill="#D78D2A"/>
</g>
</g>
<path id="Vector_9" d="M81.3086 53.1447C81.3086 53.1447 91.806 0.930105 103.778 52.7712C98.7961 58.6073 81.6045 57.4754 81.3086 53.1447Z" fill="#FBE165" stroke="#DC7136" stroke-width="2" stroke-miterlimit="10" stroke-linecap="round"/>
<path id="Vector_10" d="M119.258 80.6541C127.86 79.7502 133.73 67.2954 132.368 52.8354C131.007 38.3753 122.93 27.3859 114.329 28.2897C105.727 29.1936 99.8575 41.6484 101.219 56.1085C102.58 70.5685 110.657 81.5579 119.258 80.6541Z" fill="white" stroke="black" stroke-width="2" stroke-miterlimit="10"/>
<path id="Vector_11" d="M80.5714 56.0875C81.9327 41.6275 76.0633 29.1726 67.4616 28.2688C58.8599 27.3649 50.7833 38.3544 49.4219 52.8144C48.0606 67.2744 53.9301 79.7293 62.5318 80.6331C71.1334 81.537 79.2101 70.5475 80.5714 56.0875Z" fill="white" stroke="black" stroke-width="2" stroke-miterlimit="10"/>
<g id="Group_7">
<path id="Vector_12" d="M128.992 44.5379C134.385 55.0086 133.07 68.4321 125.866 77.5943C124.523 79.2994 126.836 81.7716 128.19 80.0492C136.366 69.6537 137.977 54.7162 131.834 42.7865C130.82 40.8209 127.981 42.5723 128.992 44.5379Z" fill="#FBB15E"/>
</g>
<path id="Vector_13" d="M101.755 60.8273C104.056 60.4741 106.413 60.4683 108.728 60.393L109.531 60.3612L109.821 60.338C110.482 60.2743 111.134 60.1904 111.792 60.0949C113.206 59.9019 114.622 59.733 116.042 59.5883C121.412 59.0788 126.805 58.9688 132.192 58.7922C132.31 56.7035 132.277 54.6082 132.093 52.5248C130.833 38.0505 122.823 26.9227 114.208 27.658C105.593 28.3933 99.6282 40.7225 100.891 55.191C101.056 57.0885 101.344 58.9718 101.755 60.8273Z" fill="#DC7138"/>
<path id="Vector_14" d="M130.591 60.6648L103.464 62.9807C103.047 63.0291 102.628 62.9024 102.298 62.6279C101.968 62.3535 101.753 61.9531 101.699 61.513L101.012 56.7944L132.34 55.5352L132.581 58.3026C132.598 58.5959 132.56 58.8899 132.469 59.1676C132.378 59.4453 132.236 59.7013 132.051 59.9209C131.866 60.1404 131.642 60.3191 131.391 60.4468C131.141 60.5745 130.869 60.6486 130.591 60.6648Z" fill="white"/>
<g id="Group_8">
<path id="Vector_15" d="M129.245 42.4826C134.673 53.0806 132.731 66.6344 124.916 75.3218C123.458 76.9401 125.782 79.4007 127.242 77.7767C136.093 67.9341 138.227 52.7188 132.087 40.7225C131.078 38.754 128.25 40.5054 129.245 42.4739V42.4826Z" fill="#FBB15E"/>
</g>
<path id="Vector_16" d="M137.406 56.2824L96.617 57.4056L96.5156 54.5773L137.305 53.4541L137.406 56.2824Z" fill="#070808"/>
<path id="Vector_17" d="M121.369 59.093C121.862 61.9532 120.566 64.683 118.472 65.1867C116.379 65.6904 114.285 63.7769 113.792 60.9168C112.263 55.1994 114.4 54.5307 116.491 54.0299C118.582 53.5291 120.974 55.1994 121.369 59.093Z" fill="#070808"/>
<path id="Vector_18" d="M118.313 60.5287C118.86 60.5287 119.303 60.0906 119.303 59.5502C119.303 59.0099 118.86 58.5718 118.313 58.5718C117.767 58.5718 117.324 59.0099 117.324 59.5502C117.324 60.0906 117.767 60.5287 118.313 60.5287Z" fill="white"/>
<g id="Group_9" opacity="0.22">
<path id="Vector_19" d="M113.138 37.6599C114.907 37.7054 116.611 38.3715 117.982 39.5532C119.383 40.8182 120.333 42.4972 120.468 43.9649L126.926 43.0415C125.693 37.3502 122.032 32.4926 117.245 29.6441C113.984 27.7016 110.669 32.2494 113.261 35.098C117.151 39.3362 120.001 44.5149 121.564 50.1831L127.907 48.3362C125.334 39.9961 118.341 33.6766 110.209 32.015C108.466 31.656 106.66 32.5331 106.164 34.4409C105.72 36.143 106.712 38.3547 108.46 38.7137C114.439 39.9353 119.725 44.2139 121.564 50.1831C122.868 54.4067 129.088 52.664 127.907 48.3362C126.021 41.5177 122.59 35.2877 117.911 30.1854L113.927 35.6422C117.374 37.6947 119.72 40.8964 120.585 44.8884C121.407 48.6343 127.403 47.9135 127.044 43.9649C126.362 36.4586 120.226 30.8368 113.138 30.7123C108.904 30.637 108.902 37.5847 113.138 37.6599Z" fill="#DA7B2C"/>
</g>
<g id="Group_10" opacity="0.22">
<path id="Vector_20" d="M114.444 37.0785C114.883 36.1579 114.403 37.1045 114.384 37.009C114.212 37.1306 114.281 37.093 114.589 36.8961L114.431 36.9859C114.861 36.8787 114.639 36.7948 115.088 36.9424C115.96 37.2319 116.688 38.1206 117.247 38.9688C119.127 41.8637 120.451 45.0886 121.766 48.2845C122.336 49.6711 124.199 50.253 125.479 49.8825C126.164 49.6646 126.767 49.2233 127.2 48.6217C127.634 48.0201 127.876 47.289 127.893 46.5331C128.189 40.506 125.577 33.5873 120.563 30.3393C117.998 28.6776 114.74 28.4779 112.121 30.1077C109.866 31.5088 108.405 33.9492 107.29 36.375C106.512 38.0627 106.854 40.1384 108.468 41.1284C109.912 42.02 112.186 41.5771 112.967 39.8807C113.663 38.3667 114.244 37.0698 115.379 36.1174C115.028 36.4069 115.883 35.9176 115.453 36.0624C115.486 36.0624 116.376 35.8887 116.069 35.8829C116.584 35.8829 117.184 36.2592 117.628 36.624C120.388 38.8965 121.492 43.013 121.317 46.5447L127.446 44.7904C125.717 40.59 123.909 35.55 120.544 32.4728C118.807 30.8864 116.738 29.8674 114.403 29.9977C112.115 30.1395 109.827 31.3438 108.767 33.5757C107.969 35.2547 108.345 37.339 109.945 38.3291C111.405 39.2323 113.647 38.7662 114.444 37.0843V37.0785Z" fill="#EB9658"/>
</g>
<g id="Group_11" opacity="0.22">
<path id="Vector_21" d="M110.94 40.0303C112.502 37.0515 115.929 36.4436 118.782 38.276C120.344 39.2805 121.429 40.7916 122.248 42.5054C122.671 43.4343 123.008 44.4036 123.257 45.4002C123.591 46.645 123.651 48.2633 124.27 49.3807C125.183 51.0307 127.49 51.6126 129.104 52.0961C132.072 52.9906 135.167 53.32 138.245 53.0687C143.38 52.6122 148.287 50.6323 152.403 47.3572C153.825 46.2369 154.551 44.3523 153.584 42.6038C152.762 41.1245 150.518 40.23 149.085 41.359C144.627 44.8734 139.818 46.5871 134.447 46.124C134.173 46.1008 133.927 46.0719 133.664 46.04C133.99 46.0776 133.938 46.0892 133.647 46.04C133.189 45.959 132.732 45.8779 132.277 45.7737C131.522 45.6032 130.776 45.3916 130.041 45.1397C129.767 45.0413 129.493 44.94 129.203 44.83C128.882 44.7026 128.153 44.2742 129.255 44.8705C129.096 44.7836 128.926 44.7171 128.767 44.6331L130.277 46.7087C129.181 40.5572 126.476 34.2608 120.774 31.5599C115.19 28.9053 108.323 30.6915 105.259 36.5362C103.21 40.4529 108.887 43.9615 110.937 40.0419L110.94 40.0303Z" fill="#EB9658"/>
</g>
<g id="Group_12" opacity="0.22">
<path id="Vector_22" d="M113.057 28.2399C105.774 34.0817 101.442 43.6318 102.595 53.3412C102.792 54.9826 105.261 55.0057 105.061 53.3412C104.023 44.5987 107.673 35.807 114.301 30.4892C115.548 29.4875 114.32 27.2238 113.057 28.2399Z" fill="#FAA64B"/>
</g>
<g id="Group_13" opacity="0.22">
<path id="Vector_23" d="M104.152 65.7018C103.878 74.9422 112.958 80.7406 120.894 78.1063L119.943 75.7238C117.181 77.3102 113.654 76.4157 111.353 74.3169C108.832 72.0184 107.686 68.5735 106.968 65.2386C106.62 63.603 104.228 64.2949 104.59 65.9334C105.472 70.0817 107.108 74.3053 110.465 76.8904C113.542 79.2584 117.773 79.93 121.179 77.976C122.395 77.2754 121.571 75.1477 120.228 75.5935C113.791 77.7299 106.382 73.2776 106.607 65.7018C106.656 64.0228 104.19 64.0257 104.141 65.7018H104.152Z" fill="#FAA64B"/>
</g>
<g id="Group_14" opacity="0.22">
<path id="Vector_24" d="M104.974 52.4264C102.563 43.3337 107.498 34.2525 115.66 30.8829C117.124 30.2779 116.482 27.7593 115.006 28.3702C105.61 32.2522 99.8006 42.555 102.601 53.1183C103.028 54.7307 105.407 54.0447 104.979 52.4264H104.974Z" fill="#FAA64B"/>
</g>
<g id="Group_15" opacity="0.22">
<path id="Vector_25" d="M105.786 50.3129C103.32 41.4055 108.927 32.9438 117.133 30.735C118.671 30.3181 118.018 27.8054 116.478 28.2223C106.989 30.7813 100.586 40.7657 103.411 51.0048C103.852 52.6115 106.233 51.9283 105.786 50.3129Z" fill="#FAA64B"/>
</g>
<g id="Group_16">
<path id="Vector_26" d="M96.2085 70.7826C100.867 78.1935 108.196 83.3637 116.387 85.3495C118.445 85.8475 119.324 82.4981 117.261 81.9973C109.915 80.2199 103.245 75.7039 99.0472 69.0312C97.8827 67.1756 95.0329 68.9154 96.2085 70.7826Z" fill="#FBB15E"/>
</g>
<g id="Group_17">
<path id="Vector_27" d="M98.169 73.4885C101.282 79.0872 106.461 83.0705 112.36 84.7785C114.404 85.3719 115.276 82.0197 113.234 81.4291C108.14 79.9469 103.699 76.5628 101.008 71.7255C99.9364 69.8005 97.0922 71.5461 98.169 73.4798V73.4885Z" fill="#FBB15E"/>
</g>
<path id="Vector_28" d="M112.266 50.5971L120.42 49.9023" stroke="#070808" stroke-width="3" stroke-miterlimit="10"/>
<path id="Vector_29" d="M102.574 73.6836C102.574 73.6836 105.314 81.4997 113.025 82.869" stroke="#B3582E" stroke-width="2" stroke-miterlimit="10" stroke-linecap="round"/>
<g id="Group_18">
<path id="Vector_30" d="M49.9662 42.7858C43.8228 54.7155 45.434 69.653 53.6078 80.0484C54.9614 81.7708 57.2768 79.3015 55.9342 77.5936C48.7304 68.4313 47.4124 55.0137 52.8049 44.5372C53.816 42.5745 50.98 40.8173 49.9662 42.7858Z" fill="#FBB15E"/>
</g>
<path id="Vector_31" d="M80.9216 55.1906C78.6171 54.8374 52.8819 53.7779 73.0848 60.4013C73.3396 60.4853 72.5368 60.3811 72.2819 60.3695L71.9915 60.3463C71.3311 60.2826 70.6762 60.1987 70.0213 60.1032C68.6074 59.9102 67.1899 59.7413 65.7687 59.5966C60.4008 59.0871 55.0082 58.9771 49.6211 58.8005C49.5015 56.7118 49.5345 54.6165 49.7198 52.5331C50.9802 38.0588 58.9896 26.931 67.6045 27.6663C76.2195 28.4016 82.182 40.7308 80.9216 55.1993C80.7517 57.1388 81.3189 53.3871 80.9216 55.1906Z" fill="#DC7138"/>
<path id="Vector_32" d="M51.2063 60.6654L78.3171 62.9813C78.7347 63.0304 79.1539 62.904 79.4841 62.6294C79.8143 62.3548 80.0289 61.954 80.0817 61.5136L81.3011 53.1445L49.4444 55.5357L49.2033 58.3032C49.1859 58.5977 49.2241 58.893 49.3157 59.1718C49.4073 59.4506 49.5505 59.7073 49.7369 59.9271C49.9233 60.1469 50.1492 60.3254 50.4014 60.4521C50.6537 60.5789 50.9273 60.6514 51.2063 60.6654Z" fill="white"/>
<g id="Group_19">
<path id="Vector_33" d="M49.7204 40.7311C43.5798 52.7187 45.7143 67.9428 54.5649 77.7853C56.0254 79.4093 58.349 76.9516 56.8885 75.3305C49.0737 66.6459 47.131 53.0893 52.5591 42.4912C53.5675 40.5256 50.7287 38.7684 49.7204 40.7398V40.7311Z" fill="#FBB15E"/>
</g>
<path id="Vector_34" d="M44.4258 56.9623L82.2121 53.94L83.5821 51.3491L44.4422 54.1311L44.4258 56.9623Z" fill="#070808"/>
<path id="Vector_35" d="M60.4407 59.093C59.9474 61.9532 61.2435 64.683 63.3343 65.1867C65.425 65.6904 67.5239 63.7769 68.0171 60.9168C69.5434 55.1994 67.4088 54.5307 65.3154 54.0299C63.2219 53.5291 60.8352 55.1994 60.4407 59.093Z" fill="#070808"/>
<path id="Vector_36" d="M63.4853 60.5287C64.0316 60.5287 64.4745 60.0906 64.4745 59.5502C64.4745 59.0099 64.0316 58.5718 63.4853 58.5718C62.939 58.5718 62.4961 59.0099 62.4961 59.5502C62.4961 60.0906 62.939 60.5287 63.4853 60.5287Z" fill="white"/>
<g id="Group_20" opacity="0.22">
<path id="Vector_37" d="M68.6598 30.7126C61.5684 30.8371 55.436 36.4589 54.7537 43.9653C54.3975 47.8733 60.3929 48.6752 61.2122 44.8888C62.0753 40.8967 64.4236 37.695 67.8707 35.6426L63.8866 30.1858C59.2071 35.2873 55.7759 41.5175 53.8906 48.3365C52.7096 52.6586 58.9269 54.4157 60.2312 50.1834C62.0698 44.2229 67.3555 39.9356 73.3372 38.714C75.0827 38.3579 76.0774 36.1492 75.6335 34.4412C75.132 32.5132 73.3372 31.6564 71.589 32.0153C63.4564 33.677 56.4635 39.9964 53.8906 48.3365L60.2312 50.1834C61.7945 44.5151 64.6457 39.3364 68.5365 35.0983C71.1205 32.2614 67.8405 27.6846 64.5524 29.6444C59.7654 32.493 56.1019 37.3505 54.8715 43.0418L61.33 43.9653C61.4742 43.2128 61.7119 42.4837 62.037 41.797C62.4891 40.9364 63.0927 40.1749 63.8153 39.5535C65.1867 38.3722 66.8909 37.7062 68.6598 37.6603C72.8878 37.585 72.9015 30.6374 68.6598 30.7126Z" fill="#DA7B2C"/>
</g>
<g id="Group_21" opacity="0.22">
<path id="Vector_38" d="M73.0385 33.5698C71.9946 31.3755 69.8079 30.2233 67.5747 30.0091C65.1853 29.7804 63.0343 30.8457 61.2724 32.4668C57.9076 35.5441 56.0991 40.5869 54.3701 44.7845L60.497 46.5387C60.3244 43.0157 61.4259 38.8819 64.1879 36.6181C64.6209 36.2649 65.1908 35.8683 65.758 35.8567C65.4593 35.8567 66.0594 35.9494 66.1909 35.9986C66.1909 35.9986 66.6074 36.2736 66.4348 36.1115C67.5583 37.1768 68.1255 38.3202 68.8489 39.8748C69.6243 41.5625 71.8986 42.017 73.3482 41.1225C74.9922 40.1151 75.3073 38.0626 74.5264 36.3691C73.4304 33.9953 72.0192 31.6187 69.8463 30.1973C67.2048 28.4604 63.8701 28.6341 61.2533 30.3333C56.2388 33.5814 53.6275 40.5001 53.9207 46.5272C53.9368 47.2832 54.179 48.0145 54.6127 48.6162C55.0463 49.2179 55.6491 49.6591 56.3347 49.8765C57.6198 50.25 59.4777 49.6681 60.0504 48.2786C61.3656 45.0942 62.6891 41.8462 64.5688 38.9629C65.0922 38.161 65.8101 37.3302 66.5636 36.9828C66.6842 36.9278 67.3363 36.867 66.8869 36.9047H67.2377C66.9966 36.8641 66.9911 36.867 67.2185 36.922C67.4459 36.977 67.4404 36.9828 67.2185 36.8786L67.4925 37.0494C67.3144 36.9076 67.0623 36.4502 67.35 37.0494C68.1474 38.7255 70.3861 39.2003 71.8493 38.2942C73.466 37.2984 73.8277 35.2256 73.0303 33.5408L73.0385 33.5698Z" fill="#EB9658"/>
</g>
<g id="Group_22" opacity="0.22">
<path id="Vector_39" d="M76.5366 36.5246C73.4759 30.6799 66.6037 28.888 61.022 31.5483C55.3198 34.2695 52.6181 40.5398 51.5166 46.6971C51.1877 48.5383 52.0043 50.4431 53.8155 50.9699C55.4185 51.436 57.5284 50.391 57.86 48.544C58.5614 44.6099 59.715 40.2995 63.2004 38.1573C66.0091 36.4204 69.3493 37.1499 70.8728 40.0303C72.9197 43.9441 78.6027 40.4442 76.5503 36.5246H76.5366Z" fill="#EB9658"/>
</g>
<g id="Group_23" opacity="0.22">
<path id="Vector_40" d="M67.4978 30.4894C74.1261 35.8072 77.776 44.5989 76.7347 53.3414C76.5374 55.0031 79.0063 54.9857 79.2008 53.3414C80.3572 43.632 76.025 34.0819 68.7418 28.2401C67.4786 27.224 66.2483 29.4849 67.4978 30.4894Z" fill="#FAA64B"/>
</g>
<g id="Group_24" opacity="0.22">
<path id="Vector_41" d="M75.1922 65.7019C75.4142 73.2865 68.0076 77.7301 61.571 75.5937C60.2421 75.1536 59.379 77.2698 60.6202 77.9761C64.0262 79.9302 68.2569 79.2586 71.3314 76.8906C74.6907 74.3054 76.3266 70.0818 77.2089 65.9335C77.5542 64.2979 75.1785 63.6032 74.8305 65.2388C74.1208 68.5823 72.9727 72.0011 70.4463 74.317C68.1528 76.4245 64.6098 77.3045 61.8533 75.7239L60.9052 78.1064C68.8516 80.7407 77.9186 74.9423 77.6474 65.7019C77.598 64.0287 75.1319 64.02 75.1812 65.7019H75.1922Z" fill="#FAA64B"/>
</g>
<g id="Group_25" opacity="0.22">
<path id="Vector_42" d="M79.2133 53.1188C82.011 42.5641 76.1991 32.2527 66.8087 28.3706C65.3291 27.7598 64.6879 30.2784 66.1511 30.8834C74.3112 34.253 79.2462 43.3313 76.8376 52.4269C76.4102 54.0423 78.7886 54.7428 79.216 53.1188H79.2133Z" fill="#FAA64B"/>
</g>
<g id="Group_26" opacity="0.22">
<path id="Vector_43" d="M78.401 51.0048C81.2261 40.7657 74.8224 30.7813 65.3333 28.2223C63.7934 27.8054 63.1413 30.3181 64.6757 30.735C72.8961 32.9467 78.4804 41.4055 76.0225 50.3129C75.5786 51.9254 77.9571 52.6288 78.401 51.0048Z" fill="#FAA64B"/>
</g>
<g id="Group_27">
<path id="Vector_44" d="M82.7693 69.0307C78.5714 75.7034 71.9019 80.2194 64.5556 81.9968C62.4951 82.4976 63.3664 85.847 65.4297 85.3491C73.62 83.3632 80.9471 78.193 85.608 70.7821C86.7835 68.9149 83.9365 67.1751 82.7693 69.0307Z" fill="#FBB15E"/>
</g>
<g id="Group_28">
<path id="Vector_45" d="M80.7968 71.7357C78.106 76.573 73.6724 79.9571 68.5676 81.4393C66.5317 82.0182 67.3948 85.3821 69.4417 84.7886C75.3439 83.072 80.5228 79.0887 83.6355 73.4987C84.7097 71.5649 81.8682 69.8164 80.7968 71.7444V71.7357Z" fill="#FBB15E"/>
</g>
<path id="Vector_46" d="M69.5413 50.8867L61.3867 50.1919" stroke="#070808" stroke-width="3" stroke-miterlimit="10"/>
<path id="Vector_47" d="M79.2293 73.6836C79.2293 73.6836 76.4892 81.4997 68.7812 82.869" stroke="#B3582E" stroke-width="2" stroke-miterlimit="10" stroke-linecap="round"/>
<g id="Group_29" opacity="0.22">
<g id="Group_30">
<path id="Vector_48" d="M106.551 88.5453C103.354 92.9117 99.3018 96.4972 94.6721 99.0565C92.4115 100.295 89.866 101.485 87.2738 101.338C86.3634 101.304 85.4784 101.012 84.7118 100.492C84.0497 100.107 83.5489 99.4723 83.3088 98.7149L77.2997 101.393C79.4535 106.215 84.1966 109.223 89.1699 109.437C92.5238 109.582 93.5158 104.696 90.8305 102.965C87.0562 100.526 84.0006 97.0228 82.0073 92.8499L79.1685 98.078C82.313 98.1206 85.4291 97.4459 88.3043 96.1C91.1794 94.7541 93.7459 92.7687 95.8284 90.2793C96.8998 88.9766 97.1492 87.1268 96.086 85.717C95.0914 84.3969 93.2719 83.9048 91.8443 84.8225C88.3498 87.0934 84.2957 88.2168 80.196 88.0502V94.9979L83.4842 94.6361L80.6454 89.4108C80.9989 88.9245 80.8372 89.3356 80.6454 89.2632L80.8674 89.1764C80.7211 89.2316 80.5708 89.2742 80.418 89.3037C80.144 89.35 80.7222 89.4108 80.1878 89.3037C79.2151 89.0895 80.7359 89.5932 79.7631 89.2285C79.6535 89.185 78.8397 88.8145 79.2973 89.0634C79.2233 89.0229 78.5684 88.5771 78.7849 88.7537C79.0014 88.9303 78.4314 88.3831 78.3766 88.3137C78.6972 88.7161 78.0615 87.7 78.0478 87.6652C76.8969 84.9238 77.9437 81.4818 78.4369 78.6912C79.1466 74.6557 79.3357 70.6695 77.519 66.9178C75.9653 63.7074 73.1348 61.4175 69.9507 60.2741C68.2683 59.6719 66.3557 60.9631 65.9036 62.7C65.4104 64.599 66.5119 66.3707 68.2026 66.9728C69.4251 67.4228 70.4868 68.2597 71.2432 69.3697C71.9997 70.4797 72.4143 71.8088 72.4305 73.1765C72.4716 77.3914 70.8029 81.4152 71.0386 85.6591C71.266 89.7582 72.9566 93.6894 76.675 95.4003C80.2371 97.0446 83.9254 96.1964 86.3093 92.9339C87.7807 90.9075 85.8023 87.451 83.4705 87.7058L80.1824 88.0676C78.4177 88.2587 76.8942 89.515 76.8942 91.5414C76.9076 92.4583 77.2584 93.3337 77.8721 93.9821C78.4859 94.6306 79.3145 95.0011 80.1824 95.0153C85.4493 95.1909 90.6504 93.7402 95.1489 90.8409L91.1648 85.3841C89.6873 87.2188 87.845 88.6867 85.7691 89.6829C83.6931 90.6792 81.4347 91.1793 79.1548 91.1478C76.5517 91.1101 75.2063 94.0947 76.316 96.3585C78.8769 101.566 82.7446 105.928 87.4957 108.968L89.1563 102.493C86.4929 102.38 84.1939 100.64 82.9636 97.8899C81.3743 94.3321 75.8146 96.839 76.9545 100.565C78.0505 104.14 80.7441 106.684 84.1172 107.773C87.9205 109 91.9347 107.918 95.464 106.311C101.637 103.476 107.043 99.0594 111.192 93.4607C112.288 91.9844 112.562 89.9869 111.192 88.5395C110.055 87.3381 107.63 87.0544 106.534 88.5395L106.551 88.5453Z" fill="#FAAD3F"/>
</g>
</g>
<g id="Group_31" opacity="0.22">
<g id="Group_32">
<path id="Vector_49" d="M80.4053 96.2718C86.472 95.5742 92.2591 93.4783 97.2954 89.7903C98.7504 88.7221 99.419 86.7449 98.4737 85.0369C97.6297 83.5113 95.4404 82.721 93.9744 83.7892C89.9409 86.7449 85.3074 88.7597 80.4053 89.3242C78.638 89.5268 77.1172 90.7716 77.1172 92.798C77.1172 94.5176 78.627 96.4774 80.4053 96.2718Z" fill="#FAAD3F"/>
</g>
</g>
<path id="Vector_50" d="M79.4301 59.4237C80.3425 57.5553 81.7426 56.0022 83.4646 54.9484C85.1866 53.8946 87.1584 53.3842 89.1465 53.4777C91.862 53.6514 94.4788 54.9743 97.1943 54.7601C98.7178 54.6385 100.173 54.0364 101.688 53.8106C103.203 53.5848 104.93 53.828 105.916 55.0612C108.442 58.2195 103.864 63.8934 106.552 66.8982C108.168 68.7075 111.018 67.842 113.298 68.4615C114.24 68.7185 115.097 69.2434 115.777 69.9792C116.456 70.715 116.931 71.6335 117.151 72.6347C117.371 73.636 117.327 74.6818 117.023 75.6584C116.72 76.6349 116.169 77.5049 115.43 78.1737C113.487 79.928 110.33 80.2754 109.243 82.7157C108.497 84.3919 109.128 86.4617 110.306 87.831C111.484 89.2002 113.114 90.0253 114.69 90.8156C110.824 92.2398 109.18 96.9121 106.623 100.293C105.54 101.726 104.244 102.965 102.787 103.961C99.4987 106.187 95.5804 107.085 91.7031 107.449C88.963 107.704 86.1269 107.701 83.5704 106.639C81.0138 105.576 78.7779 103.263 78.3806 100.389C78.1066 98.4551 78.6546 96.3216 77.7367 94.6223C76.9804 93.2183 75.435 92.5322 74.3581 91.3858C72.1139 89.0034 72.2482 85.1445 72.8593 81.8328C73.4703 78.5211 74.3937 75.0444 73.2483 71.9092C72.4674 69.767 70.7822 68.0272 70.3383 65.7808C70.1277 64.7162 70.2161 63.6097 70.5926 62.5975C70.9692 61.5852 71.6175 60.7112 72.4578 60.0829C73.2982 59.4547 74.294 59.0995 75.3229 59.061C76.3517 59.0226 77.3688 59.3026 78.2491 59.8666" fill="#FBE165"/>
<path id="Vector_51" d="M79.7704 59.6433C80.4321 58.2981 81.3566 57.1165 82.4827 56.1769C83.6088 55.2372 84.9109 54.5608 86.3029 54.1923C89.3828 53.3847 92.2024 54.725 95.2247 55.1158C96.5877 55.2725 97.9662 55.1675 99.2938 54.806C100.897 54.4123 102.609 53.8218 104.242 54.4152C107.084 55.4458 106.24 58.7749 105.725 61.0908C105.352 62.7698 104.873 64.7528 105.686 66.3797C106.662 68.3308 108.758 68.5277 110.619 68.6087C112.096 68.6724 113.507 68.739 114.756 69.6827C115.42 70.1708 115.958 70.8256 116.323 71.5881C116.687 72.3507 116.867 73.1971 116.844 74.051C116.716 77.4438 114.077 78.5612 111.638 79.8958C109.635 80.99 108.092 82.7356 108.599 85.2976C109.216 88.4038 111.994 89.9496 114.477 91.1915L114.575 90.3954C109.66 92.3639 108.216 98.4808 104.547 101.975C101.96 104.441 98.68 105.787 95.2987 106.482C92.0106 107.157 88.3169 107.574 85.0452 106.679C81.9872 105.842 79.058 103.457 78.7429 99.9311C78.4853 97.1636 79.0333 94.8014 76.759 92.8387C75.663 91.8978 74.4957 91.1886 73.7778 89.8541C73.0325 88.4645 72.8516 86.8174 72.8872 85.2455C72.9585 82.0611 74.0765 79.0013 74.1915 75.8111C74.2811 74.101 73.9557 72.3951 73.2462 70.8551C72.4926 69.2629 71.2843 67.8532 70.8376 66.1105C69.6786 61.5916 74.2272 58.0309 78.0387 60.2455C78.5045 60.5147 78.9182 59.7649 78.4552 59.4957C76.0658 58.1091 72.9749 58.4709 71.1938 60.7434C69.4128 63.0158 69.5498 65.8528 70.865 68.3134C71.7583 70.0011 72.8872 71.5123 73.2325 73.4605C73.6353 75.7098 73.1722 78.0199 72.7475 80.2258C72.1693 83.2278 71.5501 86.5105 72.6927 89.4604C73.1718 90.6615 73.949 91.7037 74.9423 92.4768C76.5864 93.8229 77.7838 94.7927 77.8852 97.181C77.951 98.7066 77.7756 100.215 78.2606 101.691C78.7295 103.06 79.5286 104.275 80.5787 105.217C82.9791 107.414 86.1741 108.045 89.2704 108.014C92.7257 107.973 96.3345 107.435 99.5733 106.126C102.945 104.778 105.844 102.369 107.879 99.2247C109.816 96.2778 111.424 92.5666 114.806 91.2262C115.102 91.1075 115.252 90.6067 114.904 90.433C113.493 89.7267 112.03 89.0088 110.898 87.8479C109.476 86.4005 108.665 83.9023 110.076 82.1248C111.602 80.2113 114.321 79.9623 115.992 78.1936C119.606 74.3724 116.935 68.3511 112.172 67.8213C109.621 67.5318 106.004 67.9226 106.076 64.1391C106.117 61.91 107.125 59.817 107.106 57.5764C107.089 55.3792 105.782 53.7552 103.722 53.3818C102.667 53.2341 101.596 53.301 100.565 53.5786C98.4498 54.0563 96.6222 54.5281 94.4465 54.1026C91.2543 53.4773 88.3443 52.4525 85.1301 53.6452C82.5131 54.6171 80.3422 56.6013 79.0553 59.1975C78.8114 59.6897 79.5211 60.1297 79.7649 59.6347L79.7704 59.6433Z" fill="#DC7136"/>
<g id="Group_33" opacity="0.22">
<g id="Group_34">
<path id="Vector_52" d="M106.397 89.6866C102.303 96.3245 95.1622 102.812 87.0761 100.962C85.6403 100.632 83.6071 100.076 82.7686 98.6462C82.6784 98.525 82.6138 98.3847 82.5793 98.2349C82.5448 98.0851 82.5411 97.9292 82.5686 97.7777C82.6837 97.5577 82.7001 97.5375 82.6152 97.714C82.396 97.8443 82.459 97.8009 82.8042 97.5809C83.1824 97.4419 83.0481 97.4187 83.5441 97.248C85.506 96.5792 87.4131 96.2058 89.101 94.8568C91.2575 93.1344 92.1618 90.8416 91.7261 88.0134C91.3836 85.7756 88.5613 84.8811 86.898 85.9378C85.3608 86.9133 83.8099 87.9641 82.0672 88.4621C81.3957 88.6765 80.6918 88.7541 79.9929 88.6908C80.4532 88.74 79.4449 88.5518 79.4449 88.5489C78.8968 88.3926 79.4284 88.6271 78.8968 88.3405C78.8091 88.2942 78.0556 87.7615 78.4009 88.051C78.3159 87.9757 77.7405 87.2607 78.0173 87.6602C77.7432 87.2491 77.8748 87.6949 77.7953 87.1536C77.8117 87.2636 77.7652 86.6036 77.7761 86.4994C77.9296 84.9622 78.9544 83.1674 79.5298 81.6678C82.1302 74.862 79.3298 66.6609 73.2933 63.0597C69.6051 60.8596 66.2868 66.8577 69.975 69.0578C72.2438 70.4126 73.8632 73.1512 73.9454 75.7478C73.9975 77.3227 73.7454 78.4285 73.0659 80.0901C72.2055 82.1918 71.3177 84.1661 71.1998 86.4936C70.9806 90.8359 74.1948 94.3994 78.0501 95.3374C82.4727 96.4113 86.5253 94.2778 90.219 91.9301L85.3882 89.8545C85.3526 89.6258 85.4731 89.2176 85.4457 89.0266C85.4183 88.8355 85.4457 89.206 85.3115 89.2639C85.6047 89.1453 84.9306 89.4724 85.1334 89.3537C84.4891 89.724 83.7979 89.9949 83.081 90.1584C81.278 90.6679 79.5024 91.3164 78.1022 92.6683C74.625 96.035 75.8169 101.807 79.1982 104.679C85.8787 110.362 96.187 108.561 102.763 103.698C106.542 100.901 109.572 97.2711 112.08 93.2009C113.047 91.629 112.378 89.3624 110.899 88.4476C109.301 87.4604 107.372 88.1176 106.399 89.6953L106.397 89.6866Z" fill="#FAAD3F"/>
</g>
</g>
<g id="Group_35" opacity="0.22">
<g id="Group_36">
<path id="Vector_53" d="M106.675 89.168C103.004 95.2472 96.145 98.7384 89.4125 98.391C88.0287 98.3186 86.0476 98.2405 84.7543 97.2331C84.8255 97.2881 84.2994 96.8133 84.4556 97.013C84.2528 96.6271 84.1953 96.5306 84.283 96.7236C84.1569 96.2922 84.1405 96.1967 84.2364 96.4341C84.2748 96.3993 84.1624 96.8278 84.1514 96.7844C83.9542 96.9552 84.0254 96.9291 84.3652 96.7033C84.146 96.8278 84.2309 96.8162 84.6173 96.6599C86.4778 96.1533 88.1794 96.272 90.1249 95.169C92.1581 94.0111 93.5829 91.9413 93.5364 89.443C93.487 86.6784 90.8154 85.2918 88.6041 86.4439C85.8394 87.874 82.5759 89.5038 79.8741 88.398C79.5065 88.2106 79.1577 87.9847 78.8329 87.7235C78.3561 87.2719 78.7699 87.8421 78.4438 87.2574C78.2835 87.0281 78.179 86.7607 78.1396 86.4787C77.7889 84.9676 78.4136 83.1814 78.7205 81.705C79.5097 78.0459 79.6412 74.3231 78.3671 70.7567C77.1142 67.1823 74.8484 64.1031 71.8785 61.9389C70.4235 60.8592 68.2231 61.6495 67.3792 63.1837C66.4174 64.9206 67.1052 66.8573 68.5574 67.9371C70.7495 69.564 72.3361 72.5341 72.6923 75.1742C73.2595 79.3949 70.9852 83.3406 71.6565 87.6221C72.2922 91.6749 75.616 94.7174 79.3672 95.4556C83.8665 96.3415 87.9356 94.5003 91.9033 92.4479L86.9546 89.4401C86.9546 89.2172 87.256 89.0203 87.2615 88.8611C87.2615 89.0638 86.9875 89.1014 86.8012 89.1796C86.1332 89.3881 85.4492 89.5344 84.757 89.6167C82.8773 89.8917 81.088 90.3954 79.633 91.7589C75.879 95.2761 77.9698 101.454 81.984 103.561C88.5439 107.006 97.2219 105.385 103.357 101.714C107.006 99.5229 110.092 96.421 112.345 92.6794C113.298 91.0989 112.654 88.8467 111.164 87.9261C110.407 87.4761 109.515 87.3547 108.675 87.5876C107.835 87.8205 107.114 88.3893 106.664 89.1738L106.675 89.168Z" fill="#FAAD3F"/>
</g>
</g>
<g id="Group_37" opacity="0.22">
<g id="Group_38">
<path id="Vector_54" d="M106.388 91.9587C105.566 95.2675 102.713 97.5197 99.5373 98.475C95.2655 99.7633 90.5853 99.028 86.2724 98.339C84.6996 98.0842 82.9349 97.6442 82.1266 96.7844C82.006 96.6571 82.0006 96.246 82.1019 96.272L82.0553 96.4776C81.8553 96.715 81.8909 96.686 82.1595 96.385C81.7293 96.5355 82.7815 95.9941 82.9075 95.9305C82.5431 96.1157 83.4555 95.7133 83.4555 95.7133C87.1163 94.4222 91.8677 93.4959 92.6542 88.6412C92.9035 87.1011 92.487 85.5495 91.1416 84.7187C89.9551 83.9863 88.0891 84.0992 87.1574 85.2629C85.6723 87.1098 82.9678 90.8095 80.5319 89.6891C80.3394 89.6074 80.1764 89.4635 80.066 89.2781C79.6084 88.6152 79.6523 88.5254 79.4988 87.8306C79.2577 86.7393 79.4221 85.4395 79.7728 84.0963C80.7264 80.5153 82.491 77.0762 82.2389 73.2435C82.0033 69.7696 80.5319 66.0989 77.3533 64.5589C75.7394 63.7831 73.8158 64.0725 72.854 65.8066C72.032 67.2974 72.4101 69.7783 74.035 70.5599C74.2486 70.6532 74.4555 70.7625 74.6543 70.887C74.4953 70.722 74.5008 70.7191 74.6543 70.887C74.7826 71.0019 74.9026 71.1267 75.0132 71.2605C74.8845 71.0723 74.8872 71.0694 75.0132 71.2605C75.0927 71.385 75.49 72.3055 75.3558 71.9176C75.4768 72.2733 75.5685 72.6394 75.6298 73.0119C75.5366 72.485 75.6736 73.5908 75.6736 73.6082C75.6868 73.9944 75.6777 74.3811 75.6462 74.7662C75.6983 74.1872 75.5092 75.4754 75.4818 75.5999C75.3694 76.1036 75.2325 76.5986 75.0872 77.0907C73.8569 81.2506 72.2402 85.0255 73.1143 89.4778C73.9364 93.6783 77.3478 96.8858 81.4854 96.7786C85.9107 96.6629 89.103 93.5277 91.802 90.1668L86.3053 86.7856C86.2806 86.9419 86.0696 87.7612 86.2149 87.2632C86.2751 87.0519 86.1738 87.3269 86.1162 87.3733C85.3764 87.9522 85.075 88.0072 84.2858 88.2562C82.5705 88.7975 80.8552 89.1623 79.2687 90.0915C75.0324 92.5753 74.2789 98.2637 77.6876 101.914C79.255 103.593 81.4279 104.459 83.5844 104.873C85.9381 105.321 88.3385 105.634 90.7087 105.871C95.2874 106.335 99.8881 106.022 104.135 104.022C108.204 102.099 111.569 98.4027 112.715 93.7969C113.791 89.4547 107.451 87.6222 106.374 91.95L106.388 91.9587Z" fill="#FAAD3F"/>
</g>
</g>
<g id="Group_39" opacity="0.22">
<g id="Group_40">
<path id="Vector_55" d="M81.29 97.3056C83.7312 97.2779 86.1214 96.5647 88.2156 95.2389C90.3098 93.9132 92.0324 92.0228 93.2068 89.7616C94.9029 86.418 90.6283 82.4926 88.0416 85.5496C87.0369 86.7785 85.7897 87.7601 84.3875 88.4252C82.9853 89.0904 81.4622 89.423 79.9254 89.3997L80.7995 96.2258C85.5153 94.8519 89.988 92.6764 94.0425 89.7847C97.569 87.2546 94.5439 81.8789 90.7214 83.7866L79.4267 89.4171C77.821 90.2161 77.4072 92.6536 78.2457 94.1705C79.2074 95.9074 81.1338 96.22 82.745 95.4152L94.0452 89.7847L90.7242 83.7866C87.1581 86.362 83.2155 88.3004 79.054 89.5242C75.4727 90.575 76.2043 96.3069 79.9281 96.3474C82.3291 96.3773 84.7089 95.8682 86.9097 94.8536C89.1105 93.839 91.0822 92.3422 92.6944 90.4621L87.5265 86.2559C86.9331 87.47 86.0404 88.4923 84.9427 89.2148C83.845 89.9373 82.583 90.3332 81.29 90.3608C77.062 90.4158 77.0483 97.3635 81.29 97.3085V97.3056Z" fill="#FAAD3F"/>
</g>
</g>
<g id="Group_41" opacity="0.22">
<g id="Group_42">
<path id="Vector_56" d="M77.4229 102.622C80.0238 104.412 82.9732 105.559 86.0516 105.978C89.13 106.397 92.2582 106.077 95.2035 105.043L93.4553 98.3439C90.3836 99.6784 87.153 99.6755 84.2101 97.9299C83.4531 97.4822 82.5613 97.362 81.7222 97.5947C80.8831 97.8274 80.1621 98.3948 79.7109 99.1776C78.7244 100.958 79.4697 102.793 80.8891 103.931C83.2209 105.795 85.7419 107.712 88.6793 108.299C91.9318 108.951 94.9103 108.299 97.4997 106.093C99.6178 104.293 97.9409 99.8029 95.1761 100.165C91.7208 100.616 88.3258 100.147 85.2075 98.4539C82.018 96.7169 78.3572 101.103 81.2234 103.911C85.1116 107.735 90.7563 108.93 95.831 107.367C101.021 105.772 105.101 101.653 107.866 96.8733L102.188 93.3676C98.2862 100.483 89.0191 102.182 83.1771 96.2161L79.193 101.67C84.0759 104.275 89.2245 106.811 94.8336 105.923C99.4123 105.199 103.632 101.942 104.898 97.1193C105.739 93.9176 101.61 91.0546 99.4014 93.741C94.7788 99.3426 87.4736 100.978 81.0837 98.1499C79.593 97.4928 77.7489 98.7289 77.2036 100.162C76.6584 101.595 77.0392 103.769 78.549 104.504C84.4184 107.35 90.7837 109.425 97.2805 108.039C102.835 106.858 107.441 103.036 109.633 97.5304C110.321 95.7935 108.89 93.7092 107.337 93.2576C105.438 92.7047 103.983 93.9466 103.292 95.6835C102.046 98.8157 98.5081 100.816 95.1405 101.415C90.9316 102.165 85.9118 100.466 81.8673 98.506L79.3355 104.854C87.6791 108.534 98.1327 105.833 104.051 98.6594L98.5711 95.2782C97.9847 97.5043 95.4857 99.0415 93.2306 99.1863C89.3944 99.4323 85.8323 97.4493 82.525 95.6777C79.3108 93.9552 75.7404 98.2831 78.5408 101.135C80.6741 103.318 83.2601 104.945 86.0933 105.887C88.9266 106.829 91.9287 107.059 94.861 106.559C100.292 105.639 105.145 101.87 107.879 96.8791C110.008 92.9999 104.41 89.5609 102.202 93.3734C100.407 96.4709 97.8176 99.4005 94.4801 100.55C91.5345 101.563 88.1778 101.244 85.8871 99.0039L81.8947 104.452C86.0049 106.678 90.5919 107.712 95.1843 107.112L92.8552 101.181C90.5261 103.167 86.3118 99.6089 84.2156 97.9299L80.8946 103.931C85.2212 106.502 90.5809 107.054 95.209 105.043C96.853 104.33 98.0176 102.727 97.5079 100.77C97.0558 99.0328 95.1514 97.7388 93.4608 98.3439C91.3608 99.1204 89.1183 99.3694 86.9114 99.0709C84.7045 98.7724 82.5937 97.9347 80.7466 96.6243C79.2642 95.5908 77.1105 96.3146 76.2473 97.872C75.3075 99.5684 75.9404 101.589 77.4283 102.622H77.4229Z" fill="#FAAD3F"/>
</g>
</g>
<g id="Group_43" opacity="0.22">
<g id="Group_44">
<path id="Vector_57" d="M83.3926 87.4975C81.9841 87.6885 81.0278 86.9533 80.488 85.0861C79.7893 82.6631 80.3182 79.9187 80.4606 77.4465C80.784 71.8102 79.1892 65.8671 73.6761 63.8204C71.9991 63.2009 70.0783 64.5268 69.6317 66.2463C69.133 68.1627 70.2455 69.8996 71.9279 70.522C72.4442 70.7848 72.8703 71.2107 73.1472 71.7408C73.6079 72.5948 73.8699 73.5523 73.9117 74.5343C74.1145 77.3886 73.5089 80.2314 73.6213 83.0886C73.7391 86.0703 74.4735 88.9449 76.3203 91.2521C78.0055 93.3538 80.7538 94.8012 83.3926 94.4365C85.1545 94.1991 86.6807 93.0093 86.6807 90.9626C86.6807 89.2691 85.1682 87.2514 83.3926 87.4888V87.4975Z" fill="#FAAD3F"/>
</g>
</g>
<g id="Group_45" opacity="0.22">
<g id="Group_46">
<path id="Vector_58" d="M108.103 73.0463C104.033 76.9949 99.4766 81.4154 93.5388 80.7177L94.4129 87.5409C102.781 85.8077 110.857 82.7624 118.373 78.506L115.043 72.505L104.516 80.0548C103.05 81.1056 102.398 83.1089 103.337 84.8082C104.187 86.3453 106.352 87.124 107.837 86.0529L118.362 78.506C121.844 76.0078 118.814 70.3802 115.043 72.505C108.017 76.4514 100.47 79.2618 92.6537 80.8422C91.0672 81.1664 90.0725 83.0712 90.2972 84.6518C90.5712 86.4785 91.8508 87.4685 93.5278 87.6654C101.2 88.5657 107.461 83.0828 112.742 77.9618C114.049 76.691 113.958 74.3346 112.742 73.0406C111.437 71.6655 109.404 71.7697 108.083 73.0406L108.103 73.0463Z" fill="#FAAD3F"/>
</g>
</g>
<g id="Group_47" opacity="0.22">
<g id="Group_48">
<path id="Vector_59" d="M85.8945 60.6078C87.4564 59.4991 89.1964 59.062 90.846 59.3717C93.1394 59.803 94.1149 61.4271 96.2166 62.5097C97.6963 63.274 99.4253 63.4911 100.932 62.6632C101.5 62.3458 102.017 61.9355 102.464 61.4473C102.549 61.3547 102.93 60.9899 102.941 60.8683L100.129 60.6107L100.003 60.0925C99.8445 60.3588 99.861 61.4068 99.8199 61.7165C99.6844 62.5645 99.6706 63.4291 99.7788 64.2814C100.025 66.0762 100.894 67.3152 102.245 68.3834C103.667 69.5095 105.919 68.6266 106.744 67.1386C107.728 65.3641 106.991 63.5142 105.563 62.3853L106.262 63.2769C106.262 63.494 106.262 63.4766 106.262 63.2277C106.218 63.2942 106.289 62.6892 106.281 62.7992C106.361 61.896 106.607 61.0073 106.588 60.0925C106.544 58.153 105.634 56.1584 104.001 55.1713C103.221 54.6728 102.318 54.4323 101.408 54.4808C100.498 54.5293 99.6221 54.8645 98.8937 55.4434C98.5868 55.6865 97.6935 56.3726 97.5729 56.8127C98.0936 56.3147 98.6224 56.1497 99.1513 56.3147C99.2554 56.3495 99.2115 56.3147 99.0197 56.2163C98.8602 56.083 98.6917 55.9621 98.5156 55.8545C96.0878 53.9467 93.7998 52.6701 90.7309 52.398C87.8567 52.1506 84.9871 52.9294 82.5817 54.6097C81.1103 55.6547 80.4664 57.6724 81.4035 59.363C82.2584 60.9089 84.4176 61.6586 85.9028 60.6107L85.8945 60.6078Z" fill="#FAAD3F"/>
</g>
</g>
<g id="Group_49" opacity="0.22">
<g id="Group_50">
<path id="Vector_60" d="M107.778 74.2276C105.94 76.9314 103.12 78.5207 100.073 79.1199L101.821 85.8186C106.072 84.584 109.923 82.1491 112.962 78.7755C115.872 75.5303 111.231 70.6091 108.304 73.8542C106.07 76.3772 103.218 78.1969 100.065 79.1113C99.2317 79.3692 98.5262 79.9592 98.0972 80.7564C97.6682 81.5537 97.5494 82.4959 97.7657 83.3841C98.2699 85.3207 100.059 86.1545 101.813 85.81C106.603 84.8691 110.633 81.8614 113.447 77.7246C114.486 76.2019 113.7 73.8571 112.269 72.9713C110.625 71.9494 108.811 72.6818 107.77 74.219L107.778 74.2276Z" fill="#FAAD3F"/>
</g>
</g>
<g id="Group_51" opacity="0.22">
<g id="Group_52">
<path id="Vector_61" d="M103.542 64.458C105.134 62.0871 104.602 58.8188 102.925 56.6853C101.314 54.6387 98.8973 53.9063 96.4914 53.5647C91.2482 52.826 85.917 53.2439 80.8344 54.7921C76.7735 56.0253 78.4998 62.7298 82.5826 61.4937C85.8668 60.4813 89.2826 60.0279 92.7018 60.1505C94.1513 60.2055 95.7434 60.2431 97.1326 60.7294C97.3107 60.7931 98.1218 61.1608 98.0012 61.2505C97.7053 61.4676 98.5493 59.9044 97.8615 60.9408C96.8339 62.4721 97.6066 64.8054 99.0425 65.6941C100.687 66.7131 102.509 65.9836 103.542 64.4493V64.458Z" fill="#FAAD3F"/>
</g>
</g>
<g id="Group_53" opacity="0.22">
<g id="Group_54">
<path id="Vector_62" d="M111.2 89.6273L114.705 91.1413C116.198 91.7898 118.034 90.5623 118.582 89.1323C119.223 87.4504 118.62 85.8061 117.236 84.79L109.328 79.0003C106.281 76.7683 102.522 81.8749 105.344 84.4571L121.632 99.3569C122.972 100.584 124.964 100.749 126.29 99.3569C127.476 98.1005 127.638 95.6776 126.29 94.4357L110.003 79.53L106.013 84.9955L113.921 90.7852L116.455 84.4368L112.951 82.9199C111.307 82.2078 109.337 83.6928 108.906 85.3458C108.389 87.3375 109.553 88.9065 111.203 89.6215L111.2 89.6273Z" fill="#FAAD3F"/>
</g>
</g>
<path id="Vector_63" d="M98.8008 58.607C98.8008 58.607 105.015 55.0695 101.168 63.2996" stroke="#DC7136" stroke-width="3" stroke-miterlimit="10" stroke-linecap="round"/>
<path id="Vector_64" d="M100.613 105.11C100.613 105.11 106.222 100.081 105.792 96.2544" stroke="#DC7136" stroke-width="3" stroke-miterlimit="10" stroke-linecap="round"/>
<path id="Vector_65" d="M88.9922 79.1051C88.9922 79.1051 95.2671 78.5985 96.4508 77.209" stroke="#DC7136" stroke-width="3" stroke-miterlimit="10" stroke-linecap="round"/>
<g id="Group_55" opacity="0.22">
<g id="Group_56">
<path id="Vector_66" d="M90.9856 33.3296L85.5931 56.5666H91.9338C90.9692 50.664 92.4023 44.6021 95.5178 39.6577L89.8376 36.1491C86.8212 41.1441 84.8387 46.7565 84.0203 52.618C83.7654 54.4736 84.4532 56.3524 86.3165 56.8908C87.9441 57.3656 90.002 56.3118 90.3609 54.4649L94.1423 35.0028C94.8821 31.1845 90.1856 28.9091 88.1332 32.325C83.7928 39.5448 81.2007 47.633 80.2197 56.1005C80.0224 57.7911 81.6199 59.3312 83.0695 59.5135C84.8094 59.7307 86.048 58.6769 86.6782 57.024L93.9669 37.8774L87.6263 36.0305L83.3983 53.7817C82.3625 58.124 88.5086 59.9072 89.7389 55.6286L95.2959 36.2823C96.3755 32.519 91.1035 30.1597 89.2868 33.6046C85.2246 41.273 82.3897 49.5978 80.8965 58.2427C80.1375 62.6892 85.678 64.2322 87.2372 60.0896L94.0875 41.9186L87.629 40.9951L89.4375 55.5476C89.6704 57.409 90.7829 59.0214 92.7257 59.0214C94.3231 59.0214 96.2467 57.4206 96.0138 55.5476L94.2053 40.9951C93.7203 37.0958 89.1662 36.2939 87.7468 40.0717L80.8965 58.2427L87.2372 60.0896C88.5926 52.0321 91.2037 44.2679 94.9643 37.1131L88.958 34.4383L83.401 53.7846L89.7417 55.6315L93.9696 37.8803C94.1847 36.9926 94.0656 36.0514 93.6373 35.2545C93.2091 34.4577 92.5051 33.8673 91.6734 33.6075C89.7964 33.0632 88.2921 34.2849 87.629 36.0333L80.3375 55.1799L86.7988 56.1034C87.6208 48.8865 90.1335 41.9562 93.8135 35.8394L87.8044 33.1645L84.023 52.6267L90.3637 54.4736C91.0572 49.1992 92.8148 44.1436 95.5178 39.649C96.4714 38.0655 95.8302 35.8162 94.3396 34.8957C92.7284 33.8998 90.8267 34.5743 89.8403 36.1405C85.7027 42.706 84.3299 50.6813 85.5931 58.4048C86.1411 61.8468 91.1967 61.5892 91.9338 58.4048L97.3263 35.1678C98.3347 30.8255 91.994 28.9728 90.9856 33.3209V33.3296Z" fill="#FAAD3F"/>
</g>
</g>
<g id="Group_57" opacity="0.22">
<g id="Group_58">
<path id="Vector_67" d="M87.7145 36.7333L83.7002 55.8943C83.3166 57.7239 84.2236 59.6577 85.9965 60.1672C87.6405 60.6448 89.6545 59.5882 90.0409 57.7413L94.0579 38.5802C94.4415 36.7506 93.5346 34.8169 91.759 34.3074C90.1149 33.8297 88.1009 34.8863 87.7145 36.7333Z" fill="#FAAD3F"/>
</g>
</g>
<g id="Group_59" opacity="0.22">
<g id="Group_60">
<path id="Vector_68" d="M86.5623 55.2548C88.539 49.8314 91.5199 44.8791 95.3307 40.6879C98.2544 37.4572 93.6099 32.536 90.6725 35.7666C86.0971 40.8422 82.5354 46.8388 80.1998 53.3992C79.5668 55.1535 80.9012 57.2088 82.496 57.672C84.3483 58.2105 85.9074 57.0062 86.5404 55.2461L86.5623 55.2548Z" fill="#FAAD3F"/>
</g>
</g>
<g id="Group_61" opacity="0.22">
<g id="Group_62">
<path id="Vector_69" d="M85.9431 56.4383L90.3547 39.3586C91.4726 35.0395 85.1293 33.1955 84.014 37.5117L79.5997 54.5914C78.4845 58.9076 84.8279 60.7516 85.9431 56.4383Z" fill="#FAAD3F"/>
</g>
</g>
<g id="Group_63" opacity="0.22">
<g id="Group_64">
<path id="Vector_70" d="M87.2574 53.1558C88.2329 47.1085 90.4497 41.2609 94.02 36.383C95.1161 34.9009 95.3901 32.9092 94.02 31.4618C92.8884 30.2662 90.4579 29.968 89.3618 31.4618C85.0845 37.3007 82.0868 43.9907 80.9058 51.3002C80.6099 53.1472 81.3716 55.0433 83.2048 55.5731C84.7831 56.0333 86.9478 54.9941 87.2492 53.1472L87.2574 53.1558Z" fill="#FAAD3F"/>
</g>
</g>
<g id="Group_65" opacity="0.22">
<g id="Group_66">
<path id="Vector_71" d="M80.7245 23.5358L83.2317 32.038C83.4492 32.8414 83.9335 33.535 84.5958 33.9918C85.2581 34.4485 86.054 34.6377 86.8377 34.5247C88.2845 34.296 89.8984 32.8486 89.6902 31.1146L88.5941 21.9929C88.3694 20.1344 87.2432 18.519 85.306 18.519C83.5961 18.519 81.9219 20.1112 82.0178 21.9929L82.4234 30.0985L88.5503 28.3442L86.424 23.6719C85.802 22.3026 84.0291 21.6918 82.7111 22.0739C81.2643 22.4937 80.382 23.889 80.297 25.4233L80.0477 29.9972H86.624L85.8348 23.5937L79.3763 24.5172L80.1381 29.6324C80.3875 31.3143 82.2919 32.3507 83.7441 32.1191C84.5268 32.0044 85.2447 31.5974 85.7679 30.9719C86.2911 30.3464 86.5851 29.5436 86.5966 28.7089L86.7583 24.0251L80.6313 25.7793L81.8123 28.5295C82.5467 30.2374 84.8922 30.6543 86.3116 29.7771C87.9749 28.7495 88.2297 26.7375 87.4926 25.0238L86.3089 22.2737C85.717 20.8957 83.8921 20.2994 82.596 20.6757C81.9093 20.8912 81.3053 21.3318 80.8713 21.9339C80.4373 22.5361 80.1959 23.2684 80.182 24.0251L80.0203 28.7089L86.4788 27.7855L85.7225 22.6732C85.1553 18.8462 78.7845 19.7059 79.264 23.5966L80.0532 30.0001C80.2834 31.8586 81.4013 33.4739 83.3413 33.4739C85.2074 33.4739 86.5281 31.8788 86.6295 30.0001L86.8788 25.4262L80.7519 27.1805L82.8782 31.8556C84.2894 34.956 89.1805 33.4536 89.0051 30.1014L88.5996 21.9958H82.0233L83.1194 31.1175L89.5778 30.194L87.0679 21.7005C85.8129 17.445 79.464 19.2601 80.7245 23.5474V23.5358Z" fill="#FAAD3F"/>
</g>
</g>
<g id="Group_67" opacity="0.22">
<g id="Group_68">
<path id="Vector_72" d="M69.339 3.88861C67.2921 9.07041 69.0951 14.7617 71.353 19.4977C73.2875 23.5505 76.762 28.2633 75.8304 33.089C74.9864 37.4719 80.8092 39.1885 82.171 34.936C83.8891 29.5805 82.3327 23.9934 80.1159 19.0895C78.2746 15.0136 75.4577 10.9839 74.9782 6.39266H68.4019C69.4862 16.214 72.4389 25.7024 77.0826 34.2875C79.1897 38.1608 84.8755 34.6667 82.7601 30.7789C78.6477 23.2822 76.0015 14.9896 74.9782 6.39266C74.7645 4.53127 73.6081 2.91883 71.69 2.91883C70.0679 2.91883 68.1991 4.51679 68.4019 6.39266C68.9499 11.5166 71.142 15.8733 73.3697 20.3719C75.2878 24.2539 77.2443 28.6831 75.8358 33.089L82.1765 34.936C83.3191 29.0189 81.0229 23.7155 78.3841 18.635C76.3482 14.7241 73.9177 10.2168 75.6879 5.73553C76.3702 3.99862 74.948 1.91431 73.3889 1.46272C71.4955 0.912693 70.0322 2.1488 69.3445 3.88861H69.339Z" fill="#FAAD3F"/>
</g>
</g>
<g id="Group_69" opacity="0.22">
<g id="Group_70">
<path id="Vector_73" d="M79.8287 29.4126L81.9003 34.7739C82.5168 36.3776 83.7636 37.5414 85.5063 37.2634C87.1805 36.9971 88.2464 35.6221 88.3587 33.8504L88.7616 27.2443C88.8766 25.3714 87.1695 23.7705 85.4734 23.7705C83.5992 23.7705 82.3031 25.3656 82.1853 27.2443L81.7824 33.8591L88.2409 32.9356L86.1694 27.5744C85.4981 25.8374 83.9773 24.6071 82.125 25.1456C80.5686 25.6001 79.1547 27.6728 79.8287 29.4213V29.4126Z" fill="#FAAD3F"/>
</g>
</g>
<g id="Group_71" opacity="0.22">
<g id="Group_72">
<path id="Vector_74" d="M81.7995 23.1469L82.9832 28.1492C83.3997 29.9122 85.3643 31.1425 87.0276 30.5751C87.8589 30.3146 88.5625 29.7241 88.9906 28.9275C89.4187 28.1308 89.5381 27.1899 89.3238 26.3023L88.1401 21.3C87.7236 19.5341 85.7562 18.3038 84.0957 18.8712C83.2641 19.1323 82.5606 19.7234 82.1325 20.5205C81.7044 21.3176 81.5851 22.2588 81.7995 23.1469Z" fill="#FAAD3F"/>
</g>
</g>
<g id="Group_73" opacity="0.22">
<g id="Group_74">
<path id="Vector_75" d="M81.6786 28.0695L82.0732 33.9056C82.1993 35.7756 83.4926 37.3794 85.3614 37.3794C87.0438 37.3794 88.7756 35.7843 88.6495 33.9056L88.2549 28.0695C88.1289 26.1966 86.8328 24.5957 84.9668 24.5957C83.2843 24.5957 81.5498 26.1879 81.6786 28.0695Z" fill="#FAAD3F"/>
</g>
</g>
<g id="Group_75" opacity="0.22">
<g id="Group_76">
<path id="Vector_76" d="M68.6602 3.47695V8.47926C68.6602 10.2943 70.1727 12.037 71.9483 11.9531C73.7239 11.8691 75.2365 10.4246 75.2365 8.47926V3.47695C75.2365 1.65897 73.7239 -0.0837301 71.9483 0.00311568C70.1727 0.0899614 68.6602 1.52871 68.6602 3.47695Z" fill="#FAAD3F"/>
</g>
</g>
<g id="Group_77" opacity="0.22">
<g id="Group_78">
<path id="Vector_77" d="M68.3758 8.15213L69.1649 13.9882C69.4143 15.8467 71.653 16.8657 73.2094 16.4141C75.1 15.864 75.7577 14.0055 75.5056 12.1412L74.7164 6.30521C74.4643 4.44382 72.2284 3.42482 70.672 3.87642C68.7813 4.42645 68.1237 6.28495 68.3758 8.15213Z" fill="#FAAD3F"/>
</g>
</g>
<g id="Group_79" opacity="0.22">
<g id="Group_80">
<path id="Vector_78" d="M70.2857 15.2326L71.4694 17.3168C71.9116 18.0908 72.6128 18.6611 73.4341 18.9148C74.2897 19.1542 75.2001 19.0284 75.9687 18.5645C77.4511 17.5542 78.095 15.4786 77.1469 13.8112L75.9632 11.7269C75.521 10.9529 74.8198 10.3826 73.9985 10.1289C73.1429 9.88953 72.2324 10.0153 71.4639 10.4792C69.9815 11.4895 69.3376 13.5651 70.2857 15.2326Z" fill="#FAAD3F"/>
</g>
</g>
<g id="Group_81" opacity="0.22">
<g id="Group_82">
<path id="Vector_79" d="M70.2452 11.0881L71.4235 13.5921C72.1907 15.2248 74.5006 15.8096 75.9228 14.8398C77.5038 13.7629 77.9231 11.832 77.1038 10.0864L75.9255 7.58239C75.1583 5.95259 72.8484 5.36783 71.4262 6.33471C69.8452 7.4116 69.4259 9.34536 70.2452 11.0881Z" fill="#FAAD3F"/>
</g>
</g>
<g id="Group_83" opacity="0.22">
<g id="Group_84">
<path id="Vector_80" d="M104.959 5.56156L104.844 12.2197L110.973 10.4654L110.083 8.49405C109.318 6.80056 107.025 6.35765 105.583 7.24637C103.939 8.25957 103.638 10.3004 104.405 11.9997L105.293 13.9711C106.759 17.2191 111.365 15.4533 111.42 12.2197L111.535 5.56156C111.612 1.089 105.035 1.08611 104.959 5.56156Z" fill="#FAAD3F"/>
</g>
</g>
<g id="Group_85" opacity="0.22">
<g id="Group_86">
<path id="Vector_81" d="M103.509 5.05409L102.257 12.0423L107.737 10.5109L107.017 9.77271C103.978 6.66074 99.3225 11.5675 102.359 14.694L103.079 15.4322C104.737 17.1285 108.099 16.5583 108.576 13.8979L109.828 6.9097C110.157 5.06567 109.343 3.16086 107.532 2.63399C105.926 2.16792 103.819 3.21296 103.488 5.06278L103.509 5.05409Z" fill="#FAAD3F"/>
</g>
</g>
<g id="Group_87" opacity="0.22">
<g id="Group_88">
<path id="Vector_82" d="M99.4414 8.4789V13.8981C99.4414 15.7131 100.954 17.4559 102.73 17.3719C104.505 17.2879 106.018 15.8434 106.018 13.8981V8.4789C106.018 6.66093 104.505 4.91822 102.73 5.00507C100.954 5.09191 99.4414 6.53066 99.4414 8.4789Z" fill="#FAAD3F"/>
</g>
</g>
<g id="Group_89" opacity="0.22">
<g id="Group_90">
<path id="Vector_83" d="M99.8242 13.0648V18.1164H106.401V17.2334C106.401 15.4155 104.888 13.6728 103.112 13.7596C101.337 13.8465 99.8242 15.2852 99.8242 17.2334V18.1164C99.8242 19.9343 101.337 21.677 103.112 21.5902C104.888 21.5033 106.401 20.0646 106.401 18.1164V13.0648C106.401 11.2469 104.888 9.50416 103.112 9.59101C101.337 9.67785 99.8242 11.1166 99.8242 13.0648Z" fill="#FAAD3F"/>
</g>
</g>
<g id="Group_91" opacity="0.22">
<g id="Group_92">
<path id="Vector_84" d="M101.016 12.2313V17.6476C101.016 19.4627 102.528 21.2054 104.304 21.1215C106.079 21.0375 107.592 19.593 107.592 17.6476V12.2313C107.592 10.4134 106.079 8.67066 104.304 8.75751C102.528 8.84436 101.016 10.2831 101.016 12.2313Z" fill="#FAAD3F"/>
</g>
</g>
<g id="Group_93" opacity="0.22">
<g id="Group_94">
<path id="Vector_85" d="M101.521 8.8074L100.337 16.7277C100.063 18.5776 100.787 20.4621 102.634 21.0005C104.195 21.4521 106.399 20.4361 106.678 18.5747L107.862 10.6543C108.136 8.80161 107.412 6.91706 105.566 6.37862C104.001 5.92702 101.798 6.95759 101.521 8.8074Z" fill="#FAAD3F"/>
</g>
</g>
<g id="Group_95" opacity="0.22">
<g id="Group_96">
<path id="Vector_86" d="M102.195 8.06264V16.8167C102.195 21.2864 108.772 21.2921 108.772 16.8167V8.06264C108.772 3.59009 102.195 3.5843 102.195 8.06264Z" fill="#FAAD3F"/>
</g>
</g>
<g id="Group_97" opacity="0.22">
<g id="Group_98">
<path id="Vector_87" d="M98.7115 12.9579L97.473 17.937C97.04 19.6942 98.021 21.7901 99.7719 22.2098C101.523 22.6296 103.334 21.6656 103.816 19.7839L105.052 14.7961C105.488 13.0418 104.504 10.943 102.756 10.5233C101.008 10.1035 99.1773 11.0704 98.7115 12.9492V12.9579Z" fill="#FAAD3F"/>
</g>
</g>
<g id="Group_99" opacity="0.22">
<g id="Group_100">
<path id="Vector_88" d="M97.0069 13.0671L97.3905 21.8211C97.4699 23.6941 98.8427 25.295 100.679 25.295C102.394 25.295 104.046 23.7028 103.967 21.8211L103.583 13.0671C103.501 11.1912 102.131 9.59326 100.295 9.59326C98.5769 9.59326 96.9246 11.1825 97.0069 13.0671Z" fill="#FAAD3F"/>
</g>
</g>
<g id="Group_101" opacity="0.22">
<g id="Group_102">
<path id="Vector_89" d="M97.0153 21.4107L97.314 25.5851C97.4456 27.3944 98.7362 29.1487 100.602 29.0589C102.274 28.9808 104.03 27.5276 103.89 25.5851L103.592 21.4107C103.463 19.6014 102.172 17.8472 100.303 17.9369C98.6348 18.0151 96.8783 19.4683 97.0153 21.4107Z" fill="#FAAD3F"/>
</g>
</g>
<g id="Group_103" opacity="0.22">
<g id="Group_104">
<path id="Vector_90" d="M97.4646 18.4843L97.8564 23.8629C97.9934 25.733 99.2703 27.3368 101.145 27.3368C102.013 27.3255 102.844 26.9559 103.458 26.3068C104.072 25.6578 104.422 24.7807 104.433 23.8629V17.6477C104.433 16.7263 104.086 15.8428 103.47 15.1913C102.853 14.5398 102.017 14.1738 101.145 14.1738C100.273 14.1738 99.4362 14.5398 98.8195 15.1913C98.2029 15.8428 97.8564 16.7263 97.8564 17.6477V23.86H104.433L104.041 18.4814C103.904 16.6084 102.627 15.0075 100.753 15.0075C99.0785 15.0075 97.3276 16.5997 97.4646 18.4814V18.4843Z" fill="#FAAD3F"/>
</g>
</g>
<g id="Group_105" opacity="0.22">
<g id="Group_106">
<path id="Vector_91" d="M99.095 11.4818L101.487 16.6115C102.553 18.8955 106.093 18.8666 107.167 16.6115L107.989 14.8572C108.762 13.236 108.447 11.0157 106.811 10.1038C105.315 9.2701 103.137 9.61748 102.312 11.3486L101.473 13.1058H107.154L104.759 7.97609C103.997 6.34339 101.679 5.76153 100.26 6.72841C98.6758 7.80819 98.2647 9.73617 99.0813 11.4818H99.095Z" fill="#FAAD3F"/>
</g>
</g>
<g id="Group_107" opacity="0.22">
<g id="Group_108">
<path id="Vector_92" d="M102.195 10.5634V13.4814C102.195 15.2965 103.708 17.0392 105.483 16.9552C107.259 16.8713 108.772 15.4267 108.772 13.4814V10.5634C108.772 8.7454 107.259 7.0027 105.483 7.08954C103.708 7.17639 102.195 8.61513 102.195 10.5634Z" fill="#FAAD3F"/>
</g>
</g>
<g id="Group_109" opacity="0.22">
<g id="Group_110">
<path id="Vector_93" d="M86.5528 40.0741L84.5745 49.245C84.1799 51.0717 85.106 53.0083 86.8707 53.5178C88.5148 53.9984 90.5205 52.9389 90.9179 51.0919L92.8935 41.921C93.288 40.0944 92.3646 38.1577 90.5972 37.6482C88.9532 37.1677 86.9501 38.2272 86.5528 40.0741Z" fill="#FAAD3F"/>
</g>
</g>
<g id="Group_111" opacity="0.22">
<g id="Group_112">
<path id="Vector_94" d="M85.3455 42.1554L84.4879 48.4141H90.8285L90.1079 46.324C89.4996 44.561 87.8747 43.3712 86.0634 43.8952C84.455 44.3642 83.1562 46.3992 83.7672 48.1709L84.4879 50.261C84.9866 51.7084 86.132 52.8113 87.6582 52.8113C88.9735 52.8113 90.6258 51.7431 90.8285 50.261L91.6862 44.0023C91.941 42.1467 91.2532 40.2679 89.39 39.7266C87.8445 39.2779 85.6004 40.2853 85.3455 42.1554Z" fill="#FAAD3F"/>
</g>
</g>
<g id="Group_113" opacity="0.22">
<g id="Group_114">
<path id="Vector_95" d="M86.6135 36.7543L84.6708 45.1001C83.6624 49.4424 90.0031 51.2923 91.0142 46.9471L92.9542 38.6012C93.9653 34.2589 87.6246 32.4062 86.6135 36.7543Z" fill="#FAAD3F"/>
</g>
</g>
<g id="Group_115" opacity="0.22">
<g id="Group_116">
<path id="Vector_96" d="M84.1633 42.1551L83.2618 47.7045H89.6052L89.3175 45.49C89.0846 43.6807 86.8075 42.5372 85.2731 43.0612C83.3933 43.7038 82.7247 45.3973 82.9768 47.3369L83.2508 49.5515C83.4372 50.9989 85.1251 52.1568 86.4212 52.1018C87.7693 52.0381 89.3449 51.0828 89.5942 49.5515L90.4903 44.002C90.7643 42.2159 90.0436 40.1721 88.194 39.7263C86.5993 39.3442 84.4592 40.2387 84.1496 42.1551H84.1633Z" fill="#FAAD3F"/>
</g>
</g>
<g id="Group_117" opacity="0.22">
<g id="Group_118">
<path id="Vector_97" d="M84.8447 36.4089L84.0556 46.4135C83.9076 48.2836 85.6723 49.8874 87.3437 49.8874C89.2454 49.8874 90.4839 48.2894 90.6319 46.4135L91.421 36.4089C91.569 34.5359 89.8044 32.9351 88.1329 32.9351C86.2312 32.9351 84.9927 34.5301 84.8447 36.4089Z" fill="#FAAD3F"/>
</g>
</g>
<g id="Group_119" opacity="0.22">
<g id="Group_120">
<path id="Vector_98" d="M88.0803 36.7279L86.0526 45.9596L92.0617 45.1288L91.3547 43.8203C89.2558 39.9383 83.57 43.4353 85.6745 47.3289L86.3841 48.6374C87.7542 51.1588 91.7493 50.7448 92.3932 47.8065L94.4209 38.5748C94.821 36.7482 93.8729 34.8115 92.1247 34.302C90.4614 33.8186 88.4831 34.881 88.0803 36.7279Z" fill="#FAAD3F"/>
</g>
</g>
<g id="Group_121" opacity="0.22">
<g id="Group_122">
<path id="Vector_99" d="M87.3277 39.4652C91.5584 39.4652 91.5666 32.5176 87.3277 32.5176C83.0887 32.5176 83.0887 39.4652 87.3277 39.4652Z" fill="#FAAD3F"/>
</g>
</g>
</g>
<g id="Group_123" opacity="0.22">
<g id="Group_124">
<path id="Vector_100" d="M83.8191 35.4979L81.353 44.7614C80.2048 49.0719 86.5592 50.913 87.6963 46.6083L90.1625 37.3448C91.3106 33.0314 84.9562 31.1932 83.8191 35.495V35.4979Z" fill="#FAAD3F"/>
</g>
</g>
<g id="Group_125" opacity="0.22">
<g id="Group_126">
<path id="Vector_101" d="M84.6955 35.5096L82.1691 50.9537L88.1782 50.1257L87.4192 48.8317C85.1969 45.0366 79.5057 48.522 81.7416 52.3374L82.5006 53.6314C83.8707 55.9618 88.0028 55.901 88.5097 52.8006L91.0416 37.3565C91.3457 35.5096 90.5758 33.6135 88.7454 33.0837C87.1616 32.6234 85.0051 33.6627 84.7009 35.5096H84.6955Z" fill="#FAAD3F"/>
</g>
</g>
<g id="Group_127" opacity="0.22">
<g id="Group_128">
<path id="Vector_102" d="M83.3758 37.9846L81.792 47.9864C81.4988 49.8362 82.2523 51.7265 84.0882 52.2621C85.6638 52.7195 87.8367 51.6831 88.1326 49.8362L89.7164 39.8316C90.0096 37.9818 89.2561 36.0914 87.4202 35.5588C85.8446 35.1014 83.669 36.1233 83.3758 37.9846Z" fill="#FAAD3F"/>
</g>
</g>
<g id="Group_129" opacity="0.22">
<g id="Group_130">
<path id="Vector_103" d="M84.9602 38.8215L83.6779 46.3076H90.0185L89.7226 44.6488C89.3938 42.8019 87.2893 41.754 85.6782 42.22C83.8478 42.7527 83.0504 44.643 83.3819 46.4957L83.6779 48.1545C84.267 51.4546 89.4486 51.4836 90.0185 48.1545L91.3009 40.6597C91.616 38.8128 90.8241 36.9137 89.0047 36.384C87.4099 35.9237 85.2781 36.963 84.9602 38.8128V38.8215Z" fill="#FAAD3F"/>
</g>
</g>
<g id="Group_131" opacity="0.22">
<g id="Group_132">
<path id="Vector_104" d="M84.5691 42.9897L83.632 48.293L90.0905 49.2165L90.2384 45.5806C90.3124 43.7626 88.6738 42.0228 86.9503 42.1067C86.0839 42.1259 85.2581 42.4981 84.6453 43.1454C84.0326 43.7928 83.6803 44.6653 83.6622 45.5806L83.5142 49.2165C83.4457 50.9534 84.8212 52.4008 86.3667 52.6295C87.8655 52.8409 89.674 51.845 89.9726 50.14L90.9098 44.8366C91.2249 43.0533 90.4439 41.0038 88.6135 40.5609C86.9969 40.173 84.9061 41.0791 84.5691 42.9897Z" fill="#FAAD3F"/>
</g>
</g>
<g id="Group_133" opacity="0.22">
<g id="Group_134">
<path id="Vector_105" d="M84.0431 42.2534L83.6486 45.5883C83.5499 46.4046 84.0843 47.4873 84.6104 48.0431C84.9158 48.367 85.2788 48.6239 85.6785 48.7993C86.0782 48.9746 86.5067 49.0648 86.9395 49.0648C87.3722 49.0648 87.8007 48.9746 88.2004 48.7993C88.6001 48.6239 88.9631 48.367 89.2686 48.0431C89.8988 47.3194 90.118 46.5551 90.2331 45.5883L90.6277 42.2534C90.7236 41.4341 90.1892 40.3515 89.6631 39.7957C89.3576 39.4718 88.9947 39.2148 88.595 39.0395C88.1953 38.8642 87.7668 38.7739 87.334 38.7739C86.9013 38.7739 86.4728 38.8642 86.0731 39.0395C85.6734 39.2148 85.3104 39.4718 85.0049 39.7957C84.3747 40.5194 84.1582 41.2836 84.0431 42.2534Z" fill="#FAAD3F"/>
</g>
</g>
<path id="Vector_106" d="M1.74219 79.3255C1.74219 79.3255 1.90934 73.0928 16.1141 74.5518C30.3189 76.0108 53.4757 53.0894 53.4757 53.0894" stroke="#DC7136" stroke-width="3" stroke-miterlimit="10" stroke-linecap="round"/>
<path id="Vector_107" d="M106.212 80.0229C105.352 90.401 81.2773 89.4978 81.2773 89.4978" stroke="#DC7136" stroke-width="3" stroke-miterlimit="10" stroke-linecap="round"/>
<path id="Vector_108" d="M122.742 87.8734C122.605 87.9399 122.468 88.0036 122.331 88.076C122.119 88.1512 121.942 88.3065 121.833 88.5119C121.724 88.7173 121.692 88.9581 121.741 89.1876C121.799 89.9692 122.084 90.7016 122.21 91.4688C122.251 91.6599 122.335 91.8381 122.453 91.9889C122.572 92.1398 122.722 92.2591 122.892 92.3372C123.612 92.7564 124.357 93.1258 125.123 93.4431C125.242 93.4973 125.374 93.5097 125.501 93.4784C125.627 93.4472 125.74 93.3739 125.824 93.2694C126.786 92.279 127.658 91.1965 128.43 90.0358C128.773 89.5205 128.718 89.315 128.257 88.9126C127.46 88.2207 126.482 87.8502 125.646 87.222C125.511 87.1492 125.362 87.1065 125.211 87.0965C125.059 87.0865 124.907 87.1096 124.764 87.1641C124.068 87.3231 123.39 87.5609 122.742 87.8734Z" fill="#DC7138"/>
<path id="Vector_109" d="M63.0139 94.6042C62.8769 94.6708 62.7399 94.7344 62.6057 94.8039C62.3945 94.8802 62.2174 95.0361 62.1082 95.2417C61.999 95.4473 61.9654 95.6883 62.0138 95.9184C62.0741 96.7 62.3563 97.4296 62.4824 98.1996C62.5242 98.3909 62.608 98.5692 62.727 98.72C62.8459 98.8709 62.9968 98.9901 63.1674 99.068C63.8875 99.4863 64.6326 99.8547 65.3979 100.171C65.5166 100.226 65.649 100.239 65.7754 100.208C65.9017 100.178 66.0153 100.105 66.0993 100C67.0593 99.0092 67.9307 97.9267 68.7024 96.7666C69.045 96.2513 68.9901 96.0429 68.5298 95.6434C67.7352 94.9516 66.7542 94.5781 65.9212 93.9528C65.7852 93.8801 65.6365 93.8374 65.4843 93.8275C65.3322 93.8175 65.1796 93.8405 65.0362 93.8949C64.3397 94.0531 63.6616 94.2909 63.0139 94.6042Z" fill="#DC7138"/>
<path id="Vector_110" d="M84.6477 126.532C85.6149 129.716 88.6236 132.976 90.528 133.048C91.6569 133.092 92.7858 133.132 93.9257 133.242C96.1507 133.453 96.6192 132.29 96.6412 128.842C96.6631 125.252 93.7175 125.368 93.6078 121.718C93.5448 119.538 95.7095 114.585 94.2792 114.041C91.7857 113.094 89.3469 112.865 86.985 112.862C85.4943 112.862 84.8614 114.689 84.6723 116.776C84.4531 119.173 84.1243 121.527 84.2777 124.144C84.2906 124.954 84.4152 125.759 84.6477 126.532Z" fill="#DC7138"/>
<path id="Vector_111" d="M86.2367 168.383C86.0997 168.45 85.9627 168.511 85.8257 168.586C85.3352 168.875 85.2475 169.252 85.4476 170.184C85.7216 171.44 86.2203 172.682 86.5601 173.947C86.7359 174.57 87.0819 175.124 87.5547 175.539C88.4452 176.387 89.3772 177.186 90.3469 177.931C90.6976 178.182 90.9114 178.142 91.0922 177.861C91.9532 176.49 92.6586 175.017 93.1939 173.472C93.446 172.755 93.3336 172.41 92.7116 171.643C91.6375 170.317 90.4401 169.446 89.3413 168.212C89.2127 168.072 89.0535 167.968 88.8777 167.907C88.7019 167.847 88.5149 167.834 88.3329 167.868C87.6105 167.905 86.9004 168.08 86.2367 168.383Z" fill="#DC7138"/>
<path id="Vector_112" d="M96.8378 157.293C97.0323 157.293 97.2269 157.293 97.4214 157.261C98.1339 157.177 98.4133 156.743 98.5969 155.481C98.8463 153.778 98.7997 151.975 98.9641 150.241C99.0317 149.377 98.8683 148.51 98.4928 147.74C97.7612 146.22 97.057 144.654 96.2295 143.299C95.9253 142.801 95.6485 142.737 95.3033 143.009C93.6436 144.261 92.1321 145.719 90.8013 147.352C90.1738 148.107 90.1546 148.594 90.5492 149.873C91.2342 152.088 92.2782 153.799 93.0372 155.909C93.125 156.147 93.2664 156.359 93.4493 156.527C93.6322 156.694 93.851 156.812 94.0867 156.87C94.9708 157.191 95.9039 157.334 96.8378 157.293Z" fill="#DC7138"/>
<path id="Vector_113" d="M115.171 104.646C115.366 104.646 115.56 104.629 115.755 104.611C116.467 104.548 116.758 104.296 116.966 103.578C117.24 102.611 117.24 101.589 117.443 100.605C117.482 100.352 117.465 100.094 117.392 99.8499C117.319 99.6059 117.193 99.3836 117.024 99.2008C116.352 98.3328 115.628 97.5119 114.856 96.7431C114.739 96.6171 114.586 96.5344 114.421 96.5073C114.255 96.4802 114.086 96.5101 113.938 96.5926C112.337 97.2912 110.802 98.146 109.351 99.1459C108.707 99.5888 108.677 99.8638 109.047 100.593C109.686 101.829 110.691 102.773 111.404 103.948C111.615 104.296 112.045 104.4 112.434 104.467C113.338 104.631 114.255 104.691 115.171 104.646Z" fill="#DC7138"/>
<path id="Vector_114" d="M55.976 100.359C56.2199 100.466 56.4637 100.582 56.7103 100.68C57.6228 101.048 58.1051 100.955 58.7189 100.316C59.5409 99.4471 60.0369 98.3586 60.7657 97.4207C61.1521 96.9286 61.1466 96.2801 60.9384 95.6635C60.5306 94.3131 60.04 92.9922 59.4697 91.7091C59.376 91.495 59.2265 91.3134 59.0387 91.1858C58.8509 91.0581 58.6325 90.9896 58.4092 90.9883C56.1081 90.7574 53.7926 90.7332 51.4877 90.9159C50.4738 90.997 50.3012 91.2749 50.4053 92.262C50.5862 93.9758 51.3644 95.5969 51.6685 97.2933C51.7589 97.7912 52.2412 98.1618 52.6851 98.4773C53.7234 99.2128 54.8253 99.8428 55.976 100.359Z" fill="#DC7138"/>
<path id="Vector_115" d="M122.688 107.151C122.77 107.151 122.852 107.151 122.934 107.151C123.233 107.116 123.353 106.931 123.43 106.398C123.534 105.68 123.515 104.919 123.584 104.186C123.613 103.821 123.544 103.455 123.384 103.13C123.096 102.489 122.777 101.864 122.43 101.257C122.301 101.045 122.183 101.019 122.038 101.127C121.339 101.654 120.701 102.269 120.139 102.956C119.865 103.274 119.865 103.48 120.032 104.021C120.323 104.954 120.761 105.677 121.082 106.569C121.12 106.669 121.18 106.758 121.257 106.829C121.334 106.899 121.426 106.949 121.526 106.974C121.9 107.108 122.293 107.167 122.688 107.151Z" fill="#DC7138"/>
<path id="Vector_116" d="M100.523 114.377C100.605 114.377 100.687 114.377 100.77 114.377C101.071 114.342 101.189 114.157 101.266 113.624C101.372 112.906 101.353 112.145 101.422 111.412C101.45 111.048 101.381 110.683 101.222 110.359C100.934 109.716 100.615 109.09 100.266 108.483C100.139 108.272 100.022 108.245 99.8764 108.353C99.176 108.88 98.5376 109.495 97.9747 110.182C97.7007 110.501 97.7007 110.706 97.8706 111.247C98.1446 112.18 98.5995 112.903 98.9201 113.795C98.957 113.896 99.0168 113.985 99.0942 114.056C99.1716 114.127 99.2643 114.176 99.364 114.2C99.7366 114.335 100.13 114.395 100.523 114.377Z" fill="#DC7138"/>
<path id="Vector_117" d="M65.5665 91.8055C65.6487 91.8055 65.7309 91.8055 65.8104 91.8055C66.1118 91.7708 66.2296 91.5855 66.3091 91.0528C66.4132 90.3349 66.394 89.5736 66.4625 88.8412C66.4925 88.4769 66.4231 88.1113 66.2625 87.7874C65.9745 87.1457 65.6562 86.5196 65.3089 85.9116C65.1801 85.7002 65.0623 85.6742 64.9171 85.7813C64.2176 86.3093 63.5801 86.9235 63.0182 87.6109C62.7442 87.9293 62.7442 88.1348 62.9113 88.6762C63.1853 89.6083 63.6402 90.332 63.9608 91.2236C63.9982 91.3241 64.0581 91.4136 64.1354 91.4842C64.2127 91.5548 64.3052 91.6045 64.4047 91.6289C64.7782 91.7637 65.1722 91.8235 65.5665 91.8055Z" fill="#DC7138"/>
<path id="Vector_118" d="M76.5352 105.652C76.6174 105.652 76.6997 105.652 76.7819 105.652C77.0805 105.617 77.2011 105.435 77.2778 104.902C77.382 104.184 77.3628 103.423 77.434 102.69C77.4625 102.325 77.3932 101.959 77.234 101.634C76.9457 100.993 76.6265 100.367 76.2777 99.7607C76.1489 99.5494 76.0338 99.5233 75.8886 99.6304C75.1882 100.157 74.5498 100.77 73.9869 101.457C73.7129 101.778 73.7129 101.984 73.8801 102.522C74.1705 103.457 74.6089 104.178 74.9295 105.07C74.9667 105.171 75.0265 105.26 75.1039 105.331C75.1813 105.401 75.2738 105.451 75.3734 105.475C75.7469 105.61 76.1409 105.67 76.5352 105.652Z" fill="#DC7138"/>
<path id="Vector_119" d="M103.477 187.034C102.633 185.329 100.106 184.058 98.5444 184.478C97.6127 184.727 96.6838 184.976 95.744 185.187C93.9081 185.599 93.5518 186.426 93.571 188.543C93.6039 190.746 96.0371 189.955 96.1741 192.164C96.2591 193.484 94.5493 197.042 95.7357 197.027C97.78 196.953 99.8064 196.598 101.764 195.971C102.992 195.609 103.485 194.338 103.611 193.012C103.756 191.492 103.984 189.973 103.827 188.407C103.807 187.928 103.687 187.459 103.477 187.034Z" fill="#DC7138"/>
<path id="Vector_120" opacity="0.85" fill-rule="evenodd" clip-rule="evenodd" d="M81.7585 55.3094C78.7882 54.0877 75.1275 53.7577 71.6968 53.3409C67.6825 52.8545 49.7101 50.2984 49.4717 60.3204C49.384 63.9389 51.2528 78.173 57.8153 79.3251C64.3779 80.4773 76.9962 80.3586 80.9173 75.1912C82.1668 73.5412 82.5039 70.2526 83.0601 67.6125C84.0164 63.0676 85.7427 56.9536 81.7585 55.3094Z" fill="#010101"/>
<path id="Vector_121" opacity="0.85" fill-rule="evenodd" clip-rule="evenodd" d="M110.624 53.3409C107.191 53.7577 103.53 54.0848 100.563 55.3094C96.5786 56.9536 98.3022 63.0676 99.2585 67.6125C99.8065 70.2555 100.154 73.5412 101.401 75.1912C105.317 80.3586 117.943 80.4744 124.503 79.3251C131.063 78.1758 132.937 63.9389 132.85 60.3204C132.608 50.2984 114.639 52.8545 110.624 53.3409Z" fill="#010101"/>
<path id="Vector_122" fill-rule="evenodd" clip-rule="evenodd" d="M44.4062 50.5854C44.4249 51.3448 44.6878 52.0748 45.1516 52.6553C44.9598 51.9026 44.9789 50.9386 44.4062 50.5854Z" fill="#5D230C"/>
<path id="Vector_123" fill-rule="evenodd" clip-rule="evenodd" d="M44.4961 55.7038C44.6194 55.4809 44.4276 54.9019 44.3098 54.624C44.1481 54.8325 44.1152 55.7414 44.4961 55.7038Z" fill="#5D230C"/>
<path id="Vector_124" fill-rule="evenodd" clip-rule="evenodd" d="M44.588 56.8845C44.7527 56.9883 44.9481 57.0234 45.136 56.9829C45.1727 56.7844 45.1396 56.5785 45.0428 56.404C44.7222 56.3692 44.566 56.5342 44.588 56.8845Z" fill="#5D230C"/>
<path id="Vector_125" fill-rule="evenodd" clip-rule="evenodd" d="M52.3203 49.1094C53.8356 49.3526 55.2029 49.0949 56.7922 49.011C55.6002 48.3828 53.5369 48.8489 52.3203 49.1094Z" fill="#5D230C"/>
<path id="Vector_126" fill-rule="evenodd" clip-rule="evenodd" d="M55.4023 50.8836C55.6928 51.1499 56.6683 51.2541 56.7998 50.7852C56.3121 50.7938 55.9613 50.9386 55.4023 50.8836Z" fill="#5D230C"/>
<path id="Vector_127" fill-rule="evenodd" clip-rule="evenodd" d="M52.0469 53.5435C53.1813 53.1701 54.5952 53.0861 55.2145 52.1685C54.2554 52.3364 52.51 52.5129 52.0469 53.5435Z" fill="#5D230C"/>
<path id="Vector_128" fill-rule="evenodd" clip-rule="evenodd" d="M50.6562 55.2116C51.3687 55.6082 52.4346 54.7513 52.8922 54.2273C51.9441 53.6541 51.2289 54.7831 50.6562 55.2116Z" fill="#5D230C"/>
<path id="Vector_129" fill-rule="evenodd" clip-rule="evenodd" d="M49.5273 53.0459C49.8726 53.1038 50.1028 52.7825 49.9 52.5567C49.6068 52.5422 49.5794 52.8086 49.5273 53.0459Z" fill="#5D230C"/>
<path id="Vector_130" fill-rule="evenodd" clip-rule="evenodd" d="M45.5195 50.1917C45.7935 50.5448 46.4649 50.4811 46.8238 50.2901C46.6868 49.9195 45.81 50.1106 45.5195 50.1917Z" fill="#5D230C"/>
<path id="Vector_131" fill-rule="evenodd" clip-rule="evenodd" d="M47.1953 52.0617C46.2747 52.0153 46.0746 53.4396 47.1022 53.4425C46.9378 52.8027 47.431 52.4611 47.1953 52.0617Z" fill="#5D230C"/>
<path id="Vector_132" fill-rule="evenodd" clip-rule="evenodd" d="M46.6328 51.0809V51.5701C46.8575 51.5296 46.8356 51.7496 47.0986 51.6685C47.1397 51.5817 47.1808 51.4948 47.2849 51.4717C47.2849 51.2285 47.137 51.1822 47.0986 50.9824C46.8356 50.8985 46.8575 51.1214 46.6328 51.0809Z" fill="#5D230C"/>
<path id="Vector_133" fill-rule="evenodd" clip-rule="evenodd" d="M45.9961 49.0105C46.3879 49.4448 47.1305 48.915 47.5799 49.3C47.6257 49.2292 47.6575 49.1495 47.6735 49.0654C47.6895 48.9814 47.6893 48.8948 47.673 48.8108C47.2237 48.6487 46.4838 48.9121 45.9961 49.0105Z" fill="#5D230C"/>
<path id="Vector_134" fill-rule="evenodd" clip-rule="evenodd" d="M48.1328 52.2613C48.1525 52.6279 48.2151 52.9906 48.3191 53.341C49.1686 53.2745 48.848 51.9139 48.1328 52.2613Z" fill="#5D230C"/>
<path id="Vector_135" fill-rule="evenodd" clip-rule="evenodd" d="M48.4098 53.7373C48.3333 53.8505 48.3001 53.99 48.3167 54.1281H48.5907C48.5742 53.9544 48.6893 53.6359 48.4098 53.7373Z" fill="#5D230C"/>
<path id="Vector_136" fill-rule="evenodd" clip-rule="evenodd" d="M48.6884 57.4776C49.2364 57.2924 49.2227 56.5281 49.2364 55.8044C48.4309 55.7118 48.6062 56.9102 48.6884 57.4776Z" fill="#5D230C"/>
<path id="Vector_137" fill-rule="evenodd" clip-rule="evenodd" d="M50.272 72.436C50.4858 71.8252 50.0501 71.113 49.8994 70.5659C49.3815 70.8467 49.8336 72.2305 50.272 72.436Z" fill="#5D230C"/>
<path id="Vector_138" fill-rule="evenodd" clip-rule="evenodd" d="M50.4595 74.6997C50.3828 75.6984 50.7335 77.1053 51.5775 77.4556C51.994 77.004 51.3939 76.8216 51.3034 76.3729C51.3034 75.959 51.7309 75.9706 52.1419 75.9792C51.7912 75.3279 50.7774 75.38 50.4595 74.6997Z" fill="#5D230C"/>
<path id="Vector_139" fill-rule="evenodd" clip-rule="evenodd" d="M52.6992 80.0144C52.828 80.3387 52.9979 80.6137 53.4445 80.5934C53.6528 80.3068 52.9294 79.8494 52.6992 80.0144Z" fill="#5D230C"/>
<path id="Vector_140" fill-rule="evenodd" clip-rule="evenodd" d="M52.8791 77.5542C52.4735 77.8668 52.9531 78.7266 53.4271 78.7353C53.8737 78.0405 53.0161 77.9595 52.8791 77.5542Z" fill="#5D230C"/>
<path id="Vector_141" fill-rule="evenodd" clip-rule="evenodd" d="M54.7461 80.802C54.9297 81.0914 55.1187 81.3809 55.6777 81.2912C55.6256 80.8541 55.2421 80.7701 54.7461 80.802Z" fill="#5D230C"/>
<path id="Vector_142" fill-rule="evenodd" clip-rule="evenodd" d="M53.1602 76.668C53.7767 78.2225 54.6289 80.026 56.6977 79.7192C55.0399 79.2183 54.6206 77.3859 53.1602 76.668Z" fill="#5D230C"/>
<path id="Vector_143" fill-rule="evenodd" clip-rule="evenodd" d="M58.4737 81.6852C58.09 81.2047 57.046 81.4218 56.3281 81.2944C56.6405 81.7808 57.8982 82.1166 58.4737 81.6852Z" fill="#5D230C"/>
<path id="Vector_144" fill-rule="evenodd" clip-rule="evenodd" d="M59.6836 81.6844V81.9739C60.0589 81.9982 60.4356 81.9641 60.8016 81.8726C60.6387 81.7589 60.4547 81.6833 60.2619 81.6508C60.069 81.6184 59.8719 81.6298 59.6836 81.6844Z" fill="#5D230C"/>
<path id="Vector_145" fill-rule="evenodd" clip-rule="evenodd" d="M60.9883 81.0972C61.5527 81.7081 62.9064 81.3694 63.7832 81.2941C63.0297 80.9728 61.9144 81.0336 60.9883 80.9004V81.0972Z" fill="#5D230C"/>
<path id="Vector_146" fill-rule="evenodd" clip-rule="evenodd" d="M76.4492 79.2272C76.4492 79.3256 76.4492 79.4211 76.4492 79.5167C77.137 79.6412 77.3836 79.7396 78.033 79.5167C77.7097 78.9001 77.1178 79.2561 76.4492 79.2272Z" fill="#5D230C"/>
<path id="Vector_147" fill-rule="evenodd" clip-rule="evenodd" d="M78.9648 78.9314C78.9648 79.3801 79.4937 78.9835 79.617 78.9314C79.5074 78.665 79.132 78.9314 78.9648 78.9314Z" fill="#5D230C"/>
<path id="Vector_148" fill-rule="evenodd" clip-rule="evenodd" d="M78.7812 77.3571C78.8799 77.7942 79.6581 77.4121 79.8033 77.2586C79.6581 76.7723 78.9977 77.2818 78.7812 77.3571Z" fill="#5D230C"/>
<path id="Vector_149" fill-rule="evenodd" clip-rule="evenodd" d="M80.3619 78.8328C80.3049 78.9007 80.2734 78.9882 80.2734 79.0789C80.2734 79.1696 80.3049 79.2572 80.3619 79.325C80.5291 79.325 80.5592 79.2034 80.7346 79.2236C80.7784 78.9168 80.6551 78.7865 80.3619 78.8328Z" fill="#5D230C"/>
<path id="Vector_150" fill-rule="evenodd" clip-rule="evenodd" d="M82.4113 76.0776C82.118 76.4024 81.9267 76.8149 81.8633 77.2587C82.2496 77.0851 82.4414 76.7029 82.4113 76.0776Z" fill="#5D230C"/>
<path id="Vector_151" fill-rule="evenodd" clip-rule="evenodd" d="M83.81 75.6841C83.8941 75.4617 83.9565 75.2309 83.9964 74.9951C83.6949 75.0009 83.2784 75.6754 83.81 75.6841Z" fill="#5D230C"/>
<path id="Vector_152" fill-rule="evenodd" clip-rule="evenodd" d="M85.2968 69.5815C84.7789 70.3863 84.4336 71.8743 84.4583 72.928C85.1186 72.213 85.1625 70.8495 85.2968 69.5815Z" fill="#5D230C"/>
<path id="Vector_153" fill-rule="evenodd" clip-rule="evenodd" d="M85.8503 62.9867C86.0914 62.8622 86.2092 62.2572 86.0366 62.0024C85.7215 62.0545 85.8996 62.6451 85.8503 62.9867Z" fill="#5D230C"/>
<path id="Vector_154" fill-rule="evenodd" clip-rule="evenodd" d="M86.0469 54.1225C86.0935 54.5075 86.6607 54.7333 86.9785 54.5191C86.9648 54.0762 86.4826 54.1225 86.0469 54.1225Z" fill="#5D230C"/>
<path id="Vector_155" fill-rule="evenodd" clip-rule="evenodd" d="M87.2564 59.4438C86.6399 60.3673 86.6701 62.3706 86.418 64.1683C86.9907 62.9032 87.0728 61.12 87.2564 59.4438Z" fill="#5D230C"/>
<path id="Vector_156" fill-rule="evenodd" clip-rule="evenodd" d="M132.425 52.5541C132.22 52.7828 132.45 53.1041 132.795 53.0462C132.743 52.8088 132.716 52.5425 132.425 52.5541Z" fill="#5D230C"/>
<path id="Vector_157" fill-rule="evenodd" clip-rule="evenodd" d="M127.105 52.1602C127.722 53.0807 129.136 53.1647 130.273 53.541C129.818 52.5162 128.073 52.3338 127.105 52.1602Z" fill="#5D230C"/>
<path id="Vector_158" fill-rule="evenodd" clip-rule="evenodd" d="M129.438 54.2273C129.895 54.7513 130.961 55.6082 131.676 55.2116C131.09 54.7831 130.391 53.6541 129.438 54.2273Z" fill="#5D230C"/>
<path id="Vector_159" fill-rule="evenodd" clip-rule="evenodd" d="M125.531 49.011C127.118 49.0949 128.485 49.3526 130 49.1094C128.784 48.8489 126.723 48.3828 125.531 49.011Z" fill="#5D230C"/>
<path id="Vector_160" fill-rule="evenodd" clip-rule="evenodd" d="M125.531 50.7852C125.66 51.2512 126.627 51.1499 126.929 50.8836C126.37 50.9386 126.011 50.7938 125.531 50.7852Z" fill="#5D230C"/>
<path id="Vector_161" fill-rule="evenodd" clip-rule="evenodd" d="M96.2806 62.0024C96.108 62.2572 96.2286 62.8709 96.467 62.9867C96.4204 62.6451 96.6067 62.0545 96.2806 62.0024Z" fill="#5D230C"/>
<path id="Vector_162" fill-rule="evenodd" clip-rule="evenodd" d="M97.8619 72.9393C97.8893 71.8884 97.5413 70.4005 97.0234 69.5957C97.1577 70.8492 97.2043 72.2127 97.8619 72.9393Z" fill="#5D230C"/>
<path id="Vector_163" fill-rule="evenodd" clip-rule="evenodd" d="M97.7688 68.2034C97.6318 67.3552 97.7139 65.4446 97.0234 64.8569C97.0792 66.0107 97.3318 67.1444 97.7688 68.2034Z" fill="#5D230C"/>
<path id="Vector_164" fill-rule="evenodd" clip-rule="evenodd" d="M97.0234 55.3091C97.8756 55.6652 98.2702 54.7302 98.3305 53.9341C97.5605 54.0383 97.5139 54.8952 97.0234 55.3091Z" fill="#5D230C"/>
<path id="Vector_165" fill-rule="evenodd" clip-rule="evenodd" d="M98.3359 74.9951C98.3758 75.2305 98.4373 75.4613 98.5195 75.6841C99.0456 75.6754 98.6291 75.0009 98.3359 74.9951Z" fill="#5D230C"/>
<path id="Vector_166" fill-rule="evenodd" clip-rule="evenodd" d="M100.372 77.3564C100.342 78.0859 100.814 79.1976 101.304 78.7344C100.962 78.3088 100.959 77.5243 100.372 77.3564Z" fill="#5D230C"/>
<path id="Vector_167" fill-rule="evenodd" clip-rule="evenodd" d="M101.587 79.2236C101.762 79.2034 101.792 79.3366 101.959 79.325C102.017 79.2574 102.049 79.1698 102.049 79.0789C102.049 78.988 102.017 78.9004 101.959 78.8328C101.669 78.7865 101.543 78.9168 101.587 79.2236Z" fill="#5D230C"/>
<path id="Vector_168" fill-rule="evenodd" clip-rule="evenodd" d="M102.992 78.3411C103.198 78.3845 103.496 78.5669 103.54 78.2427C103.337 78.1993 103.039 78.0169 102.992 78.3411Z" fill="#5D230C"/>
<path id="Vector_169" fill-rule="evenodd" clip-rule="evenodd" d="M102.516 77.2589C102.664 77.4124 103.439 77.7945 103.54 77.3574C103.321 77.2821 102.661 76.7697 102.516 77.2589Z" fill="#5D230C"/>
<path id="Vector_170" fill-rule="evenodd" clip-rule="evenodd" d="M104.289 79.5225C104.938 79.7454 105.185 79.6469 105.873 79.5225V79.233C105.202 79.2561 104.612 78.9001 104.289 79.5225Z" fill="#5D230C"/>
<path id="Vector_171" fill-rule="evenodd" clip-rule="evenodd" d="M108.203 80.998C108.792 81.2875 109.847 81.5365 110.532 81.3917V80.998C109.872 80.943 108.724 80.5754 108.203 80.998Z" fill="#5D230C"/>
<path id="Vector_172" fill-rule="evenodd" clip-rule="evenodd" d="M121.338 81.0972C121.338 81.0307 121.338 80.9641 121.338 80.9004C120.409 81.0336 119.297 80.9728 118.543 81.2941C119.414 81.3694 120.773 81.7081 121.338 81.0972Z" fill="#5D230C"/>
<path id="Vector_173" fill-rule="evenodd" clip-rule="evenodd" d="M121.523 81.882C121.89 81.9734 122.268 82.0075 122.644 81.9833V81.6938C122.455 81.6388 122.258 81.6271 122.064 81.6595C121.871 81.692 121.687 81.7679 121.523 81.882Z" fill="#5D230C"/>
<path id="Vector_174" fill-rule="evenodd" clip-rule="evenodd" d="M125.999 81.2944C125.284 81.4189 124.24 81.2047 123.859 81.6852C124.435 82.1166 125.692 81.7808 125.999 81.2944Z" fill="#5D230C"/>
<path id="Vector_175" fill-rule="evenodd" clip-rule="evenodd" d="M126.648 81.2941C127.196 81.3925 127.396 81.1001 127.58 80.8019C127.084 80.7701 126.698 80.854 126.648 81.2941Z" fill="#5D230C"/>
<path id="Vector_176" fill-rule="evenodd" clip-rule="evenodd" d="M125.621 79.7192C127.69 80.0289 128.545 78.2225 129.161 76.668C127.698 77.3888 127.287 79.2183 125.621 79.7192Z" fill="#5D230C"/>
<path id="Vector_177" fill-rule="evenodd" clip-rule="evenodd" d="M128.88 78.7289C129.365 78.7289 129.844 77.8605 129.428 77.5479C129.296 77.9618 128.447 78.04 128.88 78.7289Z" fill="#5D230C"/>
<path id="Vector_178" fill-rule="evenodd" clip-rule="evenodd" d="M128.882 80.6053C129.326 80.6053 129.496 80.339 129.624 80.0118C129.397 79.8497 128.671 80.3071 128.882 80.6053Z" fill="#5D230C"/>
<path id="Vector_179" fill-rule="evenodd" clip-rule="evenodd" d="M130.188 75.9792C130.601 75.9792 131.01 75.959 131.026 76.37C130.93 76.8216 130.333 77.004 130.752 77.4556C131.604 77.1053 131.949 75.7013 131.873 74.6997C131.549 75.38 130.535 75.3279 130.188 75.9792Z" fill="#5D230C"/>
<path id="Vector_180" fill-rule="evenodd" clip-rule="evenodd" d="M132.423 70.5659C132.27 71.113 131.837 71.8281 132.05 72.436C132.489 72.2305 132.941 70.8467 132.423 70.5659Z" fill="#5D230C"/>
<path id="Vector_181" fill-rule="evenodd" clip-rule="evenodd" d="M133.074 55.8044C133.102 56.5281 133.093 57.2923 133.622 57.4747C133.718 56.9102 133.891 55.7118 133.074 55.8044Z" fill="#5D230C"/>
<path id="Vector_182" fill-rule="evenodd" clip-rule="evenodd" d="M133.726 54.1232H134C134.019 53.9846 133.986 53.8439 133.91 53.7295C133.631 53.6368 133.746 53.9553 133.726 54.1232Z" fill="#5D230C"/>
<path id="Vector_183" fill-rule="evenodd" clip-rule="evenodd" d="M134.011 53.341C134.114 52.9905 134.176 52.6278 134.194 52.2613C133.479 51.9139 133.159 53.2745 134.011 53.341Z" fill="#5D230C"/>
<path id="Vector_184" fill-rule="evenodd" clip-rule="evenodd" d="M134.66 48.8168C134.644 48.9008 134.645 48.9873 134.661 49.0712C134.677 49.1552 134.708 49.2349 134.753 49.306C135.205 48.9152 135.945 49.4421 136.337 49.0165C135.838 48.9123 135.098 48.6489 134.66 48.8168Z" fill="#5D230C"/>
<path id="Vector_185" fill-rule="evenodd" clip-rule="evenodd" d="M135.211 50.9793C135.172 51.1675 135.011 51.2283 135.024 51.4714C135.128 51.4946 135.169 51.5814 135.211 51.6683C135.485 51.7493 135.452 51.5293 135.676 51.5699V51.0806C135.454 51.1212 135.474 50.8983 135.211 50.9793Z" fill="#5D230C"/>
<path id="Vector_186" fill-rule="evenodd" clip-rule="evenodd" d="M135.125 52.0617C134.892 52.4611 135.399 52.8027 135.218 53.4425C136.246 53.4396 136.046 52.0153 135.125 52.0617Z" fill="#5D230C"/>
<path id="Vector_187" fill-rule="evenodd" clip-rule="evenodd" d="M135.496 50.2903C135.855 50.4872 136.518 50.5451 136.8 50.1948C136.51 50.1108 135.633 49.9198 135.496 50.2903Z" fill="#5D230C"/>
<path id="Vector_188" d="M84.1794 184.392C84.1794 184.392 76.2331 191.397 77.4415 198.521C78.6499 205.646 93.2684 205.232 95.6277 206.482C97.9869 207.733 122.056 196.894 102.722 182.721C101.933 188.974 92.4601 196.906 94.633 200.229C95.7208 197.028 82.9107 188.528 84.1794 184.392Z" fill="black"/>
<g id="Group_135">
<path id="Vector_189" d="M1.68889 80.1994C1.68889 80.1994 -1.82668 69.6448 40.3739 69.9053C54.1842 60.1699 49.4684 60.3204 49.4684 60.3204C49.4684 60.3204 42.1331 85.8705 14.2743 88.7566C3.28364 84.452 1.87522 87.8274 1.68889 80.1994Z" fill="#FBCBBB"/>
</g>
<g id="Group_136">
<path id="Vector_190" d="M175.361 40.2764C175.361 40.2764 172.862 29.4062 137.614 53.9199C121.011 53.7057 125.045 51.1177 125.045 51.1177C125.045 51.1177 144.371 68.3074 169.221 54.7015C176.216 44.7606 179.146 46.7783 175.361 40.2764Z" fill="#FBCBBB"/>
</g>
<path id="Vector_191" d="M2.36467 77.0499C2.36467 77.0499 7.86136 71.2949 11.07 70.5654C14.2787 69.8359 28.0259 66.2607 32.8047 63.2993C37.5835 60.3379 45.9984 53.9229 45.9984 53.9229L48.607 54.1284C48.607 54.1284 47.4972 59.206 41.1593 63.6062C33.6843 69.1324 23.9185 75.0206 18.2957 74.9945C11.5879 74.239 3.36481 73.7584 1.70703 80.2053C2.10709 81.0129 2.36467 77.0499 2.36467 77.0499Z" fill="#DC7138"/>
<path id="Vector_192" fill-rule="evenodd" clip-rule="evenodd" d="M128.219 47.6209C128.219 47.6209 141.034 52.3742 148.268 47.6209C154.296 44.7463 156.335 41.8311 158.149 38.9073C159.963 35.9835 164.862 27.4176 178.382 29.8291C179.009 29.7393 172.754 26.0281 161.667 29.8291C150.326 35.5754 146.906 36.8259 146.906 36.8259C146.906 36.8259 141.33 39.5992 138.198 38.9073C135.066 38.2155 127.383 36.7015 127.383 36.7015" fill="#DC7138"/>
<path id="Vector_193" fill-rule="evenodd" clip-rule="evenodd" d="M93.859 53.7378C92.978 53.975 92.0718 54.0918 91.1627 54.0852C90.2543 54.0924 89.3488 53.9747 88.4692 53.735C67.0058 47.4473 51.7789 47.6152 43.0078 48.6197C43.2818 51.173 43.5202 55.3184 44.2189 58.0657C46.411 56.2535 46.3124 59.7649 46.548 62.1011C46.8796 65.3723 47.8003 68.1658 48.4113 71.1562C49.2553 75.2901 50.8774 79.1344 52.8832 81.2882C56.4837 82.8949 61.1036 82.6691 65.274 82.6691C67.0781 82.6831 68.8814 82.5864 70.6748 82.3796C75.1933 81.8295 81.1996 80.5211 83.0657 78.0373C86.5319 73.4547 86.0798 65.2623 87.9102 58.3522C88.9302 57.8545 90.0405 57.5967 91.1641 57.5967C92.2877 57.5967 93.3979 57.8545 94.418 58.3522C96.2593 65.2594 95.788 73.4518 99.2598 78.0373C101.129 80.5124 107.135 81.8209 111.651 82.3796C113.445 82.5864 115.249 82.6831 117.054 82.6691C121.214 82.6691 125.844 82.8949 129.445 81.2911C131.448 79.1286 133.07 75.2901 133.917 71.1591C134.525 68.1687 135.446 65.3694 135.777 62.104C136.016 59.7678 135.923 56.2593 138.107 58.0686C138.805 55.3213 139.041 51.1759 139.318 48.6226C130.549 47.6152 115.325 47.4473 93.859 53.7378ZM83.0657 67.6129C82.5176 70.253 82.1724 73.5416 80.9229 75.1916C77.01 80.359 64.3835 80.4748 57.8209 79.3255C51.2583 78.1762 49.3896 63.9393 49.4772 60.3208C49.7156 50.2988 67.6881 52.8549 71.7024 53.3412C75.133 53.7581 78.7938 54.0881 81.7641 55.3098C85.7482 56.954 84.022 63.068 83.0657 67.6129ZM132.862 60.3208C132.95 63.9393 131.081 78.1733 124.516 79.3255C117.95 80.4776 105.335 80.359 101.414 75.1916C100.167 73.5416 99.827 70.2704 99.2708 67.6129C98.3145 63.068 96.5909 56.954 100.575 55.3098C103.543 54.0852 107.203 53.7581 110.637 53.3412C114.64 52.8549 132.61 50.2988 132.862 60.3208Z" fill="#010101"/>
<path id="Vector_194" d="M6.71027 88.2824C6.71027 88.2824 2.76449 99.251 13.6811 96.5646C24.5978 93.8782 15.9171 80.7268 13.6811 80.9787C11.4452 81.2305 19.0737 93.1371 11.8398 93.3658C4.60586 93.5945 8.15706 88.9829 8.15706 88.9829L6.71027 88.2824Z" fill="#FFC83B"/>
</g>
</g>
</svg>
