<svg width="20" height="20" viewBox="0 0 20 20" fill="none" xmlns="http://www.w3.org/2000/svg">
<g id="Frame 116" clip-path="url(#clip0_842_10951)">
<path id="Vector" d="M17.5 6.25L16.7883 16.0381C16.6679 17.5642 16.5693 18.75 13.5146 18.75H6.4854C3.43066 18.75 3.33212 17.5642 3.21168 16.0381L2.5 6.25" stroke="#252525" stroke-width="1.5" stroke-linecap="round" stroke-linejoin="round"/>
<path id="Vector_2" d="M18.75 5.48611C15.5125 5.16528 12.2556 5 9.00833 5C7.08333 5 5.15833 5.09722 3.23333 5.29167L1.25 5.48611" stroke="#252525" stroke-width="1.5" stroke-linecap="round" stroke-linejoin="round"/>
<path id="Vector_3" d="M7.5 11.25H12.5" stroke="#252525" stroke-width="1.5" stroke-linecap="round" stroke-linejoin="round"/>
<path id="Vector_4" d="M6.25 5L6.48571 3.34596C6.65714 2.14646 6.78571 1.25 8.59643 1.25H11.4036C13.2143 1.25 13.3536 2.19697 13.5143 3.35859L13.75 5" stroke="#252525" stroke-width="1.5" stroke-linecap="round" stroke-linejoin="round"/>
</g>
<defs>
<clipPath id="clip0_842_10951">
<rect width="20" height="20" fill="white"/>
</clipPath>
</defs>
</svg>
