<svg width="471" height="307" viewBox="0 0 471 307" fill="none" xmlns="http://www.w3.org/2000/svg">
<g filter="url(#filter0_d_2420_13258)">
<rect x="470" y="271" width="470" height="270" rx="10" transform="rotate(-180 470 271)" fill="#F3B205"/>
</g>
<path d="M267.325 1C239.159 24 199.725 68.4 267.325 62C351.825 54 436.326 81 399.826 95.5C363.326 110 378.826 52.5 417.326 62C455.826 71.5 414.326 163 449.326 177C477.326 188.2 470.66 168.667 463.826 157.5" stroke="white" stroke-width="2" stroke-linecap="round"/>
<path d="M32.86 122H31.06V115.34H23.74V122H21.94V107.72H23.74V113.76H31.06V107.72H32.86V122ZM49.2242 114.84C49.2242 115.947 49.0842 116.953 48.8042 117.86C48.5242 118.753 48.1042 119.527 47.5442 120.18C46.9976 120.833 46.3109 121.333 45.4842 121.68C44.6709 122.027 43.7242 122.2 42.6442 122.2C41.5242 122.2 40.5509 122.027 39.7242 121.68C38.8976 121.32 38.2109 120.82 37.6642 120.18C37.1176 119.527 36.7109 118.747 36.4442 117.84C36.1776 116.933 36.0442 115.927 36.0442 114.82C36.0442 113.353 36.2842 112.073 36.7642 110.98C37.2442 109.887 37.9709 109.033 38.9442 108.42C39.9309 107.807 41.1709 107.5 42.6642 107.5C44.0909 107.5 45.2909 107.807 46.2642 108.42C47.2376 109.02 47.9709 109.873 48.4642 110.98C48.9709 112.073 49.2242 113.36 49.2242 114.84ZM37.9442 114.84C37.9442 116.04 38.1109 117.073 38.4442 117.94C38.7776 118.807 39.2909 119.473 39.9842 119.94C40.6909 120.407 41.5776 120.64 42.6442 120.64C43.7242 120.64 44.6042 120.407 45.2842 119.94C45.9776 119.473 46.4909 118.807 46.8242 117.94C47.1576 117.073 47.3242 116.04 47.3242 114.84C47.3242 113.04 46.9509 111.633 46.2042 110.62C45.4576 109.593 44.2776 109.08 42.6642 109.08C41.5842 109.08 40.6909 109.313 39.9842 109.78C39.2909 110.233 38.7776 110.893 38.4442 111.76C38.1109 112.613 37.9442 113.64 37.9442 114.84ZM58.6892 122L53.9892 109.48H53.9092C53.9359 109.747 53.9559 110.087 53.9692 110.5C53.9959 110.913 54.0159 111.367 54.0292 111.86C54.0426 112.34 54.0492 112.833 54.0492 113.34V122H52.3892V107.72H55.0492L59.4492 119.42H59.5292L64.0092 107.72H66.6492V122H64.8692V113.22C64.8692 112.753 64.8759 112.293 64.8892 111.84C64.9026 111.373 64.9226 110.94 64.9492 110.54C64.9759 110.127 64.9959 109.78 65.0092 109.5H64.9292L60.1692 122H58.6892ZM78.5138 122H70.5338V107.72H78.5138V109.3H72.3338V113.76H78.1538V115.32H72.3338V120.42H78.5138V122ZM85.427 107.72C87.2937 107.72 88.6537 108.087 89.507 108.82C90.3604 109.553 90.787 110.587 90.787 111.92C90.787 112.507 90.687 113.073 90.487 113.62C90.3004 114.153 89.987 114.633 89.547 115.06C89.107 115.487 88.5204 115.827 87.787 116.08C87.0537 116.32 86.1537 116.44 85.087 116.44H83.447V122H81.647V107.72H85.427ZM85.267 109.26H83.447V114.9H84.887C85.7937 114.9 86.547 114.807 87.147 114.62C87.747 114.42 88.1937 114.107 88.487 113.68C88.7804 113.253 88.927 112.693 88.927 112C88.927 111.08 88.6337 110.393 88.047 109.94C87.4604 109.487 86.5337 109.26 85.267 109.26ZM110.368 122H108.208L101.748 114.76V122H99.9478V107.72H101.748V114.64L108.048 107.72H110.088L103.888 114.66L110.368 122ZM121.271 122L119.551 117.58H113.891L112.191 122H110.371L115.951 107.66H117.571L123.131 122H121.271ZM117.411 111.66C117.371 111.553 117.304 111.36 117.211 111.08C117.118 110.8 117.024 110.513 116.931 110.22C116.851 109.913 116.784 109.68 116.731 109.52C116.664 109.787 116.591 110.06 116.511 110.34C116.444 110.607 116.371 110.853 116.291 111.08C116.224 111.307 116.164 111.5 116.111 111.66L114.491 115.98H119.011L117.411 111.66ZM128.865 107.72C130.731 107.72 132.091 108.087 132.945 108.82C133.798 109.553 134.225 110.587 134.225 111.92C134.225 112.507 134.125 113.073 133.925 113.62C133.738 114.153 133.425 114.633 132.985 115.06C132.545 115.487 131.958 115.827 131.225 116.08C130.491 116.32 129.591 116.44 128.525 116.44H126.885V122H125.085V107.72H128.865ZM128.705 109.26H126.885V114.9H128.325C129.231 114.9 129.985 114.807 130.585 114.62C131.185 114.42 131.631 114.107 131.925 113.68C132.218 113.253 132.365 112.693 132.365 112C132.365 111.08 132.071 110.393 131.485 109.94C130.898 109.487 129.971 109.26 128.705 109.26ZM141.714 122H139.914V109.3H135.454V107.72H146.154V109.3H141.714V122ZM158.727 122H156.567L150.107 114.76V122H148.307V107.72H150.107V114.64L156.407 107.72H158.447L152.247 114.66L158.727 122ZM160.69 107.72H162.37V115.56C162.37 115.893 162.364 116.26 162.35 116.66C162.35 117.047 162.344 117.433 162.33 117.82C162.317 118.207 162.297 118.553 162.27 118.86C162.257 119.153 162.244 119.38 162.23 119.54H162.31L170.17 107.72H172.17V122H170.49V114.24C170.49 113.88 170.497 113.493 170.51 113.08C170.524 112.653 170.537 112.247 170.55 111.86C170.577 111.46 170.597 111.107 170.61 110.8C170.624 110.493 170.637 110.267 170.65 110.12H170.57L162.69 122H160.69V107.72Z" fill="white"/>
<path d="M26.24 214L21.54 201.48H21.46C21.4867 201.747 21.5067 202.087 21.52 202.5C21.5467 202.913 21.5667 203.367 21.58 203.86C21.5933 204.34 21.6 204.833 21.6 205.34V214H19.94V199.72H22.6L27 211.42H27.08L31.56 199.72H34.2V214H32.42V205.22C32.42 204.753 32.4267 204.293 32.44 203.84C32.4533 203.373 32.4733 202.94 32.5 202.54C32.5267 202.127 32.5467 201.78 32.56 201.5H32.48L27.72 214H26.24ZM44.3845 214L39.6845 201.48H39.6045C39.6312 201.747 39.6512 202.087 39.6645 202.5C39.6912 202.913 39.7112 203.367 39.7245 203.86C39.7379 204.34 39.7445 204.833 39.7445 205.34V214H38.0845V199.72H40.7445L45.1445 211.42H45.2245L49.7045 199.72H52.3445V214H50.5645V205.22C50.5645 204.753 50.5712 204.293 50.5845 203.84C50.5979 203.373 50.6179 202.94 50.6445 202.54C50.6712 202.127 50.6912 201.78 50.7045 201.5H50.6245L45.8645 214H44.3845ZM64.4453 203.199L57.9512 214.342C57.847 214.505 57.7298 214.625 57.5996 214.703C57.4759 214.781 57.3327 214.82 57.1699 214.82C56.929 214.82 56.7272 214.742 56.5645 214.586C56.4082 214.436 56.3301 214.241 56.3301 214C56.3301 213.922 56.3431 213.84 56.3691 213.756C56.3952 213.665 56.4342 213.58 56.4863 213.502L62.9902 202.359C63.0879 202.197 63.2018 202.076 63.332 201.998C63.4622 201.92 63.6087 201.881 63.7715 201.881C63.9993 201.881 64.1947 201.962 64.3574 202.125C64.5267 202.281 64.6113 202.48 64.6113 202.721C64.6113 202.792 64.5951 202.87 64.5625 202.955C64.5365 203.04 64.4974 203.121 64.4453 203.199ZM72.3723 199.72C74.239 199.72 75.599 200.087 76.4523 200.82C77.3057 201.553 77.7323 202.587 77.7323 203.92C77.7323 204.507 77.6323 205.073 77.4323 205.62C77.2457 206.153 76.9323 206.633 76.4923 207.06C76.0523 207.487 75.4657 207.827 74.7323 208.08C73.999 208.32 73.099 208.44 72.0323 208.44H70.3923V214H68.5923V199.72H72.3723ZM72.2123 201.26H70.3923V206.9H71.8323C72.739 206.9 73.4923 206.807 74.0923 206.62C74.6923 206.42 75.139 206.107 75.4323 205.68C75.7257 205.253 75.8723 204.693 75.8723 204C75.8723 203.08 75.579 202.393 74.9923 201.94C74.4057 201.487 73.479 201.26 72.2123 201.26ZM84.4817 199.72C86.3484 199.72 87.7084 200.087 88.5617 200.82C89.4151 201.553 89.8417 202.587 89.8417 203.92C89.8417 204.507 89.7417 205.073 89.5417 205.62C89.3551 206.153 89.0417 206.633 88.6017 207.06C88.1617 207.487 87.5751 207.827 86.8417 208.08C86.1084 208.32 85.2084 208.44 84.1417 208.44H82.5017V214H80.7017V199.72H84.4817ZM84.3217 201.26H82.5017V206.9H83.9417C84.8484 206.9 85.6017 206.807 86.2017 206.62C86.8017 206.42 87.2484 206.107 87.5417 205.68C87.8351 205.253 87.9817 204.693 87.9817 204C87.9817 203.08 87.6884 202.393 87.1017 201.94C86.5151 201.487 85.5884 201.26 84.3217 201.26Z" fill="white"/>
<path d="M22.9531 232.297V247.656H30.8281V232.297H22.9531ZM23.2344 229.609H30.5312C31.4896 229.609 32.224 229.865 32.7344 230.375C33.2552 230.885 33.5156 231.62 33.5156 232.578V247.375C33.5156 248.333 33.2552 249.068 32.7344 249.578C32.224 250.089 31.4896 250.344 30.5312 250.344H23.2344C22.276 250.344 21.5417 250.089 21.0312 249.578C20.5208 249.068 20.2656 248.333 20.2656 247.375V232.578C20.2656 231.62 20.5208 230.885 21.0312 230.375C21.5417 229.865 22.276 229.609 23.2344 229.609ZM42.7344 232.297V247.656H50.6094V232.297H42.7344ZM43.0156 229.609H50.3125C51.2708 229.609 52.0052 229.865 52.5156 230.375C53.0365 230.885 53.2969 231.62 53.2969 232.578V247.375C53.2969 248.333 53.0365 249.068 52.5156 249.578C52.0052 250.089 51.2708 250.344 50.3125 250.344H43.0156C42.0573 250.344 41.3229 250.089 40.8125 249.578C40.3021 249.068 40.0469 248.333 40.0469 247.375V232.578C40.0469 231.62 40.3021 230.885 40.8125 230.375C41.3229 229.865 42.0573 229.609 43.0156 229.609ZM72.8125 231.719L62.4219 249.547C62.2552 249.807 62.0677 250 61.8594 250.125C61.6615 250.25 61.4323 250.312 61.1719 250.312C60.7865 250.312 60.4635 250.188 60.2031 249.938C59.9531 249.698 59.8281 249.385 59.8281 249C59.8281 248.875 59.849 248.745 59.8906 248.609C59.9323 248.464 59.9948 248.328 60.0781 248.203L70.4844 230.375C70.6406 230.115 70.8229 229.922 71.0312 229.797C71.2396 229.672 71.474 229.609 71.7344 229.609C72.099 229.609 72.4115 229.74 72.6719 230C72.9427 230.25 73.0781 230.568 73.0781 230.953C73.0781 231.068 73.0521 231.193 73 231.328C72.9583 231.464 72.8958 231.594 72.8125 231.719ZM82.2969 232.297V247.656H90.1719V232.297H82.2969ZM82.5781 229.609H89.875C90.8333 229.609 91.5677 229.865 92.0781 230.375C92.599 230.885 92.8594 231.62 92.8594 232.578V247.375C92.8594 248.333 92.599 249.068 92.0781 249.578C91.5677 250.089 90.8333 250.344 89.875 250.344H82.5781C81.6198 250.344 80.8854 250.089 80.375 249.578C79.8646 249.068 79.6094 248.333 79.6094 247.375V232.578C79.6094 231.62 79.8646 230.885 80.375 230.375C80.8854 229.865 81.6198 229.609 82.5781 229.609ZM102.078 232.297V247.656H109.953V232.297H102.078ZM102.359 229.609H109.656C110.615 229.609 111.349 229.865 111.859 230.375C112.38 230.885 112.641 231.62 112.641 232.578V247.375C112.641 248.333 112.38 249.068 111.859 249.578C111.349 250.089 110.615 250.344 109.656 250.344H102.359C101.401 250.344 100.667 250.089 100.156 249.578C99.6458 249.068 99.3906 248.333 99.3906 247.375V232.578C99.3906 231.62 99.6458 230.885 100.156 230.375C100.667 229.865 101.401 229.609 102.359 229.609Z" fill="white"/>
<path d="M172.953 232.297V247.656H180.828V232.297H172.953ZM173.234 229.609H180.531C181.49 229.609 182.224 229.865 182.734 230.375C183.255 230.885 183.516 231.62 183.516 232.578V247.375C183.516 248.333 183.255 249.068 182.734 249.578C182.224 250.089 181.49 250.344 180.531 250.344H173.234C172.276 250.344 171.542 250.089 171.031 249.578C170.521 249.068 170.266 248.333 170.266 247.375V232.578C170.266 231.62 170.521 230.885 171.031 230.375C171.542 229.865 172.276 229.609 173.234 229.609ZM192.734 232.297V247.656H200.609V232.297H192.734ZM193.016 229.609H200.312C201.271 229.609 202.005 229.865 202.516 230.375C203.036 230.885 203.297 231.62 203.297 232.578V247.375C203.297 248.333 203.036 249.068 202.516 249.578C202.005 250.089 201.271 250.344 200.312 250.344H193.016C192.057 250.344 191.323 250.089 190.812 249.578C190.302 249.068 190.047 248.333 190.047 247.375V232.578C190.047 231.62 190.302 230.885 190.812 230.375C191.323 229.865 192.057 229.609 193.016 229.609ZM212.516 232.297V247.656H220.391V232.297H212.516ZM212.797 229.609H220.094C221.052 229.609 221.786 229.865 222.297 230.375C222.818 230.885 223.078 231.62 223.078 232.578V247.375C223.078 248.333 222.818 249.068 222.297 249.578C221.786 250.089 221.052 250.344 220.094 250.344H212.797C211.839 250.344 211.104 250.089 210.594 249.578C210.083 249.068 209.828 248.333 209.828 247.375V232.578C209.828 231.62 210.083 230.885 210.594 230.375C211.104 229.865 211.839 229.609 212.797 229.609Z" fill="white"/>
<path d="M174.416 212.84C173.895 212.84 173.443 212.713 173.059 212.459C172.681 212.205 172.355 211.805 172.082 211.258L170.344 207.801C170.24 207.599 170.161 207.381 170.109 207.146C170.064 206.912 170.041 206.658 170.041 206.385C170.041 206.098 170.064 205.831 170.109 205.584C170.161 205.337 170.24 205.115 170.344 204.92L172.082 201.463C172.342 200.923 172.665 200.525 173.049 200.271C173.433 200.011 173.889 199.881 174.416 199.881H177.385C177.665 199.881 177.889 199.959 178.059 200.115C178.234 200.271 178.322 200.473 178.322 200.721C178.322 200.962 178.234 201.163 178.059 201.326C177.883 201.482 177.658 201.561 177.385 201.561H174.416C174.253 201.561 174.1 201.606 173.957 201.697C173.814 201.788 173.7 201.915 173.615 202.078L171.896 205.564C171.844 205.682 171.805 205.805 171.779 205.936C171.753 206.066 171.74 206.206 171.74 206.355C171.74 206.512 171.753 206.655 171.779 206.785C171.805 206.915 171.844 207.039 171.896 207.156L173.615 210.623C173.7 210.786 173.814 210.916 173.957 211.014C174.1 211.111 174.253 211.16 174.416 211.16H177.385C177.665 211.16 177.889 211.238 178.059 211.395C178.234 211.551 178.322 211.753 178.322 212C178.322 212.247 178.234 212.449 178.059 212.605C177.883 212.762 177.658 212.84 177.385 212.84H174.416ZM184.084 200.818V203.357L186.545 209.822L189.006 203.357V200.818C189.006 200.545 189.084 200.32 189.24 200.145C189.396 199.969 189.598 199.881 189.846 199.881C190.093 199.881 190.295 199.969 190.451 200.145C190.607 200.314 190.686 200.538 190.686 200.818V203.68L187.385 212.117C187.281 212.397 187.163 212.586 187.033 212.684C186.91 212.788 186.747 212.84 186.545 212.84C186.337 212.84 186.164 212.785 186.027 212.674C185.891 212.563 185.777 212.378 185.686 212.117L182.404 203.68V200.818C182.404 200.532 182.479 200.304 182.629 200.135C182.785 199.965 182.99 199.881 183.244 199.881C183.485 199.881 183.684 199.969 183.84 200.145C184.003 200.32 184.084 200.545 184.084 200.818ZM196.447 200.818V203.357L198.908 209.822L201.369 203.357V200.818C201.369 200.545 201.447 200.32 201.604 200.145C201.76 199.969 201.962 199.881 202.209 199.881C202.456 199.881 202.658 199.969 202.814 200.145C202.971 200.314 203.049 200.538 203.049 200.818V203.68L199.748 212.117C199.644 212.397 199.527 212.586 199.396 212.684C199.273 212.788 199.11 212.84 198.908 212.84C198.7 212.84 198.527 212.785 198.391 212.674C198.254 212.563 198.14 212.378 198.049 212.117L194.768 203.68V200.818C194.768 200.532 194.842 200.304 194.992 200.135C195.148 199.965 195.354 199.881 195.607 199.881C195.848 199.881 196.047 199.969 196.203 200.145C196.366 200.32 196.447 200.545 196.447 200.818ZM215.246 201.199L208.752 212.342C208.648 212.505 208.531 212.625 208.4 212.703C208.277 212.781 208.133 212.82 207.971 212.82C207.73 212.82 207.528 212.742 207.365 212.586C207.209 212.436 207.131 212.241 207.131 212C207.131 211.922 207.144 211.84 207.17 211.756C207.196 211.665 207.235 211.58 207.287 211.502L213.791 200.359C213.889 200.197 214.003 200.076 214.133 199.998C214.263 199.92 214.41 199.881 214.572 199.881C214.8 199.881 214.995 199.962 215.158 200.125C215.327 200.281 215.412 200.48 215.412 200.721C215.412 200.792 215.396 200.87 215.363 200.955C215.337 201.04 215.298 201.121 215.246 201.199ZM223.869 212.84C223.348 212.84 222.896 212.713 222.512 212.459C222.134 212.205 221.809 211.805 221.535 211.258L219.797 207.801C219.693 207.599 219.615 207.381 219.562 207.146C219.517 206.912 219.494 206.658 219.494 206.385C219.494 206.098 219.517 205.831 219.562 205.584C219.615 205.337 219.693 205.115 219.797 204.92L221.535 201.463C221.796 200.923 222.118 200.525 222.502 200.271C222.886 200.011 223.342 199.881 223.869 199.881H226.838C227.118 199.881 227.342 199.959 227.512 200.115C227.688 200.271 227.775 200.473 227.775 200.721C227.775 200.962 227.688 201.163 227.512 201.326C227.336 201.482 227.111 201.561 226.838 201.561H223.869C223.706 201.561 223.553 201.606 223.41 201.697C223.267 201.788 223.153 201.915 223.068 202.078L221.35 205.564C221.298 205.682 221.258 205.805 221.232 205.936C221.206 206.066 221.193 206.206 221.193 206.355C221.193 206.512 221.206 206.655 221.232 206.785C221.258 206.915 221.298 207.039 221.35 207.156L223.068 210.623C223.153 210.786 223.267 210.916 223.41 211.014C223.553 211.111 223.706 211.16 223.869 211.16H226.838C227.118 211.16 227.342 211.238 227.512 211.395C227.688 211.551 227.775 211.753 227.775 212C227.775 212.247 227.688 212.449 227.512 212.605C227.336 212.762 227.111 212.84 226.838 212.84H223.869ZM233.537 200.818V203.357L235.998 209.822L238.459 203.357V200.818C238.459 200.545 238.537 200.32 238.693 200.145C238.85 199.969 239.051 199.881 239.299 199.881C239.546 199.881 239.748 199.969 239.904 200.145C240.061 200.314 240.139 200.538 240.139 200.818V203.68L236.838 212.117C236.734 212.397 236.617 212.586 236.486 212.684C236.363 212.788 236.2 212.84 235.998 212.84C235.79 212.84 235.617 212.785 235.48 212.674C235.344 212.563 235.23 212.378 235.139 212.117L231.857 203.68V200.818C231.857 200.532 231.932 200.304 232.082 200.135C232.238 199.965 232.443 199.881 232.697 199.881C232.938 199.881 233.137 199.969 233.293 200.145C233.456 200.32 233.537 200.545 233.537 200.818ZM248.596 212.84C248.075 212.84 247.622 212.713 247.238 212.459C246.861 212.205 246.535 211.805 246.262 211.258L244.523 207.801C244.419 207.599 244.341 207.381 244.289 207.146C244.243 206.912 244.221 206.658 244.221 206.385C244.221 206.098 244.243 205.831 244.289 205.584C244.341 205.337 244.419 205.115 244.523 204.92L246.262 201.463C246.522 200.923 246.844 200.525 247.229 200.271C247.613 200.011 248.068 199.881 248.596 199.881H251.564C251.844 199.881 252.069 199.959 252.238 200.115C252.414 200.271 252.502 200.473 252.502 200.721C252.502 200.962 252.414 201.163 252.238 201.326C252.062 201.482 251.838 201.561 251.564 201.561H248.596C248.433 201.561 248.28 201.606 248.137 201.697C247.993 201.788 247.88 201.915 247.795 202.078L246.076 205.564C246.024 205.682 245.985 205.805 245.959 205.936C245.933 206.066 245.92 206.206 245.92 206.355C245.92 206.512 245.933 206.655 245.959 206.785C245.985 206.915 246.024 207.039 246.076 207.156L247.795 210.623C247.88 210.786 247.993 210.916 248.137 211.014C248.28 211.111 248.433 211.16 248.596 211.16H251.564C251.844 211.16 252.069 211.238 252.238 211.395C252.414 211.551 252.502 211.753 252.502 212C252.502 212.247 252.414 212.449 252.238 212.605C252.062 212.762 251.838 212.84 251.564 212.84H248.596Z" fill="white"/>
<path d="M25.9531 141.297V156.656H33.8281V141.297H25.9531ZM26.2344 138.609H33.5312C34.4896 138.609 35.224 138.865 35.7344 139.375C36.2552 139.885 36.5156 140.62 36.5156 141.578V156.375C36.5156 157.333 36.2552 158.068 35.7344 158.578C35.224 159.089 34.4896 159.344 33.5312 159.344H26.2344C25.276 159.344 24.5417 159.089 24.0312 158.578C23.5208 158.068 23.2656 157.333 23.2656 156.375V141.578C23.2656 140.62 23.5208 139.885 24.0312 139.375C24.5417 138.865 25.276 138.609 26.2344 138.609ZM45.7344 141.297V156.656H53.6094V141.297H45.7344ZM46.0156 138.609H53.3125C54.2708 138.609 55.0052 138.865 55.5156 139.375C56.0365 139.885 56.2969 140.62 56.2969 141.578V156.375C56.2969 157.333 56.0365 158.068 55.5156 158.578C55.0052 159.089 54.2708 159.344 53.3125 159.344H46.0156C45.0573 159.344 44.3229 159.089 43.8125 158.578C43.3021 158.068 43.0469 157.333 43.0469 156.375V141.578C43.0469 140.62 43.3021 139.885 43.8125 139.375C44.3229 138.865 45.0573 138.609 46.0156 138.609ZM65.5156 141.297V156.656H73.3906V141.297H65.5156ZM65.7969 138.609H73.0938C74.0521 138.609 74.7865 138.865 75.2969 139.375C75.8177 139.885 76.0781 140.62 76.0781 141.578V156.375C76.0781 157.333 75.8177 158.068 75.2969 158.578C74.7865 159.089 74.0521 159.344 73.0938 159.344H65.7969C64.8385 159.344 64.1042 159.089 63.5938 158.578C63.0833 158.068 62.8281 157.333 62.8281 156.375V141.578C62.8281 140.62 63.0833 139.885 63.5938 139.375C64.1042 138.865 64.8385 138.609 65.7969 138.609ZM85.2969 141.297V156.656H93.1719V141.297H85.2969ZM85.5781 138.609H92.875C93.8333 138.609 94.5677 138.865 95.0781 139.375C95.599 139.885 95.8594 140.62 95.8594 141.578V156.375C95.8594 157.333 95.599 158.068 95.0781 158.578C94.5677 159.089 93.8333 159.344 92.875 159.344H85.5781C84.6198 159.344 83.8854 159.089 83.375 158.578C82.8646 158.068 82.6094 157.333 82.6094 156.375V141.578C82.6094 140.62 82.8646 139.885 83.375 139.375C83.8854 138.865 84.6198 138.609 85.5781 138.609ZM124.891 141.297V156.656H132.766V141.297H124.891ZM125.172 138.609H132.469C133.427 138.609 134.161 138.865 134.672 139.375C135.193 139.885 135.453 140.62 135.453 141.578V156.375C135.453 157.333 135.193 158.068 134.672 158.578C134.161 159.089 133.427 159.344 132.469 159.344H125.172C124.214 159.344 123.479 159.089 122.969 158.578C122.458 158.068 122.203 157.333 122.203 156.375V141.578C122.203 140.62 122.458 139.885 122.969 139.375C123.479 138.865 124.214 138.609 125.172 138.609ZM144.672 141.297V156.656H152.547V141.297H144.672ZM144.953 138.609H152.25C153.208 138.609 153.943 138.865 154.453 139.375C154.974 139.885 155.234 140.62 155.234 141.578V156.375C155.234 157.333 154.974 158.068 154.453 158.578C153.943 159.089 153.208 159.344 152.25 159.344H144.953C143.995 159.344 143.26 159.089 142.75 158.578C142.24 158.068 141.984 157.333 141.984 156.375V141.578C141.984 140.62 142.24 139.885 142.75 139.375C143.26 138.865 143.995 138.609 144.953 138.609ZM164.453 141.297V156.656H172.328V141.297H164.453ZM164.734 138.609H172.031C172.99 138.609 173.724 138.865 174.234 139.375C174.755 139.885 175.016 140.62 175.016 141.578V156.375C175.016 157.333 174.755 158.068 174.234 158.578C173.724 159.089 172.99 159.344 172.031 159.344H164.734C163.776 159.344 163.042 159.089 162.531 158.578C162.021 158.068 161.766 157.333 161.766 156.375V141.578C161.766 140.62 162.021 139.885 162.531 139.375C163.042 138.865 163.776 138.609 164.734 138.609ZM184.234 141.297V156.656H192.109V141.297H184.234ZM184.516 138.609H191.812C192.771 138.609 193.505 138.865 194.016 139.375C194.536 139.885 194.797 140.62 194.797 141.578V156.375C194.797 157.333 194.536 158.068 194.016 158.578C193.505 159.089 192.771 159.344 191.812 159.344H184.516C183.557 159.344 182.823 159.089 182.312 158.578C181.802 158.068 181.547 157.333 181.547 156.375V141.578C181.547 140.62 181.802 139.885 182.312 139.375C182.823 138.865 183.557 138.609 184.516 138.609ZM223.828 141.297V156.656H231.703V141.297H223.828ZM224.109 138.609H231.406C232.365 138.609 233.099 138.865 233.609 139.375C234.13 139.885 234.391 140.62 234.391 141.578V156.375C234.391 157.333 234.13 158.068 233.609 158.578C233.099 159.089 232.365 159.344 231.406 159.344H224.109C223.151 159.344 222.417 159.089 221.906 158.578C221.396 158.068 221.141 157.333 221.141 156.375V141.578C221.141 140.62 221.396 139.885 221.906 139.375C222.417 138.865 223.151 138.609 224.109 138.609ZM243.609 141.297V156.656H251.484V141.297H243.609ZM243.891 138.609H251.188C252.146 138.609 252.88 138.865 253.391 139.375C253.911 139.885 254.172 140.62 254.172 141.578V156.375C254.172 157.333 253.911 158.068 253.391 158.578C252.88 159.089 252.146 159.344 251.188 159.344H243.891C242.932 159.344 242.198 159.089 241.688 158.578C241.177 158.068 240.922 157.333 240.922 156.375V141.578C240.922 140.62 241.177 139.885 241.688 139.375C242.198 138.865 242.932 138.609 243.891 138.609ZM263.391 141.297V156.656H271.266V141.297H263.391ZM263.672 138.609H270.969C271.927 138.609 272.661 138.865 273.172 139.375C273.693 139.885 273.953 140.62 273.953 141.578V156.375C273.953 157.333 273.693 158.068 273.172 158.578C272.661 159.089 271.927 159.344 270.969 159.344H263.672C262.714 159.344 261.979 159.089 261.469 158.578C260.958 158.068 260.703 157.333 260.703 156.375V141.578C260.703 140.62 260.958 139.885 261.469 139.375C261.979 138.865 262.714 138.609 263.672 138.609ZM283.172 141.297V156.656H291.047V141.297H283.172ZM283.453 138.609H290.75C291.708 138.609 292.443 138.865 292.953 139.375C293.474 139.885 293.734 140.62 293.734 141.578V156.375C293.734 157.333 293.474 158.068 292.953 158.578C292.443 159.089 291.708 159.344 290.75 159.344H283.453C282.495 159.344 281.76 159.089 281.25 158.578C280.74 158.068 280.484 157.333 280.484 156.375V141.578C280.484 140.62 280.74 139.885 281.25 139.375C281.76 138.865 282.495 138.609 283.453 138.609ZM322.766 141.297V156.656H330.641V141.297H322.766ZM323.047 138.609H330.344C331.302 138.609 332.036 138.865 332.547 139.375C333.068 139.885 333.328 140.62 333.328 141.578V156.375C333.328 157.333 333.068 158.068 332.547 158.578C332.036 159.089 331.302 159.344 330.344 159.344H323.047C322.089 159.344 321.354 159.089 320.844 158.578C320.333 158.068 320.078 157.333 320.078 156.375V141.578C320.078 140.62 320.333 139.885 320.844 139.375C321.354 138.865 322.089 138.609 323.047 138.609ZM342.547 141.297V156.656H350.422V141.297H342.547ZM342.828 138.609H350.125C351.083 138.609 351.818 138.865 352.328 139.375C352.849 139.885 353.109 140.62 353.109 141.578V156.375C353.109 157.333 352.849 158.068 352.328 158.578C351.818 159.089 351.083 159.344 350.125 159.344H342.828C341.87 159.344 341.135 159.089 340.625 158.578C340.115 158.068 339.859 157.333 339.859 156.375V141.578C339.859 140.62 340.115 139.885 340.625 139.375C341.135 138.865 341.87 138.609 342.828 138.609ZM362.328 141.297V156.656H370.203V141.297H362.328ZM362.609 138.609H369.906C370.865 138.609 371.599 138.865 372.109 139.375C372.63 139.885 372.891 140.62 372.891 141.578V156.375C372.891 157.333 372.63 158.068 372.109 158.578C371.599 159.089 370.865 159.344 369.906 159.344H362.609C361.651 159.344 360.917 159.089 360.406 158.578C359.896 158.068 359.641 157.333 359.641 156.375V141.578C359.641 140.62 359.896 139.885 360.406 139.375C360.917 138.865 361.651 138.609 362.609 138.609ZM382.109 141.297V156.656H389.984V141.297H382.109ZM382.391 138.609H389.688C390.646 138.609 391.38 138.865 391.891 139.375C392.411 139.885 392.672 140.62 392.672 141.578V156.375C392.672 157.333 392.411 158.068 391.891 158.578C391.38 159.089 390.646 159.344 389.688 159.344H382.391C381.432 159.344 380.698 159.089 380.188 158.578C379.677 158.068 379.422 157.333 379.422 156.375V141.578C379.422 140.62 379.677 139.885 380.188 139.375C380.698 138.865 381.432 138.609 382.391 138.609Z" fill="white"/>
<defs>
<filter id="filter0_d_2420_13258" x="0" y="1" width="470" height="306" filterUnits="userSpaceOnUse" color-interpolation-filters="sRGB">
<feFlood flood-opacity="0" result="BackgroundImageFix"/>
<feColorMatrix in="SourceAlpha" type="matrix" values="0 0 0 0 0 0 0 0 0 0 0 0 0 0 0 0 0 0 127 0" result="hardAlpha"/>
<feMorphology radius="35" operator="erode" in="SourceAlpha" result="effect1_dropShadow_2420_13258"/>
<feOffset dy="46"/>
<feGaussianBlur stdDeviation="12.5"/>
<feComposite in2="hardAlpha" operator="out"/>
<feColorMatrix type="matrix" values="0 0 0 0 0.409032 0 0 0 0 0.409032 0 0 0 0 0.409032 0 0 0 0.25 0"/>
<feBlend mode="normal" in2="BackgroundImageFix" result="effect1_dropShadow_2420_13258"/>
<feBlend mode="normal" in="SourceGraphic" in2="effect1_dropShadow_2420_13258" result="shape"/>
</filter>
</defs>
</svg>
