<svg width="223" height="150" viewBox="0 0 223 150" fill="none" xmlns="http://www.w3.org/2000/svg">
<g id="Designed_by_freepik" clip-path="url(#clip0_203_2905)">
<g id="Group">
<g id="Group_2">
<path id="Vector" d="M149.978 32.7738C151.494 36.1275 152.974 39.4932 154.43 42.8708C154.532 42.8529 154.627 42.8112 154.711 42.7455C156.334 41.4983 161.491 37.1241 159.957 33.2154C158.417 29.2828 157.313 26.5377 156.818 25.3024C156.663 24.9145 156.179 24.7773 155.827 25.0219C154.329 26.0662 150.849 28.8591 149.984 32.7797L149.978 32.7738Z" fill="#B03C03"/>
<path id="Vector_2" d="M153.225 40.084C153.666 41.0925 154.096 42.101 154.532 43.1095C155.797 40.3883 159.999 30.6015 155.242 29.7422C151.363 29.044 152.24 35.6799 153.225 40.078V40.084Z" fill="#FF9300"/>
<path id="Vector_3" d="M149.978 32.7737C151.5 36.1454 152.992 39.5349 154.454 42.9364C155.678 42.0294 161.581 37.3627 159.951 33.2153C158.376 29.1932 157.259 26.4063 156.776 25.2188C156.639 24.8727 156.209 24.7533 155.893 24.9682C154.436 25.9707 150.855 28.7934 149.972 32.7797L149.978 32.7737Z" stroke="#813E1A" stroke-miterlimit="10"/>
</g>
<g id="Group_3">
<path id="Vector_4" d="M162.058 44.6968C162.058 44.6968 163.359 34.8265 162.708 34.0686C162.058 33.3107 158.483 42.7991 158.483 42.7991L162.058 44.6968Z" fill="#813E1A"/>
<path id="Vector_5" d="M162.488 36.1453C162.488 36.1453 164.302 36.3482 164.559 34.737C164.815 33.1258 164.493 30.9118 163.526 30.7089C162.559 30.506 160.876 30.8104 160.614 31.8189C160.357 32.8274 160.745 35.6441 162.488 36.1513V36.1453Z" fill="#B03C03"/>
<path id="Vector_6" d="M162.488 36.1453C162.488 36.1453 164.302 36.3482 164.559 34.737C164.815 33.1258 164.493 30.9118 163.526 30.7089C162.559 30.506 160.876 30.8104 160.614 31.8189C160.357 32.8274 160.745 35.6441 162.488 36.1513V36.1453Z" stroke="#813E1A" stroke-miterlimit="10"/>
</g>
<g id="Group_4">
<path id="Vector_7" d="M171.53 43.4139C168.438 37.8342 162.428 35.1787 155.785 35.1906C151.715 35.2025 144.672 37.327 141.288 43.2766C151.369 43.2348 161.449 43.3721 171.53 43.4139Z" fill="#FFB02D"/>
<g id="Clip path group">
<mask id="mask0_203_2905" style="mask-type:luminance" maskUnits="userSpaceOnUse" x="139" y="35" width="35" height="46">
<g id="clippath">
<path id="Vector_8" d="M155.785 35.1906C150.36 35.2025 139.629 38.986 139.366 50.5749C139.169 59.3711 145.591 61.2866 143.801 68.5014C142.058 75.5252 145.955 79.2847 150.993 80.0068C156.024 80.7229 159.682 76.6531 161.449 72.2968C163.478 67.296 172.502 63.6259 173.445 56.7155C175.445 41.9996 166.427 35.1667 155.791 35.1906H155.785Z" fill="white"/>
</g>
</mask>
<g mask="url(#mask0_203_2905)">
<g id="Group_5">
<g id="Group_6">
<path id="Vector_9" d="M155.821 43.3124C155.714 42.7932 155.552 42.3039 155.343 41.8742C154.896 40.9671 154.257 39.9407 153.231 40.0302C152.485 40.0959 151.852 40.7404 151.339 41.361C150.825 41.9697 150.336 42.6142 149.9 43.2885C151.876 43.2945 153.851 43.3064 155.827 43.3184L155.821 43.3124Z" fill="#FF9300"/>
<path id="Vector_10" d="M160.368 37.1062C161.114 36.4259 161.92 35.5188 161.544 34.5581C161.27 33.8599 160.476 33.4362 159.736 33.1139C158.112 32.4038 156.376 31.819 154.627 31.813C152.878 31.813 151.1 32.4754 150.258 33.8181C149.423 35.1608 149.816 37.1957 151.338 38.0849C154.149 39.7259 158.333 38.974 160.368 37.1062Z" fill="#FFD05F"/>
<path id="Vector_11" d="M145.878 43.2767C146.91 43.2767 147.943 43.2767 148.969 43.2826C150.109 42.1906 149.148 39.5111 148.086 38.3355C147.453 37.6373 146.474 37.0644 145.603 37.4225C144.857 37.7328 144.511 38.6041 144.409 39.4097C144.29 40.3466 144.397 41.3372 144.857 42.1667C145.102 42.6083 145.454 42.9962 145.872 43.2767H145.878Z" fill="#FF9300"/>
<path id="Vector_12" d="M157.259 43.3244C158.99 43.3363 160.721 43.3482 162.451 43.3602C162.768 42.9902 162.988 42.5486 163.048 42.0712C163.478 38.7532 159.587 39.7856 158.13 41.0388C157.48 41.5998 156.931 42.4829 157.241 43.2886C157.241 43.3005 157.253 43.3124 157.259 43.3244Z" fill="#FF9300"/>
</g>
</g>
</g>
</g>
<path id="Vector_13" d="M171.53 43.4139C168.438 37.8342 162.428 35.1787 155.785 35.1906C151.715 35.2025 144.672 37.327 141.288 43.2766C151.369 43.2348 161.449 43.3721 171.53 43.4139Z" stroke="#813E1A" stroke-miterlimit="10"/>
</g>
<g id="Group_7">
<path id="Vector_14" d="M144.743 36.605C148.324 38.5922 151.882 40.6151 155.427 42.662C155.498 42.5785 155.558 42.483 155.588 42.3696C156.173 40.2273 157.784 33.0483 153.815 30.5837C149.823 28.1012 147.011 26.3826 145.746 25.6128C145.352 25.3741 144.833 25.5591 144.69 26.0006C144.069 27.8864 142.881 32.5888 144.749 36.605H144.743Z" fill="#B03C03"/>
<path id="Vector_15" d="M152.502 40.9732C153.565 41.5819 154.621 42.1965 155.683 42.8052C154.973 39.5887 152.102 28.2504 147.346 30.5479C143.466 32.4217 148.689 37.7209 152.502 40.9732Z" fill="#FF9300"/>
<path id="Vector_16" d="M144.738 36.599C148.342 38.5981 151.923 40.639 155.492 42.6978C155.958 41.1104 158.023 33.2034 153.809 30.5837C149.727 28.0415 146.874 26.305 145.657 25.559C145.305 25.3442 144.845 25.5113 144.714 25.9051C144.105 27.7252 142.846 32.5172 144.738 36.599Z" stroke="#813E1A" stroke-miterlimit="10"/>
</g>
<g id="Group_8">
<path id="Vector_17" d="M163.812 43.551C163.812 43.551 165.113 33.6807 164.463 32.9229C163.812 32.165 160.237 41.6534 160.237 41.6534L163.812 43.551Z" fill="#813E1A"/>
<path id="Vector_18" d="M164.248 34.9996C164.248 34.9996 166.062 35.2025 166.319 33.5912C166.576 31.98 166.253 29.7661 165.287 29.5632C164.32 29.3603 162.637 29.6646 162.374 30.6731C162.117 31.6816 162.505 34.4983 164.248 35.0056V34.9996Z" fill="#B03C03"/>
<path id="Vector_19" d="M164.248 34.9996C164.248 34.9996 166.062 35.2025 166.319 33.5912C166.576 31.98 166.253 29.7661 165.287 29.5632C164.32 29.3603 162.637 29.6646 162.374 30.6731C162.117 31.6816 162.505 34.4983 164.248 35.0056V34.9996Z" stroke="#813E1A" stroke-miterlimit="10"/>
</g>
</g>
<g id="Group_9">
<path id="Vector_20" d="M80.7215 49.4589C80.8647 47.7044 79.5995 46.1648 77.8866 45.765C74.8845 45.0608 70.3068 42.8827 69.895 31.0371C69.3459 15.259 60.9724 -11.2608 40.9785 5.66315L41.45 7.53696C41.45 7.53696 53.7686 -0.775817 60.3636 8.13968C66.9586 17.0552 65.5441 36.9032 67.1973 42.268C69.1072 48.4444 75.0635 52.8007 78.6326 51.9533C80.1187 51.6012 80.626 50.5569 80.7155 49.4589H80.7215Z" fill="#FF9300" stroke="#813E1A" stroke-width="0.75" stroke-miterlimit="10"/>
<g id="Group_10">
<path id="Vector_21" d="M41.808 4.95898C41.808 4.95898 30.0384 10.0791 23.6583 17.0671C15.9831 25.4754 2.11271 23.888 6.75009 26.3884C12.2171 29.3364 17.6303 28.9306 17.6303 28.9306C17.6303 28.9306 11.1368 32.6543 0.751937 31.5384C-3.50944 31.0789 11.107 43.4973 24.4581 36.396C33.4165 31.6339 32.4019 24.2878 33.6851 23.0705C35.1473 21.68 36.2455 28.2025 35.6188 31.1445C35.5174 31.6219 36.1082 31.9203 36.4305 31.5563C39.3968 28.1548 45.753 18.8514 41.802 4.95898H41.808Z" fill="#813E1A"/>
<path id="Vector_22" d="M41.8081 4.95898C41.8081 4.95898 20.1192 21.0057 19.6477 24.0014C19.1762 26.9971 30.1758 18.6903 30.1758 18.6903C30.1758 18.6903 22.8467 29.9391 15.7564 33.6688C8.66604 37.3985 22.047 37.2613 26.6068 30.0644C31.1666 22.8676 32.8496 17.461 35.4339 19.0483C38.0182 20.6357 41.7185 10.0553 41.8021 4.95898H41.8081Z" fill="#B03C03"/>
</g>
</g>
<path id="Vector_23" d="M55.5649 44.2075L75.7438 106.586L164.934 104.688L179.073 42.2621L55.5649 44.2075Z" fill="#ECEDEF"/>
<path id="Vector_24" d="M222.743 11.4696C222.385 11.2011 221.156 10.9862 219.353 10.8251C219.305 10.3059 219.252 9.78677 219.174 9.2676C219.085 8.67084 218.762 8.17554 218.118 8.16957C212.394 8.11586 206.671 7.88313 200.953 7.73394C200.392 7.71604 200.01 8.06215 199.801 8.53359C199.413 8.36053 198.834 9.18405 198.858 9.64355C198.87 9.75097 198.87 9.85838 198.882 9.9658C197.348 9.78081 195.778 9.76887 194.239 9.7092C192.579 9.63758 190.371 9.21986 188.813 10.0255C188.425 10.2284 188.008 10.5924 187.632 11.0459C187.274 10.7177 186.545 10.9683 186.319 11.6606C183.137 21.4115 180.75 31.4728 178.506 41.546C178.458 41.5102 178.411 41.4684 178.345 41.4505C173.588 39.9885 59.0265 40.4301 53.9713 41.3431C53.7564 41.2178 53.5177 41.3431 53.3327 41.5639C52.8612 41.9578 61.2109 71.3479 63.0192 77.0349C64.5113 81.7314 66.0512 86.4159 67.6149 91.0885C67.5373 91.6196 67.6447 92.1149 68.0267 92.3178C68.2177 92.8847 68.4027 93.4576 68.5937 94.0245C69.6142 97.0381 70.6468 100.04 71.6972 103.041C72.4074 105.076 72.867 107.272 74.4247 108.83C74.5739 108.979 74.7888 109.003 74.9917 108.979C75.1528 109.128 75.3617 109.224 75.6482 109.23C82.9833 109.415 111.225 107.875 117.97 107.648C118.632 107.648 135.158 107.696 142.756 107.708C145.46 107.708 155.904 108.018 162.051 108.329C160.995 110.59 160.518 113.139 160.458 115.758C160.088 117.751 159.867 119.786 159.873 121.774C158.303 121.314 156.573 121.41 154.884 121.481C150.801 121.278 146.665 121.505 142.589 121.517C135.66 121.541 128.724 121.571 121.795 121.595L101.616 121.66C98.1487 121.672 94.6811 121.678 91.2136 121.738C88.1279 121.791 84.6126 121.332 81.6702 122.406C81.3778 122.502 81.0913 122.609 80.8048 122.734C80.3274 122.943 80.1782 123.797 80.6855 124.047C81.0077 124.208 81.336 124.34 81.6762 124.453C82.4342 124.733 83.2578 124.895 84.1113 124.978C82.4521 126.309 81.1211 128.153 80.3572 130.534C80.3333 130.6 80.3274 130.671 80.3274 130.737C78.5548 133.697 77.5879 137.092 78.692 140.589C81.4792 149.356 92.8727 152.829 99.9094 147.428C103.299 144.826 105.299 140.362 105.472 135.946C105.627 135.976 105.782 136 105.943 136.024C105.884 135.087 105.83 134.156 105.806 133.225C105.657 133.255 105.508 133.273 105.358 133.309C104.935 130.128 103.484 127.18 100.823 125.217C100.769 125.175 100.709 125.139 100.649 125.097C107.388 125.121 114.126 125.145 120.864 125.163C127.584 125.187 134.311 125.211 141.031 125.235C141.532 125.235 142.028 125.241 142.529 125.247C140.458 127.407 139.187 130.48 138.763 133.655C138.686 133.625 138.608 133.607 138.53 133.583C138.674 135.648 138.888 137.713 139.139 139.772C139.157 139.915 139.157 140.046 139.151 140.183C139.264 140.601 139.396 141.013 139.545 141.407C140.804 144.689 143.359 147.416 146.582 148.645C150.598 150.173 155.224 148.663 158.894 146.807C161.58 145.447 163.597 143.316 164.797 140.822C164.88 140.41 164.976 140.004 165.042 139.593C165.865 134.759 165.167 130.212 164.206 125.467C162.977 119.387 162.469 113.467 165.048 108.323C165.059 108.299 165.077 108.269 165.089 108.245C165.447 107.535 165.865 106.843 166.349 106.168C166.384 106.115 166.42 106.067 166.456 106.013C170.127 93.3203 182.72 36.8496 184.665 27.9818C185.352 25.5172 188.228 15.987 189.04 13.7015C189.78 13.8686 193.648 14.0058 198.512 14.0536C198.44 14.6981 198.607 15.444 199.389 15.4619C205.614 15.5992 211.809 15.7483 218.028 16.1243C218.828 16.172 219.419 14.9368 219.437 14.3102C219.443 14.0595 219.437 13.8089 219.437 13.5583C221.06 13.4031 222.188 13.2121 222.57 12.9794C223 12.7109 223.149 11.8038 222.719 11.4756L222.743 11.4696ZM92.9265 125.915C94.2634 126.082 95.6182 126.476 96.9431 127.115C97.6892 127.473 98.3934 127.884 99.038 128.356C98.1547 129.024 97.3251 129.794 96.4716 130.474C94.9975 131.656 93.5293 132.837 92.0551 134.019C92.3834 131.316 92.6758 128.612 92.9205 125.909L92.9265 125.915ZM86.5344 126.834C88.2473 126.094 90.0855 125.748 91.9596 125.837C91.5657 128.362 91.2076 130.892 90.8853 133.428C89.4052 131.262 87.9549 129.072 86.5105 126.852C86.5165 126.846 86.5284 126.84 86.5344 126.834ZM85.7645 127.467C87.167 130.098 88.7427 132.676 90.4257 135.189C87.1849 134.86 83.9322 134.747 80.7392 134.944C81.33 132.139 83.3593 129.519 85.7645 127.467ZM81.903 140.864C80.8764 139.3 80.4945 137.713 80.578 136.167C83.2399 136.394 85.8839 136.603 88.5099 136.854C86.4867 138.441 84.4574 140.034 82.5595 141.753C82.3267 141.466 82.1119 141.168 81.909 140.864H81.903ZM89.3992 145.984C87.1133 145.441 84.9528 144.271 83.2936 142.576C85.7346 140.858 88.0324 138.912 90.3541 137.039C90.384 137.039 90.4138 137.044 90.4436 137.05C90.0855 140.028 89.7453 143.012 89.3992 145.984ZM90.4974 146.193C90.8913 143.191 91.2911 140.189 91.6731 137.182C91.7149 137.182 91.7626 137.194 91.8044 137.2C93.6904 139.873 95.6898 142.463 97.7548 144.928C95.5585 146.193 92.9861 146.563 90.4914 146.193H90.4974ZM98.8411 144.212C98.8411 144.212 98.8112 144.229 98.7933 144.241C98.7754 144.206 98.7575 144.176 98.7336 144.146C96.961 141.938 95.2839 139.694 93.6606 137.42C96.5313 137.784 99.3961 138.25 102.267 138.888C101.7 140.983 100.584 142.881 98.8411 144.212ZM102.691 134.807C102.726 135.624 102.691 136.448 102.583 137.259C99.2648 136.519 95.8509 135.863 92.4072 135.421C94.9676 133.512 97.9219 131.59 100.166 129.305C101.616 130.707 102.577 132.509 102.685 134.807H102.691ZM143.287 127.52C144.797 129.854 146.403 132.139 148.062 134.389C145.704 134.389 143.329 134.431 141.019 134.747C141.001 132.139 141.771 129.513 143.287 127.52ZM141.138 136.37C143.562 136.609 146.05 136.531 148.497 136.454C146.737 138.166 145.03 139.915 143.412 141.729C142.159 140.237 141.413 138.351 141.138 136.37ZM150.348 145.035C148.115 144.987 145.979 144.265 144.17 142.535C146.223 140.84 148.211 139.044 150.163 137.194C150.282 137.355 150.407 137.51 150.533 137.671C150.431 140.064 150.157 142.636 150.354 145.041L150.348 145.035ZM150.58 134.383C150.449 134.383 150.324 134.383 150.192 134.383C148.211 131.739 146.229 129.096 144.194 126.5C144.326 126.375 144.451 126.237 144.588 126.118C146.444 125.521 148.587 125.36 150.73 125.563C150.592 128.493 150.598 131.441 150.586 134.383H150.58ZM147.113 43.9211C151.458 43.939 155.803 43.9688 160.148 43.9987C159.569 48.6772 158.781 53.3379 157.921 57.9925C154.018 57.9985 150.121 57.9925 146.218 57.9925C142.099 57.9925 137.975 57.9925 133.857 57.9925C133.78 57.5271 133.708 57.0616 133.624 56.5961C132.932 52.5322 132.562 47.9432 131.368 43.8554C136.615 43.8793 141.861 43.8972 147.113 43.9211ZM159.986 61.209C164.66 61.221 169.404 61.5492 174.078 61.3284C173.248 64.9746 172.43 68.6267 171.619 72.2788C166.957 71.9327 162.219 71.9685 157.486 72.07C158.13 68.4894 158.9 64.8612 159.61 61.209C159.736 61.209 159.861 61.209 159.98 61.209H159.986ZM167.739 89.9785C167.709 89.9666 167.68 89.9547 167.65 89.9487C163.37 89.0536 158.954 88.8328 154.525 88.8089C154.543 88.7074 154.555 88.612 154.573 88.5105C155.283 84.3273 156.029 80.156 156.781 75.9847C161.49 76.0921 166.205 76.1219 170.843 75.7877C169.798 80.514 168.766 85.2463 167.745 89.9785H167.739ZM69.5605 89.2684C68.0028 84.739 66.4749 80.2037 64.9828 75.6505C68.6056 76.1876 72.6044 75.7161 76.2092 75.7161C80.6735 75.7161 85.1318 75.7161 89.5961 75.7221C89.614 75.8056 89.632 75.8832 89.6499 75.9668C90.5929 80.3529 91.5478 84.7331 92.5982 89.0894C84.9826 89.0536 77.1224 88.5642 69.5665 89.2624L69.5605 89.2684ZM60.2738 60.9584C64.0995 61.8953 68.7966 61.215 72.5984 61.215C77.2417 61.215 81.8791 61.215 86.5225 61.215C87.2983 64.9089 88.0802 68.6028 88.862 72.2967C85.3646 72.2967 81.8612 72.2967 78.3638 72.2967C73.804 72.2967 68.6116 71.6224 64.1592 72.5951C64.1055 72.607 64.0577 72.6249 64.004 72.6488C62.7387 68.758 61.4973 64.8612 60.2738 60.9584ZM108.384 61.209C109.22 64.897 110.05 68.5909 110.861 72.2788L91.9298 72.2907C91.6851 72.2907 91.4463 72.2907 91.2016 72.2907C90.4019 68.5968 89.5902 64.9029 88.7785 61.209C95.3138 61.209 101.849 61.209 108.39 61.209H108.384ZM113.081 72.2788C112.264 68.5849 111.428 64.897 110.581 61.209C112.586 61.209 114.591 61.209 116.591 61.209C121.813 61.209 127.035 61.209 132.258 61.209C132.854 64.891 133.427 68.5789 133.965 72.2729C128.993 72.2729 124.021 72.2729 119.044 72.2788H113.075H113.081ZM95.0034 89.0894C93.8993 84.6555 92.9086 80.1918 91.9417 75.7221C98.5009 75.7221 105.06 75.7281 111.619 75.734C112.58 80.1381 113.517 84.5421 114.424 88.9521C107.955 89.0178 101.479 89.0595 95.0094 89.0894H95.0034ZM116.651 88.5702C115.719 84.2915 114.782 80.0127 113.839 75.74C115.063 75.74 116.28 75.74 117.504 75.74C123.15 75.74 128.802 75.74 134.448 75.746C135.033 79.965 135.576 84.1841 136.071 88.415C136.089 88.5702 136.107 88.7253 136.125 88.8805C130.372 88.8626 124.618 88.8447 118.865 88.9163C118.155 88.9223 117.444 88.9282 116.74 88.9342C116.716 88.8149 116.686 88.6895 116.656 88.5702H116.651ZM138.28 87.4423C137.754 83.5396 137.193 79.6428 136.62 75.746C139.288 75.746 141.956 75.746 144.624 75.746C147.901 75.746 151.219 75.8414 154.543 75.925C153.761 80.2216 152.974 84.5182 152.156 88.8089C149.464 88.8268 146.779 88.8924 144.129 88.8865C142.249 88.8865 140.369 88.8805 138.489 88.8745C138.411 88.3912 138.339 87.9078 138.28 87.4364V87.4423ZM155.242 72.1237C152.407 72.1893 149.584 72.2609 146.785 72.2669C143.227 72.2669 139.67 72.2669 136.113 72.2669C136.101 72.1833 136.089 72.0938 136.077 72.0103C135.54 68.4059 134.967 64.8015 134.382 61.2031C138.232 61.2031 142.081 61.2031 145.931 61.2031C149.727 61.2031 153.523 61.2031 157.319 61.209C156.626 64.8492 155.916 68.4894 155.248 72.1237H155.242ZM115.672 43.7958C120.237 43.8137 124.809 43.8316 129.375 43.8495C129.691 48.3908 130.909 53.0216 131.649 57.4614C131.679 57.6404 131.703 57.8135 131.732 57.9925C126.779 57.9925 121.825 57.9925 116.877 57.9925C114.532 57.9925 112.186 57.9925 109.841 57.9925C109.727 57.5092 109.62 57.0258 109.506 56.5484C108.563 52.4666 107.925 47.8119 106.427 43.7659C109.506 43.7779 112.586 43.7838 115.666 43.7958H115.672ZM104.553 43.76C104.988 48.5161 106.594 53.3916 107.65 57.9925C101.121 57.9925 94.5916 57.9925 88.0623 57.9925C87.9966 57.7061 87.937 57.4197 87.8773 57.1332C86.9223 52.7888 86.3016 48.0029 84.911 43.6943C91.4583 43.7122 98.0055 43.7361 104.559 43.76H104.553ZM68.2057 43.6406C73.1296 43.6525 78.0534 43.6704 82.9773 43.6883C83.4249 48.4624 84.7797 53.308 85.8242 57.9925C81.712 57.9925 77.5998 57.9925 73.4877 57.9925C69.0532 57.9925 63.7951 57.2466 59.5039 58.5594C59.5039 58.5475 59.4979 58.5415 59.4979 58.5296C57.9701 53.6362 56.8838 48.2893 54.9799 43.4855C59.295 44.0643 63.9145 43.6227 68.2057 43.6346V43.6406ZM74.9857 104.301C73.1475 100.643 71.9717 96.501 70.6885 92.6162C77.7311 93.1115 84.9946 92.64 92.0193 92.6699C92.4967 92.6699 92.9742 92.6699 93.4517 92.6759C94.341 96.3638 95.1944 100.237 96.4657 103.865C89.3455 103.853 82.0403 103.543 74.9857 104.295V104.301ZM99.3185 103.865C98.3218 100.123 97.0446 96.4294 95.9643 92.6938C102.374 92.7296 108.778 92.7654 115.188 92.831C115.839 96.4533 116.358 100.225 117.313 103.77C111.315 103.799 105.317 103.829 99.3185 103.865ZM127.298 103.74C125.173 103.74 123.043 103.74 120.912 103.758C120.56 103.758 120.208 103.758 119.855 103.758C119.462 100.135 118.536 96.4593 117.653 92.8489C123.956 92.9146 130.258 92.8966 136.561 92.8847C136.704 94.1856 136.859 95.4925 136.991 96.7934C137.223 99.0313 137.253 101.371 137.82 103.549C134.311 103.561 130.801 103.626 127.292 103.734L127.298 103.74ZM139.933 103.561C139.951 103.489 139.981 103.417 139.981 103.352C140.243 99.9861 139.724 96.3996 139.139 92.8847C140.064 92.8847 140.989 92.8847 141.914 92.8847C145 92.8847 148.127 92.9623 151.261 92.9802C150.443 96.513 149.548 100.177 149.631 103.656C149.631 103.668 149.631 103.68 149.631 103.692C146.397 103.608 143.162 103.567 139.927 103.561H139.933ZM162.845 134.144C159.598 134.21 156.352 134.282 153.105 134.347C155.098 132.408 157.08 130.462 159.073 128.571C160.87 129.943 162.272 131.9 162.839 134.138L162.845 134.144ZM152.001 125.736C154.132 126.082 156.191 126.78 157.88 127.777C155.928 129.561 153.946 131.351 151.989 133.166C152.019 130.689 152.055 128.213 152.001 125.736ZM151.989 144.957C152.18 143.245 152.162 141.466 152.096 139.7C153.248 141.174 154.406 142.648 155.57 144.104C154.388 144.522 153.183 144.82 151.989 144.957ZM158.476 142.839C158.029 143.072 157.569 143.287 157.11 143.489C155.367 141.281 153.678 139.038 151.989 136.788C151.989 136.657 151.989 136.525 151.983 136.394C155.695 136.358 159.407 136.328 163.12 136.293C163.084 139.348 161.144 141.466 158.476 142.845V142.839ZM164.857 103.465C164.666 103.531 164.481 103.692 164.343 103.966C161.538 103.292 158.154 103.704 155.427 103.698C154.167 103.698 152.908 103.698 151.649 103.698C151.696 103.62 151.738 103.543 151.768 103.465C153.015 100.267 153.487 96.5667 153.941 92.9742C158.441 92.9384 162.929 92.6997 167.286 91.8404C167.304 91.8404 167.316 91.8285 167.333 91.8225C166.498 95.7014 165.674 99.5803 164.857 103.459V103.465ZM174.889 57.73C174.877 57.7837 174.865 57.8433 174.853 57.8971C170.222 57.6404 165.519 57.9687 160.882 57.9925C160.661 57.9925 160.44 57.9925 160.219 57.9925C161.061 53.3379 161.723 48.6653 161.813 44.0166C162.254 44.0166 162.69 44.0166 163.132 44.0225C168.139 44.0524 173.266 44.5178 178.13 43.1572C177.05 48.0267 175.993 52.8963 174.889 57.73Z" fill="#FEAF3C"/>
</g>
<defs>
<clipPath id="clip0_203_2905">
<rect width="223" height="150" fill="white"/>
</clipPath>
</defs>
</svg>
