<svg xmlns="http://www.w3.org/2000/svg" width="16" height="16" viewBox="0 0 16 16" fill="none">
  <path d="M8 2.9999C8 2.9999 10.33 2.8724 12.5 4.4999C14.7627 6.19696 15 7.4999 15 7.9999C15 8.4999 14.1 10.2999 12.5 11.4999C10.375 13.0936 8 12.9999 8 12.9999" stroke="#292D32" stroke-width="1.5" stroke-linecap="round"/>
  <path d="M8 3.00234C8 3.00234 5.67 2.87484 3.5 4.50234C1.23726 6.1994 1 7.50234 1 8.00234C1 8.50234 1.9 10.3023 3.5 11.5023C5.54513 13.0362 8 13.0023 8 13.0023" stroke="#292D32" stroke-width="1.5" stroke-linecap="round"/>
  <path d="M6 8C6 9.10457 6.89543 10 8 10C9.10457 10 10 9.10457 10 8C10 6.89543 9.10457 6 8 6C6.89543 6 6 6.89543 6 8Z" stroke="#292D32" stroke-width="1.5"/>
</svg>