<svg width="34" height="34" viewBox="0 0 34 34" fill="none" xmlns="http://www.w3.org/2000/svg">
<g id="Frame 68">
<path id="Vector" d="M11.3333 17C12.8981 17 14.1667 15.7315 14.1667 14.1667C14.1667 12.6019 12.8981 11.3333 11.3333 11.3333C9.76853 11.3333 8.5 12.6019 8.5 14.1667C8.5 15.7315 9.76853 17 11.3333 17Z" stroke="#292D32" stroke-width="1.5" stroke-linecap="round" stroke-linejoin="round"/>
<path id="Vector_2" d="M16.2923 4.25H12.7507C5.66732 4.25 2.83398 7.08333 2.83398 14.1667V22.6667C2.83398 29.75 5.66732 32.5833 12.7507 32.5833H21.2507C28.334 32.5833 31.1673 29.75 31.1673 22.6667V20.1875V17.7083" stroke="#292D32" stroke-width="1.5" stroke-linecap="round" stroke-linejoin="round"/>
<path id="Vector_3" d="M3.7832 28.2625L7.08415 26.2083C8.20331 25.4575 9.20915 24.7917 10.6258 24.0833C12.0425 23.375 13.2283 23.375 14.9749 24.1825C16.7215 24.99 17.7091 24.7917 18.9699 24.1825C20.2306 23.5733 23.5173 21.25 24.8632 20.5417C26.2091 19.8333 27.6258 19.8333 29.0425 20.5417C30.4591 21.25 31.1674 22.525 31.1674 22.525" stroke="#292D32" stroke-width="1.5" stroke-linecap="round" stroke-linejoin="round"/>
<path id="Vector_4" d="M32.5833 7.08332C32.5833 8.14582 32.2858 9.15165 31.7616 10.0017C30.7841 11.645 28.985 12.75 26.9167 12.75C24.8483 12.75 23.0492 11.645 22.0717 10.0017C21.5475 9.15165 21.25 8.14582 21.25 7.08332C21.25 3.95249 23.7858 1.41666 26.9167 1.41666C30.0475 1.41666 32.5833 3.95249 32.5833 7.08332Z" stroke="#FFC220" stroke-width="1.5" stroke-miterlimit="10" stroke-linecap="round" stroke-linejoin="round"/>
<path id="Vector_5" d="M24.084 7.08334H29.7507" stroke="#FFC220" stroke-width="1.5" stroke-linecap="round"/>
<path id="Vector_6" d="M26.916 9.91667V4.25" stroke="#FFC220" stroke-width="1.5" stroke-linecap="round"/>
</g>
</svg>
