<svg width="16" height="16" viewBox="0 0 16 16" fill="none" xmlns="http://www.w3.org/2000/svg">
<g id="Frame 116" clip-path="url(#clip0_533_6153)">
<path id="Vector" d="M13.9961 5L13.4268 12.8305C13.3304 14.0513 13.2516 15 10.8078 15H5.18442C2.74062 15 2.66179 14.0513 2.56544 12.8305L1.99609 5" stroke="white" stroke-width="1.5" stroke-linecap="round" stroke-linejoin="round"/>
<path id="Vector_2" d="M14.9961 4.38889C12.4061 4.13222 9.80054 4 7.20276 4C5.66276 4 4.12276 4.07778 2.58276 4.23333L0.996094 4.38889" stroke="white" stroke-width="1.5" stroke-linecap="round" stroke-linejoin="round"/>
<path id="Vector_3" d="M5.99609 9H9.99609" stroke="white" stroke-width="1.5" stroke-linecap="round" stroke-linejoin="round"/>
<path id="Vector_4" d="M4.99609 4L5.18467 2.67677C5.32181 1.71717 5.42466 1 6.87324 1H9.11895C10.5675 1 10.679 1.75758 10.8075 2.68687L10.9961 4" stroke="white" stroke-width="1.5" stroke-linecap="round" stroke-linejoin="round"/>
</g>
<defs>
<clipPath id="clip0_533_6153">
<rect width="16" height="16" fill="white" transform="translate(-0.00390625)"/>
</clipPath>
</defs>
</svg>
