<svg xmlns="http://www.w3.org/2000/svg" width="24" height="24" viewBox="0 0 24 24" fill="none">
  <path d="M8 12C9.10457 12 10 11.1046 10 10C10 8.89543 9.10457 8 8 8C6.89543 8 6 8.89543 6 10C6 11.1046 6.89543 12 8 12Z" stroke="#292D32" stroke-width="1.5" stroke-linecap="round" stroke-linejoin="round"/>
  <path d="M11.5 3H9C4 3 2 5 2 10V16C2 21 4 23 9 23H15C20 23 22 21 22 16V14.25V12.5" stroke="#292D32" stroke-width="1.5" stroke-linecap="round" stroke-linejoin="round"/>
  <path d="M2.66992 19.95L5 18.5C5.79 17.97 6.5 17.5 7.5 17C8.5 16.5 9.33704 16.5 10.5699 17.07C11.8028 17.64 12.5 17.5 13.3899 17.07C14.2798 16.64 16.5998 15 17.5499 14.5C18.5 14 19.5 14 20.5 14.5C21.5 15 21.9999 15.9 21.9999 15.9" stroke="#292D32" stroke-width="1.5" stroke-linecap="round" stroke-linejoin="round"/>
  <path d="M23 5C23 5.75 22.79 6.46 22.42 7.06C21.73 8.22 20.46 9 19 9C17.54 9 16.27 8.22 15.58 7.06C15.21 6.46 15 5.75 15 5C15 2.79 16.79 1 19 1C21.21 1 23 2.79 23 5Z" stroke="#FFC220" stroke-width="1.5" stroke-miterlimit="10" stroke-linecap="round" stroke-linejoin="round"/>
  <path d="M17 5H21" stroke="#FFC220" stroke-width="1.5" stroke-linecap="round"/>
  <path d="M19 7V3" stroke="#FFC220" stroke-width="1.5" stroke-linecap="round"/>
</svg>