<svg width="22" height="24" viewBox="0 0 22 24" fill="none" xmlns="http://www.w3.org/2000/svg">
<g id="Group 1000003812">
<path id="Vector" d="M12.75 16.4752V19.026C12.75 20.3014 13.3654 20.9391 14.5962 20.9391H15.4762C15.7038 20.9391 15.9315 21.0093 16.1285 21.1305L17.9254 22.2975C19.4762 23.305 20.75 22.5717 20.75 20.6777V14.8236C20.75 12.9232 19.4762 12.1962 17.9254 13.2038L16.1285 14.3708C15.9315 14.4919 15.7038 14.5621 15.4762 14.5621H14.5962C13.3654 14.5621 12.75 15.1998 12.75 16.4752Z" stroke="#FFC220" stroke-width="1.5"/>
<path id="Vector_2" d="M4.75 9.75H13.75" stroke="white" stroke-width="1.5" stroke-linecap="round" stroke-linejoin="round"/>
<path id="Vector_3" d="M4.75 5.75H10.75" stroke="white" stroke-width="1.5" stroke-linecap="round" stroke-linejoin="round"/>
<path id="Union" fill-rule="evenodd" clip-rule="evenodd" d="M9.25 21.26C9.66421 21.26 10 20.9242 10 20.51C10 20.0958 9.66421 19.76 9.25 19.76H7.75C5.32397 19.76 3.82086 19.2702 2.90533 18.3547C1.9898 17.4391 1.5 15.936 1.5 13.51V7.75C1.5 5.32397 1.9898 3.82086 2.90533 2.90533C3.82086 1.9898 5.32397 1.5 7.75 1.5H13.75C16.176 1.5 17.6791 1.9898 18.5947 2.90533C19.5102 3.82086 20 5.32397 20 7.75V9.75C20 10.1642 20.3358 10.5 20.75 10.5C21.1642 10.5 21.5 10.1642 21.5 9.75V7.75C21.5 5.17603 20.9898 3.17914 19.6553 1.84467C18.3209 0.510201 16.324 0 13.75 0H7.75C5.17603 0 3.17914 0.510201 1.84467 1.84467C0.510201 3.17914 0 5.17603 0 7.75V13.51V13.75C0 13.7702 0.000799179 13.7903 0.00237083 13.8101C0.0412712 16.2395 0.562519 18.1332 1.84467 19.4153C3.17914 20.7498 5.17603 21.26 7.75 21.26H9.25Z" fill="white"/>
</g>
</svg>
