<svg width="23" height="23" viewBox="0 0 23 23" fill="none" xmlns="http://www.w3.org/2000/svg">
<g id="Group 1000003813">
<path id="Vector" d="M21.75 17.75C21.75 18.5 21.54 19.21 21.17 19.81C20.48 20.97 19.21 21.75 17.75 21.75C16.29 21.75 15.02 20.97 14.33 19.81C13.96 19.21 13.75 18.5 13.75 17.75C13.75 15.54 15.54 13.75 17.75 13.75C19.96 13.75 21.75 15.54 21.75 17.75Z" stroke="#FFC220" stroke-width="1.5" stroke-miterlimit="10" stroke-linecap="round" stroke-linejoin="round"/>
<path id="Vector_2" d="M16.1914 17.7495L17.1814 18.7395L19.3114 16.7695" stroke="#FFC220" stroke-width="1.5" stroke-linecap="round" stroke-linejoin="round"/>
<path id="Union" fill-rule="evenodd" clip-rule="evenodd" d="M10.25 21.2598C10.6642 21.2598 11 20.924 11 20.5098C11 20.0956 10.6642 19.7598 10.25 19.7598H7.75C5.32397 19.7598 3.82086 19.27 2.90533 18.3544C1.9898 17.4389 1.5 15.9358 1.5 13.5098V7.74976C1.5 5.32373 1.9898 3.82062 2.90533 2.90509C3.82086 1.98956 5.32397 1.49976 7.75 1.49976H13.75C16.176 1.49976 17.6791 1.98956 18.5947 2.90509C19.5102 3.82062 20 5.32373 20 7.74976V10.7498C20 11.164 20.3358 11.4998 20.75 11.4998C21.1642 11.4998 21.5 11.164 21.5 10.7498V7.74976C21.5 5.17579 20.9898 3.17889 19.6553 1.84443C18.3209 0.509956 16.324 -0.000244141 13.75 -0.000244141H7.75C5.17603 -0.000244141 3.17914 0.509956 1.84467 1.84443C0.510201 3.17889 0 5.17579 0 7.74976V13.5098V13.7498C0 13.77 0.000799179 13.79 0.00237083 13.8098C0.0412712 16.2393 0.562519 18.1329 1.84467 19.4151C3.17914 20.7496 5.17603 21.2598 7.75 21.2598H10.25Z" fill="#292D32"/>
<path id="Vector_3" d="M7.75 12.0025C7.75 12.9711 8.64822 13.75 9.75001 13.75H12.0015C12.9596 13.75 13.738 13.071 13.738 12.2222C13.738 11.3135 13.259 10.984 12.5524 10.7743L8.9476 9.72575C8.24102 9.51605 7.76199 9.19651 7.76199 8.27782C7.76199 7.43902 8.54041 6.75 9.49849 6.75H11.75C12.8518 6.75 13.75 7.52889 13.75 8.4975" stroke="#292D32" stroke-width="1.5" stroke-linecap="round" stroke-linejoin="round"/>
<path id="Vector_4" d="M10.75 5.75V14.75" stroke="#292D32" stroke-width="1.5" stroke-linecap="round" stroke-linejoin="round"/>
</g>
</svg>
