<svg width="22" height="22" viewBox="0 0 22 22" fill="none" xmlns="http://www.w3.org/2000/svg">
<g id="Group 1000003812">
<path id="Vector" d="M4.75 9.75H13.75" stroke="#292D32" stroke-width="1.5" stroke-linecap="round" stroke-linejoin="round"/>
<path id="Vector_2" d="M4.75 5.75H10.75" stroke="#292D32" stroke-width="1.5" stroke-linecap="round" stroke-linejoin="round"/>
<path id="Union" fill-rule="evenodd" clip-rule="evenodd" d="M9.25 21.2598C9.66421 21.2598 10 20.924 10 20.5098C10 20.0956 9.66421 19.7598 9.25 19.7598H7.75C5.32397 19.7598 3.82086 19.27 2.90533 18.3544C1.9898 17.4389 1.5 15.9358 1.5 13.5098V7.74976C1.5 5.32373 1.9898 3.82062 2.90533 2.90509C3.82086 1.98956 5.32397 1.49976 7.75 1.49976H13.75C16.176 1.49976 17.6791 1.98956 18.5947 2.90509C19.5102 3.82062 20 5.32373 20 7.74976V9.74976C20 10.164 20.3358 10.4998 20.75 10.4998C21.1642 10.4998 21.5 10.164 21.5 9.74976V7.74976C21.5 5.17579 20.9898 3.17889 19.6553 1.84443C18.3209 0.509956 16.324 -0.000244141 13.75 -0.000244141H7.75C5.17603 -0.000244141 3.17914 0.509956 1.84467 1.84443C0.510201 3.17889 0 5.17579 0 7.74976V13.5098V13.7498C0 13.77 0.000799179 13.79 0.00237083 13.8098C0.0412712 16.2393 0.562519 18.1329 1.84467 19.4151C3.17914 20.7496 5.17603 21.2598 7.75 21.2598H9.25Z" fill="#292D32"/>
</g>
</svg>
