<svg width="110" height="110" viewBox="0 0 110 110" fill="none" xmlns="http://www.w3.org/2000/svg">
<g id="Group 1000003900">
<circle id="Ellipse 417" cx="55" cy="55" r="55" fill="#FFC220"/>
<g id="Group 1000003895">
<path id="Vector" d="M70.2863 18.9177H40.7105C36.4413 18.9177 32.9805 22.3047 32.9805 26.4827V67.9338C32.9805 72.1118 36.4413 75.4988 40.7105 75.4988H70.2863C74.5555 75.4988 78.0163 72.1118 78.0163 67.9338V26.4827C78.0163 22.3047 74.5555 18.9177 70.2863 18.9177Z" fill="#FFCC04"/>
<path id="Vector_2" d="M70.2879 20.8574C71.8124 20.8574 73.2744 21.4501 74.3523 22.505C75.4303 23.5599 76.0359 24.9907 76.0359 26.4826V67.9338C76.0359 69.4257 75.4303 70.8565 74.3523 71.9114C73.2744 72.9664 71.8124 73.559 70.2879 73.559H40.7121C39.1876 73.559 37.7256 72.9664 36.6477 71.9114C35.5697 70.8565 34.9641 69.4257 34.9641 67.9338V26.4826C34.9641 24.9907 35.5697 23.5599 36.6477 22.505C37.7256 21.4501 39.1876 20.8574 40.7121 20.8574H70.2879ZM70.2879 16.978H40.7121C38.137 16.9802 35.668 17.9823 33.8471 19.7643C32.0262 21.5463 31.0023 23.9625 31 26.4826V67.9338C31.0023 70.4539 32.0262 72.8702 33.8471 74.6522C35.668 76.4342 38.137 77.4363 40.7121 77.4385H70.2879C72.863 77.4363 75.332 76.4342 77.1529 74.6522C78.9737 72.8702 79.9977 70.4539 80 67.9338V26.4826C79.9932 23.9655 78.9672 21.5535 77.1468 19.7752C75.3264 17.9968 72.86 16.9971 70.2879 16.9948V16.978Z" fill="#412312"/>
<path id="Vector_3" d="M55.5438 20.8577H40.7128C39.1884 20.8577 37.7263 21.4503 36.6484 22.5053C35.5704 23.5602 34.9648 24.991 34.9648 26.4829V67.9341C34.9648 69.4259 35.5704 70.8568 36.6484 71.9117C37.7263 72.9666 39.1884 73.5593 40.7128 73.5593H55.5438V20.8577Z" fill="#FAA71B"/>
<path id="Vector_4" d="M41.5809 26.3646H69.4159C69.9722 26.3734 70.5026 26.5959 70.8927 26.984C71.2828 27.3721 71.5015 27.8948 71.5014 28.4392V61.6761C71.5014 62.2241 71.2789 62.7496 70.883 63.1371C70.487 63.5246 69.95 63.7423 69.3901 63.7423H41.5809C41.3029 63.7434 41.0274 63.6908 40.7703 63.5874C40.5131 63.4841 40.2793 63.3321 40.0824 63.1401C39.8854 62.9481 39.7291 62.72 39.6225 62.4687C39.5158 62.2175 39.4609 61.9481 39.4609 61.6761V28.4392C39.4609 27.889 39.6843 27.3613 40.0819 26.9722C40.4794 26.5831 41.0186 26.3646 41.5809 26.3646Z" fill="#FFCC04" stroke="#412312" stroke-width="4.6" stroke-linejoin="round"/>
<path id="Vector_5" d="M53.8379 68.1278C53.5087 68.4498 53.2846 68.86 53.1937 69.3066C53.1029 69.7533 53.1494 70.2163 53.3274 70.637C53.5055 71.0578 53.807 71.4174 54.1939 71.6705C54.5808 71.9235 55.0357 72.0585 55.5011 72.0585C55.9664 72.0585 56.4213 71.9235 56.8082 71.6705C57.1951 71.4174 57.4967 71.0578 57.6747 70.637C57.8527 70.2163 57.8993 69.7533 57.8084 69.3066C57.7176 68.86 57.4934 68.4498 57.1643 68.1278C56.7231 67.6962 56.1248 67.4538 55.5011 67.4538C54.8773 67.4538 54.279 67.6962 53.8379 68.1278Z" fill="#412312"/>
<path id="Vector_6" d="M45.8125 42.9113L55.6797 33.2548" stroke="white" stroke-width="4.6" stroke-linecap="round" stroke-linejoin="round"/>
<path id="Vector_7" d="M55.5078 57.046L65.375 47.3895" stroke="white" stroke-width="4.6" stroke-linecap="round" stroke-linejoin="round"/>
<path id="Vector_8" d="M48.1992 51.9688L62.7975 37.6823" stroke="white" stroke-width="4.6" stroke-linecap="round" stroke-linejoin="round"/>
</g>
</g>
</svg>
