<svg width="110" height="110" viewBox="0 0 110 110" fill="none" xmlns="http://www.w3.org/2000/svg">
<g id="Group 1000003899">
<circle id="Ellipse 418" cx="55" cy="55" r="55" fill="#FFC220"/>
<g id="Group 1000003915">
<path id="Vector" d="M54.8568 79.1901C54.6177 79.1913 54.381 79.1453 54.1607 79.0548C53.9404 78.9643 53.7412 78.8312 53.5751 78.6635C53.409 78.4958 53.2795 78.2971 53.1943 78.0793C53.1091 77.8614 53.0701 77.629 53.0795 77.396L53.4443 66.2453C53.4514 65.8321 53.6144 65.4359 53.9022 65.1325L67.0957 50.9463C67.2638 50.7658 67.4687 50.6214 67.6972 50.5223C67.9257 50.4233 68.1728 50.3717 68.4228 50.3709C68.6634 50.3706 68.9014 50.4196 69.1213 50.5148C69.4629 50.6572 69.7504 50.9 69.9438 51.2094C70.1372 51.5188 70.2268 51.8793 70.2001 52.2407L68.8807 70.1061C68.862 70.3808 68.7761 70.6471 68.6303 70.8828C68.4844 71.1185 68.2829 71.3168 68.0425 71.4611L55.8036 78.9025C55.5224 79.084 55.194 79.1838 54.8568 79.1901Z" fill="#FAA71B"/>
<path id="Vector_2" d="M68.4 52.1121L67.1272 70.0153L54.8805 77.4491L55.2453 66.2984L68.4388 52.1121M68.4388 48.6299C67.9395 48.6292 67.4457 48.7313 66.9896 48.9296C66.5336 49.1279 66.1256 49.4179 65.7924 49.7806L52.5988 63.9593C52.0162 64.5804 51.6876 65.3885 51.6753 66.2303L51.3105 77.381C51.2949 77.8467 51.3755 78.3108 51.5475 78.7456C51.7195 79.1803 51.9794 79.5769 52.3118 79.9117C52.6442 80.2464 53.0421 80.5126 53.4821 80.6942C53.9221 80.8759 54.395 80.9694 54.8728 80.9692C55.5414 80.9695 56.197 80.7887 56.7664 80.4468L69.0054 73.0055C69.4843 72.7156 69.8854 72.3185 70.1756 71.8472C70.4658 71.3759 70.6366 70.8439 70.674 70.2954L71.97 52.3998C72.0052 51.9232 71.9394 51.4447 71.7768 50.9939C71.6142 50.5432 71.3582 50.13 71.0248 49.7799C70.6913 49.4298 70.2876 49.1504 69.8388 48.9591C69.3899 48.7678 68.9054 48.6686 68.4156 48.6678L68.4388 48.6299Z" fill="#412312"/>
<path id="Vector_3" d="M27.6683 52.6953C27.3539 52.6964 27.0448 52.6164 26.7722 52.4635C26.4996 52.3107 26.2733 52.0903 26.1161 51.8247C25.9482 51.5555 25.8594 51.2465 25.8594 50.9314C25.8594 50.6164 25.9482 50.3074 26.1161 50.0382L33.7529 38.0699C33.9031 37.8381 34.1071 37.644 34.3484 37.5033C34.5897 37.3626 34.8616 37.2792 35.1421 37.2599L53.4966 35.9882H53.6208C53.9809 35.988 54.3327 36.0942 54.6299 36.2927C54.927 36.4911 55.1557 36.7726 55.2858 37.1002C55.416 37.4277 55.4415 37.786 55.359 38.128C55.2765 38.4699 55.0899 38.7796 54.8237 39.0162L40.2798 51.8853C39.9661 52.1628 39.5621 52.3237 39.1389 52.3395L27.6683 52.6953Z" fill="#FFCC04"/>
<path id="Vector_4" d="M53.6442 37.7294L39.1003 50.5985L27.6684 50.9543L35.3052 38.9936L53.6597 37.7294M53.6597 34.2472H53.4114L35.0568 35.5114C34.4945 35.5517 33.9499 35.7207 33.4671 36.0048C32.9844 36.2889 32.5771 36.6801 32.2784 37.1465L24.6494 49.0845C24.319 49.6115 24.1382 50.2149 24.1257 50.8326C24.1132 51.4503 24.2694 52.0601 24.5783 52.5994C24.8871 53.1388 25.3376 53.5883 25.8833 53.9018C26.4291 54.2154 27.0506 54.3816 27.684 54.3835H27.8004L39.1856 54.058C40.0311 54.0285 40.8389 53.7096 41.4673 53.1572L56.0113 40.2881C56.5432 39.8153 56.9162 39.1967 57.0814 38.5135C57.2466 37.8303 57.1962 37.1144 56.9369 36.4596C56.6776 35.8048 56.2215 35.2417 55.6284 34.8442C55.0353 34.4467 54.3328 34.2333 53.6132 34.2321L53.6597 34.2472Z" fill="#412312"/>
<path id="Vector_5" d="M53.1576 66.6467C52.9228 66.6479 52.6902 66.6036 52.473 66.5166C52.2559 66.4295 52.0586 66.3014 51.8925 66.1395L39.1879 53.7322C39.0201 53.5728 38.8869 53.3821 38.7962 53.1714C38.7056 52.9607 38.6593 52.7344 38.6602 52.5059C38.6596 52.2763 38.7059 52.0489 38.7966 51.8371C38.8872 51.6252 39.0202 51.4331 39.1879 51.272L61.6946 29.3188C64.7989 26.2908 70.4644 24.156 75.4469 24.156C77.0712 24.1324 78.687 24.3886 80.2199 24.913C80.4798 24.9881 80.7187 25.1201 80.9183 25.2991C81.1706 25.5231 81.3535 25.8116 81.4461 26.1318C83.658 32.0213 80.8718 40.3257 76.9292 44.1637L54.4226 66.1168C54.259 66.2835 54.0627 66.4163 53.8453 66.5073C53.628 66.5983 53.3941 66.6458 53.1576 66.6467Z" fill="#FFCC04"/>
<path id="Vector_6" d="M75.4541 25.8823C76.9065 25.862 78.3504 26.1006 79.7149 26.5863C81.756 31.7339 79.1794 39.5008 75.6714 42.9225L53.1648 64.8756L40.4446 52.4759L62.9513 30.5227C65.5978 27.9338 70.7898 25.8671 75.4386 25.8671M75.4386 22.3849C70.006 22.3849 63.836 24.7165 60.4135 28.0549L37.9068 50.008C37.5748 50.3315 37.3114 50.7156 37.1316 51.1384C36.9519 51.5612 36.8594 52.0144 36.8594 52.4721C36.8594 52.9298 36.9519 53.383 37.1316 53.8058C37.3114 54.2286 37.5748 54.6127 37.9068 54.9362L50.6192 67.3359C50.9508 67.6598 51.3445 67.9167 51.778 68.092C52.2115 68.2673 52.6761 68.3576 53.1454 68.3576C53.6146 68.3576 54.0793 68.2673 54.5127 68.092C54.9462 67.9167 55.34 67.6598 55.6715 67.3359L78.1782 45.3827C82.5942 41.0829 85.5899 32.1124 83.0986 25.5114C82.9669 25.1003 82.7562 24.7175 82.4777 24.3834C82.0245 23.8336 81.4098 23.4321 80.716 23.2328C79.0204 22.6544 77.2348 22.3676 75.4386 22.3849Z" fill="#412312"/>
<path id="Vector_7" d="M79.7304 26.6086C81.756 31.7638 79.1871 39.5156 75.6792 42.9372L53.1725 64.8904L46.8086 58.7511L79.7304 26.6086Z" fill="#FAA71B"/>
<path id="Vector_8" d="M67.5608 34.527C67.1614 34.9151 66.889 35.4101 66.7782 35.9494C66.6674 36.4886 66.7232 37.0477 66.9384 37.556C67.1537 38.0643 67.5187 38.4988 67.9873 38.8046C68.456 39.1103 69.0071 39.2736 69.5709 39.2736C70.1347 39.2736 70.6858 39.1103 71.1545 38.8046C71.6231 38.4988 71.9882 38.0643 72.2034 37.556C72.4187 37.0477 72.4744 36.4886 72.3636 35.9494C72.2528 35.4101 71.9804 34.9151 71.581 34.527C71.0462 34.0102 70.3238 33.7202 69.5709 33.7202C68.8181 33.7202 68.0957 34.0102 67.5608 34.527Z" stroke="#412312" stroke-width="4.6" stroke-linejoin="round"/>
<path id="Vector_9" d="M40.1647 65.2615L24.9844 80.0685" stroke="white" stroke-width="4.6" stroke-linecap="round" stroke-linejoin="round"/>
<path id="Vector_10" d="M33.3504 58.615L22.0117 69.6748" stroke="white" stroke-width="4.6" stroke-linecap="round" stroke-linejoin="round"/>
<path id="Vector_11" d="M46.8856 71.8169L35.5469 82.8768" stroke="white" stroke-width="4.6" stroke-linecap="round" stroke-linejoin="round"/>
<path id="Vector_12" d="M49.5 50.0079L57.649 42.4379" stroke="white" stroke-width="4.6" stroke-linecap="round" stroke-linejoin="round"/>
</g>
</g>
</svg>
