<svg width="79" height="53" viewBox="0 0 79 53" fill="none" xmlns="http://www.w3.org/2000/svg">
<g id="Group 1000004232">
<path id="Vector" d="M13.8946 29.6716C13.6228 33.8892 13.3474 38.1104 13.0684 42.3352C12.9664 43.8926 11.9416 44.6255 10.8095 43.9034C9.15502 42.8558 7.56075 41.7151 6.03436 40.4869C5.4703 39.9681 5.02585 39.3318 4.73207 38.6226C4.4383 37.9133 4.30228 37.1482 4.33354 36.3806C4.71627 32.9031 5.099 29.4057 5.48173 25.8887C5.51852 25.4932 5.48951 25.0944 5.39588 24.7085C3.67896 17.3798 1.98351 10.8485 0.121722 5.40587C0.021766 5.12931 -0.0173549 4.83429 0.00705183 4.5411C0.0314585 4.24791 0.118813 3.96351 0.263105 3.70746C0.407398 3.45141 0.605202 3.2298 0.842912 3.05787C1.08062 2.88593 1.3526 2.76776 1.64012 2.71147C3.2855 2.38455 4.94698 1.99297 6.62455 1.53672C7.69762 1.23495 8.69558 2.02171 8.86727 3.36352V3.55751C9.19456 6.15491 12.1455 6.38663 12.7464 3.55751C13.0576 2.1241 14.1629 1.15411 15.2199 1.42894C16.7401 1.8349 18.2638 2.25882 19.7912 2.7007C20.9715 3.0348 21.5939 4.91549 21.1057 6.63451C18.8469 14.5399 16.47 21.9872 14.0717 28.7932C13.9724 29.0763 13.9128 29.372 13.8946 29.6716Z" fill="#F8BF21"/>
<path id="Vector_2" d="M44.3539 26.0287C44.7133 40.2227 41.8375 53.2043 31.316 51.9541C21.7013 50.095 18.7503 37.0434 19.5122 24.1641C20.3063 11.1233 24.3947 0.345695 32.3515 0.000812263C40.6303 -0.112352 44.0051 11.6137 44.3539 26.0287ZM34.5191 26.6107C34.5996 18.7807 34.0577 12.4328 32.1959 12.3896C30.3342 12.3465 29.3791 18.5329 29.1484 26.2011C28.9177 33.8694 29.6474 40.2659 31.6433 40.5191C33.6392 40.7724 34.4387 34.4352 34.5191 26.6107Z" fill="#F8BF21"/>
<path id="Vector_3" d="M70.1773 0.701422C71.7869 0.965473 73.3375 1.19719 74.9095 1.3858C75.3927 1.45764 75.836 1.69571 76.1638 2.05935C76.4916 2.42299 76.6836 2.88966 76.7069 3.37965C77.3257 12.7418 77.9481 22.1273 78.5741 31.5361C78.5436 33.0253 78.0101 34.46 77.061 35.6046C75.7324 37.099 74.317 38.5134 72.8224 39.8402C71.7493 40.7994 70.7782 40.2282 70.7245 38.6816V38.3798C70.6387 35.61 67.7897 36.2243 66.9258 39.3822L66.7005 40.2228C66.4757 41.2253 65.8839 42.1062 65.0426 42.6909C64.3272 43.1004 63.6118 43.4884 62.8965 43.8549C62.7303 43.9531 62.5456 44.0156 62.3541 44.0386C62.1627 44.0615 61.9685 44.0444 61.784 43.9881C61.5995 43.9319 61.4286 43.8379 61.2821 43.712C61.1355 43.5861 61.0166 43.4311 60.9327 43.2567L60.6323 42.7178C59.3446 40.4707 56.34 42.7933 56.6834 46.0158V46.0696C56.8711 47.8156 55.9376 49.7178 54.6284 50.1382C52.7841 50.7212 50.9086 51.1997 49.0109 51.5716C47.7339 51.8249 46.6608 50.5262 46.6126 48.7425C46.2227 34.4622 45.8346 20.1621 45.4483 5.84233C45.4107 4.22569 46.0867 2.87849 47.0579 2.60905C48.6299 2.1564 50.1966 1.69835 51.7579 1.25647C52.6432 1.00858 53.5553 1.73068 53.9953 2.99705C56.1414 9.22649 58.3627 15.1865 60.6162 20.7262C61.5068 22.9194 63.8354 22.1434 64.3397 19.6754C65.6382 13.4998 66.8883 7.67991 68.1545 2.33961C68.4174 1.19719 69.2544 0.545147 70.1773 0.701422Z" fill="#F8BF21"/>
</g>
</svg>
