<svg width="183" height="189" viewBox="0 0 183 189" fill="none" xmlns="http://www.w3.org/2000/svg">
<g id="Group">
<g id="Group_2">
<g id="Group_3">
<path id="Vector" d="M49.2646 49.5013C37.5284 52.8031 31.6886 66.2655 37.129 76.3115C39.5947 80.8663 43.5457 86.4127 50.5873 89.4809C61.1467 94.0891 66.1091 78.3232 79.4813 102.164C90.0078 120.938 108.571 99.2697 115.971 108.775C123.371 118.281 128.379 123.05 133.831 120.453C148.572 113.438 131.416 91.1197 115.542 89.7339C99.6675 88.3481 92.5874 90.3116 90.9599 73.7776C89.3372 57.2401 65.3921 69.5613 61.7309 55.1891C60.1773 49.0818 54.8772 47.9211 49.2646 49.5013Z" fill="#88B787"/>
<path id="Vector_2" d="M136.409 118.496C136.409 118.496 128.036 102.505 112.498 98.1003C96.9561 93.6995 88.1545 98.1055 80.139 84.1278C72.1235 70.15 41.9484 78.8158 39.018 56.5527" stroke="#577957" stroke-width="0.94" stroke-linecap="round" stroke-linejoin="round"/>
</g>
<path id="Vector_3" d="M41.0506 82.1987L42.9989 65.9221" stroke="#577957" stroke-width="0.94" stroke-linecap="round" stroke-linejoin="round"/>
<path id="Vector_4" d="M51.3244 71.4307L66.6353 61.3796" stroke="#577957" stroke-width="0.94" stroke-linecap="round" stroke-linejoin="round"/>
<path id="Vector_5" d="M59.1581 73.8365L59.7515 89.5267" stroke="#577957" stroke-width="0.94" stroke-linecap="round" stroke-linejoin="round"/>
<path id="Vector_6" d="M68.5069 76.2921L84.0879 64.994" stroke="#577957" stroke-width="0.94" stroke-linecap="round" stroke-linejoin="round"/>
<path id="Vector_7" d="M76.6996 80.251L73.8585 93.753" stroke="#577957" stroke-width="0.94" stroke-linecap="round" stroke-linejoin="round"/>
<path id="Vector_8" d="M80.1346 84.1314L91.269 76.2356" stroke="#577957" stroke-width="0.94" stroke-linecap="round" stroke-linejoin="round"/>
<path id="Vector_9" d="M85.9072 91.5629L82.8468 106.631" stroke="#577957" stroke-width="0.94" stroke-linecap="round" stroke-linejoin="round"/>
<path id="Vector_10" d="M91.2255 94.0689L98.9886 87.8426" stroke="#577957" stroke-width="0.94" stroke-linecap="round" stroke-linejoin="round"/>
<path id="Vector_11" d="M96.3189 95.2416L95.6894 109.694" stroke="#577957" stroke-width="0.94" stroke-linecap="round" stroke-linejoin="round"/>
<path id="Vector_12" d="M104.86 96.4479L113.574 89.3526" stroke="#577957" stroke-width="0.94" stroke-linecap="round" stroke-linejoin="round"/>
<path id="Vector_13" d="M109.55 97.3478L109.887 106.258" stroke="#577957" stroke-width="0.94" stroke-linecap="round" stroke-linejoin="round"/>
<path id="Vector_14" d="M117.536 100.027L125.998 93.3935" stroke="#577957" stroke-width="0.94" stroke-linecap="round" stroke-linejoin="round"/>
<path id="Vector_15" d="M124.807 104.685L121.804 115.709" stroke="#577957" stroke-width="0.94" stroke-linecap="round" stroke-linejoin="round"/>
<path id="Vector_16" d="M130.029 109.674L138.594 107.701" stroke="#577957" stroke-width="0.94" stroke-linecap="round" stroke-linejoin="round"/>
<path id="Vector_17" d="M59.4443 51.006L40.4034 61.7827" stroke="#577957" stroke-width="0.94" stroke-linecap="round" stroke-linejoin="round"/>
</g>
<g id="Group_4">
<path id="Vector_18" d="M139.845 60.423C139.845 60.423 37.3277 98.6043 49.7799 43.4109C62.2321 -11.7826 139.845 60.423 139.845 60.423Z" fill="#7DAE7A"/>
<path id="Vector_19" d="M139.845 60.423L49.7799 43.4108L63.7192 71.4186" stroke="#577957" stroke-width="0.94" stroke-linecap="round" stroke-linejoin="round"/>
<path id="Vector_20" d="M76.3779 73.2524L61.2301 45.577L84.3187 24.7161" stroke="#577957" stroke-width="0.94" stroke-linecap="round" stroke-linejoin="round"/>
<path id="Vector_21" d="M93.3049 28.1749L72.7545 47.7542L88.7236 72.7642" stroke="#577957" stroke-width="0.94" stroke-linecap="round" stroke-linejoin="round"/>
<path id="Vector_22" d="M49.78 43.4109L71.6662 22.6403" stroke="#577957" stroke-width="0.94" stroke-linecap="round" stroke-linejoin="round"/>
<path id="Vector_23" d="M102.269 32.8832L84.3752 49.9498L99.4133 71.2931" stroke="#577957" stroke-width="0.94" stroke-linecap="round" stroke-linejoin="round"/>
<path id="Vector_24" d="M109.268 69.3275L96.7253 52.2793L110.727 37.8918" stroke="#577957" stroke-width="0.94" stroke-linecap="round" stroke-linejoin="round"/>
<path id="Vector_25" d="M118.782 43.4073L108.15 54.4417L117.828 67.2382" stroke="#577957" stroke-width="0.94" stroke-linecap="round" stroke-linejoin="round"/>
<path id="Vector_26" d="M125.359 65.1412L119.207 56.5283L126.155 48.9324" stroke="#577957" stroke-width="0.94" stroke-linecap="round" stroke-linejoin="round"/>
<path id="Vector_27" d="M132.732 54.2374L128.497 58.2847L131.895 63.1354" stroke="#577957" stroke-width="0.94" stroke-linecap="round" stroke-linejoin="round"/>
</g>
<g id="Group_5">
<g id="Group_6">
<path id="Vector_28" d="M21.4417 73.9561C25.4659 60.1778 41.6778 53.3629 53.7337 59.7783C59.201 62.6856 65.5176 67.3382 70.8625 74.6936C83.2866 91.7925 61.0965 94.8914 82.3008 109.367C103.505 123.842 80.2145 138.246 91.6144 146.96C103.014 155.673 111.188 161.939 106.793 172.326C99.2939 190.055 71.1274 170.567 69.5325 151.916C67.9376 133.264 63.5765 124.993 43.6953 123.039C23.8141 121.085 45.4958 92.9538 28.2266 88.6166C20.8888 86.7703 19.5182 80.5495 21.4417 73.9561Z" fill="#6E976D"/>
<path id="Vector_29" d="M21.6067 83.6249L29.9712 61.928C56.7351 65.4352 46.1746 100.853 62.9494 110.308C79.7242 119.763 74.3827 130.094 79.6105 148.359C84.8334 166.628 104.027 176.501 104.027 176.501" stroke="#577957" stroke-width="0.94" stroke-linecap="round" stroke-linejoin="round"/>
</g>
<path id="Vector_30" d="M71.603 75.7622L42.2726 67.6042" stroke="#577957" stroke-width="0.94" stroke-linecap="round" stroke-linejoin="round"/>
<path id="Vector_31" d="M46.925 74.4265L74.6685 82.7968" stroke="#577957" stroke-width="0.94" stroke-linecap="round" stroke-linejoin="round"/>
<path id="Vector_32" d="M72.6562 96.2554L51.6656 89.6534" stroke="#577957" stroke-width="0.94" stroke-linecap="round" stroke-linejoin="round"/>
<path id="Vector_33" d="M74.2432 101.967L53.2619 95.6179" stroke="#577957" stroke-width="0.94" stroke-linecap="round" stroke-linejoin="round"/>
<path id="Vector_34" d="M90.7559 119.084L70.6483 116.184" stroke="#577957" stroke-width="0.94" stroke-linecap="round" stroke-linejoin="round"/>
<path id="Vector_35" d="M91.561 125.153L74.7545 123.07" stroke="#577957" stroke-width="0.94" stroke-linecap="round" stroke-linejoin="round"/>
<path id="Vector_36" d="M88.7505 143.279L77.9502 141.158" stroke="#577957" stroke-width="0.94" stroke-linecap="round" stroke-linejoin="round"/>
<path id="Vector_37" d="M94.4478 149.519L79.3161 147.293" stroke="#577957" stroke-width="0.94" stroke-linecap="round" stroke-linejoin="round"/>
<path id="Vector_38" d="M107.984 167.277L91.7017 167.382" stroke="#577957" stroke-width="0.94" stroke-linecap="round" stroke-linejoin="round"/>
<path id="Vector_39" d="M106.79 172.321L97.5735 172.335" stroke="#577957" stroke-width="0.94" stroke-linecap="round" stroke-linejoin="round"/>
<path id="Vector_40" d="M78.9947 170.276L84.4073 158.689" stroke="#577957" stroke-width="0.94" stroke-linecap="round" stroke-linejoin="round"/>
<path id="Vector_41" d="M81.4556 153.359L75.2419 165.837" stroke="#577957" stroke-width="0.94" stroke-linecap="round" stroke-linejoin="round"/>
<path id="Vector_42" d="M68.5171 143.842L76.7751 133.099" stroke="#577957" stroke-width="0.94" stroke-linecap="round" stroke-linejoin="round"/>
<path id="Vector_43" d="M66.6641 136.911L75.6025 126.005" stroke="#577957" stroke-width="0.94" stroke-linecap="round" stroke-linejoin="round"/>
<path id="Vector_44" d="M54.5722 125.244L59.8251 107.978" stroke="#577957" stroke-width="0.94" stroke-linecap="round" stroke-linejoin="round"/>
<path id="Vector_45" d="M49.283 123.838L56.1657 102.995" stroke="#577957" stroke-width="0.94" stroke-linecap="round" stroke-linejoin="round"/>
<path id="Vector_46" d="M35.5243 104.389L49.6373 83.6164" stroke="#577957" stroke-width="0.94" stroke-linecap="round" stroke-linejoin="round"/>
<path id="Vector_47" d="M34.9075 94.6913L48.3286 77.8097" stroke="#577957" stroke-width="0.94" stroke-linecap="round" stroke-linejoin="round"/>
<path id="Vector_48" d="M26.3563 87.7767L34.8465 63.0471" stroke="#577957" stroke-width="0.94" stroke-linecap="round" stroke-linejoin="round"/>
</g>
</g>
</svg>
