<svg width="23" height="23" viewBox="0 0 23 23" fill="none" xmlns="http://www.w3.org/2000/svg">
<g id="Group 1000004023">
<g id="Layer 18">
<path id="Vector" d="M11.9988 2.84789C11.1106 2.81966 10.2286 3.00513 9.42695 3.3887C8.62531 3.77228 7.9275 4.34274 7.3922 5.05211C6.55866 6.28063 5.99644 7.67265 5.743 9.13546C5.56064 10.2138 5.53685 11.3238 5.40999 12.418C5.32277 13.1316 5.22763 15.0187 4.40303 15.3279C3.89976 15.4394 3.44951 15.7191 3.12649 16.1208C2.70626 16.9612 3.05513 18.6501 4.21274 18.7214H18.1992C19.2379 18.7214 20.5382 18.9355 21.0298 17.7382C21.1301 17.407 21.1464 17.056 21.0772 16.7168C21.008 16.3777 20.8555 16.0611 20.6333 15.7957C20.2369 15.3517 19.5392 15.3596 19.1824 14.8442C18.8273 14.1822 18.6318 13.4464 18.6115 12.6955C18.3895 10.7609 18.5481 8.52494 17.66 6.74095C16.9844 5.31353 15.8742 4.13667 14.4885 3.37913C13.7136 3.00379 12.8594 2.82152 11.9988 2.84789Z" stroke="white" stroke-width="1.5" stroke-miterlimit="10"/>
<path id="Vector_2" d="M14.6828 19.2424C14.6449 19.9469 14.3538 20.6094 13.8693 21.094C13.3847 21.5785 12.7434 21.8485 12.0768 21.8485C11.4102 21.8485 10.7688 21.5785 10.2843 21.094C9.79969 20.6094 9.50861 19.9469 9.4707 19.2424H14.6828Z" stroke="white" stroke-width="1.5" stroke-miterlimit="10"/>
</g>
<path id="Vector 3195" d="M1 8.16667C1.21717 6.42929 2.30303 2.56364 4.90909 1" stroke="white" stroke-linecap="round"/>
<path id="Vector 3197" d="M22.5 8.16667C22.2828 6.42929 21.197 2.56364 18.5909 1" stroke="white" stroke-linecap="round"/>
</g>
</svg>
