<svg xmlns="http://www.w3.org/2000/svg" width="253" height="175" viewBox="0 0 253 175" fill="none">
  <path d="M251.587 3.38038C252.349 3.0562 252.705 2.17538 252.38 1.41302C252.056 0.650653 251.175 0.295437 250.413 0.61962L251.587 3.38038ZM156 107.5L157.471 107.206L156 107.5ZM0.499756 85.5C0.499756 89.9183 4.08148 93.5 8.49976 93.5C12.918 93.5 16.4998 89.9183 16.4998 85.5C16.4998 81.0817 12.918 77.5 8.49976 77.5C4.08148 77.5 0.499756 81.0817 0.499756 85.5ZM250.413 0.61962C232.475 8.24763 206.169 22.7028 185.52 41.3236C164.942 59.8813 149.564 82.9702 154.529 107.794L157.471 107.206C152.836 84.0298 167.125 61.9521 187.53 43.5514C207.864 25.2138 233.859 10.919 251.587 3.38038L250.413 0.61962ZM154.529 107.794C160.691 138.604 185.141 152.477 207.941 153.374C219.326 153.822 230.405 151.046 238.684 145.446C246.996 139.823 252.5 131.326 252.5 120.5H249.5C249.5 130.174 244.629 137.802 237.003 142.961C229.345 148.142 218.924 150.803 208.059 150.376C186.36 149.523 163.309 136.396 157.471 107.206L154.529 107.794ZM252.5 120.5C252.5 99.0884 236.257 82.0385 209.955 80.6272C183.741 79.2205 147.601 93.2791 106.946 133.433L109.054 135.567C149.398 95.7209 184.759 82.2795 209.795 83.6228C234.743 84.9615 249.5 100.912 249.5 120.5H252.5ZM106.946 133.433C86.7906 153.339 69.1191 164.443 54.3982 168.932C39.7184 173.409 28.0407 171.299 19.5959 164.869C11.104 158.403 5.62498 147.375 3.8073 133.531C1.99148 119.702 3.85386 103.191 9.91443 85.9987L7.08508 85.0013C0.895649 102.559 -1.05447 119.548 0.832834 133.922C2.71828 148.281 8.45797 160.159 17.7786 167.256C27.1464 174.389 39.8748 176.497 55.2732 171.802C70.6304 167.119 88.7089 155.661 109.054 135.567L106.946 133.433Z" fill="white"/>
</svg>