<svg width="63" height="77" viewBox="0 0 63 77" fill="none" xmlns="http://www.w3.org/2000/svg">
<g id="Layer_1" clip-path="url(#clip0_178_2460)">
<path id="Vector" d="M36.79 1.97461H8.40591C4.85939 1.97461 1.98438 4.83816 1.98438 8.37053V52.0259C1.98438 55.5583 4.85939 58.4218 8.40591 58.4218H36.79C40.3365 58.4218 43.2115 55.5583 43.2115 52.0259V8.37053C43.2115 4.83816 40.3365 1.97461 36.79 1.97461Z" fill="#FAA71B"/>
<path id="Vector_2" d="M36.7881 3.94915C37.9647 3.95142 39.0924 4.41797 39.9244 5.24664C40.7564 6.07531 41.2248 7.19858 41.2271 8.3705V52.0345C41.2248 53.2056 40.7561 54.328 39.9239 55.1553C39.0917 55.9826 37.9639 56.4472 36.7881 56.4472H8.40402C7.82149 56.4483 7.24445 56.335 6.70593 56.1138C6.16741 55.8925 5.67798 55.5676 5.26567 55.1578C4.85335 54.7479 4.52624 54.2611 4.30305 53.7251C4.07986 53.1892 3.96497 52.6147 3.96497 52.0345V8.3705C3.96497 7.19789 4.43266 6.0733 5.26514 5.24414C6.09762 4.41498 7.22671 3.94915 8.40402 3.94915H36.7881ZM36.7881 0H8.40402C6.17584 0.00227271 4.03957 0.884887 2.464 2.45417C0.888438 4.02345 0.00228181 6.1512 0 8.3705V52.0345C0.00228451 54.253 0.888717 56.3798 2.46453 57.9477C4.04034 59.5156 6.17663 60.3964 8.40402 60.3964H36.7881C39.0148 60.3941 41.1497 59.5127 42.7251 57.9452C44.3004 56.3778 45.1875 54.2523 45.1921 52.0345V8.3705C45.1898 6.1512 44.3037 4.02345 42.7281 2.45417C41.1525 0.884887 39.0163 0.00227271 36.7881 0Z" fill="#412312"/>
<path id="Vector_3" d="M13.8242 10.1221H31.7787" stroke="#412312" stroke-width="4.6" stroke-linecap="round" stroke-linejoin="round"/>
<path id="Vector_4" d="M10.5312 45.2695V18.9561" stroke="white" stroke-width="4.6" stroke-linecap="round" stroke-linejoin="round"/>
<path id="Vector_5" d="M26.2137 75.0255C24.5121 75.0232 22.881 74.3483 21.6786 73.1491C20.4762 71.9499 19.8008 70.3244 19.8008 68.6296V24.9313C19.8031 23.238 20.4794 21.6146 21.6816 20.4173C22.8838 19.2199 24.5136 18.5462 26.2137 18.5439H46.4437C46.703 18.5438 46.9597 18.5945 47.1993 18.6932C47.4389 18.7919 47.6566 18.9366 47.84 19.1191L60.4418 31.6706C60.625 31.8533 60.7704 32.0701 60.8694 32.3088C60.9685 32.5474 61.0195 32.8032 61.0193 33.0614V68.6296C61.017 70.3252 60.3397 71.9507 59.1359 73.1497C57.9322 74.3486 56.3001 75.0232 54.5977 75.0255H26.2137Z" fill="#FFCC04"/>
<path id="Vector_6" d="M46.4418 20.5528L59.0177 33.0956V68.6295C59.0177 69.8021 58.55 70.9267 57.7175 71.7558C56.885 72.585 55.7559 73.0508 54.5786 73.0508H26.2118C25.036 73.0485 23.9091 72.5817 23.0785 71.7528C22.2479 70.9239 21.7814 69.8006 21.7814 68.6295V24.9312C21.7814 23.7609 22.2482 22.6385 23.079 21.8109C23.9099 20.9834 25.0368 20.5184 26.2118 20.5184H46.4418M46.4418 16.5693H26.2118C23.9859 16.5715 21.8518 17.4533 20.2779 19.0209C18.7039 20.5886 17.8187 22.7142 17.8164 24.9312V68.6295C17.8164 70.848 18.7006 72.9758 20.2748 74.5453C21.849 76.1148 23.9844 76.9977 26.2118 77H54.5959C56.824 76.9977 58.9603 76.1151 60.5359 74.5458C62.1114 72.9765 62.9976 70.8488 62.9999 68.6295V33.0956C63.0012 32.577 62.899 32.0632 62.6992 31.5842C62.4994 31.1053 62.2061 30.6706 61.8363 30.3055L49.2431 17.754C48.875 17.3883 48.4381 17.0985 47.9574 16.9011C47.4768 16.7037 46.9617 16.6026 46.4418 16.6036V16.5693Z" fill="#412312"/>
<path id="Vector_7" d="M47.9572 22.0639L57.2317 31.3015H52.3617C51.7837 31.3026 51.2112 31.1902 50.6768 30.9707C50.1425 30.7511 49.6569 30.4288 49.2478 30.0221C48.8386 29.6154 48.5141 29.1324 48.2926 28.6006C48.0711 28.0688 47.9572 27.4988 47.9572 26.9231V22.0639ZM47.9572 18.1147C47.4368 18.1174 46.9219 18.2194 46.4401 18.4152C45.7156 18.7141 45.0962 19.2203 44.6605 19.8697C44.2248 20.5192 43.9922 21.2828 43.9922 22.0639V26.9231C43.9967 29.1318 44.8803 31.2486 46.4491 32.8096C48.018 34.3706 50.1442 35.2484 52.3617 35.2507H57.2317C58.016 35.2514 58.7829 35.0206 59.4354 34.5872C60.0879 34.1539 60.5967 33.5375 60.8975 32.8161C61.1983 32.0947 61.2775 31.3007 61.1252 30.5344C60.9729 29.7682 60.5958 29.0641 60.0417 28.5113L50.7671 19.2737C50.3981 18.9062 49.96 18.6147 49.4779 18.4159C48.9957 18.217 48.479 18.1147 47.9572 18.1147Z" fill="#412312"/>
<path id="Vector_8" d="M30.2812 39.7061H50.5371" stroke="#412312" stroke-width="4.6" stroke-linecap="round" stroke-linejoin="round"/>
<path id="Vector_9" d="M30.2812 47.1494H50.5371" stroke="#412312" stroke-width="4.6" stroke-linecap="round" stroke-linejoin="round"/>
<path id="Vector_10" d="M30.2812 54.5928H50.5371" stroke="#412312" stroke-width="4.6" stroke-linecap="round" stroke-linejoin="round"/>
<path id="Vector_11" d="M30.2812 62.0273H50.5371" stroke="#412312" stroke-width="4.6" stroke-linecap="round" stroke-linejoin="round"/>
</g>
<defs>
<clipPath id="clip0_178_2460">
<rect width="63" height="77" fill="white"/>
</clipPath>
</defs>
</svg>
