<svg width="58" height="58" viewBox="0 0 58 58" fill="none" xmlns="http://www.w3.org/2000/svg">
<g id="Layer_1" clip-path="url(#clip0_178_2403)">
<path id="Vector" d="M32.9174 23.1212L37.5398 27.821L40.7738 31.1287L42.6591 33.036L54.2859 44.9305C54.9349 45.5259 55.4585 46.2498 55.8248 47.0581C56.1911 47.8664 56.3924 48.7423 56.4165 49.6325C56.4406 50.5227 56.2871 51.4086 55.9651 52.2363C55.6431 53.064 55.1595 53.8163 54.5436 54.4474C53.9278 55.0784 53.1926 55.5751 52.3827 55.9072C51.5728 56.2393 50.7052 56.3998 49.8326 56.3791C48.9599 56.3583 48.1006 56.1567 47.3067 55.7865C46.5129 55.4163 45.8011 54.8853 45.2147 54.2257L34.5424 43.2968L23.8305 32.4082C23.2329 31.7985 22.7587 31.0745 22.4353 30.2778C22.1118 29.481 21.9453 28.6271 21.9453 27.7647C21.9453 26.9023 22.1118 26.0484 22.4353 25.2516C22.7587 24.4549 23.2329 23.731 23.8305 23.1212C24.4282 22.5114 25.1378 22.0277 25.9187 21.6976C26.6996 21.3676 27.5366 21.1978 28.3819 21.1978C29.2271 21.1978 30.0641 21.3676 30.8451 21.6976C31.626 22.0277 32.3355 22.5114 32.9332 23.1212H32.9174Z" stroke="#412312" stroke-width="3" stroke-linejoin="round"/>
<path id="Vector_2" d="M43.9341 23.3463C43.9341 27.5961 42.6989 31.7505 40.3847 35.2841C38.0705 38.8177 34.7813 41.5718 30.9329 43.1981C27.0846 44.8245 22.8499 45.25 18.7645 44.4209C14.6792 43.5918 10.9265 41.5453 7.98107 38.5402C5.03567 35.5352 3.02982 31.7065 2.21718 27.5383C1.40455 23.3702 1.82163 19.0498 3.41567 15.1234C5.00971 11.1971 7.70912 7.84124 11.1726 5.48017C14.636 3.1191 18.7079 1.85889 22.8733 1.85889C28.459 1.85889 33.8159 4.12274 37.7655 8.15241C41.7152 12.1821 43.9341 17.6475 43.9341 23.3463Z" fill="#FFCC04" stroke="#412312" stroke-width="3" stroke-linejoin="round"/>
<path id="Vector_3" d="M36.8057 23.3466C36.8072 26.1598 35.9909 28.9103 34.46 31.25C32.9291 33.5898 30.7523 35.4137 28.2052 36.491C25.658 37.5683 22.8549 37.8506 20.1504 37.3021C17.446 36.7537 14.9618 35.3992 13.012 33.4099C11.0623 31.4207 9.73467 28.8861 9.19712 26.1269C8.65957 23.3677 8.93626 20.5078 9.99217 17.909C11.0481 15.3103 12.8358 13.0894 15.1291 11.5275C17.4224 9.96555 20.1182 9.13269 22.8756 9.13428C26.5701 9.13428 30.1132 10.6316 32.7256 13.297C35.338 15.9623 36.8057 19.5772 36.8057 23.3466Z" fill="#FFCC04" stroke="#412312" stroke-width="3" stroke-linejoin="round"/>
<path id="Vector_4" d="M22.875 16.3691C24.6867 16.3691 26.4242 17.1033 27.7052 18.4103C28.9863 19.7174 29.706 21.49 29.706 23.3384" stroke="white" stroke-width="4.6" stroke-linecap="round" stroke-linejoin="round"/>
<path id="Vector_5" d="M44 23.5C44 27.7523 42.7684 31.9091 40.4609 35.4447C38.1534 38.9804 34.8736 41.7361 31.0364 43.3634C27.1991 44.9907 22.9767 45.4165 18.9031 44.5869C14.8295 43.7573 11.0877 41.7096 8.15077 38.7028C5.21386 35.696 3.21381 31.865 2.40352 27.6944C1.59323 23.5238 2.00911 19.2009 3.59854 15.2723C5.18798 11.3437 7.8796 7.98585 11.333 5.6234C14.7865 3.26095 18.8466 2 23 2C28.5695 2 33.911 4.26517 37.8492 8.29721C41.7875 12.3292 44 17.7978 44 23.5Z" stroke="#412312" stroke-width="2" stroke-linejoin="round"/>
</g>
<defs>
<clipPath id="clip0_178_2403">
<rect width="58" height="58" fill="white"/>
</clipPath>
</defs>
</svg>
