<svg width="62" height="59" viewBox="0 0 62 59" fill="none" xmlns="http://www.w3.org/2000/svg">
<g id="Layer_1" clip-path="url(#clip0_178_2415)">
<path id="Vector" d="M45.4257 57.0818C44.4977 57.0818 43.5839 56.8561 42.765 56.4246L33.4836 51.6028C32.7202 51.2066 31.8708 50.9995 31.0085 50.9995C30.1462 50.9995 29.2968 51.2066 28.5335 51.6028L19.2521 56.4246C18.4332 56.8561 17.5194 57.0818 16.5914 57.0818C15.758 57.0804 14.935 56.8993 14.1799 56.5511C13.4248 56.2029 12.7557 55.696 12.2195 55.0658C11.6832 54.4355 11.2927 53.6972 11.0753 52.9024C10.8579 52.1076 10.8187 51.2755 10.9606 50.4642L12.7319 40.2552C12.875 39.4137 12.809 38.5505 12.5395 37.7398C12.27 36.9291 11.8052 36.1953 11.1849 35.6015L3.70564 28.3727C2.94073 27.6371 2.39958 26.7046 2.14349 25.6808C1.8874 24.657 1.92661 23.5828 2.25667 22.5799C2.58673 21.577 3.19443 20.6854 4.01098 20.0062C4.82753 19.327 5.8203 18.8872 6.87681 18.7367L17.2565 17.2084C18.1104 17.0841 18.9209 16.757 19.6187 16.2553C20.3165 15.7535 20.8808 15.092 21.263 14.3276L25.9038 5.03552C26.3753 4.08935 27.1055 3.29254 28.0118 2.73534C28.9181 2.17814 29.9643 1.88281 31.0317 1.88281C32.0992 1.88281 33.1453 2.17814 34.0516 2.73534C34.9579 3.29254 35.6882 4.08935 36.1597 5.03552L40.8004 14.3276C41.1827 15.092 41.747 15.7535 42.4448 16.2553C43.1426 16.757 43.9531 17.0841 44.8069 17.2084L55.1867 18.7367C56.2416 18.8883 57.2326 19.3283 58.0477 20.007C58.8629 20.6857 59.4696 21.5762 59.7995 22.5777C60.1294 23.5792 60.1692 24.6519 59.9144 25.6745C59.6596 26.6972 59.1205 27.6291 58.3578 28.365L50.8476 35.6015C50.2241 36.193 49.757 36.9266 49.4873 37.7379C49.2175 38.5493 49.1535 39.4137 49.3007 40.2552L51.0719 50.4719C51.2112 51.2824 51.1701 52.1132 50.9516 52.9065C50.733 53.6998 50.3423 54.4365 49.8064 55.0655C49.2706 55.6945 48.6025 56.2007 47.8487 56.5489C47.0949 56.8971 46.2733 57.0789 45.4412 57.0818H45.4257Z" fill="#FFCC04"/>
<path id="Vector_2" d="M31.001 3.84365C31.7056 3.8391 32.3971 4.03194 32.9953 4.39981C33.5935 4.76768 34.074 5.29551 34.381 5.92213L39.0217 15.2218C39.5475 16.2633 40.3198 17.1642 41.2731 17.8479C42.2264 18.5317 43.3325 18.9782 44.4977 19.1496L54.8775 20.6397C55.5735 20.7407 56.2272 21.0319 56.7647 21.4804C57.3021 21.9289 57.702 22.5169 57.9192 23.1781C58.1363 23.8392 58.1621 24.5472 57.9937 25.222C57.8252 25.8969 57.4692 26.5118 56.9658 26.9974L49.4555 34.2262C48.6131 35.0386 47.983 36.0409 47.6192 37.147C47.2554 38.2531 47.169 39.4299 47.3672 40.5763L49.1384 50.793C49.2618 51.4789 49.1875 52.1852 48.924 52.8313C48.6604 53.4774 48.2182 54.0372 47.6479 54.4469C47.0776 54.8565 46.4022 55.0994 45.6988 55.1478C44.9954 55.1963 44.2924 55.0483 43.6701 54.7207L34.3887 49.8989C33.3465 49.3568 32.1865 49.0736 31.0087 49.0736C29.8309 49.0736 28.6708 49.3568 27.6287 49.8989L18.3473 54.7207C17.725 55.0483 17.022 55.1963 16.3186 55.1478C15.6152 55.0994 14.9398 54.8565 14.3695 54.4469C13.7992 54.0372 13.357 53.4774 13.0934 52.8313C12.8299 52.1852 12.7555 51.4789 12.8789 50.793L14.6502 40.5763C14.8484 39.4299 14.7619 38.2531 14.3982 37.147C14.0344 36.0409 13.4043 35.0386 12.5618 34.2262L5.04388 26.9974C4.54033 26.5113 4.1844 25.8958 4.01633 25.2204C3.84826 24.5449 3.87473 23.8365 4.09276 23.1752C4.3108 22.5139 4.71171 21.9259 5.25018 21.4779C5.78865 21.0298 6.44322 20.7395 7.13993 20.6397L17.5197 19.1496C18.6846 18.9741 19.7892 18.5223 20.7388 17.8329C21.6884 17.1436 22.4549 16.2372 22.9725 15.1913L27.6132 5.89157C27.9202 5.26495 28.4007 4.73711 28.9989 4.36924C29.5971 4.00137 30.2886 3.80853 30.9932 3.81308M30.9932 -0.00766912C29.5621 -0.0125686 28.1585 0.381314 26.9436 1.12877C25.7288 1.87623 24.7518 2.94696 24.125 4.21808L19.4842 13.5101C19.2428 13.9963 18.8847 14.4169 18.4412 14.7352C17.9977 15.0534 17.4822 15.2599 16.9396 15.3365L6.56759 16.8648C5.16482 17.0742 3.84854 17.6646 2.76556 18.57C1.68259 19.4754 0.875485 20.6603 0.434321 21.9924C-0.00684281 23.3246 -0.0647411 24.7516 0.267087 26.1143C0.598916 27.4771 1.30744 28.722 2.31359 29.7101L9.83156 36.9466C10.2244 37.3244 10.5178 37.7913 10.6863 38.3067C10.8548 38.8221 10.8933 39.3704 10.7984 39.9039L9.02716 50.1129C8.78131 51.5057 8.93581 52.9387 9.47313 54.249C10.0105 55.5593 10.909 56.6945 12.0668 57.5255C13.2245 58.3565 14.5949 58.85 16.0223 58.9499C17.4498 59.0498 18.8769 58.7521 20.1417 58.0906L29.4231 53.2689C29.9 53.02 30.4307 52.8889 30.97 52.8868C31.5088 52.8927 32.0387 53.0236 32.5169 53.2689L41.7984 58.0906C43.0637 58.7458 44.4891 59.0386 45.9139 58.936C47.3387 58.8334 48.7061 58.3394 49.8618 57.5099C51.0176 56.6803 51.9156 55.5482 52.4548 54.2411C52.9939 52.9341 53.1525 51.5043 52.9129 50.1129L51.1339 39.8962C51.0427 39.3634 51.0837 38.8166 51.2534 38.3028C51.4232 37.789 51.7166 37.3237 52.1085 36.9466L59.6187 29.7178C60.6421 28.7315 61.3658 27.4821 61.7082 26.1107C62.0506 24.7394 61.998 23.3008 61.5563 21.9574C61.1146 20.6141 60.3014 19.4196 59.2087 18.5088C58.1159 17.5981 56.7871 17.0074 55.3725 16.8036L44.9927 15.2753C44.4515 15.1976 43.9375 14.9906 43.4955 14.6724C43.0534 14.3541 42.6966 13.9342 42.4558 13.449L37.8151 4.15695C37.1882 2.88583 36.2113 1.81509 34.9964 1.06764C33.7816 0.320181 32.378 -0.073702 30.9468 -0.0688025L30.9932 -0.00766912Z" fill="#412312"/>
<path id="Vector_3" d="M31.0231 3.85131C30.3152 3.84078 29.619 4.03005 29.0162 4.39686C28.4133 4.76368 27.929 5.29283 27.62 5.92215L22.9792 15.2219C22.4563 16.264 21.6858 17.1655 20.7335 17.8495C19.7813 18.5335 18.6756 18.9795 17.5109 19.1496L7.13117 20.6397C6.43446 20.7395 5.77989 21.0298 5.24142 21.4779C4.70295 21.926 4.30206 22.5139 4.08403 23.1752C3.86599 23.8366 3.8395 24.545 4.00757 25.2204C4.17564 25.8958 4.53157 26.5113 5.03512 26.9974L12.5531 34.2263C13.3955 35.0386 14.0257 36.0409 14.3894 37.147C14.7532 38.2531 14.8397 39.4299 14.6414 40.5763L12.8702 50.793C12.7499 51.4782 12.8264 52.1829 13.0908 52.8274C13.3553 53.4718 13.7973 54.0301 14.3666 54.439C14.9359 54.8479 15.6097 55.0911 16.3118 55.1409C17.0138 55.1907 17.7159 55.0451 18.3385 54.7208L27.62 49.899C28.6694 49.355 29.8381 49.0743 31.0231 49.0813V3.85131Z" fill="#FAA71B"/>
<path id="Vector_4" d="M30.6367 13.8311C30.6367 13.8311 32.9029 18.6911 35.6332 23.4747" stroke="white" stroke-width="4.6" stroke-linecap="round" stroke-linejoin="round"/>
</g>
<defs>
<clipPath id="clip0_178_2415">
<rect width="62" height="59" fill="white"/>
</clipPath>
</defs>
</svg>
