<svg xmlns="http://www.w3.org/2000/svg" width="28" height="18" viewBox="0 0 28 18" fill="none">
  <path d="M5.22524 9.91438C5.12301 11.3925 5.01944 12.8719 4.91452 14.3525C4.87618 14.8983 4.4908 15.1552 4.06506 14.9021C3.44286 14.535 2.84331 14.1352 2.26929 13.7048C2.05717 13.5229 1.89003 13.2999 1.77955 13.0514C1.66908 12.8028 1.61793 12.5347 1.62968 12.2657C1.77361 11.0469 1.91754 9.82121 2.06147 8.5886C2.07531 8.45001 2.0644 8.31023 2.02919 8.175C1.38352 5.60653 0.745921 3.31757 0.0457749 1.41011C0.00818538 1.31319 -0.00652652 1.20979 0.00265193 1.10704C0.0118304 1.00428 0.0446812 0.904612 0.098944 0.814877C0.153207 0.725142 0.227594 0.647475 0.316988 0.587218C0.406381 0.526961 0.50866 0.485546 0.616787 0.46582C1.23555 0.351246 1.86037 0.214009 2.49124 0.0541094C2.89479 -0.0516511 3.27008 0.224081 3.33465 0.694338V0.762327C3.45773 1.67262 4.56747 1.75383 4.79345 0.762327C4.91048 0.259965 5.32613 -0.0799799 5.72362 0.0163376C6.2953 0.158611 6.86834 0.307179 7.44271 0.462042C7.88661 0.579134 8.12066 1.23825 7.93705 1.84071C7.08759 4.61125 6.19375 7.22127 5.29183 9.60654C5.25447 9.70577 5.23207 9.80937 5.22524 9.91438Z" fill="white"/>
  <path d="M15.9895 9.00341C16.119 13.9132 15.083 18.4036 11.2931 17.9711C7.82969 17.328 6.76671 12.8134 7.04115 8.35846C7.32719 3.84758 8.79989 0.119577 11.6661 0.000280965C14.6482 -0.0388631 15.8638 4.0172 15.9895 9.00341ZM12.4469 9.20472C12.4759 6.49632 12.2807 4.30053 11.61 4.28562C10.9394 4.27071 10.5954 6.41058 10.5122 9.06305C10.4291 11.7155 10.692 13.9281 11.4109 14.0157C12.1299 14.1033 12.4179 11.9112 12.4469 9.20472Z" fill="white"/>
  <path d="M24.9583 0.00811393C25.5414 0.101446 26.1031 0.18335 26.6726 0.250016C26.8476 0.275407 27.0082 0.359556 27.1269 0.488091C27.2457 0.616626 27.3152 0.781575 27.3236 0.954768C27.5478 4.26393 27.7733 7.58135 28 10.907C27.989 11.4334 27.7957 11.9405 27.4519 12.3451C26.9706 12.8733 26.4579 13.3732 25.9165 13.8422C25.5278 14.1813 25.176 13.9794 25.1566 13.4327V13.326C25.1255 12.347 24.0935 12.5641 23.7806 13.6803L23.6989 13.9775C23.6175 14.3318 23.4031 14.6432 23.0984 14.8498C22.8392 14.9946 22.5801 15.1317 22.321 15.2612C22.2608 15.296 22.1939 15.3181 22.1245 15.3262C22.0552 15.3343 21.9848 15.3282 21.918 15.3084C21.8511 15.2885 21.7892 15.2553 21.7362 15.2108C21.6831 15.1663 21.64 15.1115 21.6096 15.0498L21.5008 14.8593C21.0343 14.0651 19.9459 14.886 20.0703 16.025V16.0441C20.1384 16.6612 19.8002 17.3336 19.3259 17.4822C18.6579 17.6882 17.9785 17.8574 17.2911 17.9888C16.8285 18.0784 16.4398 17.6193 16.4223 16.9888C16.2811 11.9413 16.1405 6.88675 16.0005 1.82523C15.9869 1.25381 16.2318 0.777628 16.5836 0.682391C17.1531 0.522393 17.7206 0.360491 18.2861 0.204302C18.6068 0.116684 18.9372 0.371919 19.0966 0.819532C19.874 3.02141 20.6787 5.12805 21.4949 7.08612C21.8176 7.86134 22.6611 7.58706 22.8438 6.71469C23.3141 4.53186 23.767 2.47475 24.2256 0.587154C24.3209 0.18335 24.6241 -0.0471234 24.9583 0.00811393Z" fill="white"/>
</svg>