<svg xmlns="http://www.w3.org/2000/svg" width="17" height="18" viewBox="0 0 17 18" fill="none">
  <path d="M14.2003 13.5V15C14.1985 15.531 13.9696 16.0397 13.5636 16.4146C13.1577 16.7895 12.6079 17 12.0347 17H3.15903C2.87351 16.9992 2.59098 16.9461 2.3277 16.8438C2.06441 16.7414 1.82558 16.5919 1.62492 16.4037C1.42427 16.2155 1.26577 15.9924 1.15854 15.7473C1.0513 15.5022 0.997455 15.2398 1.00009 14.9753V3.00617C1.00184 2.47567 1.22965 1.96726 1.63396 1.59156C2.03827 1.21586 2.58637 1.00325 3.15903 1H12.0347C12.6085 1.00163 13.1583 1.21351 13.564 1.58939C13.9698 1.96527 14.1985 2.4746 14.2003 3.00617V4.5" stroke="#292D32" stroke-width="1.5" stroke-miterlimit="10" stroke-linecap="round"/>
  <path d="M8.87275 7.10474H6.12725C5.50469 7.10474 5 7.59207 5 8.19322V10.0163C5 10.6174 5.50469 11.1047 6.12725 11.1047H8.87275C9.49531 11.1047 10 10.6174 10 10.0163V8.19322C10 7.59207 9.49531 7.10474 8.87275 7.10474Z" stroke="#FFC220" stroke-miterlimit="10"/>
  <path d="M11.6389 12.8014C11.4996 12.9 11.3258 12.9654 11.1389 12.9896C10.9519 13.0138 10.7598 12.9957 10.586 12.9376C10.4122 12.8795 10.2642 12.7839 10.1602 12.6624C10.0561 12.5409 10.0005 12.3989 10 12.2535V5.74646C10.0005 5.60114 10.0561 5.45907 10.1602 5.3376C10.2642 5.21612 10.4122 5.1205 10.586 5.0624C10.7598 5.0043 10.9519 4.98625 11.1389 5.01044C11.3258 5.03464 11.4996 5.10003 11.6389 5.19864L13.5131 6.53479L15.8533 8.19829C16.4142 8.59695 16.4142 9.42977 15.8533 9.82843L13.5131 11.4919L11.6389 12.8014Z" stroke="#FFC220" stroke-miterlimit="10"/>
</svg>