<svg xmlns="http://www.w3.org/2000/svg" width="41" height="41" viewBox="0 0 41 41" fill="none">
  <path d="M27.4282 29C24.349 34.3333 16.651 34.3333 13.5718 29L9.67468 22.25C6.59548 16.9167 10.4445 10.25 16.6029 10.25H24.3971C30.5555 10.25 34.4045 16.9167 31.3253 22.25L27.4282 29Z" fill="#F09F03"/>
  <path d="M12.6264 18.2317C11.1264 17.2317 10.1264 19.7317 10.1264 20.7317C9.95976 21.2318 9.82643 22.5319 10.6264 23.7319L14.6264 29.7319C16.6264 32.7319 18.4936 28.6294 17.6264 26.2319C17 24.5 16.1264 25.2319 14.6264 22.2319C13.5 19.9791 13.7789 19 12.6264 18.2317Z" fill="#BF8109"/>
  <path d="M25.0758 14.3208C24.689 13.1604 25.0757 12 27.0098 12C30.8777 12 32.0381 17.4151 31.2645 18.9623C30.4909 20.5094 28.557 20.1226 27.3966 19.7358C26.2362 19.3491 26.623 18.1887 26.623 16.6415C26.623 15.0943 25.4626 15.4811 25.0758 14.3208Z" fill="#BF8109"/>
  <path d="M16 26H24" stroke="black" stroke-opacity="0.66" stroke-width="1.5" stroke-linecap="round"/>
  <circle cx="25.5" cy="17.5" r="2.5" stroke="#523601" stroke-width="1.5"/>
  <path d="M17 18.5L12.5 17.5" stroke="black" stroke-opacity="0.66" stroke-width="1.5" stroke-linecap="round"/>
  <circle cx="5.80149" cy="8.89671" r="1.16038" fill="#F09F03"/>
  <circle cx="10.0571" cy="6.18843" r="2.32075" fill="#F09F03"/>
  <ellipse cx="32.1042" cy="33.6506" rx="3.48113" ry="1.16038" fill="#F09F03"/>
</svg>