<svg width="56" height="23" viewBox="0 0 56 23" fill="none" xmlns="http://www.w3.org/2000/svg">
<path id="Vector 174" d="M54.2482 2C49.8906 2.23086 46.5 1.99991 41.5 2.00006C39.8081 2.31401 37.1174 2.00006 35.4014 2.00006C33.5893 2.00006 30.7827 2.36973 29 2.73676C25.032 3.5537 22.2186 3.6049 18.2183 4.51924C14.2928 5.4165 10.1856 5.47983 6.25196 6.27795C4.98003 6.53602 3.80058 6.94792 2.60382 7.29991C2.5491 7.316 1.69474 7.49672 2.11661 7.54945C3.95622 7.77941 5.94736 7.56134 7.79678 7.56134C9.58101 7.56134 11.2465 7.98913 13.0135 7.98913C15.5486 7.98913 18.0837 7.98913 20.6187 7.98913C26.8931 7.98913 33.1674 7.98913 39.4417 7.98913C41.4817 7.98913 43.5216 7.98913 45.5616 7.98913C46.4109 7.98913 46.5733 8.04498 45.4784 8.36939C43.3442 9.00176 41.3886 9.804 39.1447 10.0212C35.4959 10.3743 31.8737 11.0126 28.2478 11.5422C25.1276 11.998 22.1056 12.5748 18.9551 12.8612C17.2727 13.0142 15.7055 13.2644 14.0355 13.5029C12.7959 13.68 11.6581 13.7644 10.3992 13.7644C10.1447 13.7644 7.2162 14.0576 7.23827 14.0852C7.49787 14.4097 9.04572 14.1922 9.32971 14.1922C11.0013 14.1922 12.6728 14.1922 14.3444 14.1922C17.8817 14.1922 21.4189 14.1922 24.9561 14.1922C29.9686 14.1922 34.9653 14.3026 39.9646 13.9307C40.2841 13.907 41.4374 13.5007 40.7132 14.002C38.9599 15.2159 37.4227 16.5357 35.4014 17.2937C31.681 18.6888 28.1611 19.1635 24.2431 19.6465C22.353 19.8796 20.4097 20.7533 18.5273 20.823C17.7173 20.853 17.133 21.0026 16.3883 21.2508" stroke="#FDCD1C" stroke-width="3" stroke-linecap="round"/>
</svg>
