<svg xmlns="http://www.w3.org/2000/svg" width="16" height="16" viewBox="0 0 16 16" fill="none">
  <path d="M14 11.798C14 12.014 13.9519 12.236 13.8498 12.452C13.7476 12.668 13.6154 12.872 13.4412 13.064C13.1467 13.388 12.8222 13.622 12.4557 13.772C12.0951 13.922 11.7046 14 11.2839 14C10.671 14 10.016 13.856 9.32499 13.562C8.63395 13.268 7.94291 12.872 7.25789 12.374C6.56685 11.87 5.91187 11.312 5.28693 10.694C4.668 10.07 4.10916 9.416 3.61042 8.732C3.11768 8.048 2.72108 7.364 2.43265 6.686C2.14422 6.002 2 5.348 2 4.724C2 4.316 2.07211 3.926 2.21632 3.566C2.36054 3.2 2.58888 2.864 2.90736 2.564C3.29194 2.186 3.71257 2 4.15724 2C4.32549 2 4.49374 2.036 4.64397 2.108C4.8002 2.18 4.93841 2.288 5.04657 2.444L6.44066 4.406C6.54882 4.556 6.62694 4.694 6.68102 4.826C6.7351 4.952 6.76515 5.078 6.76515 5.192C6.76515 5.336 6.72309 5.48 6.63896 5.618C6.56084 5.756 6.44667 5.9 6.30245 6.044L5.84577 6.518C5.77967 6.584 5.74962 6.662 5.74962 6.758C5.74962 6.806 5.75563 6.848 5.76765 6.896C5.78568 6.944 5.80371 6.98 5.81572 7.016C5.92389 7.214 6.11017 7.472 6.37456 7.784C6.64497 8.096 6.9334 8.414 7.24587 8.732C7.57036 9.05 7.88282 9.344 8.2013 9.614C8.51377 9.878 8.77216 10.058 8.97646 10.166C9.00651 10.178 9.04256 10.196 9.08463 10.214C9.1327 10.232 9.18077 10.238 9.23485 10.238C9.33701 10.238 9.41512 10.202 9.48122 10.136L9.93791 9.686C10.0881 9.536 10.2323 9.422 10.3706 9.35C10.5088 9.266 10.647 9.224 10.7972 9.224C10.9114 9.224 11.0315 9.248 11.1637 9.302C11.2959 9.356 11.4342 9.434 11.5844 9.536L13.5734 10.946C13.7296 11.054 13.8378 11.18 13.9039 11.33C13.9639 11.48 14 11.63 14 11.798Z" stroke="#292D32" stroke-width="1.5" stroke-miterlimit="10"/>
</svg>