<svg xmlns="http://www.w3.org/2000/svg" width="24" height="24" viewBox="0 0 24 24" fill="none">
  <g clip-path="url(#clip0_926_9983)">
    <path d="M7 19.471L10.5081 22.2942C10.9607 22.7647 11.9792 23 12.6582 23M7 9.11915L11.6397 1.94345C12.0923 1.23764 13.224 0.767106 14.1293 1.12001C15.1477 1.47291 15.8267 2.64926 15.6004 3.70796L15.0346 7.47226C14.9214 8.2957 15.4872 8.88388 16.1662 8.88388H20.6927C22.3902 8.88388 23.4087 10.2955 22.8428 11.9424L22.1921 14" stroke="#252525" stroke-width="1.5" stroke-miterlimit="10" stroke-linecap="round"/>
    <path d="M1 19.625V7.375C1 5.625 1.72 5 3.4 5H4.6C6.28 5 7 5.625 7 7.375V19.625C7 21.375 6.28 22 4.6 22H3.4C1.72 22 1 21.375 1 19.625Z" stroke="#252525" stroke-width="1.5" stroke-linecap="round" stroke-linejoin="round"/>
    <path d="M19.2774 14.6499L20.0693 16.2468C20.1773 16.4691 20.4653 16.6823 20.7083 16.7231L22.1436 16.9636C23.0615 17.1178 23.2775 17.7893 22.6161 18.4516L21.5002 19.5767C21.3112 19.7673 21.2077 20.1347 21.2662 20.3979L21.5857 21.7906C21.8377 22.893 21.2572 23.3195 20.2898 22.7433L18.9445 21.9403C18.7015 21.7952 18.301 21.7952 18.0536 21.9403L16.7082 22.7433C15.7453 23.3195 15.1604 22.8885 15.4124 21.7906L15.7318 20.3979C15.7903 20.1347 15.6868 19.7673 15.4979 19.5767L14.382 18.4516C13.725 17.7893 13.9365 17.1178 14.8544 16.9636L16.2898 16.7231C16.5282 16.6823 16.8162 16.4691 16.9242 16.2468L17.7161 14.6499C18.1481 13.7834 18.85 13.7834 19.2774 14.6499Z" stroke="#FFC220" stroke-width="1.5" stroke-linecap="round" stroke-linejoin="round"/>
  </g>
  <defs>
    <clipPath id="clip0_926_9983">
      <rect width="24" height="24" fill="white"/>
    </clipPath>
  </defs>
</svg>