<svg xmlns="http://www.w3.org/2000/svg" width="1920" height="413" viewBox="0 0 1920 413" fill="none">
  <path d="M1 20.5308C38.8239 10.2277 123.869 8.36645 161.46 83.3465C199.05 158.327 312.422 117.247 312.422 117.247C360.577 97.1395 487.269 86.3386 440.39 29.5049C331.417 -102.608 45.4609 318.035 312.422 388.951C526.368 445.784 681.627 343.422 784.804 273.236M1998 158.127C1953.51 91.3232 1836.54 125.722 1840.04 180.063C1843.54 234.404 1680.58 360.035 1601.6 291.237C1522.62 222.439 1353.16 374.991 1222.69 404.405C1148.22 421.194 1114.14 389.743 1069.23 346.301" stroke="#CFDEFF" stroke-width="8"/>
</svg>