<svg width="16" height="16" viewBox="0 0 16 16" fill="none" xmlns="http://www.w3.org/2000/svg">
<path id="&#226;&#134;&#179; Icon Color" d="M16 6.28648C16 9.7584 13.1863 12.573 9.71546 12.573C8.28907 12.573 6.97367 12.0976 5.91894 11.2966L1.46254 15.7493C1.12769 16.0838 0.585103 16.0835 0.250642 15.7486C-0.0838191 15.4136 -0.0835063 14.8708 0.251342 14.5363L4.70684 10.0842C3.90612 9.0291 3.43092 7.7133 3.43092 6.28647C3.43092 2.81455 6.2446 -4.26422e-07 9.71546 -2.74706e-07C13.1863 -1.2299e-07 16 2.81455 16 6.28648ZM14.2861 6.28648C14.2861 3.76145 12.2398 1.71448 9.71546 1.71448C7.19113 1.71448 5.14479 3.76145 5.14479 6.28647C5.14479 8.8115 7.19113 10.8585 9.71546 10.8585C12.2398 10.8585 14.2861 8.8115 14.2861 6.28648Z" fill="#252525"/>
</svg>
