<svg xmlns="http://www.w3.org/2000/svg" width="12" height="11" viewBox="0 0 12 11" fill="none">
  <path d="M5.09919 0.868752C5.46283 0.114381 6.53717 0.114381 6.90081 0.868753L7.79499 2.72377C7.94076 3.02618 8.22854 3.23526 8.56119 3.28045L10.6017 3.55764C11.4316 3.67036 11.7636 4.69212 11.1585 5.27108L9.67056 6.69473C9.428 6.92681 9.31808 7.26512 9.3779 7.59545L9.74484 9.62179C9.89406 10.4458 9.0249 11.0773 8.2873 10.6807L6.47354 9.70559C6.17786 9.54662 5.82214 9.54662 5.52646 9.70559L3.7127 10.6807C2.9751 11.0773 2.10594 10.4458 2.25516 9.62178L2.6221 7.59545C2.68192 7.26512 2.572 6.92681 2.32944 6.69473L0.84153 5.27108C0.236449 4.69212 0.568439 3.67036 1.39826 3.55764L3.43881 3.28045C3.77146 3.23526 4.05924 3.02618 4.20501 2.72377L5.09919 0.868752Z" fill="#FFC220"/>
</svg>