<svg width="226" height="173" viewBox="0 0 226 173" fill="none" xmlns="http://www.w3.org/2000/svg">
<g id="Frame" clip-path="url(#clip0_145_5350)">
<g id="Group">
<g id="Illustration">
<path id="Vector" opacity="0.39" d="M226 81.5307C226 126.077 128.874 173.009 82.1109 173.009C35.348 173.009 126.571 122.808 126.571 78.2511C126.571 33.6937 94.569 0.847778 141.325 0.847778C188.081 0.847778 226 36.9619 226 81.5307Z" fill="url(#paint0_linear_145_5350)"/>
<path id="Vector_2" d="M190.314 150.168C190.314 151.266 165.181 152.157 134.174 152.157C103.167 152.157 78.0312 151.266 78.0312 150.168C78.0312 149.07 103.165 148.182 134.174 148.182C165.183 148.182 190.314 149.082 190.314 150.168Z" fill="url(#paint1_linear_145_5350)"/>
<path id="Vector_3" opacity="0.3" d="M190.314 150.168C190.314 151.266 165.181 152.157 134.174 152.157C103.167 152.157 78.0312 151.266 78.0312 150.168C78.0312 149.07 103.165 148.182 134.174 148.182C165.183 148.182 190.314 149.082 190.314 150.168Z" fill="url(#paint2_linear_145_5350)"/>
<path id="Vector_4" d="M130.135 132.318C130.135 132.318 132.857 144.079 131.678 146.011C130.124 148.538 113.578 150.061 113.578 150.061H150.061C150.061 150.061 154.634 148.777 153.259 145.095C152.195 142.245 147.094 132.318 147.094 132.318H130.135Z" fill="white" stroke="#252525" stroke-linecap="round" stroke-linejoin="round"/>
<path id="Vector_5" d="M129.337 132.318C129.337 132.318 132.249 144.177 130.877 146.011C129.505 147.845 113.578 149.259 113.578 149.259H150.233C150.233 149.259 153.316 148.009 152.461 145.106C151.605 142.204 146.293 132.329 146.293 132.329L129.337 132.318Z" fill="white" stroke="#252525" stroke-linecap="round" stroke-linejoin="round"/>
<path id="Vector_6" d="M146.288 132.318H129.332C129.332 132.318 131.056 139.345 131.224 143.416H151.819C150.158 139.504 146.288 132.318 146.288 132.318Z" fill="url(#paint3_linear_145_5350)"/>
<path id="Vector_7" d="M150.061 149.307H113.578V150.063H150.061V149.307Z" fill="white" stroke="#252525" stroke-linecap="round" stroke-linejoin="round"/>
<path id="Vector_8" d="M192.174 50.7599H85.9431C84.8808 50.7599 84.0195 51.6228 84.0195 52.6872V131.552C84.0195 132.616 84.8808 133.479 85.9431 133.479H192.174C193.237 133.479 194.098 132.616 194.098 131.552V52.6872C194.098 51.6228 193.237 50.7599 192.174 50.7599Z" fill="#FDC21E"/>
<path id="Vector_9" d="M189.577 50.7599H83.3455C82.2831 50.7599 81.4219 51.6228 81.4219 52.6872V131.552C81.4219 132.616 82.2831 133.479 83.3455 133.479H189.577C190.639 133.479 191.5 132.616 191.5 131.552V52.6872C191.5 51.6228 190.639 50.7599 189.577 50.7599Z" fill="#252525" stroke="#252525" stroke-linecap="round" stroke-linejoin="round"/>
<path id="Vector_10" d="M81.4219 120.62H191.5V131.549C191.5 132.061 191.298 132.551 190.937 132.912C190.576 133.274 190.087 133.477 189.577 133.477H83.3455C83.0929 133.477 82.8427 133.427 82.6093 133.33C82.376 133.233 82.1639 133.091 81.9853 132.912C81.8067 132.733 81.665 132.521 81.5683 132.287C81.4716 132.053 81.4219 131.803 81.4219 131.549V120.62Z" fill="white" stroke="#252525" stroke-linecap="round" stroke-linejoin="round"/>
<g id="Vector_11" style="mix-blend-mode:screen">
<path d="M185.965 55.9053H86.9609V114.345H185.965V55.9053Z" fill="#FDC21E"/>
</g>
<path id="Vector_12" d="M138.494 127.047C138.492 126.646 138.371 126.254 138.147 125.921C137.923 125.588 137.606 125.33 137.235 125.177C136.865 125.024 136.458 124.985 136.065 125.064C135.672 125.143 135.311 125.336 135.028 125.62C134.745 125.904 134.552 126.265 134.473 126.659C134.394 127.052 134.434 127.46 134.586 127.832C134.738 128.203 134.997 128.521 135.329 128.745C135.661 128.969 136.052 129.09 136.452 129.093C136.721 129.094 136.987 129.042 137.235 128.94C137.484 128.838 137.71 128.687 137.899 128.497C138.089 128.307 138.24 128.08 138.342 127.832C138.444 127.583 138.495 127.316 138.494 127.047Z" fill="#252525" stroke="#252525" stroke-linecap="round" stroke-linejoin="round"/>
<path id="Vector_13" d="M185.034 60.0258H87.7383V65.1486H185.034V60.0258Z" fill="#252525" stroke="#252525" stroke-linecap="round" stroke-linejoin="round"/>
<path id="Vector_14" d="M103.792 65.1487L102.626 61.985H87.7383V65.1487V69.3442V111.856H185.036V65.1487H103.792Z" fill="white" stroke="#252525" stroke-linecap="round" stroke-linejoin="round"/>
<g id="Group_2" style="mix-blend-mode:screen">
<path id="Vector_15" d="M157.596 150.509C157.596 150.509 158.224 152.032 161.679 152.554C165.134 153.077 188.446 150.35 188.446 150.35C188.446 150.35 189.914 149.984 190.018 149.247C190.122 148.511 186.248 146.363 179.073 145.47C171.898 144.577 165.038 145.943 160.588 147.57C156.137 149.197 157.596 150.509 157.596 150.509Z" fill="#FDC21E" stroke="#056961" stroke-width="0.25" stroke-miterlimit="10"/>
<g id="Vector_16" style="mix-blend-mode:multiply">
<path d="M184.417 147.941C182.863 147.941 179.342 148.104 176.477 148.35C173.612 148.595 168.867 150.395 166.247 151.304C163.627 152.213 159.455 151.961 159.453 151.961C160.168 152.252 160.916 152.453 161.681 152.559C165.138 153.084 188.448 150.354 188.448 150.354C188.448 150.354 189.425 150.109 189.841 149.62C188.33 148.545 185.689 147.941 184.417 147.941Z" fill="#FDC21E"/>
<path d="M184.417 147.941C182.863 147.941 179.342 148.104 176.477 148.35C173.612 148.595 168.867 150.395 166.247 151.304C163.627 152.213 159.455 151.961 159.453 151.961C160.168 152.252 160.916 152.453 161.681 152.559C165.138 153.084 188.448 150.354 188.448 150.354C188.448 150.354 189.425 150.109 189.841 149.62C188.33 148.545 185.689 147.941 184.417 147.941Z" stroke="#056961" stroke-width="0.25" stroke-miterlimit="10"/>
</g>
<g id="Vector_17">
<path d="M188.953 149.088C189.158 149.195 189.352 149.32 189.534 149.463L188.953 149.088Z" fill="#FDC21E"/>
<path d="M188.953 149.088C189.158 149.195 189.352 149.32 189.534 149.463" stroke="#056961" stroke-width="0.25" stroke-miterlimit="10"/>
</g>
<g id="Vector_18">
<path d="M160.16 152.188C160.16 152.188 163.826 152.398 167.283 150.982C172.091 149.086 177.2 148.073 182.365 147.991C185.373 147.966 187.213 148.379 188.295 148.795" fill="#FDC21E"/>
<path d="M160.16 152.188C160.16 152.188 163.826 152.398 167.283 150.982C172.091 149.086 177.2 148.073 182.365 147.991C185.373 147.966 187.213 148.379 188.295 148.795" stroke="#056961" stroke-width="0.25" stroke-miterlimit="10"/>
</g>
</g>
<path id="Vector_19" d="M155.81 82.642H125.477V101.138H155.671" stroke="#252525" stroke-width="0.5" stroke-linecap="round" stroke-linejoin="round"/>
<path id="Vector_20" d="M125.617 87.9149H155.952" stroke="#252525" stroke-width="0.5" stroke-linecap="round" stroke-linejoin="round"/>
<path id="Vector_21" d="M125.617 93.174H155.952" stroke="#252525" stroke-width="0.5" stroke-linecap="round" stroke-linejoin="round"/>
<path id="Vector_22" d="M125.617 98.4354H155.952" stroke="#252525" stroke-width="0.5" stroke-linecap="round" stroke-linejoin="round"/>
<path id="Vector_23" d="M124.648 82.7626H123.402" stroke="#252525" stroke-width="0.5" stroke-linecap="round" stroke-linejoin="round"/>
<path id="Vector_24" d="M124.648 85.3693H123.402" stroke="#252525" stroke-width="0.5" stroke-linecap="round" stroke-linejoin="round"/>
<path id="Vector_25" d="M124.648 87.9784H123.402" stroke="#252525" stroke-width="0.5" stroke-linecap="round" stroke-linejoin="round"/>
<path id="Vector_26" d="M124.648 90.5853H123.402" stroke="#252525" stroke-width="0.5" stroke-linecap="round" stroke-linejoin="round"/>
<path id="Vector_27" d="M124.648 93.1945H123.402" stroke="#252525" stroke-width="0.5" stroke-linecap="round" stroke-linejoin="round"/>
<path id="Vector_28" d="M124.648 95.8014H123.402" stroke="#252525" stroke-width="0.5" stroke-linecap="round" stroke-linejoin="round"/>
<path id="Vector_29" d="M124.648 98.4081H123.402" stroke="#252525" stroke-width="0.5" stroke-linecap="round" stroke-linejoin="round"/>
<path id="Vector_30" d="M124.648 101.017H123.402" stroke="#252525" stroke-width="0.5" stroke-linecap="round" stroke-linejoin="round"/>
<path id="Vector_31" d="M127.975 90.0468H126.582V101.065H127.975V90.0468Z" fill="#FF7900" stroke="white" stroke-miterlimit="10"/>
<path id="Vector_32" d="M130.451 84.7716H129.059V101.065H130.451V84.7716Z" fill="#FF7900" stroke="white" stroke-miterlimit="10"/>
<path id="Vector_33" d="M132.932 90.0468H131.539V101.065H132.932V90.0468Z" fill="#FF7900" stroke="white" stroke-miterlimit="10"/>
<path id="Vector_34" d="M138.506 86.4784H137.113V101.065H138.506V86.4784Z" fill="#FF7900" stroke="white" stroke-miterlimit="10"/>
<path id="Vector_35" d="M140.983 88.6511H139.59V101.065H140.983V88.6511Z" fill="#FF7900" stroke="white" stroke-miterlimit="10"/>
<path id="Vector_36" d="M143.459 94.858H142.066V101.065H143.459V94.858Z" fill="#FF7900" stroke="white" stroke-miterlimit="10"/>
<path id="Vector_37" d="M149.037 90.0468H147.645V101.065H149.037V90.0468Z" fill="#FF7900" stroke="white" stroke-miterlimit="10"/>
<path id="Vector_38" d="M151.514 84.7716H150.121V101.065H151.514V84.7716Z" fill="#FF7900" stroke="white" stroke-miterlimit="10"/>
<path id="Vector_39" d="M153.99 90.0468H152.598V101.065H153.99V90.0468Z" fill="#FF7900" stroke="white" stroke-miterlimit="10"/>
<path id="Vector_40" opacity="0.4" d="M116.672 65.2304L132.154 76.8328V60.6304L116.672 0.113647V65.2304Z" fill="#056961"/>
<path id="Vector_41" opacity="0.4" d="M132.152 76.8329H81.8049L0.113281 65.2305H116.67L132.152 76.8329Z" fill="#056961"/>
<path id="Vector_42" d="M116.67 0.113647H0.113281V58.8099H116.67V0.113647Z" fill="#252525" stroke="#252525" stroke-linecap="round" stroke-linejoin="round"/>
<path id="Vector_43" d="M4.60938 3.15686H26.885" stroke="white" stroke-width="2" stroke-linecap="round" stroke-linejoin="round"/>
<path id="Vector_44" d="M113.706 2.89322C113.706 2.5906 113.616 2.29479 113.448 2.04321C113.28 1.79162 113.042 1.59557 112.763 1.47987C112.484 1.36417 112.177 1.334 111.88 1.3932C111.584 1.4524 111.312 1.59832 111.099 1.81246C110.885 2.0266 110.74 2.29936 110.681 2.59622C110.623 2.89308 110.653 3.20068 110.769 3.48013C110.885 3.75958 111.081 3.99832 111.332 4.16612C111.584 4.33392 111.879 4.42323 112.181 4.42278C112.382 4.42278 112.58 4.3832 112.765 4.30631C112.95 4.22941 113.118 4.1167 113.26 3.97463C113.402 3.83257 113.514 3.66395 113.59 3.47838C113.667 3.29282 113.706 3.09397 113.706 2.89322Z" fill="white"/>
<path id="Vector_45" d="M107.178 2.89321C107.178 2.59069 107.089 2.29496 106.921 2.04343C106.753 1.79189 106.515 1.59586 106.236 1.48009C105.957 1.36432 105.65 1.33401 105.354 1.39303C105.058 1.45205 104.786 1.59774 104.572 1.81166C104.359 2.02557 104.213 2.2981 104.154 2.5948C104.095 2.89151 104.126 3.19906 104.241 3.47855C104.357 3.75804 104.552 3.99694 104.803 4.16501C105.055 4.33308 105.35 4.42278 105.652 4.42278C105.852 4.42307 106.051 4.38371 106.236 4.30695C106.422 4.23018 106.59 4.11753 106.732 3.97544C106.874 3.83334 106.986 3.66462 107.063 3.47891C107.139 3.2932 107.179 3.09416 107.178 2.89321Z" fill="white"/>
<path id="Vector_46" d="M116.67 6.53418H0.113281V65.2304H116.67V6.53418Z" fill="white" stroke="#252525" stroke-linecap="round" stroke-linejoin="round"/>
<path id="Vector_47" d="M111.178 12.6478H8.35156V59.728H110.872" stroke="#252525" stroke-width="0.5" stroke-linecap="round" stroke-linejoin="round"/>
<path id="Vector_48" d="M8.65625 26.0685H111.483" stroke="#252525" stroke-width="0.5" stroke-linecap="round" stroke-linejoin="round"/>
<path id="Vector_49" d="M8.65625 39.4574H111.483" stroke="#252525" stroke-width="0.5" stroke-linecap="round" stroke-linejoin="round"/>
<path id="Vector_50" d="M8.65625 52.8484H111.483" stroke="#252525" stroke-width="0.5" stroke-linecap="round" stroke-linejoin="round"/>
<path id="Vector_51" d="M6.52046 12.9525H3.77344" stroke="#252525" stroke-width="0.5" stroke-linecap="round" stroke-linejoin="round"/>
<path id="Vector_52" d="M6.52046 19.5912H3.77344" stroke="#252525" stroke-width="0.5" stroke-linecap="round" stroke-linejoin="round"/>
<path id="Vector_53" d="M6.52046 26.2299H3.77344" stroke="#252525" stroke-width="0.5" stroke-linecap="round" stroke-linejoin="round"/>
<path id="Vector_54" d="M6.52046 32.8685H3.77344" stroke="#252525" stroke-width="0.5" stroke-linecap="round" stroke-linejoin="round"/>
<path id="Vector_55" d="M6.52046 39.5074H3.77344" stroke="#252525" stroke-width="0.5" stroke-linecap="round" stroke-linejoin="round"/>
<path id="Vector_56" d="M6.52046 46.1437H3.77344" stroke="#252525" stroke-width="0.5" stroke-linecap="round" stroke-linejoin="round"/>
<path id="Vector_57" d="M6.52046 52.7826H3.77344" stroke="#252525" stroke-width="0.5" stroke-linecap="round" stroke-linejoin="round"/>
<path id="Vector_58" d="M6.52046 59.4213H3.77344" stroke="#252525" stroke-width="0.5" stroke-linecap="round" stroke-linejoin="round"/>
<g id="Vector_59">
<path d="M9.11328 26.3026C9.11328 26.3026 18.1143 26.7004 19.9449 25.4776C21.7755 24.2549 24.2162 21.8094 25.7429 22.1139C27.2695 22.4185 30.6244 23.6435 30.6244 23.6435C30.6244 23.6435 34.2856 21.5026 35.2021 21.5026C36.1185 21.5026 39.1672 23.0321 41.608 23.0321H48.6264L51.3734 25.1708L56.559 23.6435L62.357 26.0981L66.0182 25.4867L71.206 28.239H73.6468L78.5284 30.3777H84.9366L88.5978 32.5186L94.3958 32.8232L98.9711 37.4096L102.632 36.7982L106.6 38.3255L110.261 38.021" fill="white"/>
<path d="M9.11328 26.3026C9.11328 26.3026 18.1143 26.7004 19.9449 25.4776C21.7755 24.2549 24.2162 21.8094 25.7429 22.1139C27.2695 22.4185 30.6244 23.6435 30.6244 23.6435C30.6244 23.6435 34.2856 21.5026 35.2021 21.5026C36.1185 21.5026 39.1672 23.0321 41.608 23.0321H48.6264L51.3734 25.1708L56.559 23.6435L62.357 26.0981L66.0182 25.4867L71.206 28.239H73.6468L78.5284 30.3777H84.9366L88.5978 32.5186L94.3958 32.8232L98.9711 37.4096L102.632 36.7982L106.6 38.3255L110.261 38.021" stroke="#FF7900" stroke-width="3" stroke-miterlimit="10"/>
</g>
<path id="Vector_60" d="M8.96094 27.9345H20.2507L26.9629 28.8505L32.4547 29.155L37.3363 32.5187L44.3547 30.3777L52.8974 33.4369L62.3566 31.9073L65.7139 33.4369L73.3402 24.8754H80.9688L85.5464 19.9844L90.428 22.1254L93.479 19.3731L97.4464 21.514L99.8872 18.4571L101.412 18.7617L105.379 17.5389L107.21 18.7617L110.261 18.1503" stroke="#252525" stroke-width="3" stroke-linecap="round" stroke-linejoin="round"/>
<g id="Vector_61">
<path d="M9.26562 57.8917H21.1656L30.3186 52.6962L37.033 55.7531H41.9146L44.3554 56.669L49.8472 53.919L57.1696 49.3325L59.6126 52.6962L64.188 52.0848L66.6288 52.6962L72.7307 53.0008L79.4452 47.4984L82.8001 51.4735L87.0738 51.1666L89.5146 52.6962L93.1758 51.778L98.0573 53.6121L104.77 52.6962L108.431 53.3076L110.568 52.6962" fill="white"/>
<path d="M9.26562 57.8917H21.1656L30.3186 52.6962L37.033 55.7531H41.9146L44.3554 56.669L49.8472 53.919L57.1696 49.3325L59.6126 52.6962L64.188 52.0848L66.6288 52.6962L72.7307 53.0008L79.4452 47.4984L82.8001 51.4735L87.0738 51.1666L89.5146 52.6962L93.1758 51.778L98.0573 53.6121L104.77 52.6962L108.431 53.3076L110.568 52.6962" stroke="#FF7900" stroke-width="3" stroke-miterlimit="10"/>
</g>
<path id="Vector_62" opacity="0.29" d="M82.1094 69.5099L109.264 81.1123V101.597L82.1094 131.263V69.5099Z" fill="#056961"/>
<path id="Vector_63" d="M82.1105 69.5099H22.082V128.206H82.1105V69.5099Z" fill="#252525" stroke="#252525" stroke-linecap="round" stroke-linejoin="round"/>
<path id="Vector_64" d="M82.1105 75.9305H22.082V131.263H82.1105V75.9305Z" fill="white" stroke="#252525" stroke-linecap="round" stroke-linejoin="round"/>
<path id="Vector_65" d="M51.6698 103.372L27.8789 103.349C27.8789 96.6605 30.3537 90.849 35.1604 86.2103L51.6698 103.372Z" fill="#252525" stroke="white" stroke-miterlimit="10"/>
<path id="Vector_66" d="M51.6698 103.372L45.4907 126.388C34.9336 123.542 27.8789 114.301 27.8789 103.349L51.6698 103.372Z" fill="#252525" stroke="white" stroke-miterlimit="10"/>
<path id="Vector_67" d="M52.7338 104.031L63.9215 82.9965C69.0782 85.7495 73.0431 90.3078 75.0605 95.8021C77.0778 101.296 77.0063 107.342 74.8597 112.787C72.713 118.232 68.6414 122.695 63.4211 125.325C58.2009 127.955 52.1971 128.568 46.5547 127.047L52.7338 104.031Z" fill="#056961"/>
<path id="Vector_68" d="M51.668 103.372L50.4453 79.5668C54.7611 79.2832 59.0676 80.2439 62.8557 82.3351L51.668 103.372Z" fill="#252525" stroke="white" stroke-miterlimit="10"/>
<path id="Vector_69" d="M51.6695 103.372L35.1602 86.2103C39.5291 81.9898 44.3834 79.8807 50.4469 79.567L51.6695 103.372Z" fill="#252525" stroke="white" stroke-miterlimit="10"/>
<path id="Vector_70" d="M79.6704 72.8578C79.6704 72.5553 79.5809 72.2596 79.4132 72.008C79.2454 71.7565 79.007 71.5605 78.728 71.4447C78.4491 71.3289 78.1421 71.2986 77.846 71.3576C77.5499 71.4167 77.2778 71.5623 77.0643 71.7763C76.8508 71.9902 76.7054 72.2627 76.6465 72.5594C76.5876 72.8561 76.6179 73.1637 76.7334 73.4431C76.849 73.7226 77.0446 73.9615 77.2957 74.1296C77.5467 74.2977 77.8419 74.3874 78.1438 74.3874C78.3444 74.3877 78.543 74.3483 78.7284 74.2716C78.9137 74.1948 79.0822 74.0822 79.224 73.9401C79.3658 73.798 79.4782 73.6292 79.5549 73.4435C79.6315 73.2578 79.6707 73.0588 79.6704 72.8578Z" fill="white"/>
<path id="Vector_71" d="M73.1392 72.8578C73.1392 72.5552 73.0496 72.2594 72.8818 72.0078C72.7139 71.7562 72.4753 71.5602 72.1963 71.4445C71.9172 71.3287 71.6101 71.2986 71.3139 71.3578C71.0177 71.417 70.7457 71.5629 70.5323 71.777C70.3188 71.9912 70.1736 72.2639 70.115 72.5608C70.0563 72.8577 70.0869 73.1653 70.2028 73.4447C70.3187 73.7242 70.5147 73.9629 70.7661 74.1307C71.0174 74.2985 71.3128 74.3878 71.6148 74.3874C71.8152 74.3874 72.0136 74.3478 72.1987 74.2709C72.3838 74.194 72.5519 74.0813 72.6935 73.9392C72.8351 73.7972 72.9473 73.6285 73.0238 73.443C73.1003 73.2574 73.1395 73.0586 73.1392 72.8578Z" fill="white"/>
<path id="Vector_72" opacity="0.4" d="M82.1105 75.9305H22.082V83.0261H82.1105V75.9305Z" fill="url(#paint4_linear_145_5350)"/>
</g>
</g>
</g>
<defs>
<linearGradient id="paint0_linear_145_5350" x1="68.7728" y1="86.9194" x2="226" y2="86.9194" gradientUnits="userSpaceOnUse">
<stop stop-color="#FFC444"/>
<stop offset="1" stop-color="#F36F56"/>
</linearGradient>
<linearGradient id="paint1_linear_145_5350" x1="78.0312" y1="150.177" x2="190.314" y2="150.177" gradientUnits="userSpaceOnUse">
<stop stop-color="#FFC444"/>
<stop offset="1" stop-color="#F36F56"/>
</linearGradient>
<linearGradient id="paint2_linear_145_5350" x1="78.0312" y1="150.177" x2="190.314" y2="150.177" gradientUnits="userSpaceOnUse">
<stop stop-color="#FFC444"/>
<stop offset="1" stop-color="#F36F56"/>
</linearGradient>
<linearGradient id="paint3_linear_145_5350" x1="129.337" y1="137.868" x2="151.823" y2="137.868" gradientUnits="userSpaceOnUse">
<stop stop-color="#FFC444"/>
<stop offset="1" stop-color="#F36F56"/>
</linearGradient>
<linearGradient id="paint4_linear_145_5350" x1="22.082" y1="79.4783" x2="82.1105" y2="79.4783" gradientUnits="userSpaceOnUse">
<stop stop-color="#FFC444"/>
<stop offset="1" stop-color="#F36F56"/>
</linearGradient>
<clipPath id="clip0_145_5350">
<rect width="226" height="173" fill="white"/>
</clipPath>
</defs>
</svg>
