<svg xmlns="http://www.w3.org/2000/svg" width="1904" height="394" viewBox="0 0 1904 394" fill="none">
  <path d="M0 6.53074C37.8239 -3.77237 111.802 1.0276 160.46 69.3465C209 137.5 241 152.5 241 152.5C276 173 408.879 194.333 362 137.5C253.027 5.38708 44.4609 304.035 311.422 374.951C525.368 431.783 680.627 329.422 783.804 259.236M1901.5 82C1857.01 15.1959 1752 52.6594 1755.5 107C1759 161.341 1596.04 286.972 1517.06 218.174C1438.08 149.376 1364.97 254.086 1234.5 283.5C1160.03 300.289 1113.14 291.838 1068.23 248.396" stroke="white" stroke-width="4"/>
</svg>