<svg width="208" height="205" viewBox="0 0 208 205" fill="none" xmlns="http://www.w3.org/2000/svg">
<g id="Frame" clip-path="url(#clip0_145_5545)">
<g id="Group">
<g id="Layer 3">
<path id="Vector" d="M145.795 121.395C142.706 121.012 137.503 120.381 133.124 116.444C125.162 109.306 125.081 95.9527 128.208 86.9035C130.894 79.1317 137.349 73.2611 150.255 61.5173C162.42 50.4605 166.905 48.6481 167.149 43.1476C167.496 35.3075 158.715 31.054 160.491 21.9667C160.704 20.8768 161.436 17.1329 164.412 15.2495C169.505 12.0303 177.602 16.5321 181.662 20.1898C185.577 23.7132 190.331 30.5826 188.796 37.0869C187.683 41.794 184.216 42.3035 184.188 46.4657C184.161 50.6278 187.663 51.3933 190.344 57.7962C191.413 60.3564 193.562 65.4919 192.012 70.5058C190.004 76.9898 183.626 77.3979 183.35 82.5461C183.15 86.2647 186.416 87.2684 187.072 91.4179C187.937 96.883 183.329 101.811 179.442 105.849C174.873 110.609 162.511 123.46 145.795 121.395Z" fill="#FDC21E"/>
<g id="Vector_2" style="mix-blend-mode:screen" opacity="0.16">
<path d="M166.914 17.1988C164.38 19.8705 174.831 27.2974 174.899 39.9233C174.973 53.5048 162.973 64.8177 157.428 70.0444C147.966 78.9644 143.062 78.493 137.636 87.4687C135.49 91.0174 131.017 98.4216 133.429 106.918C133.655 107.709 136.285 116.475 144.038 119.286C152.831 122.474 161.524 115.58 169.015 109.638C173.543 106.049 182.585 98.8779 180.705 93.4154C179.557 90.0821 174.59 88.1582 170.822 88.0923C165.431 87.9833 161.734 91.6233 161.085 90.8248C160.5 90.1049 162.94 86.4573 166.676 83.3598C174.147 77.1622 179.167 79.4967 184.542 74.057C185.193 73.3955 190.282 68.0952 189.119 61.8418C188.45 58.2373 185.682 54.2197 182.628 54.0828C179.177 53.9282 176.851 58.8026 175.946 58.2551C175.041 57.7075 176.678 52.9573 178.949 48.4682C182.286 41.8777 184.291 41.3935 185.218 37.462C186.638 31.4621 183.495 26.1441 183.034 25.3862C178.693 18.2811 169.086 14.9124 166.914 17.1988Z" fill="#FDC21E"/>
</g>
<path id="Vector_3" d="M149.448 152.649C146.478 151.711 141.481 150.134 137.885 145.48C131.346 137.014 133.693 123.869 138.409 115.537C142.464 108.381 149.874 103.78 164.696 94.5763C178.657 85.9073 183.404 84.944 184.641 79.5778C186.415 71.9278 178.543 66.1433 181.937 57.5402C182.345 56.506 183.744 52.9547 187.005 51.6468C192.601 49.4035 199.745 55.302 203.074 59.634C206.285 63.8113 209.712 71.436 207.023 77.5449C205.074 81.9732 201.572 81.8541 200.789 85.9275C200.006 90.001 203.323 91.4027 204.788 98.1859C205.375 100.898 206.562 106.338 204.121 110.987C200.971 116.997 194.623 116.244 193.419 121.255C192.547 124.877 195.576 126.454 195.469 130.657C195.327 136.188 189.894 140.193 185.348 143.465C179.99 147.318 165.513 157.713 149.448 152.649Z" fill="#056961"/>
<g id="Vector_4" style="mix-blend-mode:screen" opacity="0.16">
<path d="M189.125 54.0067C186.139 56.1714 195.077 65.3753 192.855 77.8034C190.463 91.1745 176.611 100.11 170.207 104.254C159.284 111.309 154.548 109.952 147.584 117.795C144.827 120.898 139.084 127.361 139.918 136.157C139.994 136.976 140.992 146.073 148.106 150.246C156.172 154.978 165.975 149.774 174.419 145.293C179.522 142.586 189.715 137.181 188.864 131.47C188.339 127.982 183.795 125.189 180.105 124.429C174.827 123.344 170.529 126.254 170.037 125.349C169.593 124.535 172.652 121.389 176.879 119.012C185.351 114.274 189.862 117.491 196.139 113.106C196.899 112.576 202.865 108.29 202.855 101.927C202.855 98.2593 200.858 93.8158 197.883 93.1187C194.515 92.3406 191.345 96.7105 190.551 96.0084C189.758 95.3063 192.234 90.9388 195.283 86.9287C199.761 81.048 201.818 80.9415 203.445 77.2433C205.929 71.6008 203.805 65.8011 203.486 64.9697C200.511 57.2183 191.677 52.1639 189.125 54.0067Z" fill="#056961"/>
</g>
<g id="Group_2" style="mix-blend-mode:multiply" opacity="0.3">
<path id="Vector_5" d="M69.8546 178.864L14.9688 174.686V20.1974L69.8546 16.1316V178.864Z" fill="url(#paint0_linear_145_5545)"/>
<path id="Vector_6" d="M20.2854 76.5336V142.185H19.2109V158.988H69.8545V76.5336H20.2854Z" fill="url(#paint1_linear_145_5545)"/>
<path id="Vector_7" d="M19.2109 167.934V26.9602L69.8545 23.5535V171.439L19.2109 167.934Z" fill="url(#paint2_linear_145_5545)"/>
<g id="Clip path group">
<mask id="mask0_145_5545" style="mask-type:luminance" maskUnits="userSpaceOnUse" x="19" y="23" width="51" height="149">
<g id="clip-path">
<path id="Vector_8" d="M19.2109 167.934V26.9577L69.8545 23.5535V171.439L19.2109 167.934Z" fill="white"/>
</g>
</mask>
<g mask="url(#mask0_145_5545)">
<g id="Group_3">
<path id="Vector_9" d="M86.2797 4.87183C86.2797 4.87183 86.3329 40.4123 94.3004 56.7264C102.268 73.0404 105.266 88.9184 99.2726 98.2237C93.2792 107.529 69.8529 93.3315 69.8529 93.3315C69.8529 93.3315 58.8012 101.131 53.8038 117.82C48.8063 134.509 16.3305 148.418 9.33612 143.713C2.34172 139.009 5.32953 13.0567 5.32953 13.0567L86.2797 4.87183Z" fill="url(#paint3_linear_145_5545)"/>
<path id="Vector_10" d="M7.83984 153.29C7.83984 153.29 27.5179 162.468 42.4115 153.987C57.305 145.505 69.8544 130.261 69.8544 130.261C69.8544 130.261 84.9988 139.546 93.1362 139.026C101.273 138.507 107.29 112.398 107.29 112.398C107.29 112.398 120.756 105.704 126.752 92.1199C132.748 78.5358 151.152 63.7452 161.218 60.6451C171.283 57.5451 177.206 63.3321 177.206 63.3321L174.71 181.725L19.2109 189.872L7.83984 153.29Z" fill="url(#paint4_linear_145_5545)"/>
</g>
</g>
</g>
<path id="Vector_11" d="M107.291 169.984H171.305L171.305 25.2215H107.291L107.291 169.984Z" fill="url(#paint5_linear_145_5545)"/>
<path id="Vector_12" d="M166.115 163.371V31.7358H107.291L89.6406 81.4434L107.291 163.371H166.115Z" fill="url(#paint6_linear_145_5545)"/>
<path id="Vector_13" d="M166.113 163.371V31.7358L107.289 31.7358V163.371H166.113Z" fill="url(#paint7_linear_145_5545)"/>
<g id="Clip path group_2">
<mask id="mask1_145_5545" style="mask-type:luminance" maskUnits="userSpaceOnUse" x="107" y="31" width="60" height="133">
<g id="clip-path-2">
<path id="Vector_14" d="M166.113 163.371V31.7358L107.289 31.7358V163.371H166.113Z" fill="white"/>
</g>
</mask>
<g mask="url(#mask1_145_5545)">
<g id="Group_4">
<path id="Vector_15" d="M7.83984 153.29C7.83984 153.29 27.5179 162.468 42.4115 153.987C57.305 145.505 69.8544 130.261 69.8544 130.261C69.8544 130.261 84.9988 139.546 93.1362 139.026C101.273 138.507 107.29 112.398 107.29 112.398C107.29 112.398 120.756 105.704 126.752 92.1199C132.748 78.5358 151.152 63.7452 161.218 60.6451C171.283 57.5451 177.206 63.3321 177.206 63.3321L174.71 181.725L19.2109 189.872L7.83984 153.29Z" fill="url(#paint8_linear_145_5545)"/>
<path id="Vector_16" d="M96.464 9.29248C96.464 9.29248 91.1573 33.6444 96.464 40.098C101.771 46.5516 105.813 65.0253 107.288 70.0315C108.762 75.0378 120.255 86.0008 126.251 76.0213C132.247 66.0417 141.241 58.7669 145.736 55.4082C150.232 52.0496 178.714 48.6023 180.202 46.0776C181.689 43.5529 182.7 14.9172 182.7 14.9172L96.464 9.29248Z" fill="url(#paint9_linear_145_5545)"/>
</g>
</g>
</g>
<path id="Vector_17" d="M107.291 169.987L69.8555 178.864V16.1316L107.291 25.2239V31.7359L100.284 45.6494L98.1423 160.621L107.291 163.371V169.987Z" fill="url(#paint10_linear_145_5545)"/>
<path id="Vector_18" d="M107.291 141.321V33.4266L94.1103 28.9146L87.5721 27.4698L86.4444 27.3354V93.1619H69.8555V141.321H107.291Z" fill="url(#paint11_linear_145_5545)"/>
<path id="Vector_19" d="M69.8555 171.439V23.5535L107.291 31.7358V163.384L69.8555 171.439Z" fill="url(#paint12_linear_145_5545)"/>
<g id="Clip path group_3">
<mask id="mask2_145_5545" style="mask-type:luminance" maskUnits="userSpaceOnUse" x="69" y="23" width="39" height="149">
<g id="clip-path-3">
<path id="Vector_20" d="M69.8555 171.439V23.5535L107.291 31.7358V163.381L69.8555 171.439Z" fill="white"/>
</g>
</mask>
<g mask="url(#mask2_145_5545)">
<g id="Group_5">
<path id="Vector_21" d="M86.2836 4.87183C86.2836 4.87183 86.3368 40.4123 94.3043 56.7264C102.272 73.0404 105.27 88.9184 99.2765 98.2237C93.2831 107.529 69.8568 93.3315 69.8568 93.3315C69.8568 93.3315 58.8051 101.131 53.8077 117.82C48.8102 134.509 16.3344 148.418 9.34003 143.713C2.34562 139.009 5.33344 13.0567 5.33344 13.0567L86.2836 4.87183Z" fill="url(#paint13_linear_145_5545)"/>
<path id="Vector_22" d="M7.84375 153.29C7.84375 153.29 27.5218 162.468 42.4154 153.987C57.3089 145.505 69.8583 130.261 69.8583 130.261C69.8583 130.261 85.0027 139.546 93.1401 139.026C101.277 138.507 107.294 112.398 107.294 112.398C107.294 112.398 120.76 105.704 126.756 92.1199C132.752 78.5358 151.156 63.7452 161.221 60.6451C171.287 57.5451 177.21 63.3321 177.21 63.3321L174.714 181.725L19.2148 189.872L7.84375 153.29Z" fill="url(#paint14_linear_145_5545)"/>
<path id="Vector_23" d="M96.4679 9.29248C96.4679 9.29248 91.1612 33.6444 96.4679 40.098C101.775 46.5516 105.817 65.0253 107.291 70.0315C108.766 75.0378 120.259 86.0008 126.255 76.0213C132.251 66.0417 141.245 58.7669 145.74 55.4082C150.236 52.0496 178.718 48.6023 180.206 46.0776C181.693 43.5529 182.704 14.9172 182.704 14.9172L96.4679 9.29248Z" fill="url(#paint15_linear_145_5545)"/>
</g>
</g>
</g>
<path id="Vector_24" opacity="0.53" d="M137.202 31.7358H136.203V169.984H137.202V31.7358Z" fill="url(#paint16_linear_145_5545)"/>
<path id="Vector_25" opacity="0.53" d="M45.0336 25.2568H44.0352V169.984H45.0336V25.2568Z" fill="url(#paint17_linear_145_5545)"/>
<path id="Vector_26" opacity="0.53" d="M166.114 78.0037H107.232L107.176 77.9885L69.8166 69.1065L19.2516 73.3802L19.168 72.384L69.8926 68.0977L69.9712 68.1179L107.351 77.0024H166.114V78.0037Z" fill="url(#paint18_linear_145_5545)"/>
</g>
<path id="Vector_27" d="M66.4248 33.2213C66.4248 47.4162 46.5414 73.3194 37.5348 84.3154C37.0098 84.9571 36.3489 85.4742 35.5997 85.8293C34.8505 86.1843 34.0317 86.3685 33.2027 86.3685C32.3736 86.3685 31.5549 86.1843 30.8057 85.8293C30.0565 85.4742 29.3955 84.9571 28.8704 84.3154C19.8714 73.3194 -0.0195312 47.4162 -0.0195312 33.2213C0.0569735 24.4611 3.58976 16.0857 9.80992 9.91816C16.0301 3.75064 24.4341 0.290283 33.1925 0.290283C41.951 0.290283 50.3549 3.75064 56.575 9.91816C62.7952 16.0857 66.3281 24.4611 66.4046 33.2213H66.4248Z" fill="#056961"/>
<path id="Vector_28" d="M46.3117 46.319C53.5452 39.0838 53.5452 27.3532 46.3117 20.118C39.0782 12.8828 27.3504 12.8828 20.1169 20.118C12.8834 27.3532 12.8834 39.0838 20.1169 46.319C27.3504 53.5542 39.0782 53.5542 46.3117 46.319Z" fill="white"/>
<g id="Group_6" opacity="0.3">
<path id="Vector_29" d="M33.0654 70.673C35.1739 56.795 44.3376 52.3515 42.7638 39.2414C40.9493 24.1264 27.5713 20.1011 27.2469 6.64889C27.2032 4.53646 27.4721 2.42917 28.0451 0.395508C20.2296 1.63086 13.1114 5.6161 7.97219 11.6339C2.83295 17.6517 0.0101123 25.3068 0.0117194 33.2213C0.0117194 47.4162 19.8926 73.3194 28.9017 84.3154C29.5168 85.0704 30.3189 85.6512 31.2281 85.9999C32.1373 86.3486 33.1221 86.453 34.0842 86.3027C32.4496 80.2217 32.404 75.0304 33.0654 70.673Z" fill="#046961"/>
</g>
<path id="Vector_30" d="M157.298 63.8747C157.298 70.3359 148.249 82.1253 144.156 87.1265C143.917 87.4182 143.616 87.6533 143.275 87.8147C142.934 87.9761 142.562 88.0598 142.184 88.0598C141.807 88.0598 141.435 87.9761 141.094 87.8147C140.753 87.6533 140.452 87.4182 140.213 87.1265C136.118 82.1227 127.07 70.3359 127.07 63.8747C127.07 59.8652 128.663 56.02 131.497 53.1849C134.332 50.3498 138.176 48.7571 142.184 48.7571C146.193 48.7571 150.037 50.3498 152.872 53.1849C155.706 56.02 157.298 59.8652 157.298 63.8747Z" fill="#056961"/>
<path id="Vector_31" d="M150.477 65.0176C151.122 60.4064 147.908 56.1449 143.298 55.4993C138.688 54.8537 134.427 58.0684 133.782 62.6797C133.137 67.2909 136.351 71.5524 140.961 72.198C145.571 72.8436 149.831 69.6288 150.477 65.0176Z" fill="#056961"/>
<g id="Group_7" style="mix-blend-mode:multiply" opacity="0.3">
<path id="Vector_32" d="M142.118 80.9187C143.076 74.6045 147.245 72.5817 146.53 66.6173C145.704 59.7404 139.617 57.9077 139.47 51.7862C139.448 50.8254 139.571 49.8668 139.833 48.9421C136.276 49.5025 133.036 51.3147 130.696 54.0523C128.356 56.7899 127.071 60.2731 127.07 63.8747C127.07 70.3359 136.118 82.1253 140.213 87.1265C140.493 87.4706 140.858 87.7352 141.272 87.894C141.686 88.0528 142.134 88.1002 142.572 88.0314C141.929 85.7177 141.774 83.2954 142.118 80.9187Z" fill="#056961"/>
</g>
<path id="Vector_33" d="M143.083 97.3219C144.716 96.8272 145.639 95.1022 145.145 93.4689C144.65 91.8357 142.925 90.9126 141.292 91.4073C139.66 91.902 138.737 93.627 139.231 95.2603C139.726 96.8935 141.451 97.8165 143.083 97.3219Z" fill="#056961"/>
<path id="Vector_34" d="M116.687 192.075L93.1953 191.114L99.6981 175.873L114.835 176.765L118.885 183.391L116.687 192.075Z" fill="#0A4C45"/>
<g id="Group_8" opacity="0.64">
<path id="Vector_35" d="M138.728 167.845C138.885 167.845 139.039 167.845 139.192 167.87L141.635 167.845L141.619 168.803C143.984 170.451 145.626 174.053 145.626 178.233C145.626 182.58 143.852 186.301 141.335 187.85V188.61H138.738C134.937 188.61 131.84 183.959 131.84 178.217C131.84 172.476 134.919 167.845 138.728 167.845Z" fill="#046961"/>
<path id="Vector_36" d="M141.636 188.623C145.446 188.623 148.534 183.972 148.534 178.235C148.534 172.498 145.446 167.847 141.636 167.847C137.827 167.847 134.738 172.498 134.738 178.235C134.738 183.972 137.827 188.623 141.636 188.623Z" fill="#046961"/>
</g>
<g id="Group_9" opacity="0.64">
<path id="Vector_37" d="M71.3149 175.733C71.5049 175.733 71.6949 175.733 71.8825 175.764L74.8754 175.733L74.8577 176.805C77.7543 178.651 79.7665 182.686 79.7665 187.373C79.7665 192.242 77.5921 196.41 74.5105 198.146L74.4953 199.01H71.3149C66.6469 199.01 62.8633 193.799 62.8633 187.373C62.8633 180.947 66.6595 175.733 71.3149 175.733Z" fill="#046961"/>
<path id="Vector_38" d="M74.8774 199.01C79.545 199.01 83.3289 193.8 83.3289 187.373C83.3289 180.946 79.545 175.736 74.8774 175.736C70.2097 175.736 66.4258 180.946 66.4258 187.373C66.4258 193.8 70.2097 199.01 74.8774 199.01Z" fill="#046961"/>
</g>
<g id="Group_10" opacity="0.64">
<path id="Vector_39" d="M103.457 181.137C103.644 181.137 103.832 181.137 104.017 181.168L106.961 181.137L106.944 182.238C109.797 184.129 111.776 188.265 111.776 193.069C111.776 198.06 109.637 202.336 106.604 204.115L106.589 205H103.457C98.862 205 95.1367 199.659 95.1367 193.069C95.1367 186.478 98.862 181.137 103.457 181.137Z" fill="#046961"/>
<path id="Vector_40" d="M106.96 205C111.555 205 115.28 199.658 115.28 193.069C115.28 186.479 111.555 181.137 106.96 181.137C102.366 181.137 98.6406 186.479 98.6406 193.069C98.6406 199.658 102.366 205 106.96 205Z" fill="#046961"/>
<path id="Vector_41" d="M108.133 199.771C110.715 199.771 112.808 196.77 112.808 193.069C112.808 189.367 110.715 186.367 108.133 186.367C105.55 186.367 103.457 189.367 103.457 193.069C103.457 196.77 105.55 199.771 108.133 199.771Z" fill="#046961"/>
<path id="Vector_42" d="M107.427 199.292C109.617 199.292 111.393 196.506 111.393 193.069C111.393 189.632 109.617 186.846 107.427 186.846C105.237 186.846 103.461 189.632 103.461 193.069C103.461 196.506 105.237 199.292 107.427 199.292Z" fill="#046961"/>
</g>
<path id="Vector_43" d="M186.432 167.845V180.266C186.432 181.03 186.269 181.785 185.955 182.482C185.642 183.179 185.183 183.801 184.611 184.308C184.038 184.814 183.365 185.193 182.635 185.42C181.905 185.646 181.136 185.715 180.377 185.622L150.188 181.913V167.845H186.432Z" fill="#056961"/>
<path id="Vector_44" d="M172.844 166.121L164.554 179.006C163.969 179.915 163.19 180.685 162.273 181.259C161.356 181.833 160.324 182.197 159.25 182.326L131.833 185.621L129.734 171.751L172.844 166.121Z" fill="#056961"/>
<g id="Group_11" opacity="0.64">
<path id="Vector_45" d="M170.929 172.397C171.086 172.397 171.241 172.397 171.396 172.423L173.836 172.397L173.823 173.356C176.188 175.001 177.83 178.603 177.83 182.785C177.83 187.132 176.056 190.853 173.54 192.402L173.527 193.163H170.929C167.128 193.163 164.031 188.514 164.031 182.77C164.031 177.026 167.12 172.397 170.929 172.397Z" fill="#046961"/>
<path id="Vector_46" d="M173.836 193.173C177.645 193.173 180.734 188.522 180.734 182.785C180.734 177.048 177.645 172.397 173.836 172.397C170.026 172.397 166.938 177.048 166.938 182.785C166.938 188.522 170.026 193.173 173.836 193.173Z" fill="#046961"/>
<path id="Vector_47" d="M174.808 188.62C176.948 188.62 178.683 186.008 178.683 182.785C178.683 179.562 176.948 176.95 174.808 176.95C172.668 176.95 170.934 179.562 170.934 182.785C170.934 186.008 172.668 188.62 174.808 188.62Z" fill="#046961"/>
<path id="Vector_48" d="M174.223 188.205C176.04 188.205 177.512 185.778 177.512 182.785C177.512 179.792 176.04 177.366 174.223 177.366C172.406 177.366 170.934 179.792 170.934 182.785C170.934 185.778 172.406 188.205 174.223 188.205Z" fill="#046961"/>
</g>
<path id="Vector_49" d="M140.988 175.87L197.309 168.073C197.757 168.01 198.167 167.788 198.464 167.446C198.761 167.105 198.925 166.668 198.925 166.215V116.583C198.926 116.096 198.736 115.628 198.397 115.278C198.057 114.929 197.595 114.725 197.108 114.71L140.988 112.979V175.87Z" fill="url(#paint19_linear_145_5545)"/>
<path id="Vector_50" d="M96.7813 172.398L140.988 175.87V112.977L98.9759 115.197C98.3834 115.228 97.8254 115.486 97.417 115.916C97.0087 116.347 96.7811 116.918 96.7813 117.511V172.398Z" fill="url(#paint20_linear_145_5545)"/>
<path id="Vector_51" style="mix-blend-mode:multiply" opacity="0.3" d="M161.307 137.057C169.492 126.735 185.767 134.353 193.98 122.776C195.679 120.378 197.038 117.755 198.017 114.984C198.293 115.149 198.522 115.383 198.681 115.663C198.84 115.943 198.924 116.259 198.925 116.581V166.213C198.924 166.665 198.76 167.102 198.463 167.444C198.166 167.785 197.756 168.008 197.308 168.071L146.34 175.13C150.038 171.132 153.012 166.52 155.129 161.5C160.265 149.166 155.962 143.797 161.307 137.057Z" fill="url(#paint21_linear_145_5545)"/>
<path id="Vector_52" d="M132.443 139.001C133.963 145.845 137.526 165.617 133.555 186.831C133.408 187.601 133.026 188.306 132.462 188.851C131.898 189.395 131.18 189.752 130.405 189.872L116.687 192.063C116.687 192.063 116.551 179.072 109.962 178.22C103.373 177.368 97.1918 183.543 96.7838 194.26C96.7838 194.26 82.5061 196.182 60.9501 191.239C60.0045 190.966 59.1375 190.472 58.4212 189.797C57.705 189.122 57.1602 188.286 56.832 187.358L57.8051 172.42C57.845 171.813 58.0051 171.22 58.2761 170.675C58.5471 170.13 58.9237 169.645 59.3839 169.247L72.0702 158.281C72.0702 158.281 83.6033 141.939 87.4477 138.781C87.4477 138.781 89.508 135.486 106.12 135.075C117.559 134.791 125.438 135.549 129.234 136.048C130.007 136.152 130.73 136.491 131.304 137.019C131.878 137.547 132.275 138.239 132.443 139.001Z" fill="url(#paint22_linear_145_5545)"/>
<path id="Vector_53" style="mix-blend-mode:multiply" opacity="0.6" d="M58.5352 170.238L59.1662 170.927C58.8925 178.618 57.225 181.335 71.3177 182.785C85.4104 184.235 84.9771 172.392 84.9771 172.392L103.456 164.332L118.887 140.025C121.949 137.557 127.301 136.882 130.93 136.73C131.704 137.274 132.246 138.088 132.45 139.012C133.971 145.856 137.534 165.627 133.563 186.841C133.415 187.611 133.034 188.316 132.47 188.861C131.906 189.405 131.187 189.762 130.413 189.883L116.695 192.073C116.695 192.073 116.558 179.082 109.969 178.23C103.381 177.378 97.1996 183.553 96.7916 194.27C96.7916 194.27 82.5139 196.192 60.9579 191.249C60.0123 190.976 59.1453 190.482 58.429 189.807C57.7128 189.132 57.168 188.296 56.8398 187.368L57.8129 172.43C57.8641 171.65 58.1127 170.896 58.5352 170.238Z" fill="url(#paint23_linear_145_5545)"/>
<path id="Vector_54" d="M103.646 160.791C103.401 161.192 103.045 161.515 102.621 161.72C102.197 161.925 101.723 162.004 101.256 161.946L71.9961 158.36L72.0696 158.294C72.0696 158.294 81.6413 144.733 86.2611 139.932L113.243 141.554C113.456 141.566 113.661 141.634 113.84 141.75C114.019 141.865 114.165 142.025 114.264 142.214C114.363 142.403 114.411 142.614 114.404 142.827C114.397 143.04 114.335 143.248 114.224 143.43L103.646 160.791Z" fill="#87B9C6"/>
<path id="Vector_55" d="M86.2213 151.675C94.1889 148.542 100.808 152.256 106.287 147.873C108.396 146.188 109.653 143.848 110.393 141.382L113.233 141.551C113.446 141.564 113.652 141.631 113.831 141.747C114.01 141.863 114.156 142.023 114.255 142.212C114.353 142.401 114.401 142.612 114.394 142.825C114.387 143.038 114.325 143.245 114.214 143.427L103.646 160.788C103.401 161.19 103.045 161.513 102.622 161.718C102.198 161.923 101.724 162.001 101.257 161.944L76.9766 158.968C80.1646 154.824 83.4464 152.768 86.2213 151.675Z" fill="#457687"/>
<path id="Vector_56" d="M60.3618 172.22C60.3751 172.091 60.4359 171.972 60.5325 171.886C60.629 171.799 60.7544 171.752 60.8839 171.753C68.1748 171.817 77.3435 173.35 80.3794 173.895C80.5154 173.919 80.6451 173.97 80.7607 174.045C80.8763 174.12 80.9752 174.218 81.0516 174.333C81.128 174.448 81.1802 174.577 81.2049 174.713C81.2297 174.848 81.2265 174.988 81.1955 175.122C80.7854 177.006 80.002 178.788 78.8918 180.364C78.6499 180.698 78.3384 180.976 77.9788 181.177C77.6191 181.379 77.2199 181.5 76.8088 181.533C74.5128 181.713 69.4241 182.019 66.9558 181.431C65.0632 180.936 63.2408 180.203 61.5325 179.249C61.2074 179.073 60.927 178.824 60.7126 178.523C60.4983 178.222 60.3557 177.875 60.2959 177.51C60.0196 175.72 60.2452 173.239 60.3618 172.22Z" fill="#056961"/>
<path id="Vector_57" d="M96.0394 172.922C96.0881 172.824 96.1156 172.717 96.1202 172.608C96.1247 172.498 96.1062 172.389 96.0658 172.288C96.0254 172.186 95.964 172.094 95.8857 172.018C95.8073 171.941 95.7138 171.883 95.6111 171.845C94.9674 171.607 94.0906 171.338 93.5837 171.391C92.9096 171.47 87.2254 172.947 84.6253 173.627C84.2368 173.727 83.8949 173.958 83.6575 174.282C83.4201 174.605 83.3018 175.001 83.3227 175.401C83.4392 177.176 84.1082 179.964 87.1467 180.288C91.3561 180.747 94.0297 177.013 96.0394 172.922Z" fill="#056961"/>
<path id="Vector_58" d="M68.707 183.388C79.7688 184.934 82.0116 181.137 82.0116 181.137C84.6294 181.528 88.3471 181.013 90.4581 180.646C90.8492 180.585 91.2496 180.64 91.6099 180.803C91.9702 180.967 92.2745 181.233 92.4855 181.568C92.82 182.075 93.4333 182.582 94.5433 182.785C96.3603 183.099 99.4495 182.407 100.965 182.024C98.7602 185.051 97.2194 188.97 97.0166 194.263C97.0166 194.263 82.4983 196.202 60.9423 191.259C59.9967 190.986 59.1297 190.492 58.4134 189.817C57.6972 189.142 57.1524 188.306 56.8242 187.378L57.4602 177.637C58.5956 179.358 61.5504 182.389 68.707 183.388Z" fill="#046961"/>
<path id="Vector_59" d="M86.6977 185.31C86.9861 185.282 87.277 185.316 87.5514 185.409C87.8257 185.502 88.077 185.653 88.2888 185.85C88.5007 186.048 88.6681 186.289 88.78 186.556C88.8919 186.823 88.9457 187.111 88.9379 187.401C88.9147 189.82 89.0646 192.238 89.3864 194.635C83.1219 194.65 73.2182 194.062 60.9501 191.249C60.0045 190.976 59.1376 190.482 58.4214 189.807C57.7051 189.132 57.1602 188.296 56.832 187.368L57.202 181.69C66.0388 186.706 80.9171 185.872 86.6977 185.31Z" fill="#094741"/>
<path id="Vector_60" d="M127.734 142.978L123.76 143.942C122.461 144.256 121.325 145.04 120.569 146.142L110.732 160.496C110.584 160.713 110.505 160.969 110.504 161.231C110.503 161.493 110.58 161.75 110.726 161.968C110.872 162.186 111.079 162.355 111.322 162.454C111.564 162.553 111.831 162.578 112.087 162.524L129.135 158.917C129.47 158.85 129.772 158.672 129.993 158.411C130.214 158.151 130.341 157.824 130.354 157.483C130.46 155.024 130.575 149.194 129.612 144.193C129.572 143.987 129.492 143.792 129.375 143.619C129.258 143.445 129.108 143.297 128.932 143.184C128.757 143.07 128.56 142.994 128.354 142.958C128.148 142.923 127.937 142.93 127.734 142.978Z" fill="#87B9C6"/>
<g id="Group_12" style="mix-blend-mode:screen">
<path id="Vector_61" d="M30.3125 103.362C30.068 103.363 29.8296 103.286 29.6311 103.143C29.4327 103 29.2844 102.799 29.2075 102.566C29.1305 102.334 29.1288 102.084 29.2025 101.851C29.2763 101.618 29.4217 101.414 29.6182 101.268C29.6182 101.268 30.0667 100.936 30.8497 100.345C31.0954 100.16 31.4047 100.08 31.7096 100.122C32.0145 100.165 32.2899 100.327 32.4754 100.572C32.6609 100.818 32.7413 101.127 32.6988 101.432C32.6563 101.737 32.4943 102.013 32.2486 102.198C31.4554 102.799 31.0018 103.134 31.0018 103.134C30.8028 103.282 30.5609 103.362 30.3125 103.362Z" fill="#E2810C"/>
<path id="Vector_62" d="M129.762 107.892C128.95 107.877 128.141 107.776 127.35 107.59C127.047 107.525 126.783 107.342 126.615 107.082C126.448 106.822 126.39 106.506 126.455 106.203C126.52 105.901 126.703 105.637 126.963 105.469C127.223 105.301 127.539 105.243 127.841 105.309C128.962 105.562 129.856 105.615 130.376 105.501C130.675 105.429 130.991 105.479 131.254 105.639C131.517 105.8 131.705 106.059 131.777 106.358C131.849 106.658 131.8 106.973 131.639 107.236C131.478 107.499 131.22 107.688 130.92 107.76H130.882C130.515 107.843 130.139 107.887 129.762 107.892ZM133.564 106.812C133.299 106.814 133.042 106.726 132.834 106.562C132.626 106.398 132.481 106.168 132.422 105.91C132.363 105.653 132.393 105.382 132.509 105.144C132.624 104.906 132.818 104.715 133.057 104.601C133.907 104.193 134.711 103.695 135.454 103.113C135.697 102.924 136.005 102.839 136.311 102.877C136.617 102.915 136.894 103.073 137.084 103.316C137.273 103.559 137.358 103.868 137.32 104.173C137.282 104.479 137.124 104.757 136.881 104.946C136.006 105.632 135.058 106.22 134.055 106.7C133.901 106.773 133.734 106.811 133.564 106.812ZM124.636 106.771C124.509 106.772 124.383 106.752 124.263 106.71C123.361 106.406 122.368 106.036 121.308 105.613C121.022 105.498 120.794 105.275 120.672 104.991C120.551 104.708 120.547 104.388 120.662 104.102C120.777 103.816 121 103.587 121.283 103.466C121.567 103.345 121.886 103.341 122.172 103.456C123.186 103.864 124.144 104.216 125.006 104.51C125.266 104.598 125.487 104.776 125.629 105.012C125.771 105.248 125.825 105.526 125.78 105.798C125.736 106.069 125.596 106.316 125.387 106.495C125.177 106.673 124.911 106.771 124.636 106.771ZM118.896 104.49C118.735 104.489 118.576 104.455 118.429 104.391C117.53 103.993 116.577 103.557 115.596 103.096C115.318 102.965 115.102 102.728 114.998 102.439C114.894 102.149 114.909 101.829 115.04 101.551C115.171 101.272 115.407 101.057 115.697 100.953C115.987 100.848 116.306 100.863 116.584 100.994C117.55 101.448 118.485 101.874 119.372 102.262C119.615 102.37 119.813 102.559 119.934 102.796C120.055 103.033 120.09 103.305 120.035 103.565C119.98 103.825 119.837 104.059 119.631 104.227C119.424 104.395 119.167 104.487 118.901 104.487L118.896 104.49ZM138.409 103.068C138.186 103.068 137.967 103.004 137.779 102.883C137.592 102.763 137.443 102.59 137.35 102.387C137.258 102.183 137.226 101.958 137.259 101.737C137.292 101.516 137.388 101.309 137.535 101.141C138.169 100.414 138.745 99.6364 139.255 98.817C139.335 98.6859 139.44 98.5719 139.565 98.4816C139.689 98.3914 139.83 98.3267 139.979 98.2912C140.128 98.2558 140.283 98.2504 140.435 98.2752C140.586 98.3001 140.731 98.3547 140.861 98.436C140.992 98.5173 141.104 98.6236 141.193 98.7488C141.282 98.874 141.345 99.0156 141.379 99.1654C141.413 99.3151 141.416 99.4701 141.39 99.6214C141.363 99.7726 141.307 99.917 141.225 100.046C140.649 100.972 140 101.851 139.283 102.672C139.174 102.798 139.039 102.899 138.887 102.968C138.735 103.037 138.571 103.073 138.404 103.073L138.409 103.068ZM113.32 101.864C113.145 101.863 112.971 101.822 112.814 101.745C111.919 101.301 110.986 100.832 110.041 100.348C109.767 100.208 109.56 99.9638 109.465 99.6705C109.371 99.3772 109.396 99.0583 109.537 98.7841C109.677 98.5098 109.921 98.3025 110.214 98.2079C110.507 98.1133 110.826 98.1391 111.1 98.2796C112.036 98.7587 112.958 99.2226 113.842 99.6611C114.077 99.7766 114.266 99.9681 114.379 100.204C114.491 100.441 114.52 100.708 114.461 100.963C114.403 101.218 114.26 101.446 114.055 101.61C113.851 101.773 113.597 101.863 113.336 101.864H113.32ZM34.0124 100.561C33.77 100.56 33.5338 100.484 33.3368 100.343C33.1398 100.202 32.9919 100.002 32.9137 99.7726C32.8356 99.5431 32.831 99.2948 32.9007 99.0626C32.9705 98.8304 33.1112 98.6257 33.3029 98.4773C34.0353 97.9146 34.8513 97.2834 35.7332 96.594C35.9758 96.4041 36.2839 96.3183 36.5897 96.3557C36.8955 96.393 37.1741 96.5503 37.3639 96.793C37.5538 97.0357 37.6396 97.3438 37.6023 97.6497C37.565 97.9556 37.4076 98.2342 37.165 98.4241C36.278 99.1161 35.4544 99.7549 34.7195 100.32C34.5141 100.481 34.2605 100.567 33.9998 100.566L34.0124 100.561ZM107.824 99.0401C107.636 99.0401 107.45 98.994 107.284 98.9057C106.374 98.4266 105.462 97.9374 104.549 97.4457C104.279 97.2991 104.077 97.0509 103.989 96.7557C103.901 96.4605 103.934 96.1425 104.081 95.8716C104.227 95.6006 104.475 95.399 104.77 95.3111C105.066 95.2231 105.384 95.2561 105.654 95.4026C106.56 95.8893 107.464 96.3718 108.366 96.85C108.597 96.9704 108.78 97.1649 108.887 97.4021C108.994 97.6393 109.018 97.9056 108.955 98.1582C108.893 98.4108 108.747 98.6351 108.542 98.795C108.337 98.9549 108.084 99.0412 107.824 99.0401ZM38.8705 96.7587C38.6292 96.7596 38.3937 96.6852 38.1966 96.5458C37.9995 96.4065 37.8507 96.2092 37.7709 95.9814C37.6912 95.7535 37.6844 95.5065 37.7516 95.2747C37.8188 95.0428 37.9566 94.8377 38.1457 94.6878C38.9212 94.0718 39.7245 93.4204 40.5431 92.7639C40.6616 92.6679 40.7978 92.5961 40.944 92.5527C41.0902 92.5093 41.2435 92.4952 41.3952 92.5111C41.5468 92.527 41.6938 92.5726 41.8279 92.6453C41.9619 92.718 42.0803 92.8165 42.1763 92.935C42.2723 93.0535 42.3442 93.1897 42.3876 93.336C42.4309 93.4822 42.445 93.6355 42.4291 93.7872C42.4132 93.9389 42.3676 94.0861 42.2949 94.2201C42.2222 94.3542 42.1238 94.4726 42.0053 94.5687C41.1817 95.2379 40.3733 95.8868 39.5928 96.5078C39.3848 96.6757 39.1251 96.7662 38.8579 96.7638L38.8705 96.7587ZM102.395 96.1174C102.199 96.118 102.007 96.0682 101.835 95.973C100.926 95.466 100.021 94.959 99.1314 94.4647C98.9956 94.3912 98.8759 94.2915 98.7791 94.1712C98.6823 94.051 98.6103 93.9127 98.5675 93.7643C98.5247 93.616 98.5118 93.4607 98.5296 93.3073C98.5474 93.1539 98.5956 93.0057 98.6713 92.8711C98.747 92.7365 98.8486 92.6184 98.9704 92.5236C99.0922 92.4287 99.2316 92.359 99.3806 92.3186C99.5295 92.2782 99.685 92.2678 99.838 92.2881C99.9911 92.3085 100.138 92.359 100.272 92.4369C101.155 92.9438 102.051 93.4441 102.958 93.9375C103.184 94.062 103.361 94.2579 103.463 94.4946C103.565 94.7312 103.586 94.995 103.521 95.2444C103.457 95.4939 103.311 95.7148 103.107 95.8724C102.903 96.03 102.653 96.1153 102.395 96.1149V96.1174ZM97.0153 93.0757C96.8133 93.0751 96.6151 93.0218 96.44 92.921C95.526 92.3972 94.6332 91.8809 93.7614 91.3723C93.6296 91.2956 93.5143 91.1936 93.4219 91.0723C93.3295 90.9509 93.2618 90.8126 93.2229 90.6651C93.1839 90.5177 93.1745 90.364 93.1949 90.2128C93.2154 90.0617 93.2653 89.916 93.342 89.7842C93.4188 89.6524 93.5207 89.537 93.642 89.4446C93.7633 89.3521 93.9015 89.2845 94.049 89.2456C94.1964 89.2066 94.35 89.1971 94.5011 89.2175C94.6522 89.2379 94.7978 89.288 94.9296 89.3647C95.7963 89.8717 96.685 90.3854 97.5956 90.9059C97.8186 91.0329 97.9934 91.2302 98.0923 91.467C98.1913 91.7038 98.2089 91.9668 98.1426 92.2147C98.0762 92.4627 97.9296 92.6817 97.7257 92.8375C97.5217 92.9932 97.2719 93.077 97.0153 93.0757ZM43.6627 92.8627C43.4235 92.8634 43.1899 92.7901 42.994 92.6529C42.7981 92.5157 42.6494 92.3213 42.5681 92.0963C42.4868 91.8713 42.477 91.6267 42.54 91.3959C42.603 91.1651 42.7358 90.9594 42.9201 90.807C43.7285 90.1378 44.5192 89.4762 45.2744 88.8349C45.3909 88.7364 45.5257 88.6618 45.671 88.6153C45.8163 88.5689 45.9693 88.5515 46.1213 88.5642C46.2733 88.5769 46.4214 88.6195 46.557 88.6894C46.6926 88.7593 46.813 88.8553 46.9115 88.9718C47.01 89.0883 47.0847 89.2231 47.1311 89.3684C47.1776 89.5138 47.1948 89.6668 47.1821 89.8189C47.1694 89.971 47.1269 90.119 47.057 90.2546C46.9871 90.3903 46.8911 90.5108 46.7747 90.6093C46.0144 91.2557 45.2162 91.9249 44.4002 92.5991C44.192 92.78 43.9258 92.8798 43.6501 92.8805L43.6627 92.8627ZM91.6834 89.9654C91.4749 89.9649 91.2701 89.9089 91.0903 89.8032C90.1628 89.2532 89.2733 88.7208 88.4345 88.2139C88.1707 88.0549 87.9809 87.7976 87.9067 87.4986C87.8326 87.1996 87.8802 86.8834 88.0391 86.6195C88.1981 86.3556 88.4554 86.1657 88.7544 86.0916C89.0533 86.0174 89.3694 86.0651 89.6332 86.2241C90.4695 86.731 91.3539 87.2557 92.2764 87.8032C92.4946 87.9337 92.6642 88.1321 92.759 88.368C92.8538 88.604 92.8687 88.8646 92.8014 89.1098C92.7342 89.355 92.5884 89.5715 92.3865 89.726C92.1846 89.8805 91.9377 89.9646 91.6834 89.9654ZM48.3636 88.873C48.13 88.8693 47.9029 88.7953 47.7119 88.6607C47.5208 88.5261 47.3748 88.337 47.2928 88.1182C47.2107 87.8993 47.1964 87.6608 47.2518 87.4337C47.3072 87.2066 47.4297 87.0015 47.6033 86.8451C48.4042 86.1455 49.1746 85.4611 49.8841 84.8173C49.9962 84.7089 50.129 84.6242 50.2745 84.5682C50.42 84.5122 50.5753 84.486 50.7311 84.4912C50.8869 84.4964 51.0401 84.5328 51.1815 84.5984C51.323 84.664 51.4498 84.7573 51.5545 84.8729C51.6592 84.9885 51.7395 85.1239 51.7908 85.2711C51.8421 85.4184 51.8633 85.5744 51.8531 85.73C51.8429 85.8856 51.8015 86.0376 51.7315 86.1769C51.6614 86.3162 51.5641 86.44 51.4452 86.5409C50.7154 87.2 49.9247 87.8945 49.1239 88.6043C48.9097 88.7907 48.6349 88.8926 48.351 88.8907L48.3636 88.873ZM86.397 86.7741C86.1822 86.7741 85.9717 86.7144 85.7888 86.6018C84.8233 86.0086 83.9389 85.4535 83.1532 84.9567C82.9075 84.785 82.7374 84.525 82.6786 84.231C82.6198 83.937 82.6768 83.6316 82.8376 83.3786C82.9984 83.1256 83.2507 82.9444 83.5418 82.8729C83.8329 82.8014 84.1403 82.845 84.4001 82.9947C85.173 83.4865 86.0498 84.034 87.0052 84.6221C87.2197 84.7552 87.3851 84.9546 87.4764 85.19C87.5676 85.4254 87.5799 85.6842 87.5113 85.9271C87.4426 86.1701 87.2967 86.3842 87.0957 86.537C86.8947 86.6898 86.6494 86.773 86.397 86.7741ZM52.9278 84.726C52.6956 84.7262 52.4686 84.6568 52.2763 84.5268C52.0839 84.3967 51.9351 84.2118 51.8489 83.9962C51.7626 83.7806 51.743 83.5441 51.7926 83.3172C51.8422 83.0903 51.9586 82.8835 52.1269 82.7235C52.91 81.9757 53.6475 81.2584 54.2937 80.5867C54.5123 80.3811 54.8017 80.268 55.1016 80.2708C55.4016 80.2737 55.6889 80.3924 55.9035 80.6021C56.118 80.8118 56.2434 81.0963 56.2532 81.3962C56.263 81.6961 56.1565 81.9882 55.9561 82.2115C55.282 82.9009 54.532 83.6386 53.7286 84.4041C53.5128 84.6201 53.2204 84.7422 52.915 84.7438L52.9278 84.726ZM81.1917 83.4586C80.9603 83.4583 80.7343 83.3886 80.5429 83.2584L79.0224 82.2267C78.6803 81.9909 78.3357 81.7527 77.986 81.5169C77.7421 81.3388 77.577 81.0727 77.5257 80.775C77.4743 80.4773 77.5408 80.1713 77.711 79.9217C77.8812 79.6722 78.1418 79.4986 78.4376 79.4377C78.7334 79.3768 79.0413 79.4334 79.2961 79.5955L80.3378 80.3104C80.8446 80.6602 81.3514 81.0024 81.838 81.3243C82.0431 81.4644 82.1978 81.6665 82.2798 81.9009C82.3617 82.1354 82.3666 82.39 82.2935 82.6273C82.2204 82.8647 82.0734 83.0725 81.8738 83.2202C81.6742 83.368 81.4325 83.448 81.1842 83.4485L81.1917 83.4586ZM57.2182 80.3104C56.996 80.3098 56.7785 80.2455 56.5916 80.1251C56.4047 80.0047 56.2562 79.8333 56.1637 79.6312C56.0712 79.429 56.0385 79.2046 56.0695 78.9845C56.1006 78.7643 56.194 78.5577 56.3388 78.389C56.6733 78.0037 56.9799 77.6285 57.2536 77.2813C57.6119 76.82 58.0024 76.3847 58.422 75.9784C58.531 75.8693 58.6605 75.783 58.8032 75.7245C58.9459 75.6661 59.0988 75.6367 59.253 75.638C59.4072 75.6393 59.5597 75.6714 59.7013 75.7323C59.843 75.7932 59.9712 75.8817 60.0782 75.9927C60.1853 76.1037 60.2692 76.2349 60.325 76.3787C60.3808 76.5224 60.4075 76.6759 60.4033 76.8301C60.3992 76.9843 60.3643 77.1361 60.3009 77.2767C60.2374 77.4173 60.1466 77.5438 60.0337 77.6488C59.6934 77.9819 59.3759 78.3376 59.0834 78.7134C58.7869 79.0911 58.4549 79.4942 58.0975 79.9073C57.9875 80.0363 57.8507 80.1395 57.6966 80.21C57.5425 80.2805 57.3749 80.3165 57.2055 80.3154L57.2182 80.3104ZM76.0828 80.0087C75.8598 80.0094 75.6414 79.9451 75.4544 79.8237C74.5167 79.2204 73.6804 78.7084 72.8796 78.2572C72.7464 78.1821 72.6295 78.0816 72.5352 77.9613C72.4409 77.8409 72.3712 77.7033 72.3302 77.556C72.2891 77.4088 72.2774 77.2549 72.2958 77.1032C72.3142 76.9514 72.3623 76.8048 72.4373 76.6717C72.5124 76.5385 72.6129 76.4214 72.7332 76.3272C72.8535 76.2329 72.9911 76.1632 73.1383 76.1221C73.2855 76.0811 73.4394 76.0694 73.5911 76.0878C73.7428 76.1062 73.8893 76.1543 74.0224 76.2293C74.8537 76.7008 75.7356 77.2433 76.7113 77.8643C76.9232 77.9996 77.0853 78.2001 77.1735 78.4356C77.2617 78.671 77.2711 78.9288 77.2002 79.17C77.1293 79.4113 76.982 79.623 76.7805 79.7733C76.579 79.9236 76.3342 80.0045 76.0828 80.0037V80.0087ZM70.7027 77.0151C70.5412 77.0158 70.3814 76.9821 70.2339 76.9163C69.3552 76.5216 68.4458 76.1994 67.5147 75.953C67.2163 75.8771 66.9602 75.6856 66.8029 75.4208C66.6456 75.1561 66.5999 74.8396 66.6758 74.5412C66.7518 74.2427 66.9432 73.9866 67.2079 73.8292C67.4726 73.6719 67.7889 73.6261 68.0873 73.7021C69.1432 73.9802 70.1746 74.3439 71.1715 74.7896C71.4141 74.8981 71.6123 75.0865 71.733 75.3234C71.8537 75.5603 71.8896 75.8314 71.8348 76.0916C71.78 76.3517 71.6378 76.5852 71.4318 76.7533C71.2258 76.9213 70.9685 77.0137 70.7027 77.0151ZM61.762 76.2547C61.4943 76.2557 61.2345 76.164 61.0266 75.9954C60.8187 75.8267 60.6755 75.5913 60.6212 75.3291C60.5669 75.0669 60.6049 74.794 60.7287 74.5567C60.8526 74.3193 61.0547 74.132 61.3008 74.0266C62.3839 73.5626 63.5464 73.3121 64.7245 73.2889C65.025 73.2932 65.3122 73.4138 65.5259 73.6252C65.7396 73.8366 65.8631 74.1226 65.8707 74.4231C65.8782 74.7237 65.7692 75.0155 65.5664 75.2374C65.3636 75.4593 65.0827 75.594 64.7827 75.6134C63.9021 75.6259 63.0326 75.811 62.2233 76.1584C62.0744 76.2257 61.9128 76.2603 61.7494 76.2598L61.762 76.2547Z" fill="#E2810C"/>
<path id="Vector_63" d="M141.62 97.9907C141.458 97.9905 141.298 97.956 141.151 97.8893C140.872 97.7644 140.654 97.5348 140.544 97.2501C140.433 96.9654 140.439 96.6486 140.56 96.3684C140.754 95.9405 140.923 95.5021 141.067 95.0554C141.112 94.9096 141.186 94.7741 141.283 94.6566C141.381 94.5392 141.5 94.4421 141.635 94.3709C141.77 94.2997 141.918 94.2558 142.07 94.2417C142.222 94.2276 142.375 94.2435 142.521 94.2886C142.666 94.3337 142.802 94.4071 142.919 94.5046C143.037 94.602 143.134 94.7217 143.205 94.8567C143.276 94.9917 143.32 95.1393 143.334 95.2913C143.348 95.4433 143.332 95.5965 143.287 95.7423C143.113 96.2761 142.909 96.7999 142.677 97.3114C142.584 97.5137 142.435 97.6852 142.247 97.8056C142.06 97.926 141.842 97.9902 141.62 97.9907Z" fill="#E2810C"/>
</g>
<path id="Vector_64" style="mix-blend-mode:screen" opacity="0.16" d="M33.211 107.266C36.9605 107.266 40.0001 104.225 40.0001 100.475C40.0001 96.7244 36.9605 93.6841 33.211 93.6841C29.4615 93.6841 26.4219 96.7244 26.4219 100.475C26.4219 104.225 29.4615 107.266 33.211 107.266Z" fill="url(#paint24_linear_145_5545)"/>
</g>
</g>
</g>
<defs>
<linearGradient id="paint0_linear_145_5545" x1="14.9688" y1="97.4964" x2="69.8546" y2="97.4964" gradientUnits="userSpaceOnUse">
<stop stop-color="#FFC444"/>
<stop offset="1" stop-color="#F36F56"/>
</linearGradient>
<linearGradient id="paint1_linear_145_5545" x1="19.2109" y1="117.76" x2="69.8545" y2="117.76" gradientUnits="userSpaceOnUse">
<stop stop-color="#FFC444"/>
<stop offset="1" stop-color="#F36F56"/>
</linearGradient>
<linearGradient id="paint2_linear_145_5545" x1="1161.87" y1="422.697" x2="1212.52" y2="422.697" gradientUnits="userSpaceOnUse">
<stop stop-color="#FFC444"/>
<stop offset="1" stop-color="#F36F56"/>
</linearGradient>
<linearGradient id="paint3_linear_145_5545" x1="4.70105" y1="74.7565" x2="102.438" y2="74.7565" gradientUnits="userSpaceOnUse">
<stop stop-color="#FFC444"/>
<stop offset="1" stop-color="#F36F56"/>
</linearGradient>
<linearGradient id="paint4_linear_145_5545" x1="7.83984" y1="124.804" x2="177.216" y2="124.804" gradientUnits="userSpaceOnUse">
<stop stop-color="#FFC444"/>
<stop offset="1" stop-color="#F36F56"/>
</linearGradient>
<linearGradient id="paint5_linear_145_5545" x1="107.291" y1="97.6029" x2="171.305" y2="97.6029" gradientUnits="userSpaceOnUse">
<stop stop-color="#FFC444"/>
<stop offset="1" stop-color="#F36F56"/>
</linearGradient>
<linearGradient id="paint6_linear_145_5545" x1="89.6406" y1="97.5546" x2="166.115" y2="97.5546" gradientUnits="userSpaceOnUse">
<stop stop-color="#FFC444"/>
<stop offset="1" stop-color="#F36F56"/>
</linearGradient>
<linearGradient id="paint7_linear_145_5545" x1="107.289" y1="97.5547" x2="166.113" y2="97.5547" gradientUnits="userSpaceOnUse">
<stop stop-color="#FFC444"/>
<stop offset="1" stop-color="#F36F56"/>
</linearGradient>
<linearGradient id="paint8_linear_145_5545" x1="7.83984" y1="124.804" x2="177.216" y2="124.804" gradientUnits="userSpaceOnUse">
<stop stop-color="#FFC444"/>
<stop offset="1" stop-color="#F36F56"/>
</linearGradient>
<linearGradient id="paint9_linear_145_5545" x1="94.1046" y1="44.6835" x2="182.711" y2="44.6835" gradientUnits="userSpaceOnUse">
<stop stop-color="#FFC444"/>
<stop offset="1" stop-color="#F36F56"/>
</linearGradient>
<linearGradient id="paint10_linear_145_5545" x1="1212.52" y1="422.697" x2="1249.95" y2="422.697" gradientUnits="userSpaceOnUse">
<stop stop-color="#FFC444"/>
<stop offset="1" stop-color="#F36F56"/>
</linearGradient>
<linearGradient id="paint11_linear_145_5545" x1="69.8555" y1="84.3281" x2="107.291" y2="84.3281" gradientUnits="userSpaceOnUse">
<stop stop-color="#FFC444"/>
<stop offset="1" stop-color="#F36F56"/>
</linearGradient>
<linearGradient id="paint12_linear_145_5545" x1="1212.52" y1="422.697" x2="1249.95" y2="422.697" gradientUnits="userSpaceOnUse">
<stop stop-color="#FFC444"/>
<stop offset="1" stop-color="#F36F56"/>
</linearGradient>
<linearGradient id="paint13_linear_145_5545" x1="4.70496" y1="74.7565" x2="102.442" y2="74.7565" gradientUnits="userSpaceOnUse">
<stop stop-color="#FFC444"/>
<stop offset="1" stop-color="#F36F56"/>
</linearGradient>
<linearGradient id="paint14_linear_145_5545" x1="7.84375" y1="124.804" x2="177.22" y2="124.804" gradientUnits="userSpaceOnUse">
<stop stop-color="#FFC444"/>
<stop offset="1" stop-color="#F36F56"/>
</linearGradient>
<linearGradient id="paint15_linear_145_5545" x1="94.1085" y1="44.6835" x2="182.715" y2="44.6835" gradientUnits="userSpaceOnUse">
<stop stop-color="#FFC444"/>
<stop offset="1" stop-color="#F36F56"/>
</linearGradient>
<linearGradient id="paint16_linear_145_5545" x1="136.203" y1="100.86" x2="137.202" y2="100.86" gradientUnits="userSpaceOnUse">
<stop stop-color="#FFC444"/>
<stop offset="1" stop-color="#F36F56"/>
</linearGradient>
<linearGradient id="paint17_linear_145_5545" x1="44.0352" y1="97.6205" x2="45.0336" y2="97.6205" gradientUnits="userSpaceOnUse">
<stop stop-color="#FFC444"/>
<stop offset="1" stop-color="#F36F56"/>
</linearGradient>
<linearGradient id="paint18_linear_145_5545" x1="19.168" y1="73.0507" x2="166.114" y2="73.0507" gradientUnits="userSpaceOnUse">
<stop stop-color="#FFC444"/>
<stop offset="1" stop-color="#F36F56"/>
</linearGradient>
<linearGradient id="paint19_linear_145_5545" x1="198.925" y1="144.423" x2="140.988" y2="144.423" gradientUnits="userSpaceOnUse">
<stop stop-color="#FFC444"/>
<stop offset="1" stop-color="#F36F56"/>
</linearGradient>
<linearGradient id="paint20_linear_145_5545" x1="140.988" y1="144.423" x2="96.7812" y2="144.423" gradientUnits="userSpaceOnUse">
<stop stop-color="#FFC444"/>
<stop offset="1" stop-color="#F36F56"/>
</linearGradient>
<linearGradient id="paint21_linear_145_5545" x1="198.925" y1="145.057" x2="146.34" y2="145.057" gradientUnits="userSpaceOnUse">
<stop stop-color="#FFC444"/>
<stop offset="1" stop-color="#F36F56"/>
</linearGradient>
<linearGradient id="paint22_linear_145_5545" x1="135.372" y1="164.834" x2="56.8295" y2="164.834" gradientUnits="userSpaceOnUse">
<stop offset="0.01" stop-color="#D8DEE8"/>
<stop offset="1" stop-color="#F4F7FA"/>
</linearGradient>
<linearGradient id="paint23_linear_145_5545" x1="96.6117" y1="166.238" x2="132.868" y2="223.628" gradientUnits="userSpaceOnUse">
<stop offset="0.01" stop-color="#D8DEE8"/>
<stop offset="1" stop-color="#F4F7FA"/>
</linearGradient>
<linearGradient id="paint24_linear_145_5545" x1="26.4244" y1="100.475" x2="40.0001" y2="100.475" gradientUnits="userSpaceOnUse">
<stop stop-color="#FFC444"/>
<stop offset="1" stop-color="#F36F56"/>
</linearGradient>
<clipPath id="clip0_145_5545">
<rect width="208" height="205" fill="white"/>
</clipPath>
</defs>
</svg>
