<svg width="101" height="203" viewBox="0 0 101 203" fill="none" xmlns="http://www.w3.org/2000/svg">
<path id="Vector" d="M66.1264 133.692C64.8442 153.549 63.5451 173.422 62.2292 193.313C61.7484 200.645 56.9148 204.095 51.5751 200.695C43.7712 195.763 36.2515 190.393 29.052 184.611C26.3915 182.168 24.2952 179.173 22.9096 175.833C21.5239 172.494 20.8824 168.892 21.0298 165.278C22.835 148.906 24.6402 132.441 26.4454 115.882C26.619 114.021 26.4821 112.143 26.0405 110.326C17.9423 75.8227 9.94541 45.0739 1.16397 19.4499C0.692507 18.1478 0.507986 16.7589 0.623105 15.3785C0.738224 13.9982 1.15025 12.6592 1.83083 11.4538C2.51141 10.2483 3.44439 9.20497 4.5656 8.39551C5.6868 7.58604 6.96961 7.02968 8.32578 6.76469C16.0865 5.22556 23.9232 3.38198 31.8358 1.23396C36.8971 -0.186777 41.6042 3.51729 42.414 9.8345V10.7478C43.9577 22.9763 57.8764 24.0673 60.7108 10.7478C62.1786 3.99933 67.3918 -0.567334 72.3772 0.726553C79.5474 2.63778 86.7346 4.63358 93.9386 6.71395C99.5061 8.28691 102.442 17.1412 100.139 25.2343C89.4846 62.4526 78.2737 97.5144 66.9615 129.557C66.493 130.89 66.212 132.282 66.1264 133.692Z" fill="#F8BF21"/>
</svg>
