<svg width="127" height="182" viewBox="0 0 127 182" fill="none" xmlns="http://www.w3.org/2000/svg">
<path id="Vector" d="M121.136 134.665C115.506 130.112 117.071 124.194 120.101 114.908C123.181 105.439 127.022 93.6609 114.099 86.1207C99.0721 77.3554 100.869 72.6624 106.821 57.1267C107.691 54.8588 108.676 52.2847 109.653 49.5451C115.084 34.3487 108.56 11.8521 96.2241 3.25246C89.5181 -1.42399 81.9924 -1.04325 75.5927 4.30362C66.5272 11.877 71.8506 24.1681 79.1775 38.2637C81.2639 42.278 77.9854 46.3088 72.4715 52.5496C64.9127 61.0996 54.5556 72.8114 66.494 89.2079C71.627 96.2516 74.2101 101.209 75.2036 104.967C73.9535 104.115 72.5791 103.593 71.0723 103.502C67.2391 103.246 63.6874 104.512 60.8063 107.152C58.927 108.874 57.4119 111.133 56.3439 113.749C47.8082 101.127 35.7787 88.6699 25.1153 86.0379C21.0586 85.0364 17.3413 85.533 14.3443 87.4615C9.91497 90.3253 6.91795 95.6143 5.91619 102.368C4.31833 113.128 7.80381 125.999 15.1805 137.52C9.71627 137.255 5.17935 138.844 2.48866 142.205C0.170523 145.102 -2.60296 151.649 4.82335 162.996C15.197 178.847 28.667 182 37.7409 182C42.8491 182 46.5663 180.999 47.5598 180.701C60.1109 177.953 70.0209 171 76.3875 160.538C81.5288 166.166 88.8972 169.494 96.9858 169.742C97.317 169.75 97.6398 169.759 97.9627 169.759C107.111 169.759 115.655 165.844 121.541 158.924C125.499 154.273 127.37 149.389 126.939 144.812C126.583 140.963 124.572 137.462 121.128 134.681L121.136 134.665Z" fill="white"/>
</svg>
