<svg width="158" height="240" viewBox="0 0 158 240" fill="none" xmlns="http://www.w3.org/2000/svg">
<path id="Vector" d="M117.595 0.3018C125.187 1.54495 132.501 2.63587 139.916 3.52383C142.195 3.86204 144.286 4.98287 145.832 6.6949C147.378 8.40693 148.283 10.604 148.393 12.9109C151.312 56.9876 154.248 101.174 157.2 145.471C157.057 152.482 154.54 159.236 150.064 164.625C143.797 171.661 137.121 178.32 130.071 184.566C125.01 189.082 120.429 186.393 120.176 179.112V177.691C119.772 164.651 106.334 167.543 102.259 182.41L101.196 186.368C100.136 191.087 97.3449 195.235 93.3766 197.987C90.0023 199.916 86.6281 201.742 83.2539 203.467C82.47 203.93 81.5991 204.224 80.696 204.332C79.7929 204.44 78.8772 204.36 78.0069 204.095C77.1365 203.83 76.3304 203.388 75.6392 202.795C74.9481 202.202 74.3871 201.472 73.9916 200.651L72.5744 198.114C66.5008 187.535 52.329 198.469 53.9486 213.641V213.895C54.8344 222.115 50.431 231.07 44.2561 233.049C35.557 235.794 26.711 238.047 17.7599 239.798C11.7369 240.99 6.67557 234.876 6.44781 226.478C4.60885 159.247 2.77833 91.9225 0.956248 24.5051C0.7791 16.894 3.96775 10.5514 8.54828 9.2829C15.9632 7.15179 23.3527 4.99532 30.717 2.91495C34.8926 1.74792 39.1948 5.14754 41.2699 11.1096C51.3926 40.4377 61.8696 68.4972 72.4985 94.5779C76.6994 104.904 87.6825 101.25 90.0614 89.6307C96.1856 60.5563 102.082 33.1564 108.054 8.01438C109.294 2.63587 113.242 -0.43394 117.595 0.3018Z" fill="#F8BF21"/>
</svg>
