<svg width="18" height="20" viewBox="0 0 18 20" fill="none" xmlns="http://www.w3.org/2000/svg">
<g id="Group 1000004020">
<g id="Group 1000004013">
<path id="&#226;&#134;&#179; Icon Color" d="M9.00021 6.32129C10.4803 6.32129 11.6788 7.51979 11.6788 8.99986C11.6788 10.4799 10.4803 11.6784 9.00021 11.6784C7.52014 11.6784 6.32164 10.4799 6.32164 8.99986C6.32164 7.51979 7.52014 6.32129 9.00021 6.32129ZM2.89307 18.4241V17.5713C2.89307 16.5403 3.65879 15.7642 4.99948 15.211C6.31274 14.6692 7.92392 14.4641 9.00021 14.4641C10.0765 14.4641 11.6877 14.6692 13.0009 15.211C14.3416 15.7642 15.1074 16.5403 15.1074 17.5713V18.4241C15.1074 18.4857 15.0575 18.5356 14.9959 18.5356H3.0045C2.94295 18.5356 2.89307 18.4857 2.89307 18.4241Z" stroke="white" stroke-width="1.5"/>
<path id="Ellipse 466" d="M15.2857 13.5714C16.4014 12.1963 17 10.9088 17 9C17 4.58172 13.4183 1 9 1C4.58172 1 1 4.58172 1 9C1 10.8275 1.68303 12.2244 2.71429 13.5714" stroke="white" stroke-width="1.5" stroke-linecap="round"/>
</g>
</g>
</svg>
