<svg width="18" height="18" viewBox="0 0 18 18" fill="none" xmlns="http://www.w3.org/2000/svg">
<g id="Group 1000004014">
<path id="&#226;&#134;&#179; Icon Color" d="M8.10288 1.05235C8.63505 0.649216 9.36496 0.649216 9.89712 1.05235L16.6471 6.1657C17.0251 6.45204 17.25 6.90366 17.25 7.38594V16.8637C17.25 17.0841 17.0751 17.25 16.875 17.25H12.375C12.1749 17.25 12 17.0841 12 16.8637V12.3765C12 10.7042 10.6539 9.37715 9 9.37715C7.34613 9.37715 6 10.7042 6 12.3765V16.8637C6 17.0841 5.82506 17.25 5.625 17.25H1.125C0.924939 17.25 0.75 17.0841 0.75 16.8637V7.38594C0.75 6.90366 0.974883 6.45204 1.35288 6.1657L8.10288 1.05235Z" fill="white" stroke="white" stroke-width="1.5"/>
</g>
</svg>
